<svg width="143" height="139" viewBox="0 0 143 139" fill="none" xmlns="http://www.w3.org/2000/svg">
<path d="M134.074 139L124.923 124.294L142.234 123.722L134.074 139ZM3.59569 0.862849C4.22372 0.322601 5.17081 0.393762 5.71104 1.02179C6.2513 1.64982 6.18013 2.5969 5.55211 3.13715L4.5739 2L3.59569 0.862849ZM86.0739 85.5L87.5733 85.544C87.5189 87.3974 87.0116 88.9986 85.8579 90.1127C84.6986 91.2322 83.1387 91.6173 81.5025 91.5737C78.3184 91.4887 74.126 89.7676 69.4933 87.1141C60.1205 81.7455 48.0023 71.9947 36.5845 60.9533C25.1627 49.908 14.3355 37.4686 7.59159 26.6695C4.2276 21.2827 1.81361 16.2011 0.902405 11.8421C-0.00895691 7.48247 0.531998 3.49832 3.59569 0.862849L4.5739 2L5.55211 3.13715C3.67525 4.75168 3.03383 7.37691 3.83893 11.2282C4.64415 15.0802 6.84544 19.811 10.1362 25.0805C16.7017 35.5939 27.3418 47.842 38.6699 58.7967C50.0022 69.7553 61.9167 79.317 70.9844 84.5109C75.5721 87.1386 79.2019 88.5113 81.5825 88.5748C82.7288 88.6053 83.3869 88.3284 83.7739 87.9547C84.1665 87.5756 84.5336 86.8526 84.5746 85.456L86.0739 85.5ZM133.628 125.509L132.16 125.818C131.161 121.07 129.075 118.626 126.055 117.332C122.861 115.962 118.421 115.784 112.51 116.188C100.871 116.985 84.1688 120.006 63.4648 118.496L63.5739 117L63.683 115.504C84.1095 116.993 100.278 114.019 112.305 113.195C118.227 112.79 123.319 112.895 127.237 114.574C131.33 116.329 133.938 119.698 135.096 125.2L133.628 125.509ZM63.5739 117L63.4648 118.496C57.3489 118.05 52.9154 116.79 49.9599 114.824C46.9231 112.804 45.4956 110.061 45.4469 106.969C45.3999 103.983 46.6379 100.837 48.5322 97.8384C50.4405 94.8182 53.0987 91.8151 56.0991 89.0791C62.071 83.6335 69.6216 79.0471 75.7649 77.506C78.805 76.7434 81.8085 76.6496 84.094 77.9386C86.5268 79.3105 87.6784 81.9571 87.5733 85.544L86.0739 85.5L84.5746 85.456C84.66 82.5429 83.7514 81.1895 82.6204 80.5517C81.3422 79.8308 79.2784 79.7176 76.4949 80.4159C70.9908 81.7966 63.8688 86.054 58.1205 91.2959C55.2607 93.9036 52.7969 96.7052 51.0684 99.4409C49.3259 102.199 48.4125 104.759 48.4466 106.922C48.4789 108.978 49.3651 110.825 51.6216 112.326C53.9594 113.882 57.799 115.075 63.683 115.504L63.5739 117Z" fill="url(#paint0_linear_317_1927)"/>
<defs>
<linearGradient id="paint0_linear_317_1927" x1="69.4428" y1="2" x2="69.4428" y2="139" gradientUnits="userSpaceOnUse">
<stop stop-color="#544DF2" stop-opacity="0"/>
<stop offset="1" stop-color="#544DF2"/>
</linearGradient>
</defs>
</svg>
