<svg width="142" height="139" viewBox="0 0 142 139" fill="none" xmlns="http://www.w3.org/2000/svg">
<path d="M8.23772 139L17.3884 124.294L0.0773492 123.722L8.23772 139ZM138.716 0.862849C138.088 0.322601 137.141 0.393762 136.601 1.02179C136.06 1.64982 136.132 2.5969 136.76 3.13715L137.738 2L138.716 0.862849ZM56.2377 85.5L54.7384 85.544C54.7927 87.3974 55.3001 88.9986 56.4538 90.1127C57.613 91.2322 59.173 91.6173 60.8091 91.5737C63.9933 91.4887 68.1857 89.7676 72.8183 87.1141C82.1911 81.7455 94.3094 71.9947 105.727 60.9533C117.149 49.908 127.976 37.4686 134.72 26.6695C138.084 21.2827 140.498 16.2011 141.409 11.8421C142.321 7.48247 141.78 3.49832 138.716 0.862849L137.738 2L136.76 3.13715C138.636 4.75168 139.278 7.37691 138.473 11.2282C137.667 15.0802 135.466 19.811 132.175 25.0805C125.61 35.5939 114.97 47.842 103.642 58.7967C92.3095 69.7553 80.3949 79.317 71.3272 84.5109C66.7396 87.1386 63.1097 88.5113 60.7291 88.5748C59.5828 88.6053 58.9247 88.3284 58.5377 87.9547C58.1452 87.5756 57.778 86.8526 57.7371 85.456L56.2377 85.5ZM8.68331 125.509L10.1512 125.818C11.1504 121.07 13.2363 118.626 16.2563 117.332C19.4507 115.962 23.8907 115.784 29.8019 116.188C41.4407 116.985 58.1429 120.006 78.8468 118.496L78.7377 117L78.6286 115.504C58.2021 116.993 42.0341 114.019 30.0068 113.195C24.0851 112.79 18.993 112.895 15.0744 114.574C10.9814 116.329 8.37329 119.698 7.21546 125.2L8.68331 125.509ZM78.7377 117L78.8468 118.496C84.9628 118.05 89.3962 116.79 92.3518 114.824C95.3886 112.804 96.816 110.061 96.8647 106.969C96.9117 103.983 95.6737 100.837 93.7794 97.8384C91.8712 94.8182 89.213 91.8151 86.2126 89.0791C80.2407 83.6335 72.69 79.0471 66.5468 77.506C63.5067 76.7434 60.5031 76.6496 58.2176 77.9386C55.7848 79.3105 54.6332 81.9571 54.7384 85.544L56.2377 85.5L57.7371 85.456C57.6517 82.5429 58.5603 81.1895 59.6912 80.5517C60.9695 79.8308 63.0332 79.7176 65.8168 80.4159C71.3208 81.7966 78.4428 86.054 84.1912 91.2959C87.0509 93.9036 89.5148 96.7052 91.2433 99.4409C92.9857 102.199 93.8991 104.759 93.8651 106.922C93.8327 108.978 92.9466 110.825 90.6901 112.326C88.3523 113.882 84.5127 115.075 78.6286 115.504L78.7377 117Z" fill="url(#paint0_linear_317_1926)"/>
<defs>
<linearGradient id="paint0_linear_317_1926" x1="72.8688" y1="2" x2="72.8688" y2="139" gradientUnits="userSpaceOnUse">
<stop stop-color="#544DF2" stop-opacity="0"/>
<stop offset="1" stop-color="#544DF2"/>
</linearGradient>
</defs>
</svg>
