<svg width="651" height="511" viewBox="0 0 651 511" fill="none" xmlns="http://www.w3.org/2000/svg">
<g clip-path="url(#clip0_256_522)">
<path d="M5 25C5 13.9543 13.9543 5 25 5H626C637.046 5 646 13.9543 646 25V486C646 497.046 637.046 506 626 506H25C13.9543 506 5 497.046 5 486V25Z" fill="#FAFAFF"/>
<g filter="url(#filter0_d_256_522)">
<rect x="202" y="102" width="275" height="374" rx="11" fill="white"/>
</g>
<g filter="url(#filter1_dii_256_522)">
<path d="M384.5 180C386.985 180 389 182.015 389 184.5C389 186.985 386.985 189 384.5 189H225.5C223.015 189 221 186.985 221 184.5C221 182.015 223.015 180 225.5 180H384.5Z" fill="#E4E4FF"/>
</g>
<g filter="url(#filter2_dii_256_522)">
<path d="M384.5 208C386.985 208 389 210.015 389 212.5C389 214.985 386.985 217 384.5 217H225.5C223.015 217 221 214.985 221 212.5C221 210.015 223.015 208 225.5 208H384.5Z" fill="#E4E4FF"/>
</g>
<g filter="url(#filter3_dii_256_522)">
<path d="M384.5 236C386.985 236 389 238.015 389 240.5C389 242.985 386.985 245 384.5 245H225.5C223.015 245 221 242.985 221 240.5C221 238.015 223.015 236 225.5 236H384.5Z" fill="#E4E4FF"/>
</g>
<g filter="url(#filter4_dii_256_522)">
<path d="M262.5 264C267.747 264 272 268.253 272 273.5C272 278.747 267.747 283 262.5 283H230.5C225.253 283 221 278.747 221 273.5C221 268.253 225.253 264 230.5 264H262.5Z" fill="#E4E4FF"/>
</g>
<g filter="url(#filter5_ii_256_522)">
<rect x="218" y="118" width="114" height="40" rx="9" fill="#F7F7FF"/>
<rect x="218.5" y="118.5" width="113" height="39" rx="8.5" stroke="#544DF2" stroke-opacity="0.11"/>
<path d="M239.727 144.5H235.291V131.409H239.817C241.116 131.409 242.233 131.671 243.166 132.195C244.104 132.715 244.824 133.463 245.327 134.439C245.83 135.415 246.081 136.582 246.081 137.942C246.081 139.305 245.827 140.477 245.32 141.457C244.817 142.437 244.091 143.19 243.141 143.714C242.195 144.238 241.057 144.5 239.727 144.5ZM237.663 142.448H239.612C240.524 142.448 241.285 142.282 241.894 141.95C242.504 141.613 242.962 141.112 243.268 140.447C243.575 139.778 243.729 138.943 243.729 137.942C243.729 136.94 243.575 136.109 243.268 135.449C242.962 134.784 242.508 134.288 241.907 133.96C241.31 133.627 240.569 133.461 239.683 133.461H237.663V142.448ZM254.49 140.371V134.682H256.804V144.5H254.56V142.755H254.458C254.236 143.305 253.872 143.754 253.365 144.104C252.862 144.453 252.242 144.628 251.505 144.628C250.861 144.628 250.292 144.485 249.798 144.2C249.308 143.91 248.924 143.49 248.647 142.94C248.37 142.386 248.232 141.717 248.232 140.933V134.682H250.546V140.575C250.546 141.197 250.716 141.692 251.057 142.058C251.398 142.425 251.846 142.608 252.4 142.608C252.74 142.608 253.071 142.525 253.39 142.359C253.71 142.192 253.972 141.945 254.176 141.617C254.385 141.285 254.49 140.869 254.49 140.371ZM263.53 144.692C262.545 144.692 261.695 144.487 260.979 144.078C260.268 143.665 259.72 143.081 259.336 142.327C258.953 141.568 258.761 140.675 258.761 139.648C258.761 138.638 258.953 137.752 259.336 136.989C259.724 136.222 260.265 135.626 260.96 135.2C261.655 134.769 262.471 134.554 263.408 134.554C264.013 134.554 264.584 134.652 265.121 134.848C265.662 135.04 266.14 135.338 266.553 135.743C266.971 136.148 267.299 136.663 267.537 137.29C267.776 137.912 267.895 138.653 267.895 139.514V140.224H259.848V138.664H265.677C265.673 138.221 265.577 137.827 265.39 137.482C265.202 137.132 264.94 136.857 264.604 136.657C264.271 136.457 263.883 136.357 263.44 136.357C262.967 136.357 262.552 136.472 262.194 136.702C261.836 136.928 261.557 137.226 261.356 137.597C261.16 137.963 261.06 138.366 261.056 138.805V140.166C261.056 140.737 261.16 141.227 261.369 141.636C261.578 142.041 261.87 142.352 262.245 142.57C262.62 142.783 263.059 142.889 263.562 142.889C263.898 142.889 264.203 142.842 264.476 142.749C264.748 142.651 264.985 142.508 265.185 142.32C265.385 142.133 265.537 141.901 265.639 141.624L267.8 141.866C267.663 142.437 267.403 142.936 267.02 143.362C266.64 143.784 266.155 144.112 265.562 144.347C264.97 144.577 264.292 144.692 263.53 144.692ZM282.078 137.277L279.968 137.507C279.909 137.294 279.804 137.094 279.655 136.906C279.51 136.719 279.314 136.567 279.067 136.452C278.82 136.337 278.517 136.28 278.159 136.28C277.678 136.28 277.273 136.384 276.945 136.593C276.621 136.802 276.461 137.072 276.466 137.405C276.461 137.69 276.566 137.923 276.779 138.102C276.996 138.281 277.354 138.428 277.853 138.543L279.527 138.901C280.456 139.101 281.147 139.418 281.598 139.853C282.054 140.288 282.284 140.857 282.289 141.56C282.284 142.178 282.103 142.723 281.745 143.196C281.392 143.665 280.9 144.031 280.269 144.295C279.638 144.56 278.914 144.692 278.096 144.692C276.894 144.692 275.926 144.44 275.194 143.938C274.461 143.43 274.024 142.725 273.883 141.822L276.14 141.604C276.242 142.048 276.459 142.382 276.792 142.608C277.124 142.834 277.556 142.947 278.089 142.947C278.639 142.947 279.08 142.834 279.412 142.608C279.749 142.382 279.917 142.103 279.917 141.771C279.917 141.489 279.809 141.257 279.591 141.074C279.378 140.891 279.046 140.75 278.594 140.652L276.919 140.3C275.978 140.104 275.281 139.774 274.829 139.31C274.377 138.841 274.154 138.249 274.158 137.533C274.154 136.928 274.318 136.403 274.65 135.96C274.987 135.513 275.453 135.168 276.05 134.925C276.651 134.678 277.343 134.554 278.127 134.554C279.278 134.554 280.184 134.799 280.844 135.289C281.509 135.779 281.92 136.442 282.078 137.277ZM288.479 144.692C287.521 144.692 286.69 144.481 285.987 144.059C285.283 143.637 284.738 143.047 284.35 142.288C283.967 141.53 283.775 140.643 283.775 139.629C283.775 138.615 283.967 137.727 284.35 136.964C284.738 136.201 285.283 135.609 285.987 135.187C286.69 134.765 287.521 134.554 288.479 134.554C289.438 134.554 290.269 134.765 290.972 135.187C291.675 135.609 292.219 136.201 292.602 136.964C292.99 137.727 293.184 138.615 293.184 139.629C293.184 140.643 292.99 141.53 292.602 142.288C292.219 143.047 291.675 143.637 290.972 144.059C290.269 144.481 289.438 144.692 288.479 144.692ZM288.492 142.838C289.012 142.838 289.447 142.695 289.796 142.41C290.146 142.12 290.406 141.732 290.576 141.246C290.751 140.761 290.838 140.219 290.838 139.623C290.838 139.022 290.751 138.479 290.576 137.993C290.406 137.503 290.146 137.113 289.796 136.823C289.447 136.533 289.012 136.388 288.492 136.388C287.96 136.388 287.516 136.533 287.163 136.823C286.813 137.113 286.551 137.503 286.376 137.993C286.206 138.479 286.121 139.022 286.121 139.623C286.121 140.219 286.206 140.761 286.376 141.246C286.551 141.732 286.813 142.12 287.163 142.41C287.516 142.695 287.96 142.838 288.492 142.838ZM299.431 144.692C298.472 144.692 297.641 144.481 296.938 144.059C296.235 143.637 295.689 143.047 295.301 142.288C294.918 141.53 294.726 140.643 294.726 139.629C294.726 138.615 294.918 137.727 295.301 136.964C295.689 136.201 296.235 135.609 296.938 135.187C297.641 134.765 298.472 134.554 299.431 134.554C300.389 134.554 301.22 134.765 301.923 135.187C302.627 135.609 303.17 136.201 303.553 136.964C303.941 137.727 304.135 138.615 304.135 139.629C304.135 140.643 303.941 141.53 303.553 142.288C303.17 143.047 302.627 143.637 301.923 144.059C301.22 144.481 300.389 144.692 299.431 144.692ZM299.443 142.838C299.963 142.838 300.398 142.695 300.747 142.41C301.097 142.12 301.357 141.732 301.527 141.246C301.702 140.761 301.789 140.219 301.789 139.623C301.789 139.022 301.702 138.479 301.527 137.993C301.357 137.503 301.097 137.113 300.747 136.823C300.398 136.533 299.963 136.388 299.443 136.388C298.911 136.388 298.468 136.533 298.114 136.823C297.764 137.113 297.502 137.503 297.328 137.993C297.157 138.479 297.072 139.022 297.072 139.623C297.072 140.219 297.157 140.761 297.328 141.246C297.502 141.732 297.764 142.12 298.114 142.41C298.468 142.695 298.911 142.838 299.443 142.838ZM308.413 138.747V144.5H306.099V134.682H308.311V136.35H308.426C308.652 135.8 309.012 135.364 309.506 135.04C310.005 134.716 310.62 134.554 311.353 134.554C312.031 134.554 312.621 134.699 313.124 134.989C313.631 135.278 314.023 135.698 314.3 136.248C314.581 136.798 314.72 137.464 314.716 138.249V144.5H312.402V138.607C312.402 137.95 312.231 137.437 311.89 137.066C311.554 136.695 311.087 136.51 310.49 136.51C310.086 136.51 309.725 136.599 309.41 136.778C309.099 136.953 308.854 137.207 308.675 137.539C308.5 137.871 308.413 138.274 308.413 138.747Z" fill="#5B55F3"/>
</g>
<path d="M414.833 186.167L413.042 184.375C412.889 184.222 412.694 184.146 412.458 184.146C412.222 184.146 412.028 184.222 411.875 184.375C411.722 184.528 411.646 184.722 411.646 184.958C411.646 185.194 411.722 185.389 411.875 185.542L414.25 187.917C414.417 188.083 414.611 188.167 414.833 188.167C415.056 188.167 415.25 188.083 415.417 187.917L420.125 183.208C420.278 183.056 420.354 182.861 420.354 182.625C420.354 182.389 420.278 182.194 420.125 182.042C419.972 181.889 419.778 181.813 419.542 181.813C419.306 181.813 419.111 181.889 418.958 182.042L414.833 186.167ZM410.167 192.5C409.708 192.5 409.316 192.337 408.99 192.011C408.664 191.685 408.501 191.292 408.5 190.833V179.167C408.5 178.708 408.663 178.316 408.99 177.99C409.317 177.664 409.709 177.501 410.167 177.5H421.833C422.292 177.5 422.684 177.663 423.011 177.99C423.338 178.317 423.501 178.709 423.5 179.167V190.833C423.5 191.292 423.337 191.684 423.011 192.011C422.685 192.338 422.292 192.501 421.833 192.5H410.167Z" fill="#544DF2"/>
<path d="M414.833 214.167L413.042 212.375C412.889 212.222 412.694 212.146 412.458 212.146C412.222 212.146 412.028 212.222 411.875 212.375C411.722 212.528 411.646 212.722 411.646 212.958C411.646 213.194 411.722 213.389 411.875 213.542L414.25 215.917C414.417 216.083 414.611 216.167 414.833 216.167C415.056 216.167 415.25 216.083 415.417 215.917L420.125 211.208C420.278 211.056 420.354 210.861 420.354 210.625C420.354 210.389 420.278 210.194 420.125 210.042C419.972 209.889 419.778 209.813 419.542 209.813C419.306 209.813 419.111 209.889 418.958 210.042L414.833 214.167ZM410.167 220.5C409.708 220.5 409.316 220.337 408.99 220.011C408.664 219.685 408.501 219.292 408.5 218.833V207.167C408.5 206.708 408.663 206.316 408.99 205.99C409.317 205.664 409.709 205.501 410.167 205.5H421.833C422.292 205.5 422.684 205.663 423.011 205.99C423.338 206.317 423.501 206.709 423.5 207.167V218.833C423.5 219.292 423.337 219.684 423.011 220.011C422.685 220.338 422.292 220.501 421.833 220.5H410.167Z" fill="#544DF2"/>
<path d="M410.167 234H421.833C422.158 234 422.423 234.11 422.657 234.344C422.891 234.577 423 234.842 423 235.166V246.833C423 247.158 422.89 247.424 422.657 247.657C422.424 247.89 422.159 248 421.834 248H410.167C409.842 248 409.577 247.89 409.344 247.657C409.111 247.424 409 247.159 409 246.833V235.167C409 234.843 409.109 234.577 409.343 234.344C409.548 234.139 409.777 234.029 410.049 234.005L410.167 234ZM419.542 237.312C419.187 237.312 418.86 237.433 418.604 237.688L414.833 241.459L413.396 240.021C413.14 239.766 412.813 239.646 412.458 239.646C412.103 239.646 411.777 239.766 411.521 240.021C411.266 240.277 411.146 240.603 411.146 240.958C411.146 241.313 411.266 241.64 411.521 241.896L413.896 244.271C414.151 244.524 414.47 244.667 414.833 244.667C415.197 244.667 415.516 244.525 415.771 244.271L420.479 239.562C420.734 239.306 420.854 238.98 420.854 238.625C420.854 238.27 420.734 237.944 420.479 237.688C420.223 237.433 419.897 237.313 419.542 237.312Z" fill="#DFDFDF" stroke="#EFEFEF"/>
<path d="M479.039 175.213L495.097 181.705L492.69 164.552L479.039 175.213ZM612.948 246.895C613.166 246.095 612.694 245.271 611.895 245.053C611.096 244.835 610.271 245.306 610.053 246.105L611.5 246.5L612.948 246.895ZM621.86 201.485L621.607 200.007C614.653 201.193 610.328 205.259 607.856 210.497C605.421 215.66 604.785 221.939 605.003 227.752C605.222 233.584 606.307 239.1 607.446 242.839C608.005 244.677 608.613 246.205 609.195 247.126C609.346 247.363 609.524 247.609 609.735 247.821C609.92 248.007 610.271 248.311 610.782 248.417C611.431 248.553 612.028 248.311 612.419 247.893C612.734 247.558 612.875 247.161 612.948 246.895L611.5 246.5L610.053 246.105C610.032 246.183 610.055 246.029 610.231 245.841C610.484 245.571 610.922 245.382 611.394 245.48C611.574 245.518 611.698 245.586 611.761 245.627C611.825 245.668 611.858 245.701 611.86 245.704C611.861 245.705 611.816 245.657 611.731 245.523C611.373 244.956 610.858 243.747 610.315 241.965C609.249 238.462 608.21 233.201 608.001 227.639C607.792 222.057 608.424 216.325 610.569 211.777C612.679 207.307 616.246 203.965 622.112 202.964L621.86 201.485ZM492.413 173.337L492.486 174.835C506.759 174.131 517.135 178.55 525.09 188.062C533.137 197.685 538.803 212.633 543.237 233.19L544.703 232.874L546.169 232.557C541.71 211.883 535.922 196.338 527.391 186.138C518.769 175.827 507.446 171.094 492.339 171.838L492.413 173.337ZM544.703 232.874L543.237 233.19C544.565 239.352 547.298 243.595 551.165 246.11C555.007 248.609 559.744 249.255 564.81 248.692C574.891 247.572 586.87 241.601 597.538 234.426C608.238 227.231 617.854 218.666 623.21 212.11C624.552 210.466 625.652 208.919 626.437 207.526C627.203 206.167 627.751 204.814 627.82 203.593C627.856 202.96 627.767 202.296 627.449 201.684C627.122 201.056 626.61 200.59 625.988 200.286C624.825 199.719 623.292 199.719 621.607 200.007L621.86 201.485L622.112 202.964C623.632 202.705 624.381 202.84 624.672 202.982C624.777 203.033 624.786 203.066 624.786 203.067C624.795 203.083 624.838 203.179 624.825 203.423C624.794 203.956 624.515 204.826 623.823 206.053C623.151 207.247 622.163 208.649 620.886 210.212C615.764 216.482 606.391 224.858 595.864 231.937C585.307 239.037 573.823 244.673 564.479 245.711C559.833 246.227 555.868 245.59 552.801 243.595C549.759 241.617 547.377 238.157 546.169 232.557L544.703 232.874Z" fill="url(#paint0_linear_256_522)"/>
<path d="M811 283H715.407C713.198 283 711.407 281.209 711.407 279V196C711.407 193.791 709.616 192 707.407 192H547.249C545.04 192 543.249 190.209 543.249 188V123C543.249 120.791 541.458 119 539.249 119H415.126C412.916 119 411.126 117.209 411.126 115V53C411.126 50.7909 409.335 49 407.126 49H281C278.791 49 277 47.2091 277 45V5" stroke="url(#paint1_linear_256_522)" stroke-width="3"/>
<path d="M435 511H530.593C532.802 511 534.593 509.209 534.593 507V424C534.593 421.791 536.384 420 538.593 420H698.751C700.96 420 702.751 418.209 702.751 416V351C702.751 348.791 704.542 347 706.751 347H830.874C833.084 347 834.874 345.209 834.874 343V281C834.874 278.791 836.665 277 838.874 277H965C967.209 277 969 275.209 969 273V233" stroke="url(#paint2_linear_256_522)" stroke-width="3"/>
<g filter="url(#filter6_dii_256_522)">
<rect x="510" y="38" width="90" height="83" rx="33.7143" fill="white" shape-rendering="crispEdges"/>
<rect x="510" y="38" width="90" height="83" rx="33.7143" fill="#544DF2" shape-rendering="crispEdges"/>
<path d="M563.75 94.5C563.75 95.6491 563.523 96.7869 563.083 97.8485C562.644 98.9101 561.999 99.8747 561.187 100.687C560.374 101.5 559.41 102.144 558.348 102.584C557.286 103.024 556.149 103.25 555 103.25C553.85 103.25 552.713 103.024 551.651 102.584C550.589 102.144 549.625 101.5 548.812 100.687C548 99.8747 547.355 98.9101 546.916 97.8485C546.476 96.7869 546.25 95.6491 546.25 94.5M573.077 94.5H536.925C536.05 94.4996 535.195 94.24 534.468 93.7538C533.741 93.2677 533.175 92.5769 532.84 91.7688C532.506 90.9608 532.418 90.0717 532.589 89.2139C532.76 88.3562 533.181 87.5683 533.8 86.95L535.305 85.4425C536.71 84.0359 537.5 82.1286 537.5 80.14V73.25C537.5 68.6087 539.343 64.1575 542.625 60.8756C545.907 57.5937 550.358 55.75 555 55.75C559.641 55.75 564.092 57.5937 567.374 60.8756C570.656 64.1575 572.5 68.6087 572.5 73.25V80.14C572.5 82.129 573.29 84.0363 574.697 85.4425L576.205 86.95C576.822 87.5688 577.242 88.3566 577.412 89.2139C577.582 90.0712 577.495 90.9597 577.16 91.7673C576.826 92.5749 576.26 93.2654 575.534 93.7517C574.808 94.2381 573.951 94.4984 573.077 94.5Z" stroke="white" stroke-width="3" stroke-linecap="round" stroke-linejoin="round"/>
</g>
<g filter="url(#filter7_d_256_522)">
<path d="M6 333H702V493C702 500.18 696.18 506 689 506H19C11.8203 506 6 500.18 6 493V333Z" fill="white"/>
</g>
<path d="M47.0455 420C46.858 419.426 46.6108 418.912 46.304 418.457C46.0028 417.997 45.642 417.605 45.2216 417.281C44.8068 416.957 44.3352 416.71 43.8068 416.54C43.2784 416.369 42.6989 416.284 42.0682 416.284C41.0341 416.284 40.0938 416.551 39.2472 417.085C38.4006 417.619 37.7273 418.406 37.2273 419.446C36.7273 420.486 36.4773 421.761 36.4773 423.273C36.4773 424.784 36.7301 426.06 37.2358 427.099C37.7415 428.139 38.4261 428.926 39.2898 429.46C40.1534 429.994 41.125 430.261 42.2045 430.261C43.2045 430.261 44.0852 430.048 44.8466 429.622C45.6136 429.19 46.2102 428.582 46.6364 427.798C47.0682 427.009 47.2841 426.08 47.2841 425.011L47.9318 425.148H42.6818V423.273H49.3295V425.148C49.3295 426.585 49.0227 427.835 48.4091 428.898C47.8011 429.96 46.9602 430.784 45.8864 431.369C44.8182 431.949 43.5909 432.239 42.2045 432.239C40.6591 432.239 39.3011 431.875 38.1307 431.148C36.9659 430.42 36.0568 429.386 35.4034 428.045C34.7557 426.705 34.4318 425.114 34.4318 423.273C34.4318 421.892 34.6165 420.651 34.9858 419.548C35.3608 418.44 35.8892 417.497 36.571 416.719C37.2528 415.94 38.0597 415.344 38.9915 414.929C39.9233 414.514 40.9489 414.307 42.0682 414.307C42.9886 414.307 43.8466 414.446 44.642 414.724C45.4432 414.997 46.1562 415.386 46.7812 415.892C47.4119 416.392 47.9375 416.991 48.358 417.69C48.7784 418.384 49.0682 419.153 49.2273 420H47.0455ZM58.1655 432.273C56.9041 432.273 55.8161 431.994 54.9013 431.438C53.9922 430.875 53.2905 430.091 52.7962 429.085C52.3075 428.074 52.0632 426.898 52.0632 425.557C52.0632 424.216 52.3075 423.034 52.7962 422.011C53.2905 420.983 53.978 420.182 54.8587 419.608C55.745 419.028 56.7791 418.739 57.9609 418.739C58.6428 418.739 59.3161 418.852 59.9808 419.08C60.6456 419.307 61.2507 419.676 61.7962 420.188C62.3416 420.693 62.7763 421.364 63.1001 422.199C63.424 423.034 63.5859 424.062 63.5859 425.284V426.136H53.495V424.398H61.5405C61.5405 423.659 61.3928 423 61.0973 422.42C60.8075 421.841 60.3928 421.384 59.853 421.048C59.3189 420.713 58.6882 420.545 57.9609 420.545C57.1598 420.545 56.4666 420.744 55.8814 421.142C55.3018 421.534 54.8558 422.045 54.5433 422.676C54.2308 423.307 54.0746 423.983 54.0746 424.705V425.864C54.0746 426.852 54.245 427.69 54.5859 428.378C54.9325 429.06 55.4126 429.58 56.0263 429.938C56.6399 430.29 57.353 430.466 58.1655 430.466C58.6939 430.466 59.1712 430.392 59.5973 430.244C60.0291 430.091 60.4013 429.864 60.7138 429.562C61.0263 429.256 61.2678 428.875 61.4382 428.42L63.3814 428.966C63.1768 429.625 62.8331 430.205 62.3501 430.705C61.8672 431.199 61.2706 431.585 60.5604 431.864C59.8501 432.136 59.0518 432.273 58.1655 432.273ZM72.3388 418.909V420.614H65.5547V418.909H72.3388ZM67.532 415.773H69.5433V428.25C69.5433 428.818 69.6257 429.244 69.7905 429.528C69.9609 429.807 70.1768 429.994 70.4382 430.091C70.7053 430.182 70.9865 430.227 71.282 430.227C71.5036 430.227 71.6854 430.216 71.8274 430.193C71.9695 430.165 72.0831 430.142 72.1683 430.125L72.5774 431.932C72.4411 431.983 72.2507 432.034 72.0064 432.085C71.7621 432.142 71.4524 432.17 71.0774 432.17C70.5092 432.17 69.9524 432.048 69.407 431.804C68.8672 431.56 68.4183 431.188 68.0604 430.688C67.7081 430.188 67.532 429.557 67.532 428.795V415.773ZM91.3871 421.841L89.5803 422.352C89.4666 422.051 89.299 421.759 89.0774 421.474C88.8615 421.185 88.5661 420.946 88.1911 420.759C87.8161 420.571 87.3359 420.477 86.7507 420.477C85.9496 420.477 85.282 420.662 84.7479 421.031C84.2195 421.395 83.9553 421.858 83.9553 422.42C83.9553 422.92 84.1371 423.315 84.5007 423.605C84.8643 423.895 85.4325 424.136 86.2053 424.33L88.1484 424.807C89.3189 425.091 90.1911 425.526 90.7649 426.111C91.3388 426.69 91.6257 427.437 91.6257 428.352C91.6257 429.102 91.4098 429.773 90.978 430.364C90.5518 430.955 89.9553 431.42 89.1882 431.761C88.4212 432.102 87.5291 432.273 86.5121 432.273C85.1768 432.273 84.0717 431.983 83.1967 431.403C82.3217 430.824 81.7678 429.977 81.5348 428.864L83.4439 428.386C83.6257 429.091 83.9695 429.619 84.4751 429.972C84.9865 430.324 85.6541 430.5 86.478 430.5C87.4155 430.5 88.1598 430.301 88.7109 429.903C89.2678 429.5 89.5462 429.017 89.5462 428.455C89.5462 428 89.3871 427.619 89.0689 427.312C88.7507 427 88.2621 426.767 87.603 426.614L85.4212 426.102C84.2223 425.818 83.3416 425.378 82.7791 424.781C82.2223 424.179 81.9439 423.426 81.9439 422.523C81.9439 421.784 82.1513 421.131 82.5661 420.562C82.9865 419.994 83.5575 419.548 84.2791 419.224C85.0064 418.901 85.8303 418.739 86.7507 418.739C88.0462 418.739 89.0632 419.023 89.8018 419.591C90.5462 420.159 91.0746 420.909 91.3871 421.841ZM94.6534 432V418.909H96.5966V420.955H96.767C97.0398 420.256 97.4801 419.713 98.0881 419.327C98.696 418.935 99.4261 418.739 100.278 418.739C101.142 418.739 101.861 418.935 102.435 419.327C103.014 419.713 103.466 420.256 103.79 420.955H103.926C104.261 420.278 104.764 419.741 105.435 419.344C106.105 418.94 106.909 418.739 107.847 418.739C109.017 418.739 109.974 419.105 110.719 419.838C111.463 420.565 111.835 421.699 111.835 423.239V432H109.824V423.239C109.824 422.273 109.56 421.582 109.031 421.168C108.503 420.753 107.881 420.545 107.165 420.545C106.244 420.545 105.531 420.824 105.026 421.381C104.52 421.932 104.267 422.631 104.267 423.477V432H102.222V423.034C102.222 422.29 101.98 421.69 101.497 421.236C101.014 420.776 100.392 420.545 99.6307 420.545C99.108 420.545 98.6193 420.685 98.1648 420.963C97.7159 421.241 97.3523 421.628 97.0739 422.122C96.8011 422.611 96.6648 423.176 96.6648 423.818V432H94.6534ZM119.365 432.307C118.536 432.307 117.783 432.151 117.107 431.838C116.43 431.52 115.893 431.062 115.496 430.466C115.098 429.864 114.899 429.136 114.899 428.284C114.899 427.534 115.047 426.926 115.342 426.46C115.638 425.989 116.033 425.619 116.527 425.352C117.021 425.085 117.567 424.886 118.163 424.756C118.766 424.619 119.371 424.511 119.979 424.432C120.774 424.33 121.419 424.253 121.913 424.202C122.413 424.145 122.777 424.051 123.004 423.92C123.237 423.79 123.354 423.562 123.354 423.239V423.17C123.354 422.33 123.124 421.676 122.663 421.21C122.209 420.744 121.518 420.511 120.592 420.511C119.632 420.511 118.879 420.722 118.334 421.142C117.788 421.562 117.405 422.011 117.183 422.489L115.274 421.807C115.615 421.011 116.07 420.392 116.638 419.949C117.212 419.5 117.837 419.187 118.513 419.011C119.195 418.83 119.865 418.739 120.524 418.739C120.945 418.739 121.428 418.79 121.973 418.892C122.524 418.989 123.055 419.19 123.567 419.497C124.084 419.804 124.513 420.267 124.854 420.886C125.195 421.506 125.365 422.335 125.365 423.375V432H123.354V430.227H123.251C123.115 430.511 122.888 430.815 122.57 431.139C122.251 431.463 121.828 431.739 121.3 431.966C120.771 432.193 120.126 432.307 119.365 432.307ZM119.672 430.5C120.467 430.5 121.138 430.344 121.683 430.031C122.234 429.719 122.649 429.315 122.928 428.821C123.212 428.327 123.354 427.807 123.354 427.261V425.42C123.268 425.523 123.081 425.616 122.791 425.702C122.507 425.781 122.178 425.852 121.803 425.915C121.433 425.972 121.072 426.023 120.72 426.068C120.374 426.108 120.092 426.142 119.876 426.17C119.354 426.239 118.865 426.349 118.411 426.503C117.962 426.651 117.598 426.875 117.32 427.176C117.047 427.472 116.911 427.875 116.911 428.386C116.911 429.085 117.169 429.614 117.686 429.972C118.209 430.324 118.871 430.5 119.672 430.5ZM129.036 432V418.909H130.979V420.886H131.116C131.354 420.239 131.786 419.713 132.411 419.31C133.036 418.906 133.741 418.705 134.525 418.705C134.673 418.705 134.857 418.707 135.079 418.713C135.3 418.719 135.468 418.727 135.582 418.739V420.784C135.513 420.767 135.357 420.741 135.113 420.707C134.874 420.668 134.621 420.648 134.354 420.648C133.718 420.648 133.15 420.781 132.65 421.048C132.156 421.31 131.763 421.673 131.474 422.139C131.19 422.599 131.048 423.125 131.048 423.716V432H129.036ZM144.479 418.909V420.614H137.695V418.909H144.479ZM139.673 415.773H141.684V428.25C141.684 428.818 141.766 429.244 141.931 429.528C142.102 429.807 142.317 429.994 142.579 430.091C142.846 430.182 143.127 430.227 143.423 430.227C143.644 430.227 143.826 430.216 143.968 430.193C144.11 430.165 144.224 430.142 144.309 430.125L144.718 431.932C144.582 431.983 144.391 432.034 144.147 432.085C143.903 432.142 143.593 432.17 143.218 432.17C142.65 432.17 142.093 432.048 141.548 431.804C141.008 431.56 140.559 431.188 140.201 430.688C139.849 430.188 139.673 429.557 139.673 428.795V415.773ZM154.255 432V418.909H156.198V420.886H156.335C156.573 420.239 157.005 419.713 157.63 419.31C158.255 418.906 158.96 418.705 159.744 418.705C159.891 418.705 160.076 418.707 160.298 418.713C160.519 418.719 160.687 418.727 160.8 418.739V420.784C160.732 420.767 160.576 420.741 160.332 420.707C160.093 420.668 159.84 420.648 159.573 420.648C158.937 420.648 158.369 420.781 157.869 421.048C157.374 421.31 156.982 421.673 156.692 422.139C156.408 422.599 156.266 423.125 156.266 423.716V432H154.255ZM168.275 432.273C167.013 432.273 165.925 431.994 165.011 431.438C164.102 430.875 163.4 430.091 162.906 429.085C162.417 428.074 162.173 426.898 162.173 425.557C162.173 424.216 162.417 423.034 162.906 422.011C163.4 420.983 164.087 420.182 164.968 419.608C165.854 419.028 166.888 418.739 168.07 418.739C168.752 418.739 169.425 418.852 170.09 419.08C170.755 419.307 171.36 419.676 171.906 420.188C172.451 420.693 172.886 421.364 173.21 422.199C173.533 423.034 173.695 424.062 173.695 425.284V426.136H163.604V424.398H171.65C171.65 423.659 171.502 423 171.207 422.42C170.917 421.841 170.502 421.384 169.962 421.048C169.428 420.713 168.798 420.545 168.07 420.545C167.269 420.545 166.576 420.744 165.991 421.142C165.411 421.534 164.965 422.045 164.653 422.676C164.34 423.307 164.184 423.983 164.184 424.705V425.864C164.184 426.852 164.354 427.69 164.695 428.378C165.042 429.06 165.522 429.58 166.136 429.938C166.749 430.29 167.462 430.466 168.275 430.466C168.803 430.466 169.281 430.392 169.707 430.244C170.138 430.091 170.511 429.864 170.823 429.562C171.136 429.256 171.377 428.875 171.548 428.42L173.491 428.966C173.286 429.625 172.942 430.205 172.46 430.705C171.977 431.199 171.38 431.585 170.67 431.864C169.96 432.136 169.161 432.273 168.275 432.273ZM176.755 432V418.909H178.698V420.955H178.869C179.141 420.256 179.582 419.713 180.19 419.327C180.798 418.935 181.528 418.739 182.38 418.739C183.244 418.739 183.962 418.935 184.536 419.327C185.116 419.713 185.567 420.256 185.891 420.955H186.028C186.363 420.278 186.866 419.741 187.536 419.344C188.207 418.94 189.011 418.739 189.948 418.739C191.119 418.739 192.076 419.105 192.82 419.838C193.565 420.565 193.937 421.699 193.937 423.239V432H191.925V423.239C191.925 422.273 191.661 421.582 191.133 421.168C190.604 420.753 189.982 420.545 189.266 420.545C188.346 420.545 187.633 420.824 187.127 421.381C186.621 421.932 186.369 422.631 186.369 423.477V432H184.323V423.034C184.323 422.29 184.082 421.69 183.599 421.236C183.116 420.776 182.494 420.545 181.732 420.545C181.21 420.545 180.721 420.685 180.266 420.963C179.817 421.241 179.454 421.628 179.175 422.122C178.903 422.611 178.766 423.176 178.766 423.818V432H176.755ZM197.614 432V418.909H199.626V432H197.614ZM198.637 416.727C198.245 416.727 197.907 416.594 197.623 416.327C197.344 416.06 197.205 415.739 197.205 415.364C197.205 414.989 197.344 414.668 197.623 414.401C197.907 414.134 198.245 414 198.637 414C199.029 414 199.364 414.134 199.643 414.401C199.927 414.668 200.069 414.989 200.069 415.364C200.069 415.739 199.927 416.06 199.643 416.327C199.364 416.594 199.029 416.727 198.637 416.727ZM205.321 424.125V432H203.31V418.909H205.253V420.955H205.423C205.73 420.29 206.196 419.756 206.821 419.352C207.446 418.943 208.253 418.739 209.241 418.739C210.128 418.739 210.903 418.92 211.568 419.284C212.233 419.642 212.75 420.188 213.119 420.92C213.489 421.648 213.673 422.568 213.673 423.682V432H211.662V423.818C211.662 422.79 211.395 421.989 210.861 421.415C210.327 420.835 209.594 420.545 208.662 420.545C208.02 420.545 207.446 420.685 206.94 420.963C206.44 421.241 206.045 421.648 205.756 422.182C205.466 422.716 205.321 423.364 205.321 424.125ZM222.292 432.273C221.201 432.273 220.238 431.997 219.403 431.446C218.567 430.889 217.914 430.105 217.442 429.094C216.971 428.077 216.735 426.875 216.735 425.489C216.735 424.114 216.971 422.92 217.442 421.909C217.914 420.898 218.57 420.116 219.411 419.565C220.252 419.014 221.224 418.739 222.326 418.739C223.178 418.739 223.852 418.881 224.346 419.165C224.846 419.443 225.227 419.761 225.488 420.119C225.755 420.472 225.962 420.761 226.11 420.989H226.281V414.545H228.292V432H226.349V429.989H226.11C225.962 430.227 225.752 430.528 225.479 430.892C225.207 431.25 224.817 431.571 224.312 431.855C223.806 432.134 223.133 432.273 222.292 432.273ZM222.565 430.466C223.371 430.466 224.053 430.256 224.61 429.835C225.167 429.409 225.59 428.821 225.88 428.071C226.17 427.315 226.315 426.443 226.315 425.455C226.315 424.477 226.173 423.622 225.888 422.889C225.604 422.151 225.184 421.577 224.627 421.168C224.07 420.753 223.383 420.545 222.565 420.545C221.712 420.545 221.002 420.764 220.434 421.202C219.871 421.634 219.448 422.222 219.164 422.966C218.886 423.705 218.746 424.534 218.746 425.455C218.746 426.386 218.888 427.233 219.173 427.994C219.462 428.75 219.888 429.352 220.451 429.801C221.019 430.244 221.724 430.466 222.565 430.466ZM237.744 432.273C236.482 432.273 235.394 431.994 234.479 431.438C233.57 430.875 232.869 430.091 232.374 429.085C231.886 428.074 231.641 426.898 231.641 425.557C231.641 424.216 231.886 423.034 232.374 422.011C232.869 420.983 233.556 420.182 234.437 419.608C235.323 419.028 236.357 418.739 237.539 418.739C238.221 418.739 238.894 418.852 239.559 419.08C240.224 419.307 240.829 419.676 241.374 420.188C241.92 420.693 242.354 421.364 242.678 422.199C243.002 423.034 243.164 424.062 243.164 425.284V426.136H233.073V424.398H241.119C241.119 423.659 240.971 423 240.675 422.42C240.386 421.841 239.971 421.384 239.431 421.048C238.897 420.713 238.266 420.545 237.539 420.545C236.738 420.545 236.045 420.744 235.46 421.142C234.88 421.534 234.434 422.045 234.121 422.676C233.809 423.307 233.653 423.983 233.653 424.705V425.864C233.653 426.852 233.823 427.69 234.164 428.378C234.511 429.06 234.991 429.58 235.604 429.938C236.218 430.29 236.931 430.466 237.744 430.466C238.272 430.466 238.749 430.392 239.175 430.244C239.607 430.091 239.979 429.864 240.292 429.562C240.604 429.256 240.846 428.875 241.016 428.42L242.96 428.966C242.755 429.625 242.411 430.205 241.928 430.705C241.445 431.199 240.849 431.585 240.138 431.864C239.428 432.136 238.63 432.273 237.744 432.273ZM246.224 432V418.909H248.167V420.886H248.303C248.542 420.239 248.974 419.713 249.599 419.31C250.224 418.906 250.928 418.705 251.712 418.705C251.86 418.705 252.045 418.707 252.266 418.713C252.488 418.719 252.656 418.727 252.769 418.739V420.784C252.701 420.767 252.545 420.741 252.3 420.707C252.062 420.668 251.809 420.648 251.542 420.648C250.906 420.648 250.337 420.781 249.837 421.048C249.343 421.31 248.951 421.673 248.661 422.139C248.377 422.599 248.235 423.125 248.235 423.716V432H246.224ZM264.426 421.841L262.619 422.352C262.506 422.051 262.338 421.759 262.116 421.474C261.901 421.185 261.605 420.946 261.23 420.759C260.855 420.571 260.375 420.477 259.79 420.477C258.989 420.477 258.321 420.662 257.787 421.031C257.259 421.395 256.994 421.858 256.994 422.42C256.994 422.92 257.176 423.315 257.54 423.605C257.903 423.895 258.472 424.136 259.244 424.33L261.188 424.807C262.358 425.091 263.23 425.526 263.804 426.111C264.378 426.69 264.665 427.437 264.665 428.352C264.665 429.102 264.449 429.773 264.017 430.364C263.591 430.955 262.994 431.42 262.227 431.761C261.46 432.102 260.568 432.273 259.551 432.273C258.216 432.273 257.111 431.983 256.236 431.403C255.361 430.824 254.807 429.977 254.574 428.864L256.483 428.386C256.665 429.091 257.009 429.619 257.514 429.972C258.026 430.324 258.693 430.5 259.517 430.5C260.455 430.5 261.199 430.301 261.75 429.903C262.307 429.5 262.585 429.017 262.585 428.455C262.585 428 262.426 427.619 262.108 427.312C261.79 427 261.301 426.767 260.642 426.614L258.46 426.102C257.261 425.818 256.381 425.378 255.818 424.781C255.261 424.179 254.983 423.426 254.983 422.523C254.983 421.784 255.19 421.131 255.605 420.562C256.026 419.994 256.597 419.548 257.318 419.224C258.045 418.901 258.869 418.739 259.79 418.739C261.085 418.739 262.102 419.023 262.841 419.591C263.585 420.159 264.114 420.909 264.426 421.841ZM278.295 432.307C277.465 432.307 276.712 432.151 276.036 431.838C275.36 431.52 274.823 431.062 274.425 430.466C274.028 429.864 273.829 429.136 273.829 428.284C273.829 427.534 273.977 426.926 274.272 426.46C274.567 425.989 274.962 425.619 275.457 425.352C275.951 425.085 276.496 424.886 277.093 424.756C277.695 424.619 278.3 424.511 278.908 424.432C279.704 424.33 280.349 424.253 280.843 424.202C281.343 424.145 281.707 424.051 281.934 423.92C282.167 423.79 282.283 423.562 282.283 423.239V423.17C282.283 422.33 282.053 421.676 281.593 421.21C281.138 420.744 280.448 420.511 279.522 420.511C278.562 420.511 277.809 420.722 277.263 421.142C276.718 421.562 276.335 422.011 276.113 422.489L274.204 421.807C274.545 421.011 274.999 420.392 275.567 419.949C276.141 419.5 276.766 419.187 277.442 419.011C278.124 418.83 278.795 418.739 279.454 418.739C279.874 418.739 280.357 418.79 280.903 418.892C281.454 418.989 281.985 419.19 282.496 419.497C283.013 419.804 283.442 420.267 283.783 420.886C284.124 421.506 284.295 422.335 284.295 423.375V432H282.283V430.227H282.181C282.045 430.511 281.817 430.815 281.499 431.139C281.181 431.463 280.758 431.739 280.229 431.966C279.701 432.193 279.056 432.307 278.295 432.307ZM278.602 430.5C279.397 430.5 280.067 430.344 280.613 430.031C281.164 429.719 281.579 429.315 281.857 428.821C282.141 428.327 282.283 427.807 282.283 427.261V425.42C282.198 425.523 282.011 425.616 281.721 425.702C281.437 425.781 281.107 425.852 280.732 425.915C280.363 425.972 280.002 426.023 279.65 426.068C279.303 426.108 279.022 426.142 278.806 426.17C278.283 426.239 277.795 426.349 277.34 426.503C276.891 426.651 276.528 426.875 276.249 427.176C275.977 427.472 275.84 427.875 275.84 428.386C275.84 429.085 276.099 429.614 276.616 429.972C277.138 430.324 277.8 430.5 278.602 430.5ZM289.977 424.125V432H287.966V418.909H289.909V420.955H290.08C290.386 420.29 290.852 419.756 291.477 419.352C292.102 418.943 292.909 418.739 293.898 418.739C294.784 418.739 295.56 418.92 296.224 419.284C296.889 419.642 297.406 420.188 297.776 420.92C298.145 421.648 298.33 422.568 298.33 423.682V432H296.318V423.818C296.318 422.79 296.051 421.989 295.517 421.415C294.983 420.835 294.25 420.545 293.318 420.545C292.676 420.545 292.102 420.685 291.597 420.963C291.097 421.241 290.702 421.648 290.412 422.182C290.122 422.716 289.977 423.364 289.977 424.125ZM306.948 432.273C305.857 432.273 304.894 431.997 304.059 431.446C303.224 430.889 302.57 430.105 302.099 429.094C301.627 428.077 301.391 426.875 301.391 425.489C301.391 424.114 301.627 422.92 302.099 421.909C302.57 420.898 303.227 420.116 304.067 419.565C304.908 419.014 305.88 418.739 306.982 418.739C307.835 418.739 308.508 418.881 309.002 419.165C309.502 419.443 309.883 419.761 310.144 420.119C310.411 420.472 310.619 420.761 310.766 420.989H310.937V414.545H312.948V432H311.005V429.989H310.766C310.619 430.227 310.408 430.528 310.136 430.892C309.863 431.25 309.474 431.571 308.968 431.855C308.462 432.134 307.789 432.273 306.948 432.273ZM307.221 430.466C308.028 430.466 308.71 430.256 309.266 429.835C309.823 429.409 310.246 428.821 310.536 428.071C310.826 427.315 310.971 426.443 310.971 425.455C310.971 424.477 310.829 423.622 310.545 422.889C310.261 422.151 309.84 421.577 309.283 421.168C308.727 420.753 308.039 420.545 307.221 420.545C306.369 420.545 305.658 420.764 305.09 421.202C304.528 421.634 304.104 422.222 303.82 422.966C303.542 423.705 303.403 424.534 303.403 425.455C303.403 426.386 303.545 427.233 303.829 427.994C304.119 428.75 304.545 429.352 305.107 429.801C305.675 430.244 306.38 430.466 307.221 430.466ZM325.673 424.125V432H323.661V418.909H325.604V420.955H325.775C326.082 420.29 326.548 419.756 327.173 419.352C327.798 418.943 328.604 418.739 329.593 418.739C330.479 418.739 331.255 418.92 331.92 419.284C332.585 419.642 333.102 420.188 333.471 420.92C333.84 421.648 334.025 422.568 334.025 423.682V432H332.013V423.818C332.013 422.79 331.746 421.989 331.212 421.415C330.678 420.835 329.945 420.545 329.013 420.545C328.371 420.545 327.798 420.685 327.292 420.963C326.792 421.241 326.397 421.648 326.107 422.182C325.817 422.716 325.673 423.364 325.673 424.125ZM343.189 432.273C341.928 432.273 340.839 431.994 339.925 431.438C339.016 430.875 338.314 430.091 337.82 429.085C337.331 428.074 337.087 426.898 337.087 425.557C337.087 424.216 337.331 423.034 337.82 422.011C338.314 420.983 339.001 420.182 339.882 419.608C340.768 419.028 341.803 418.739 342.984 418.739C343.666 418.739 344.339 418.852 345.004 419.08C345.669 419.307 346.274 419.676 346.82 420.188C347.365 420.693 347.8 421.364 348.124 422.199C348.447 423.034 348.609 424.062 348.609 425.284V426.136H338.518V424.398H346.564C346.564 423.659 346.416 423 346.121 422.42C345.831 421.841 345.416 421.384 344.876 421.048C344.342 420.713 343.712 420.545 342.984 420.545C342.183 420.545 341.49 420.744 340.905 421.142C340.325 421.534 339.879 422.045 339.567 422.676C339.254 423.307 339.098 423.983 339.098 424.705V425.864C339.098 426.852 339.268 427.69 339.609 428.378C339.956 429.06 340.436 429.58 341.05 429.938C341.663 430.29 342.376 430.466 343.189 430.466C343.717 430.466 344.195 430.392 344.621 430.244C345.053 430.091 345.425 429.864 345.737 429.562C346.05 429.256 346.291 428.875 346.462 428.42L348.405 428.966C348.2 429.625 347.857 430.205 347.374 430.705C346.891 431.199 346.294 431.585 345.584 431.864C344.874 432.136 344.075 432.273 343.189 432.273ZM361.975 418.909L357.134 432H355.089L350.248 418.909H352.43L356.043 429.341H356.18L359.793 418.909H361.975ZM369.65 432.273C368.388 432.273 367.3 431.994 366.386 431.438C365.477 430.875 364.775 430.091 364.281 429.085C363.792 428.074 363.548 426.898 363.548 425.557C363.548 424.216 363.792 423.034 364.281 422.011C364.775 420.983 365.462 420.182 366.343 419.608C367.229 419.028 368.263 418.739 369.445 418.739C370.127 418.739 370.8 418.852 371.465 419.08C372.13 419.307 372.735 419.676 373.281 420.188C373.826 420.693 374.261 421.364 374.585 422.199C374.908 423.034 375.07 424.062 375.07 425.284V426.136H364.979V424.398H373.025C373.025 423.659 372.877 423 372.582 422.42C372.292 421.841 371.877 421.384 371.337 421.048C370.803 420.713 370.173 420.545 369.445 420.545C368.644 420.545 367.951 420.744 367.366 421.142C366.786 421.534 366.34 422.045 366.028 422.676C365.715 423.307 365.559 423.983 365.559 424.705V425.864C365.559 426.852 365.729 427.69 366.07 428.378C366.417 429.06 366.897 429.58 367.511 429.938C368.124 430.29 368.837 430.466 369.65 430.466C370.178 430.466 370.656 430.392 371.082 430.244C371.513 430.091 371.886 429.864 372.198 429.562C372.511 429.256 372.752 428.875 372.923 428.42L374.866 428.966C374.661 429.625 374.317 430.205 373.835 430.705C373.352 431.199 372.755 431.585 372.045 431.864C371.335 432.136 370.536 432.273 369.65 432.273ZM378.13 432V418.909H380.073V420.886H380.21C380.448 420.239 380.88 419.713 381.505 419.31C382.13 418.906 382.835 418.705 383.619 418.705C383.766 418.705 383.951 418.707 384.173 418.713C384.394 418.719 384.562 418.727 384.675 418.739V420.784C384.607 420.767 384.451 420.741 384.207 420.707C383.968 420.668 383.715 420.648 383.448 420.648C382.812 420.648 382.244 420.781 381.744 421.048C381.249 421.31 380.857 421.673 380.567 422.139C380.283 422.599 380.141 423.125 380.141 423.716V432H378.13ZM393.81 432V418.909H395.753V420.955H395.923C396.196 420.256 396.636 419.713 397.244 419.327C397.852 418.935 398.582 418.739 399.435 418.739C400.298 418.739 401.017 418.935 401.591 419.327C402.17 419.713 402.622 420.256 402.946 420.955H403.082C403.418 420.278 403.92 419.741 404.591 419.344C405.261 418.94 406.065 418.739 407.003 418.739C408.173 418.739 409.131 419.105 409.875 419.838C410.619 420.565 410.991 421.699 410.991 423.239V432H408.98V423.239C408.98 422.273 408.716 421.582 408.188 421.168C407.659 420.753 407.037 420.545 406.321 420.545C405.401 420.545 404.688 420.824 404.182 421.381C403.676 421.932 403.423 422.631 403.423 423.477V432H401.378V423.034C401.378 422.29 401.136 421.69 400.653 421.236C400.17 420.776 399.548 420.545 398.787 420.545C398.264 420.545 397.776 420.685 397.321 420.963C396.872 421.241 396.509 421.628 396.23 422.122C395.957 422.611 395.821 423.176 395.821 423.818V432H393.81ZM414.669 432V418.909H416.68V432H414.669ZM415.692 416.727C415.3 416.727 414.962 416.594 414.678 416.327C414.399 416.06 414.26 415.739 414.26 415.364C414.26 414.989 414.399 414.668 414.678 414.401C414.962 414.134 415.3 414 415.692 414C416.084 414 416.419 414.134 416.697 414.401C416.982 414.668 417.124 414.989 417.124 415.364C417.124 415.739 416.982 416.06 416.697 416.327C416.419 416.594 416.084 416.727 415.692 416.727ZM429.637 421.841L427.83 422.352C427.717 422.051 427.549 421.759 427.327 421.474C427.112 421.185 426.816 420.946 426.441 420.759C426.066 420.571 425.586 420.477 425.001 420.477C424.2 420.477 423.532 420.662 422.998 421.031C422.469 421.395 422.205 421.858 422.205 422.42C422.205 422.92 422.387 423.315 422.751 423.605C423.114 423.895 423.683 424.136 424.455 424.33L426.398 424.807C427.569 425.091 428.441 425.526 429.015 426.111C429.589 426.69 429.876 427.437 429.876 428.352C429.876 429.102 429.66 429.773 429.228 430.364C428.802 430.955 428.205 431.42 427.438 431.761C426.671 432.102 425.779 432.273 424.762 432.273C423.427 432.273 422.322 431.983 421.447 431.403C420.572 430.824 420.018 429.977 419.785 428.864L421.694 428.386C421.876 429.091 422.219 429.619 422.725 429.972C423.237 430.324 423.904 430.5 424.728 430.5C425.665 430.5 426.41 430.301 426.961 429.903C427.518 429.5 427.796 429.017 427.796 428.455C427.796 428 427.637 427.619 427.319 427.312C427.001 427 426.512 426.767 425.853 426.614L423.671 426.102C422.472 425.818 421.592 425.378 421.029 424.781C420.472 424.179 420.194 423.426 420.194 422.523C420.194 421.784 420.401 421.131 420.816 420.562C421.237 419.994 421.808 419.548 422.529 419.224C423.256 418.901 424.08 418.739 425.001 418.739C426.296 418.739 427.313 419.023 428.052 419.591C428.796 420.159 429.325 420.909 429.637 421.841ZM442.176 421.841L440.369 422.352C440.256 422.051 440.088 421.759 439.866 421.474C439.651 421.185 439.355 420.946 438.98 420.759C438.605 420.571 438.125 420.477 437.54 420.477C436.739 420.477 436.071 420.662 435.537 421.031C435.009 421.395 434.744 421.858 434.744 422.42C434.744 422.92 434.926 423.315 435.29 423.605C435.653 423.895 436.222 424.136 436.994 424.33L438.938 424.807C440.108 425.091 440.98 425.526 441.554 426.111C442.128 426.69 442.415 427.437 442.415 428.352C442.415 429.102 442.199 429.773 441.767 430.364C441.341 430.955 440.744 431.42 439.977 431.761C439.21 432.102 438.318 432.273 437.301 432.273C435.966 432.273 434.861 431.983 433.986 431.403C433.111 430.824 432.557 429.977 432.324 428.864L434.233 428.386C434.415 429.091 434.759 429.619 435.264 429.972C435.776 430.324 436.443 430.5 437.267 430.5C438.205 430.5 438.949 430.301 439.5 429.903C440.057 429.5 440.335 429.017 440.335 428.455C440.335 428 440.176 427.619 439.858 427.312C439.54 427 439.051 426.767 438.392 426.614L436.21 426.102C435.011 425.818 434.131 425.378 433.568 424.781C433.011 424.179 432.733 423.426 432.733 422.523C432.733 421.784 432.94 421.131 433.355 420.562C433.776 419.994 434.347 419.548 435.068 419.224C435.795 418.901 436.619 418.739 437.54 418.739C438.835 418.739 439.852 419.023 440.591 419.591C441.335 420.159 441.864 420.909 442.176 421.841ZM34.8409 472.909V454.909H36.7841V456.989H37.0227C37.1705 456.761 37.375 456.472 37.6364 456.119C37.9034 455.761 38.2841 455.443 38.7784 455.165C39.2784 454.881 39.9545 454.739 40.8068 454.739C41.9091 454.739 42.8807 455.014 43.7216 455.565C44.5625 456.116 45.2188 456.898 45.6903 457.909C46.1619 458.92 46.3977 460.114 46.3977 461.489C46.3977 462.875 46.1619 464.077 45.6903 465.094C45.2188 466.105 44.5653 466.889 43.7301 467.446C42.8949 467.997 41.9318 468.273 40.8409 468.273C40 468.273 39.3267 468.134 38.821 467.855C38.3153 467.571 37.9261 467.25 37.6534 466.892C37.3807 466.528 37.1705 466.227 37.0227 465.989H36.8523V472.909H34.8409ZM36.8182 461.455C36.8182 462.443 36.9631 463.315 37.2528 464.071C37.5426 464.821 37.9659 465.409 38.5227 465.835C39.0795 466.256 39.7614 466.466 40.5682 466.466C41.4091 466.466 42.1108 466.244 42.6733 465.801C43.2415 465.352 43.6676 464.75 43.9517 463.994C44.2415 463.233 44.3864 462.386 44.3864 461.455C44.3864 460.534 44.2443 459.705 43.9602 458.966C43.6818 458.222 43.2585 457.634 42.6903 457.202C42.1278 456.764 41.4205 456.545 40.5682 456.545C39.75 456.545 39.0625 456.753 38.5057 457.168C37.9489 457.577 37.5284 458.151 37.2443 458.889C36.9602 459.622 36.8182 460.477 36.8182 461.455ZM53.3182 468.307C52.4886 468.307 51.7358 468.151 51.0597 467.838C50.3835 467.52 49.8466 467.062 49.4489 466.466C49.0511 465.864 48.8523 465.136 48.8523 464.284C48.8523 463.534 49 462.926 49.2955 462.46C49.5909 461.989 49.9858 461.619 50.4801 461.352C50.9744 461.085 51.5199 460.886 52.1165 460.756C52.7188 460.619 53.3239 460.511 53.9318 460.432C54.7273 460.33 55.3722 460.253 55.8665 460.202C56.3665 460.145 56.7301 460.051 56.9574 459.92C57.1903 459.79 57.3068 459.562 57.3068 459.239V459.17C57.3068 458.33 57.0767 457.676 56.6165 457.21C56.1619 456.744 55.4716 456.511 54.5455 456.511C53.5852 456.511 52.8324 456.722 52.2869 457.142C51.7415 457.562 51.358 458.011 51.1364 458.489L49.2273 457.807C49.5682 457.011 50.0227 456.392 50.5909 455.949C51.1648 455.5 51.7898 455.187 52.4659 455.011C53.1477 454.83 53.8182 454.739 54.4773 454.739C54.8977 454.739 55.3807 454.79 55.9261 454.892C56.4773 454.989 57.0085 455.19 57.5199 455.497C58.0369 455.804 58.4659 456.267 58.8068 456.886C59.1477 457.506 59.3182 458.335 59.3182 459.375V468H57.3068V466.227H57.2045C57.0682 466.511 56.8409 466.815 56.5227 467.139C56.2045 467.463 55.7813 467.739 55.2528 467.966C54.7244 468.193 54.0795 468.307 53.3182 468.307ZM53.625 466.5C54.4205 466.5 55.0909 466.344 55.6364 466.031C56.1875 465.719 56.6023 465.315 56.8807 464.821C57.1648 464.327 57.3068 463.807 57.3068 463.261V461.42C57.2216 461.523 57.0341 461.616 56.7443 461.702C56.4602 461.781 56.1307 461.852 55.7557 461.915C55.3864 461.972 55.0256 462.023 54.6733 462.068C54.3267 462.108 54.0455 462.142 53.8295 462.17C53.3068 462.239 52.8182 462.349 52.3636 462.503C51.9148 462.651 51.5511 462.875 51.2727 463.176C51 463.472 50.8636 463.875 50.8636 464.386C50.8636 465.085 51.1222 465.614 51.6392 465.972C52.1619 466.324 52.8239 466.5 53.625 466.5ZM63.8161 472.909C63.4751 472.909 63.1712 472.881 62.9041 472.824C62.6371 472.773 62.4524 472.722 62.3501 472.67L62.8615 470.898C63.3501 471.023 63.782 471.068 64.157 471.034C64.532 471 64.8643 470.832 65.1541 470.531C65.4496 470.236 65.7195 469.756 65.9638 469.091L66.3388 468.068L61.4979 454.909H63.6797L67.2933 465.341H67.4297L71.0433 454.909H73.2251L67.6683 469.909C67.4183 470.585 67.1087 471.145 66.7393 471.588C66.37 472.037 65.9411 472.369 65.4524 472.585C64.9695 472.801 64.424 472.909 63.8161 472.909ZM75.88 468V454.909H77.8232V456.955H77.9936C78.2663 456.256 78.7067 455.713 79.3146 455.327C79.9226 454.935 80.6527 454.739 81.505 454.739C82.3686 454.739 83.0874 454.935 83.6612 455.327C84.2408 455.713 84.6925 456.256 85.0163 456.955H85.1527C85.4879 456.278 85.9908 455.741 86.6612 455.344C87.3317 454.94 88.1357 454.739 89.0732 454.739C90.2436 454.739 91.201 455.105 91.9453 455.838C92.6896 456.565 93.0618 457.699 93.0618 459.239V468H91.0504V459.239C91.0504 458.273 90.7862 457.582 90.2578 457.168C89.7294 456.753 89.1072 456.545 88.3913 456.545C87.4709 456.545 86.7578 456.824 86.2521 457.381C85.7464 457.932 85.4936 458.631 85.4936 459.477V468H83.4482V459.034C83.4482 458.29 83.2067 457.69 82.7237 457.236C82.2408 456.776 81.6186 456.545 80.8572 456.545C80.3345 456.545 79.8459 456.685 79.3913 456.963C78.9425 457.241 78.5788 457.628 78.3004 458.122C78.0277 458.611 77.8913 459.176 77.8913 459.818V468H75.88ZM102.228 468.273C100.967 468.273 99.8786 467.994 98.9638 467.438C98.0547 466.875 97.353 466.091 96.8587 465.085C96.37 464.074 96.1257 462.898 96.1257 461.557C96.1257 460.216 96.37 459.034 96.8587 458.011C97.353 456.983 98.0405 456.182 98.9212 455.608C99.8075 455.028 100.842 454.739 102.023 454.739C102.705 454.739 103.379 454.852 104.043 455.08C104.708 455.307 105.313 455.676 105.859 456.188C106.404 456.693 106.839 457.364 107.163 458.199C107.487 459.034 107.648 460.062 107.648 461.284V462.136H97.5575V460.398H105.603C105.603 459.659 105.455 459 105.16 458.42C104.87 457.841 104.455 457.384 103.915 457.048C103.381 456.713 102.751 456.545 102.023 456.545C101.222 456.545 100.529 456.744 99.9439 457.142C99.3643 457.534 98.9183 458.045 98.6058 458.676C98.2933 459.307 98.1371 459.983 98.1371 460.705V461.864C98.1371 462.852 98.3075 463.69 98.6484 464.378C98.995 465.06 99.4751 465.58 100.089 465.938C100.702 466.29 101.415 466.466 102.228 466.466C102.756 466.466 103.234 466.392 103.66 466.244C104.092 466.091 104.464 465.864 104.776 465.562C105.089 465.256 105.33 464.875 105.501 464.42L107.444 464.966C107.239 465.625 106.896 466.205 106.413 466.705C105.93 467.199 105.333 467.585 104.623 467.864C103.913 468.136 103.114 468.273 102.228 468.273ZM112.719 460.125V468H110.708V454.909H112.651V456.955H112.822C113.129 456.29 113.594 455.756 114.219 455.352C114.844 454.943 115.651 454.739 116.64 454.739C117.526 454.739 118.302 454.92 118.967 455.284C119.631 455.642 120.148 456.188 120.518 456.92C120.887 457.648 121.072 458.568 121.072 459.682V468H119.06V459.818C119.06 458.79 118.793 457.989 118.259 457.415C117.725 456.835 116.992 456.545 116.06 456.545C115.418 456.545 114.844 456.685 114.339 456.963C113.839 457.241 113.444 457.648 113.154 458.182C112.864 458.716 112.719 459.364 112.719 460.125ZM130.44 454.909V456.614H123.656V454.909H130.44ZM125.634 451.773H127.645V464.25C127.645 464.818 127.727 465.244 127.892 465.528C128.063 465.807 128.278 465.994 128.54 466.091C128.807 466.182 129.088 466.227 129.384 466.227C129.605 466.227 129.787 466.216 129.929 466.193C130.071 466.165 130.185 466.142 130.27 466.125L130.679 467.932C130.543 467.983 130.352 468.034 130.108 468.085C129.864 468.142 129.554 468.17 129.179 468.17C128.611 468.17 128.054 468.048 127.509 467.804C126.969 467.56 126.52 467.188 126.162 466.688C125.81 466.188 125.634 465.557 125.634 464.795V451.773ZM142.504 457.841L140.697 458.352C140.584 458.051 140.416 457.759 140.195 457.474C139.979 457.185 139.683 456.946 139.308 456.759C138.933 456.571 138.453 456.477 137.868 456.477C137.067 456.477 136.399 456.662 135.865 457.031C135.337 457.395 135.072 457.858 135.072 458.42C135.072 458.92 135.254 459.315 135.618 459.605C135.982 459.895 136.55 460.136 137.322 460.33L139.266 460.807C140.436 461.091 141.308 461.526 141.882 462.111C142.456 462.69 142.743 463.437 142.743 464.352C142.743 465.102 142.527 465.773 142.095 466.364C141.669 466.955 141.072 467.42 140.305 467.761C139.538 468.102 138.646 468.273 137.629 468.273C136.294 468.273 135.189 467.983 134.314 467.403C133.439 466.824 132.885 465.977 132.652 464.864L134.561 464.386C134.743 465.091 135.087 465.619 135.592 465.972C136.104 466.324 136.771 466.5 137.595 466.5C138.533 466.5 139.277 466.301 139.828 465.903C140.385 465.5 140.663 465.017 140.663 464.455C140.663 464 140.504 463.619 140.186 463.312C139.868 463 139.379 462.767 138.72 462.614L136.538 462.102C135.339 461.818 134.459 461.378 133.896 460.781C133.339 460.179 133.061 459.426 133.061 458.523C133.061 457.784 133.268 457.131 133.683 456.562C134.104 455.994 134.675 455.548 135.396 455.224C136.124 454.901 136.947 454.739 137.868 454.739C139.163 454.739 140.18 455.023 140.919 455.591C141.663 456.159 142.192 456.909 142.504 457.841Z" fill="#545457"/>
<path d="M35.3423 382V358.727H44.0696C45.8575 358.727 47.3575 359.038 48.5696 359.659C49.7893 360.28 50.7098 361.152 51.331 362.273C51.9598 363.386 52.2741 364.686 52.2741 366.17C52.2741 367.663 51.956 368.958 51.3196 370.057C50.6908 371.148 49.7628 371.992 48.5355 372.591C47.3082 373.182 45.8007 373.477 44.0128 373.477H37.7969V369.977H43.4446C44.4901 369.977 45.3461 369.833 46.0128 369.545C46.6795 369.25 47.1719 368.822 47.4901 368.261C47.8158 367.693 47.9787 366.996 47.9787 366.17C47.9787 365.345 47.8158 364.64 47.4901 364.057C47.1643 363.466 46.6681 363.019 46.0014 362.716C45.3348 362.405 44.4749 362.25 43.4219 362.25H39.5582V382H35.3423ZM47.3651 371.455L53.1264 382H48.4219L42.7628 371.455H47.3651ZM63.4503 382.341C61.7003 382.341 60.1889 381.977 58.9162 381.25C57.651 380.515 56.6776 379.477 55.9957 378.136C55.3139 376.788 54.973 375.201 54.973 373.375C54.973 371.58 55.3139 370.004 55.9957 368.648C56.6851 367.284 57.6473 366.223 58.8821 365.466C60.117 364.701 61.5677 364.318 63.2344 364.318C64.3101 364.318 65.3253 364.492 66.2798 364.841C67.242 365.182 68.0904 365.712 68.8253 366.432C69.5677 367.152 70.151 368.068 70.5753 369.182C70.9995 370.288 71.2116 371.606 71.2116 373.136V374.398H56.9048V371.625H67.2685C67.2609 370.837 67.0904 370.136 66.7571 369.523C66.4238 368.902 65.9579 368.413 65.3594 368.057C64.7685 367.701 64.0791 367.523 63.2912 367.523C62.4503 367.523 61.7116 367.727 61.0753 368.136C60.4389 368.538 59.9427 369.068 59.5866 369.727C59.2382 370.379 59.0601 371.095 59.0526 371.875V374.295C59.0526 375.311 59.2382 376.182 59.6094 376.909C59.9806 377.629 60.4995 378.182 61.1662 378.568C61.8329 378.947 62.6132 379.136 63.5071 379.136C64.1056 379.136 64.6473 379.053 65.1321 378.886C65.617 378.712 66.0374 378.458 66.3935 378.125C66.7495 377.792 67.0185 377.379 67.2003 376.886L71.0412 377.318C70.7988 378.333 70.3366 379.22 69.6548 379.977C68.9806 380.727 68.117 381.311 67.0639 381.727C66.0109 382.136 64.8063 382.341 63.4503 382.341ZM74.6918 382V364.545H78.6236V367.511H78.8281C79.1918 366.511 79.794 365.731 80.6349 365.17C81.4759 364.602 82.4796 364.318 83.6463 364.318C84.8281 364.318 85.8243 364.606 86.6349 365.182C87.4531 365.75 88.0289 366.527 88.3622 367.511H88.544C88.9304 366.542 89.5819 365.769 90.4986 365.193C91.4228 364.61 92.5175 364.318 93.7827 364.318C95.3887 364.318 96.6993 364.826 97.7145 365.841C98.7296 366.856 99.2372 368.337 99.2372 370.284V382H95.1122V370.92C95.1122 369.837 94.8243 369.045 94.2486 368.545C93.6728 368.038 92.9683 367.784 92.1349 367.784C91.1425 367.784 90.366 368.095 89.8054 368.716C89.2524 369.33 88.9759 370.129 88.9759 371.114V382H84.9418V370.75C84.9418 369.848 84.669 369.129 84.1236 368.591C83.5857 368.053 82.8812 367.784 82.0099 367.784C81.419 367.784 80.8812 367.936 80.3963 368.239C79.9115 368.534 79.5251 368.955 79.2372 369.5C78.9493 370.038 78.8054 370.667 78.8054 371.386V382H74.6918ZM103.411 382V364.545H107.524V382H103.411ZM105.479 362.068C104.827 362.068 104.267 361.852 103.797 361.42C103.327 360.981 103.092 360.455 103.092 359.841C103.092 359.22 103.327 358.693 103.797 358.261C104.267 357.822 104.827 357.602 105.479 357.602C106.138 357.602 106.698 357.822 107.161 358.261C107.63 358.693 107.865 359.22 107.865 359.841C107.865 360.455 107.63 360.981 107.161 361.42C106.698 361.852 106.138 362.068 105.479 362.068ZM115.868 371.773V382H111.754V364.545H115.686V367.511H115.891C116.292 366.534 116.932 365.758 117.811 365.182C118.697 364.606 119.792 364.318 121.095 364.318C122.3 364.318 123.349 364.576 124.243 365.091C125.144 365.606 125.841 366.352 126.334 367.33C126.834 368.307 127.08 369.492 127.072 370.886V382H122.959V371.523C122.959 370.356 122.656 369.443 122.05 368.784C121.451 368.125 120.622 367.795 119.561 367.795C118.841 367.795 118.201 367.955 117.641 368.273C117.088 368.583 116.652 369.034 116.334 369.625C116.023 370.216 115.868 370.932 115.868 371.773ZM137.732 382.307C136.36 382.307 135.133 381.955 134.05 381.25C132.966 380.545 132.11 379.523 131.482 378.182C130.853 376.841 130.538 375.212 130.538 373.295C130.538 371.356 130.857 369.72 131.493 368.386C132.137 367.045 133.004 366.034 134.095 365.352C135.186 364.663 136.402 364.318 137.743 364.318C138.766 364.318 139.607 364.492 140.266 364.841C140.925 365.182 141.447 365.595 141.834 366.08C142.22 366.557 142.519 367.008 142.732 367.432H142.902V358.727H147.027V382H142.982V379.25H142.732C142.519 379.674 142.213 380.125 141.811 380.602C141.41 381.072 140.879 381.473 140.22 381.807C139.561 382.14 138.732 382.307 137.732 382.307ZM138.879 378.932C139.75 378.932 140.493 378.697 141.107 378.227C141.72 377.75 142.186 377.087 142.504 376.239C142.822 375.39 142.982 374.402 142.982 373.273C142.982 372.144 142.822 371.163 142.504 370.33C142.194 369.496 141.732 368.848 141.118 368.386C140.512 367.924 139.766 367.693 138.879 367.693C137.963 367.693 137.197 367.932 136.584 368.409C135.97 368.886 135.508 369.545 135.197 370.386C134.887 371.227 134.732 372.189 134.732 373.273C134.732 374.364 134.887 375.337 135.197 376.193C135.516 377.042 135.982 377.712 136.595 378.205C137.216 378.689 137.978 378.932 138.879 378.932ZM159.138 382.341C157.388 382.341 155.876 381.977 154.604 381.25C153.339 380.515 152.365 379.477 151.683 378.136C151.001 376.788 150.661 375.201 150.661 373.375C150.661 371.58 151.001 370.004 151.683 368.648C152.373 367.284 153.335 366.223 154.57 365.466C155.804 364.701 157.255 364.318 158.922 364.318C159.998 364.318 161.013 364.492 161.967 364.841C162.929 365.182 163.778 365.712 164.513 366.432C165.255 367.152 165.839 368.068 166.263 369.182C166.687 370.288 166.899 371.606 166.899 373.136V374.398H152.592V371.625H162.956C162.948 370.837 162.778 370.136 162.445 369.523C162.111 368.902 161.645 368.413 161.047 368.057C160.456 367.701 159.767 367.523 158.979 367.523C158.138 367.523 157.399 367.727 156.763 368.136C156.126 368.538 155.63 369.068 155.274 369.727C154.926 370.379 154.748 371.095 154.74 371.875V374.295C154.74 375.311 154.926 376.182 155.297 376.909C155.668 377.629 156.187 378.182 156.854 378.568C157.52 378.947 158.301 379.136 159.195 379.136C159.793 379.136 160.335 379.053 160.82 378.886C161.304 378.712 161.725 378.458 162.081 378.125C162.437 377.792 162.706 377.379 162.888 376.886L166.729 377.318C166.486 378.333 166.024 379.22 165.342 379.977C164.668 380.727 163.804 381.311 162.751 381.727C161.698 382.136 160.494 382.341 159.138 382.341ZM170.379 382V364.545H174.368V367.455H174.55C174.868 366.447 175.413 365.67 176.186 365.125C176.966 364.572 177.857 364.295 178.857 364.295C179.084 364.295 179.338 364.307 179.618 364.33C179.906 364.345 180.144 364.371 180.334 364.409V368.193C180.16 368.133 179.883 368.08 179.504 368.034C179.133 367.981 178.773 367.955 178.425 367.955C177.675 367.955 177 368.117 176.402 368.443C175.811 368.761 175.345 369.205 175.004 369.773C174.663 370.341 174.493 370.996 174.493 371.739V382H170.379Z" fill="black"/>
</g>
<path d="M626 2.5C638.426 2.5 648.5 12.5736 648.5 25V486C648.5 498.426 638.426 508.5 626 508.5H25C12.5736 508.5 2.5 498.426 2.5 486V25C2.5 12.5736 12.5736 2.5 25 2.5H626Z" stroke="#EFEFEF" stroke-width="5"/>
<defs>
<filter id="filter0_d_256_522" x="111.3" y="28.3" width="432.4" height="531.4" filterUnits="userSpaceOnUse" color-interpolation-filters="sRGB">
<feFlood flood-opacity="0" result="BackgroundImageFix"/>
<feColorMatrix in="SourceAlpha" type="matrix" values="0 0 0 0 0 0 0 0 0 0 0 0 0 0 0 0 0 0 127 0" result="hardAlpha"/>
<feOffset dx="-12" dy="5"/>
<feGaussianBlur stdDeviation="39.35"/>
<feComposite in2="hardAlpha" operator="out"/>
<feColorMatrix type="matrix" values="0 0 0 0 0.329412 0 0 0 0 0.301961 0 0 0 0 0.94902 0 0 0 0.1 0"/>
<feBlend mode="normal" in2="BackgroundImageFix" result="effect1_dropShadow_256_522"/>
<feBlend mode="normal" in="SourceGraphic" in2="effect1_dropShadow_256_522" result="shape"/>
</filter>
<filter id="filter1_dii_256_522" x="159.8" y="135.8" width="290.4" height="131.4" filterUnits="userSpaceOnUse" color-interpolation-filters="sRGB">
<feFlood flood-opacity="0" result="BackgroundImageFix"/>
<feColorMatrix in="SourceAlpha" type="matrix" values="0 0 0 0 0 0 0 0 0 0 0 0 0 0 0 0 0 0 127 0" result="hardAlpha"/>
<feOffset dy="17"/>
<feGaussianBlur stdDeviation="30.6"/>
<feComposite in2="hardAlpha" operator="out"/>
<feColorMatrix type="matrix" values="0 0 0 0 0.329412 0 0 0 0 0.301961 0 0 0 0 0.94902 0 0 0 0.12 0"/>
<feBlend mode="normal" in2="BackgroundImageFix" result="effect1_dropShadow_256_522"/>
<feBlend mode="normal" in="SourceGraphic" in2="effect1_dropShadow_256_522" result="shape"/>
<feColorMatrix in="SourceAlpha" type="matrix" values="0 0 0 0 0 0 0 0 0 0 0 0 0 0 0 0 0 0 127 0" result="hardAlpha"/>
<feOffset dy="4"/>
<feGaussianBlur stdDeviation="9.7"/>
<feComposite in2="hardAlpha" operator="arithmetic" k2="-1" k3="1"/>
<feColorMatrix type="matrix" values="0 0 0 0 0.596978 0 0 0 0 0.579974 0 0 0 0 0.980769 0 0 0 0.1 0"/>
<feBlend mode="normal" in2="shape" result="effect2_innerShadow_256_522"/>
<feColorMatrix in="SourceAlpha" type="matrix" values="0 0 0 0 0 0 0 0 0 0 0 0 0 0 0 0 0 0 127 0" result="hardAlpha"/>
<feOffset dy="-5"/>
<feGaussianBlur stdDeviation="5.55"/>
<feComposite in2="hardAlpha" operator="arithmetic" k2="-1" k3="1"/>
<feColorMatrix type="matrix" values="0 0 0 0 0 0 0 0 0 0 0 0 0 0 0 0 0 0 0.02 0"/>
<feBlend mode="normal" in2="effect2_innerShadow_256_522" result="effect3_innerShadow_256_522"/>
</filter>
<filter id="filter2_dii_256_522" x="159.8" y="163.8" width="290.4" height="131.4" filterUnits="userSpaceOnUse" color-interpolation-filters="sRGB">
<feFlood flood-opacity="0" result="BackgroundImageFix"/>
<feColorMatrix in="SourceAlpha" type="matrix" values="0 0 0 0 0 0 0 0 0 0 0 0 0 0 0 0 0 0 127 0" result="hardAlpha"/>
<feOffset dy="17"/>
<feGaussianBlur stdDeviation="30.6"/>
<feComposite in2="hardAlpha" operator="out"/>
<feColorMatrix type="matrix" values="0 0 0 0 0.329412 0 0 0 0 0.301961 0 0 0 0 0.94902 0 0 0 0.12 0"/>
<feBlend mode="normal" in2="BackgroundImageFix" result="effect1_dropShadow_256_522"/>
<feBlend mode="normal" in="SourceGraphic" in2="effect1_dropShadow_256_522" result="shape"/>
<feColorMatrix in="SourceAlpha" type="matrix" values="0 0 0 0 0 0 0 0 0 0 0 0 0 0 0 0 0 0 127 0" result="hardAlpha"/>
<feOffset dy="4"/>
<feGaussianBlur stdDeviation="9.7"/>
<feComposite in2="hardAlpha" operator="arithmetic" k2="-1" k3="1"/>
<feColorMatrix type="matrix" values="0 0 0 0 0.596978 0 0 0 0 0.579974 0 0 0 0 0.980769 0 0 0 0.1 0"/>
<feBlend mode="normal" in2="shape" result="effect2_innerShadow_256_522"/>
<feColorMatrix in="SourceAlpha" type="matrix" values="0 0 0 0 0 0 0 0 0 0 0 0 0 0 0 0 0 0 127 0" result="hardAlpha"/>
<feOffset dy="-5"/>
<feGaussianBlur stdDeviation="5.55"/>
<feComposite in2="hardAlpha" operator="arithmetic" k2="-1" k3="1"/>
<feColorMatrix type="matrix" values="0 0 0 0 0 0 0 0 0 0 0 0 0 0 0 0 0 0 0.02 0"/>
<feBlend mode="normal" in2="effect2_innerShadow_256_522" result="effect3_innerShadow_256_522"/>
</filter>
<filter id="filter3_dii_256_522" x="159.8" y="191.8" width="290.4" height="131.4" filterUnits="userSpaceOnUse" color-interpolation-filters="sRGB">
<feFlood flood-opacity="0" result="BackgroundImageFix"/>
<feColorMatrix in="SourceAlpha" type="matrix" values="0 0 0 0 0 0 0 0 0 0 0 0 0 0 0 0 0 0 127 0" result="hardAlpha"/>
<feOffset dy="17"/>
<feGaussianBlur stdDeviation="30.6"/>
<feComposite in2="hardAlpha" operator="out"/>
<feColorMatrix type="matrix" values="0 0 0 0 0.329412 0 0 0 0 0.301961 0 0 0 0 0.94902 0 0 0 0.12 0"/>
<feBlend mode="normal" in2="BackgroundImageFix" result="effect1_dropShadow_256_522"/>
<feBlend mode="normal" in="SourceGraphic" in2="effect1_dropShadow_256_522" result="shape"/>
<feColorMatrix in="SourceAlpha" type="matrix" values="0 0 0 0 0 0 0 0 0 0 0 0 0 0 0 0 0 0 127 0" result="hardAlpha"/>
<feOffset dy="4"/>
<feGaussianBlur stdDeviation="9.7"/>
<feComposite in2="hardAlpha" operator="arithmetic" k2="-1" k3="1"/>
<feColorMatrix type="matrix" values="0 0 0 0 0.596978 0 0 0 0 0.579974 0 0 0 0 0.980769 0 0 0 0.1 0"/>
<feBlend mode="normal" in2="shape" result="effect2_innerShadow_256_522"/>
<feColorMatrix in="SourceAlpha" type="matrix" values="0 0 0 0 0 0 0 0 0 0 0 0 0 0 0 0 0 0 127 0" result="hardAlpha"/>
<feOffset dy="-5"/>
<feGaussianBlur stdDeviation="5.55"/>
<feComposite in2="hardAlpha" operator="arithmetic" k2="-1" k3="1"/>
<feColorMatrix type="matrix" values="0 0 0 0 0 0 0 0 0 0 0 0 0 0 0 0 0 0 0.02 0"/>
<feBlend mode="normal" in2="effect2_innerShadow_256_522" result="effect3_innerShadow_256_522"/>
</filter>
<filter id="filter4_dii_256_522" x="159.8" y="219.8" width="173.4" height="141.4" filterUnits="userSpaceOnUse" color-interpolation-filters="sRGB">
<feFlood flood-opacity="0" result="BackgroundImageFix"/>
<feColorMatrix in="SourceAlpha" type="matrix" values="0 0 0 0 0 0 0 0 0 0 0 0 0 0 0 0 0 0 127 0" result="hardAlpha"/>
<feOffset dy="17"/>
<feGaussianBlur stdDeviation="30.6"/>
<feComposite in2="hardAlpha" operator="out"/>
<feColorMatrix type="matrix" values="0 0 0 0 0.329412 0 0 0 0 0.301961 0 0 0 0 0.94902 0 0 0 0.12 0"/>
<feBlend mode="normal" in2="BackgroundImageFix" result="effect1_dropShadow_256_522"/>
<feBlend mode="normal" in="SourceGraphic" in2="effect1_dropShadow_256_522" result="shape"/>
<feColorMatrix in="SourceAlpha" type="matrix" values="0 0 0 0 0 0 0 0 0 0 0 0 0 0 0 0 0 0 127 0" result="hardAlpha"/>
<feOffset dy="4"/>
<feGaussianBlur stdDeviation="9.7"/>
<feComposite in2="hardAlpha" operator="arithmetic" k2="-1" k3="1"/>
<feColorMatrix type="matrix" values="0 0 0 0 0.596978 0 0 0 0 0.579974 0 0 0 0 0.980769 0 0 0 0.1 0"/>
<feBlend mode="normal" in2="shape" result="effect2_innerShadow_256_522"/>
<feColorMatrix in="SourceAlpha" type="matrix" values="0 0 0 0 0 0 0 0 0 0 0 0 0 0 0 0 0 0 127 0" result="hardAlpha"/>
<feOffset dy="-5"/>
<feGaussianBlur stdDeviation="5.55"/>
<feComposite in2="hardAlpha" operator="arithmetic" k2="-1" k3="1"/>
<feColorMatrix type="matrix" values="0 0 0 0 0 0 0 0 0 0 0 0 0 0 0 0 0 0 0.02 0"/>
<feBlend mode="normal" in2="effect2_innerShadow_256_522" result="effect3_innerShadow_256_522"/>
</filter>
<filter id="filter5_ii_256_522" x="218" y="115" width="114" height="47" filterUnits="userSpaceOnUse" color-interpolation-filters="sRGB">
<feFlood flood-opacity="0" result="BackgroundImageFix"/>
<feBlend mode="normal" in="SourceGraphic" in2="BackgroundImageFix" result="shape"/>
<feColorMatrix in="SourceAlpha" type="matrix" values="0 0 0 0 0 0 0 0 0 0 0 0 0 0 0 0 0 0 127 0" result="hardAlpha"/>
<feOffset dy="4"/>
<feGaussianBlur stdDeviation="2"/>
<feComposite in2="hardAlpha" operator="arithmetic" k2="-1" k3="1"/>
<feColorMatrix type="matrix" values="0 0 0 0 0.329412 0 0 0 0 0.301961 0 0 0 0 0.94902 0 0 0 0.12 0"/>
<feBlend mode="normal" in2="shape" result="effect1_innerShadow_256_522"/>
<feColorMatrix in="SourceAlpha" type="matrix" values="0 0 0 0 0 0 0 0 0 0 0 0 0 0 0 0 0 0 127 0" result="hardAlpha"/>
<feOffset dy="-3"/>
<feGaussianBlur stdDeviation="8.3"/>
<feComposite in2="hardAlpha" operator="arithmetic" k2="-1" k3="1"/>
<feColorMatrix type="matrix" values="0 0 0 0 0.742191 0 0 0 0 0.730769 0 0 0 0 1 0 0 0 1 0"/>
<feBlend mode="normal" in2="effect1_innerShadow_256_522" result="effect2_innerShadow_256_522"/>
</filter>
<filter id="filter6_dii_256_522" x="338.057" y="-86.181" width="433.886" height="426.886" filterUnits="userSpaceOnUse" color-interpolation-filters="sRGB">
<feFlood flood-opacity="0" result="BackgroundImageFix"/>
<feColorMatrix in="SourceAlpha" type="matrix" values="0 0 0 0 0 0 0 0 0 0 0 0 0 0 0 0 0 0 127 0" result="hardAlpha"/>
<feOffset dy="47.7619"/>
<feGaussianBlur stdDeviation="85.9714"/>
<feComposite in2="hardAlpha" operator="out"/>
<feColorMatrix type="matrix" values="0 0 0 0 0.329412 0 0 0 0 0.301961 0 0 0 0 0.94902 0 0 0 0.54 0"/>
<feBlend mode="normal" in2="BackgroundImageFix" result="effect1_dropShadow_256_522"/>
<feBlend mode="normal" in="SourceGraphic" in2="effect1_dropShadow_256_522" result="shape"/>
<feColorMatrix in="SourceAlpha" type="matrix" values="0 0 0 0 0 0 0 0 0 0 0 0 0 0 0 0 0 0 127 0" result="hardAlpha"/>
<feOffset dy="11.2381"/>
<feGaussianBlur stdDeviation="40.0357"/>
<feComposite in2="hardAlpha" operator="arithmetic" k2="-1" k3="1"/>
<feColorMatrix type="matrix" values="0 0 0 0 0.596978 0 0 0 0 0.579974 0 0 0 0 0.980769 0 0 0 1 0"/>
<feBlend mode="normal" in2="shape" result="effect2_innerShadow_256_522"/>
<feColorMatrix in="SourceAlpha" type="matrix" values="0 0 0 0 0 0 0 0 0 0 0 0 0 0 0 0 0 0 127 0" result="hardAlpha"/>
<feOffset dy="-14.0476"/>
<feGaussianBlur stdDeviation="25.4"/>
<feComposite in2="hardAlpha" operator="arithmetic" k2="-1" k3="1"/>
<feColorMatrix type="matrix" values="0 0 0 0 0 0 0 0 0 0 0 0 0 0 0 0 0 0 0.02 0"/>
<feBlend mode="normal" in2="effect2_innerShadow_256_522" result="effect3_innerShadow_256_522"/>
</filter>
<filter id="filter7_d_256_522" x="-35.7" y="251.3" width="779.4" height="256.4" filterUnits="userSpaceOnUse" color-interpolation-filters="sRGB">
<feFlood flood-opacity="0" result="BackgroundImageFix"/>
<feColorMatrix in="SourceAlpha" type="matrix" values="0 0 0 0 0 0 0 0 0 0 0 0 0 0 0 0 0 0 127 0" result="hardAlpha"/>
<feOffset dy="-40"/>
<feGaussianBlur stdDeviation="20.85"/>
<feComposite in2="hardAlpha" operator="out"/>
<feColorMatrix type="matrix" values="0 0 0 0 1 0 0 0 0 1 0 0 0 0 1 0 0 0 1 0"/>
<feBlend mode="normal" in2="BackgroundImageFix" result="effect1_dropShadow_256_522"/>
<feBlend mode="normal" in="SourceGraphic" in2="effect1_dropShadow_256_522" result="shape"/>
</filter>
<linearGradient id="paint0_linear_256_522" x1="657.767" y1="211.056" x2="522.1" y2="230.123" gradientUnits="userSpaceOnUse">
<stop stop-color="#544DF2" stop-opacity="0"/>
<stop offset="1" stop-color="#544DF2"/>
</linearGradient>
<linearGradient id="paint1_linear_256_522" x1="549.194" y1="5" x2="868.724" y2="359.798" gradientUnits="userSpaceOnUse">
<stop stop-color="#544DF2" stop-opacity="0"/>
<stop offset="1" stop-color="#544DF2" stop-opacity="0.21"/>
</linearGradient>
<linearGradient id="paint2_linear_256_522" x1="696.806" y1="233" x2="377.276" y2="587.798" gradientUnits="userSpaceOnUse">
<stop stop-color="#544DF2" stop-opacity="0"/>
<stop offset="1" stop-color="#544DF2" stop-opacity="0.21"/>
</linearGradient>
<clipPath id="clip0_256_522">
<path d="M5 25C5 13.9543 13.9543 5 25 5H626C637.046 5 646 13.9543 646 25V486C646 497.046 637.046 506 626 506H25C13.9543 506 5 497.046 5 486V25Z" fill="white"/>
</clipPath>
</defs>
</svg>
