<svg width="570" height="511" viewBox="0 0 570 511" fill="none" xmlns="http://www.w3.org/2000/svg">
<g clip-path="url(#clip0_317_1991)">
<rect x="5" y="5" width="560" height="501" rx="20" fill="#FAFAFF"/>
<g clip-path="url(#clip1_317_1991)">
<path d="M311.741 264.239C311.414 263.033 310.776 261.934 309.891 261.05C309.006 260.167 307.905 259.53 306.697 259.204C302.273 258 284.471 258 284.471 258C284.471 258 266.668 258.036 262.245 259.24C261.036 259.567 259.935 260.203 259.05 261.087C258.165 261.97 257.527 263.07 257.2 264.276C255.862 272.12 255.343 284.072 257.237 291.602C257.564 292.808 258.202 293.907 259.087 294.791C259.972 295.674 261.073 296.311 262.281 296.637C266.705 297.841 284.507 297.841 284.507 297.841C284.507 297.841 302.31 297.841 306.733 296.637C307.941 296.311 309.043 295.674 309.928 294.791C310.813 293.908 311.451 292.808 311.778 291.602C313.189 283.747 313.624 271.802 311.741 264.239Z" fill="#FF0000"/>
<path d="M278.805 286.458L293.573 277.92L278.805 269.383V286.458Z" fill="white"/>
</g>
<path d="M5 261H100.593C102.802 261 104.593 259.209 104.593 257V174C104.593 171.791 106.384 170 108.593 170H268.751C270.96 170 272.751 168.209 272.751 166V101C272.751 98.7909 274.542 97 276.751 97H400.874C403.084 97 404.874 95.2091 404.874 93V31C404.874 28.7909 406.665 27 408.874 27H535C537.209 27 539 25.2091 539 23V-17" stroke="url(#paint0_linear_317_1991)" stroke-width="3"/>
<path d="M565 261H469.407C467.198 261 465.407 259.209 465.407 257V174C465.407 171.791 463.616 170 461.407 170H301.249C299.04 170 297.249 168.209 297.249 166V101C297.249 98.7909 295.458 97 293.249 97H169.126C166.916 97 165.126 95.2091 165.126 93V31C165.126 28.7909 163.335 27 161.126 27H35C32.7909 27 31 25.2091 31 23V-17" stroke="url(#paint1_linear_317_1991)" stroke-width="3"/>
<g filter="url(#filter0_dii_317_1991)">
<rect x="150" y="168" width="271" height="52" rx="12" fill="white" shape-rendering="crispEdges"/>
<rect x="150" y="168" width="271" height="52" rx="12" fill="#544DF2" shape-rendering="crispEdges"/>
<path d="M228.892 203H226.097L232.378 185.545H235.42L241.702 203H238.906L233.972 188.716H233.835L228.892 203ZM229.361 196.165H238.429V198.381H229.361V196.165ZM248.707 203.256C247.651 203.256 246.707 202.986 245.878 202.446C245.054 201.901 244.406 201.125 243.935 200.119C243.469 199.108 243.236 197.895 243.236 196.48C243.236 195.065 243.472 193.855 243.943 192.849C244.42 191.844 245.074 191.074 245.903 190.54C246.733 190.006 247.673 189.739 248.724 189.739C249.537 189.739 250.19 189.875 250.685 190.148C251.185 190.415 251.571 190.727 251.844 191.085C252.122 191.443 252.338 191.759 252.491 192.031H252.645V185.545H255.193V203H252.705V200.963H252.491C252.338 201.241 252.116 201.56 251.827 201.918C251.543 202.276 251.151 202.588 250.651 202.855C250.151 203.122 249.503 203.256 248.707 203.256ZM249.27 201.082C250.003 201.082 250.622 200.889 251.128 200.503C251.639 200.111 252.026 199.568 252.287 198.875C252.554 198.182 252.688 197.375 252.688 196.455C252.688 195.545 252.557 194.75 252.295 194.068C252.034 193.386 251.651 192.855 251.145 192.474C250.639 192.094 250.014 191.903 249.27 191.903C248.503 191.903 247.864 192.102 247.352 192.5C246.841 192.898 246.455 193.44 246.193 194.128C245.938 194.815 245.81 195.591 245.81 196.455C245.81 197.33 245.94 198.116 246.202 198.815C246.463 199.514 246.849 200.068 247.361 200.477C247.878 200.881 248.514 201.082 249.27 201.082ZM263.731 203.256C262.674 203.256 261.731 202.986 260.901 202.446C260.077 201.901 259.43 201.125 258.958 200.119C258.492 199.108 258.259 197.895 258.259 196.48C258.259 195.065 258.495 193.855 258.967 192.849C259.444 191.844 260.097 191.074 260.927 190.54C261.756 190.006 262.697 189.739 263.748 189.739C264.56 189.739 265.214 189.875 265.708 190.148C266.208 190.415 266.594 190.727 266.867 191.085C267.146 191.443 267.362 191.759 267.515 192.031H267.668V185.545H270.217V203H267.728V200.963H267.515C267.362 201.241 267.14 201.56 266.85 201.918C266.566 202.276 266.174 202.588 265.674 202.855C265.174 203.122 264.526 203.256 263.731 203.256ZM264.293 201.082C265.026 201.082 265.646 200.889 266.151 200.503C266.663 200.111 267.049 199.568 267.31 198.875C267.577 198.182 267.711 197.375 267.711 196.455C267.711 195.545 267.58 194.75 267.319 194.068C267.058 193.386 266.674 192.855 266.168 192.474C265.663 192.094 265.038 191.903 264.293 191.903C263.526 191.903 262.887 192.102 262.376 192.5C261.864 192.898 261.478 193.44 261.217 194.128C260.961 194.815 260.833 195.591 260.833 196.455C260.833 197.33 260.964 198.116 261.225 198.815C261.487 199.514 261.873 200.068 262.384 200.477C262.901 200.881 263.538 201.082 264.293 201.082ZM280.41 203V185.545H282.958V192.031H283.112C283.259 191.759 283.472 191.443 283.751 191.085C284.029 190.727 284.415 190.415 284.91 190.148C285.404 189.875 286.058 189.739 286.87 189.739C287.927 189.739 288.87 190.006 289.7 190.54C290.529 191.074 291.18 191.844 291.651 192.849C292.129 193.855 292.367 195.065 292.367 196.48C292.367 197.895 292.131 199.108 291.66 200.119C291.188 201.125 290.54 201.901 289.717 202.446C288.893 202.986 287.952 203.256 286.896 203.256C286.1 203.256 285.45 203.122 284.944 202.855C284.444 202.588 284.052 202.276 283.768 201.918C283.484 201.56 283.265 201.241 283.112 200.963H282.898V203H280.41ZM282.907 196.455C282.907 197.375 283.04 198.182 283.308 198.875C283.575 199.568 283.961 200.111 284.467 200.503C284.972 200.889 285.592 201.082 286.325 201.082C287.086 201.082 287.722 200.881 288.234 200.477C288.745 200.068 289.131 199.514 289.393 198.815C289.66 198.116 289.793 197.33 289.793 196.455C289.793 195.591 289.663 194.815 289.401 194.128C289.146 193.44 288.759 192.898 288.242 192.5C287.731 192.102 287.092 191.903 286.325 191.903C285.586 191.903 284.961 192.094 284.45 192.474C283.944 192.855 283.56 193.386 283.299 194.068C283.038 194.75 282.907 195.545 282.907 196.455ZM295.229 203V189.909H297.777V203H295.229ZM296.516 187.889C296.072 187.889 295.692 187.741 295.374 187.446C295.061 187.145 294.905 186.787 294.905 186.372C294.905 185.952 295.061 185.594 295.374 185.298C295.692 184.997 296.072 184.847 296.516 184.847C296.959 184.847 297.337 184.997 297.649 185.298C297.967 185.594 298.126 185.952 298.126 186.372C298.126 186.787 297.967 187.145 297.649 187.446C297.337 187.741 296.959 187.889 296.516 187.889ZM303.754 185.545V203H301.205V185.545H303.754ZM309.73 185.545V203H307.182V185.545H309.73Z" fill="white"/>
<path fill-rule="evenodd" clip-rule="evenodd" d="M336.5 185C336.705 185 336.901 185.081 337.045 185.226C337.19 185.371 337.271 185.567 337.271 185.771V193.229H344.729C344.933 193.229 345.129 193.31 345.274 193.455C345.419 193.599 345.5 193.795 345.5 194C345.5 194.205 345.419 194.401 345.274 194.545C345.129 194.69 344.933 194.771 344.729 194.771H337.271V202.229C337.271 202.433 337.19 202.629 337.045 202.774C336.901 202.919 336.705 203 336.5 203C336.295 203 336.099 202.919 335.955 202.774C335.81 202.629 335.729 202.433 335.729 202.229V194.771H328.271C328.067 194.771 327.871 194.69 327.726 194.545C327.581 194.401 327.5 194.205 327.5 194C327.5 193.795 327.581 193.599 327.726 193.455C327.871 193.31 328.067 193.229 328.271 193.229H335.729V185.771C335.729 185.567 335.81 185.371 335.955 185.226C336.099 185.081 336.295 185 336.5 185Z" fill="white"/>
</g>
<g clip-path="url(#clip2_317_1991)">
<path d="M197.5 54C182.312 54 170 66.5363 170 82C170 97.4647 182.312 110 197.5 110C212.689 110 225 97.4647 225 82C225 66.5374 212.689 54.0015 197.5 54.0015L197.5 54ZM210.111 94.3843C209.618 95.2068 208.561 95.4676 207.753 94.9627C201.297 90.9471 193.169 90.0375 183.596 92.2644C183.153 92.3672 182.688 92.2865 182.303 92.0401C181.918 91.7936 181.645 91.4017 181.544 90.9504C181.494 90.727 181.487 90.4957 181.525 90.2697C181.562 90.0437 181.643 89.8275 181.763 89.6334C181.883 89.4393 182.039 89.2711 182.222 89.1385C182.406 89.0059 182.614 88.9115 182.833 88.8607C193.309 86.4238 202.294 87.4729 209.543 91.9835C210.351 92.4884 210.607 93.5618 210.111 94.3843ZM213.477 86.7602C212.856 87.7873 211.536 88.1117 210.528 87.4797C203.136 82.8536 191.868 81.5137 183.125 84.2159C181.991 84.5646 180.794 83.9141 180.45 82.7615C180.108 81.6069 180.747 80.3898 181.879 80.0389C191.866 76.9532 204.282 78.4479 212.771 83.7592C213.779 84.3914 214.098 85.7352 213.477 86.7602ZM213.766 78.8211C204.903 73.4609 190.28 72.9678 181.818 75.5832C180.459 76.0028 179.022 75.2216 178.61 73.838C178.198 72.4538 178.965 70.9916 180.325 70.571C190.038 67.5684 206.187 68.1488 216.391 74.3166C217.616 75.0551 218.017 76.6625 217.291 77.9052C216.568 79.1499 214.985 79.5601 213.767 78.8211H213.766Z" fill="#1ED760"/>
</g>
<g clip-path="url(#clip3_317_1991)">
<path fill-rule="evenodd" clip-rule="evenodd" d="M474.776 111.817C475.67 109.632 477.395 107.892 479.572 106.979C481.749 106.066 484.199 106.055 486.384 106.949L515.219 118.745C517.404 119.639 519.145 121.364 520.058 123.541C520.971 125.718 520.981 128.169 520.087 130.354L508.292 159.188C507.398 161.373 505.672 163.114 503.495 164.027C501.318 164.94 498.868 164.95 496.683 164.057L467.848 152.261C465.663 151.367 463.923 149.642 463.01 147.465C462.097 145.288 462.086 142.837 462.98 140.652L474.776 111.817ZM494.396 126.415C494.237 126.803 493.93 127.112 493.543 127.275C493.156 127.437 492.721 127.439 492.332 127.28C491.944 127.121 491.634 126.814 491.472 126.427C491.31 126.04 491.308 125.605 491.467 125.216C491.626 124.828 491.932 124.519 492.319 124.356C492.706 124.194 493.142 124.192 493.53 124.351C493.919 124.51 494.228 124.817 494.39 125.204C494.553 125.591 494.555 126.026 494.396 126.415ZM510.04 137.089C510.443 136.105 509.913 135.248 509.417 134.779C508.897 134.287 508.175 133.936 507.433 133.77C506.685 133.599 505.809 133.589 504.984 133.908C504.131 134.237 503.402 134.896 502.986 135.913C502.653 136.727 502.503 137.723 502.685 138.67C502.87 139.645 503.426 140.613 504.519 141.159C505.266 141.552 506.113 141.716 506.953 141.631C507.294 141.591 507.627 141.499 507.94 141.358L508.018 141.321L508.045 141.308L508.055 141.3L508.061 141.297L508.065 141.294L507.512 140.33C506.957 139.365 506.96 139.364 506.96 139.364L506.966 139.361L506.972 139.357L506.982 139.351L506.991 139.347L506.953 139.363C506.868 139.392 506.781 139.411 506.692 139.42C506.456 139.448 506.052 139.437 505.511 139.168C505.161 138.993 504.954 138.69 504.871 138.252L504.854 138.151C505.121 138.287 505.415 138.421 505.72 138.534C506.35 138.768 507.163 138.968 507.969 138.824C508.869 138.664 509.628 138.096 510.04 137.089ZM506.494 136.447C506.2 136.334 505.915 136.201 505.64 136.049L505.787 135.984C506.158 135.856 506.559 135.84 506.94 135.939C507.288 136.008 507.613 136.164 507.884 136.393L507.9 136.408C507.796 136.58 507.688 136.615 507.579 136.633C507.346 136.675 506.98 136.628 506.494 136.447ZM507.974 136.497L507.965 136.478L507.973 136.494L507.974 136.497ZM506.139 145.538C506.773 147.048 502.394 150.953 501.75 150.348C501.425 150.044 502.061 149.304 502.743 148.513C503.443 147.703 504.189 146.837 504.009 146.319C503.822 145.776 502.645 145.415 501.603 145.094C500.688 144.816 499.876 144.566 499.928 144.251C500.096 143.276 505.506 144.027 506.139 145.538ZM488.238 143.558C482.356 141.152 477.789 136.382 475.503 133.996C474.603 133.056 474.058 132.484 473.925 132.574C473.452 132.886 477.614 141.777 487.339 145.756C495.395 149.051 502.835 147.983 502.319 146.753C502.093 146.218 500.638 146.053 498.524 145.816C495.788 145.509 491.954 145.078 488.238 143.558ZM491.002 127.592L488.306 134.183L490.366 135.025L493.062 128.434L491.002 127.592ZM483.18 132.085L485.876 125.495L487.328 126.089L487.522 126.096C488.33 126.15 489.205 126.508 489.871 126.783L489.958 126.818L489.115 128.878C488.325 128.554 487.779 128.343 487.373 128.317C487.317 128.311 487.259 128.313 487.203 128.322C487.173 128.329 487.158 128.333 487.159 128.335C487.16 128.338 487.151 128.339 487.132 128.36C487.092 128.413 487.06 128.472 487.037 128.535L485.239 132.928L483.18 132.085ZM481.903 123.523C481.21 123.237 480.439 123.202 479.724 123.425L479.88 123.042L477.821 122.199L474.226 130.988L476.285 131.83L477.341 129.25C477.685 129.883 478.227 130.405 478.964 130.707C480.888 131.494 482.911 130.263 483.659 128.434C484.407 126.606 483.827 124.31 481.903 123.523ZM479.266 126.637C479.675 125.636 480.558 125.377 481.06 125.583C481.563 125.788 482.009 126.591 481.599 127.592C481.19 128.593 480.307 128.852 479.807 128.647C479.304 128.442 478.856 127.638 479.266 126.637ZM495.147 131.694L495.213 131.692C495.629 131.664 496.047 131.725 496.437 131.873C496.664 131.966 496.781 132.062 496.84 132.129L494.897 136.879L496.957 137.721L498.809 133.192L498.875 133.19C499.267 133.173 499.716 133.215 500.099 133.371C500.251 133.427 500.388 133.514 500.502 133.627L498.559 138.377L500.619 139.219L502.716 134.093C502.769 133.962 502.797 133.821 502.798 133.68L502.794 133.538C502.76 133.233 502.669 132.936 502.526 132.664C502.256 132.155 501.764 131.648 500.942 131.312C500.153 130.989 499.354 130.944 498.79 130.965L498.746 130.966C498.387 130.441 497.875 130.039 497.28 129.814C496.741 129.599 496.167 129.481 495.587 129.467L493.931 128.79L491.235 135.381L493.295 136.223L495.147 131.694Z" fill="black"/>
</g>
<g filter="url(#filter1_d_317_1991)">
<path d="M5 310H565V493C565 500.18 559.18 506 552 506H18C10.8203 506 5 500.18 5 493V310Z" fill="white"/>
</g>
<path d="M35.8295 438H33.6136L40.0227 420.545H42.2045L48.6136 438H46.3977L41.1818 423.307H41.0455L35.8295 438ZM36.6477 431.182H45.5795V433.057H36.6477V431.182ZM56.0028 438.273C54.9119 438.273 53.9489 437.997 53.1136 437.446C52.2784 436.889 51.625 436.105 51.1534 435.094C50.6818 434.077 50.446 432.875 50.446 431.489C50.446 430.114 50.6818 428.92 51.1534 427.909C51.625 426.898 52.2813 426.116 53.1222 425.565C53.9631 425.014 54.9347 424.739 56.0369 424.739C56.8892 424.739 57.5625 424.881 58.0568 425.165C58.5568 425.443 58.9375 425.761 59.1989 426.119C59.4659 426.472 59.6733 426.761 59.821 426.989H59.9915V420.545H62.0028V438H60.0597V435.989H59.821C59.6733 436.227 59.4631 436.528 59.1903 436.892C58.9176 437.25 58.5284 437.571 58.0227 437.855C57.517 438.134 56.8438 438.273 56.0028 438.273ZM56.2756 436.466C57.0824 436.466 57.7642 436.256 58.321 435.835C58.8778 435.409 59.3011 434.821 59.5909 434.071C59.8807 433.315 60.0256 432.443 60.0256 431.455C60.0256 430.477 59.8835 429.622 59.5994 428.889C59.3153 428.151 58.8949 427.577 58.3381 427.168C57.7813 426.753 57.0938 426.545 56.2756 426.545C55.4233 426.545 54.7131 426.764 54.1449 427.202C53.5824 427.634 53.1591 428.222 52.875 428.966C52.5966 429.705 52.4574 430.534 52.4574 431.455C52.4574 432.386 52.5994 433.233 52.8835 433.994C53.1733 434.75 53.5994 435.352 54.1619 435.801C54.7301 436.244 55.4347 436.466 56.2756 436.466ZM70.9091 438.273C69.8182 438.273 68.8551 437.997 68.0199 437.446C67.1847 436.889 66.5313 436.105 66.0597 435.094C65.5881 434.077 65.3523 432.875 65.3523 431.489C65.3523 430.114 65.5881 428.92 66.0597 427.909C66.5313 426.898 67.1875 426.116 68.0284 425.565C68.8693 425.014 69.8409 424.739 70.9432 424.739C71.7955 424.739 72.4688 424.881 72.9631 425.165C73.4631 425.443 73.8438 425.761 74.1051 426.119C74.3722 426.472 74.5795 426.761 74.7273 426.989H74.8977V420.545H76.9091V438H74.9659V435.989H74.7273C74.5795 436.227 74.3693 436.528 74.0966 436.892C73.8239 437.25 73.4347 437.571 72.929 437.855C72.4233 438.134 71.75 438.273 70.9091 438.273ZM71.1818 436.466C71.9886 436.466 72.6705 436.256 73.2273 435.835C73.7841 435.409 74.2074 434.821 74.4972 434.071C74.7869 433.315 74.9318 432.443 74.9318 431.455C74.9318 430.477 74.7898 429.622 74.5057 428.889C74.2216 428.151 73.8011 427.577 73.2443 427.168C72.6875 426.753 72 426.545 71.1818 426.545C70.3295 426.545 69.6193 426.764 69.0511 427.202C68.4886 427.634 68.0653 428.222 67.7812 428.966C67.5028 429.705 67.3636 430.534 67.3636 431.455C67.3636 432.386 67.5057 433.233 67.7898 433.994C68.0795 434.75 68.5057 435.352 69.0682 435.801C69.6364 436.244 70.3409 436.466 71.1818 436.466ZM88.9176 442.909C88.5767 442.909 88.2727 442.881 88.0057 442.824C87.7386 442.773 87.554 442.722 87.4517 442.67L87.9631 440.898C88.4517 441.023 88.8835 441.068 89.2585 441.034C89.6335 441 89.9659 440.832 90.2557 440.531C90.5511 440.236 90.821 439.756 91.0653 439.091L91.4403 438.068L86.5994 424.909H88.7812L92.3949 435.341H92.5312L96.1449 424.909H98.3267L92.7699 439.909C92.5199 440.585 92.2102 441.145 91.8409 441.588C91.4716 442.037 91.0426 442.369 90.554 442.585C90.071 442.801 89.5256 442.909 88.9176 442.909ZM105.831 438.273C104.649 438.273 103.612 437.991 102.72 437.429C101.834 436.866 101.141 436.08 100.641 435.068C100.146 434.057 99.8991 432.875 99.8991 431.523C99.8991 430.159 100.146 428.969 100.641 427.952C101.141 426.935 101.834 426.145 102.72 425.582C103.612 425.02 104.649 424.739 105.831 424.739C107.013 424.739 108.047 425.02 108.933 425.582C109.825 426.145 110.518 426.935 111.013 427.952C111.513 428.969 111.763 430.159 111.763 431.523C111.763 432.875 111.513 434.057 111.013 435.068C110.518 436.08 109.825 436.866 108.933 437.429C108.047 437.991 107.013 438.273 105.831 438.273ZM105.831 436.466C106.729 436.466 107.467 436.236 108.047 435.776C108.626 435.315 109.055 434.71 109.334 433.96C109.612 433.21 109.751 432.398 109.751 431.523C109.751 430.648 109.612 429.832 109.334 429.077C109.055 428.321 108.626 427.71 108.047 427.244C107.467 426.778 106.729 426.545 105.831 426.545C104.933 426.545 104.195 426.778 103.615 427.244C103.036 427.71 102.607 428.321 102.328 429.077C102.05 429.832 101.911 430.648 101.911 431.523C101.911 432.398 102.05 433.21 102.328 433.96C102.607 434.71 103.036 435.315 103.615 435.776C104.195 436.236 104.933 436.466 105.831 436.466ZM123.083 432.648V424.909H125.094V438H123.083V435.784H122.947C122.64 436.449 122.163 437.014 121.515 437.48C120.867 437.94 120.049 438.17 119.06 438.17C118.242 438.17 117.515 437.991 116.879 437.634C116.242 437.27 115.742 436.724 115.379 435.997C115.015 435.264 114.833 434.341 114.833 433.227V424.909H116.844V433.091C116.844 434.045 117.112 434.807 117.646 435.375C118.185 435.943 118.873 436.227 119.708 436.227C120.208 436.227 120.717 436.099 121.234 435.844C121.756 435.588 122.194 435.196 122.546 434.668C122.904 434.139 123.083 433.466 123.083 432.648ZM128.778 438V424.909H130.722V426.886H130.858C131.097 426.239 131.528 425.713 132.153 425.31C132.778 424.906 133.483 424.705 134.267 424.705C134.415 424.705 134.599 424.707 134.821 424.713C135.043 424.719 135.21 424.727 135.324 424.739V426.784C135.256 426.767 135.099 426.741 134.855 426.707C134.616 426.668 134.364 426.648 134.097 426.648C133.46 426.648 132.892 426.781 132.392 427.048C131.898 427.31 131.506 427.673 131.216 428.139C130.932 428.599 130.79 429.125 130.79 429.716V438H128.778ZM144.731 438V420.545H146.742V426.989H146.913C147.06 426.761 147.265 426.472 147.526 426.119C147.793 425.761 148.174 425.443 148.668 425.165C149.168 424.881 149.844 424.739 150.697 424.739C151.799 424.739 152.771 425.014 153.612 425.565C154.452 426.116 155.109 426.898 155.58 427.909C156.052 428.92 156.288 430.114 156.288 431.489C156.288 432.875 156.052 434.077 155.58 435.094C155.109 436.105 154.455 436.889 153.62 437.446C152.785 437.997 151.822 438.273 150.731 438.273C149.89 438.273 149.217 438.134 148.711 437.855C148.205 437.571 147.816 437.25 147.543 436.892C147.271 436.528 147.06 436.227 146.913 435.989H146.674V438H144.731ZM146.708 431.455C146.708 432.443 146.853 433.315 147.143 434.071C147.433 434.821 147.856 435.409 148.413 435.835C148.969 436.256 149.651 436.466 150.458 436.466C151.299 436.466 152.001 436.244 152.563 435.801C153.131 435.352 153.558 434.75 153.842 433.994C154.131 433.233 154.276 432.386 154.276 431.455C154.276 430.534 154.134 429.705 153.85 428.966C153.572 428.222 153.148 427.634 152.58 427.202C152.018 426.764 151.31 426.545 150.458 426.545C149.64 426.545 148.952 426.753 148.396 427.168C147.839 427.577 147.418 428.151 147.134 428.889C146.85 429.622 146.708 430.477 146.708 431.455ZM159.364 438V424.909H161.376V438H159.364ZM160.387 422.727C159.995 422.727 159.657 422.594 159.373 422.327C159.094 422.06 158.955 421.739 158.955 421.364C158.955 420.989 159.094 420.668 159.373 420.401C159.657 420.134 159.995 420 160.387 420C160.779 420 161.114 420.134 161.393 420.401C161.677 420.668 161.819 420.989 161.819 421.364C161.819 421.739 161.677 422.06 161.393 422.327C161.114 422.594 160.779 422.727 160.387 422.727ZM167.071 420.545V438H165.06V420.545H167.071ZM172.766 420.545V438H170.755V420.545H172.766ZM185.723 427.841L183.916 428.352C183.803 428.051 183.635 427.759 183.413 427.474C183.197 427.185 182.902 426.946 182.527 426.759C182.152 426.571 181.672 426.477 181.087 426.477C180.286 426.477 179.618 426.662 179.084 427.031C178.555 427.395 178.291 427.858 178.291 428.42C178.291 428.92 178.473 429.315 178.837 429.605C179.2 429.895 179.768 430.136 180.541 430.33L182.484 430.807C183.655 431.091 184.527 431.526 185.101 432.111C185.675 432.69 185.962 433.437 185.962 434.352C185.962 435.102 185.746 435.773 185.314 436.364C184.888 436.955 184.291 437.42 183.524 437.761C182.757 438.102 181.865 438.273 180.848 438.273C179.513 438.273 178.408 437.983 177.533 437.403C176.658 436.824 176.104 435.977 175.871 434.864L177.78 434.386C177.962 435.091 178.305 435.619 178.811 435.972C179.322 436.324 179.99 436.5 180.814 436.5C181.751 436.5 182.496 436.301 183.047 435.903C183.604 435.5 183.882 435.017 183.882 434.455C183.882 434 183.723 433.619 183.405 433.312C183.087 433 182.598 432.767 181.939 432.614L179.757 432.102C178.558 431.818 177.678 431.378 177.115 430.781C176.558 430.179 176.28 429.426 176.28 428.523C176.28 427.784 176.487 427.131 176.902 426.562C177.322 425.994 177.893 425.548 178.615 425.224C179.342 424.901 180.166 424.739 181.087 424.739C182.382 424.739 183.399 425.023 184.138 425.591C184.882 426.159 185.411 426.909 185.723 427.841ZM195.739 438V424.909H197.751V438H195.739ZM196.762 422.727C196.37 422.727 196.032 422.594 195.748 422.327C195.469 422.06 195.33 421.739 195.33 421.364C195.33 420.989 195.469 420.668 195.748 420.401C196.032 420.134 196.37 420 196.762 420C197.154 420 197.489 420.134 197.768 420.401C198.052 420.668 198.194 420.989 198.194 421.364C198.194 421.739 198.052 422.06 197.768 422.327C197.489 422.594 197.154 422.727 196.762 422.727ZM203.446 430.125V438H201.435V424.909H203.378V426.955H203.548C203.855 426.29 204.321 425.756 204.946 425.352C205.571 424.943 206.378 424.739 207.366 424.739C208.253 424.739 209.028 424.92 209.693 425.284C210.358 425.642 210.875 426.188 211.244 426.92C211.614 427.648 211.798 428.568 211.798 429.682V438H209.787V429.818C209.787 428.79 209.52 427.989 208.986 427.415C208.452 426.835 207.719 426.545 206.787 426.545C206.145 426.545 205.571 426.685 205.065 426.963C204.565 427.241 204.17 427.648 203.881 428.182C203.591 428.716 203.446 429.364 203.446 430.125ZM231.496 427.841L229.69 428.352C229.576 428.051 229.408 427.759 229.187 427.474C228.971 427.185 228.675 426.946 228.3 426.759C227.925 426.571 227.445 426.477 226.86 426.477C226.059 426.477 225.391 426.662 224.857 427.031C224.329 427.395 224.065 427.858 224.065 428.42C224.065 428.92 224.246 429.315 224.61 429.605C224.974 429.895 225.542 430.136 226.315 430.33L228.258 430.807C229.428 431.091 230.3 431.526 230.874 432.111C231.448 432.69 231.735 433.437 231.735 434.352C231.735 435.102 231.519 435.773 231.087 436.364C230.661 436.955 230.065 437.42 229.298 437.761C228.531 438.102 227.638 438.273 226.621 438.273C225.286 438.273 224.181 437.983 223.306 437.403C222.431 436.824 221.877 435.977 221.644 434.864L223.553 434.386C223.735 435.091 224.079 435.619 224.585 435.972C225.096 436.324 225.763 436.5 226.587 436.5C227.525 436.5 228.269 436.301 228.82 435.903C229.377 435.5 229.656 435.017 229.656 434.455C229.656 434 229.496 433.619 229.178 433.312C228.86 433 228.371 432.767 227.712 432.614L225.531 432.102C224.332 431.818 223.451 431.378 222.888 430.781C222.332 430.179 222.053 429.426 222.053 428.523C222.053 427.784 222.261 427.131 222.675 426.562C223.096 425.994 223.667 425.548 224.388 425.224C225.116 424.901 225.94 424.739 226.86 424.739C228.156 424.739 229.173 425.023 229.911 425.591C230.656 426.159 231.184 426.909 231.496 427.841ZM240.251 438.273C238.99 438.273 237.902 437.994 236.987 437.438C236.078 436.875 235.376 436.091 234.882 435.085C234.393 434.074 234.149 432.898 234.149 431.557C234.149 430.216 234.393 429.034 234.882 428.011C235.376 426.983 236.064 426.182 236.945 425.608C237.831 425.028 238.865 424.739 240.047 424.739C240.729 424.739 241.402 424.852 242.067 425.08C242.732 425.307 243.337 425.676 243.882 426.188C244.428 426.693 244.862 427.364 245.186 428.199C245.51 429.034 245.672 430.062 245.672 431.284V432.136H235.581V430.398H243.626C243.626 429.659 243.479 429 243.183 428.42C242.893 427.841 242.479 427.384 241.939 427.048C241.405 426.713 240.774 426.545 240.047 426.545C239.246 426.545 238.553 426.744 237.967 427.142C237.388 427.534 236.942 428.045 236.629 428.676C236.317 429.307 236.161 429.983 236.161 430.705V431.864C236.161 432.852 236.331 433.69 236.672 434.378C237.018 435.06 237.499 435.58 238.112 435.938C238.726 436.29 239.439 436.466 240.251 436.466C240.78 436.466 241.257 436.392 241.683 436.244C242.115 436.091 242.487 435.864 242.8 435.562C243.112 435.256 243.354 434.875 243.524 434.42L245.467 434.966C245.263 435.625 244.919 436.205 244.436 436.705C243.953 437.199 243.357 437.585 242.646 437.864C241.936 438.136 241.138 438.273 240.251 438.273ZM254.05 438.273C252.822 438.273 251.766 437.983 250.879 437.403C249.993 436.824 249.311 436.026 248.834 435.009C248.357 433.991 248.118 432.83 248.118 431.523C248.118 430.193 248.362 429.02 248.851 428.003C249.345 426.98 250.033 426.182 250.913 425.608C251.8 425.028 252.834 424.739 254.016 424.739C254.936 424.739 255.766 424.909 256.504 425.25C257.243 425.591 257.848 426.068 258.32 426.682C258.791 427.295 259.084 428.011 259.197 428.83H257.186C257.033 428.233 256.692 427.705 256.163 427.244C255.641 426.778 254.936 426.545 254.05 426.545C253.266 426.545 252.578 426.75 251.987 427.159C251.402 427.562 250.945 428.134 250.615 428.872C250.291 429.605 250.129 430.466 250.129 431.455C250.129 432.466 250.288 433.347 250.607 434.097C250.93 434.847 251.385 435.429 251.97 435.844C252.561 436.259 253.254 436.466 254.05 436.466C254.572 436.466 255.047 436.375 255.473 436.193C255.899 436.011 256.26 435.75 256.555 435.409C256.851 435.068 257.061 434.659 257.186 434.182H259.197C259.084 434.955 258.803 435.651 258.354 436.27C257.911 436.884 257.322 437.372 256.589 437.736C255.862 438.094 255.016 438.273 254.05 438.273ZM267.456 438.273C266.274 438.273 265.237 437.991 264.345 437.429C263.459 436.866 262.766 436.08 262.266 435.068C261.771 434.057 261.524 432.875 261.524 431.523C261.524 430.159 261.771 428.969 262.266 427.952C262.766 426.935 263.459 426.145 264.345 425.582C265.237 425.02 266.274 424.739 267.456 424.739C268.638 424.739 269.672 425.02 270.558 425.582C271.45 426.145 272.143 426.935 272.638 427.952C273.138 428.969 273.388 430.159 273.388 431.523C273.388 432.875 273.138 434.057 272.638 435.068C272.143 436.08 271.45 436.866 270.558 437.429C269.672 437.991 268.638 438.273 267.456 438.273ZM267.456 436.466C268.354 436.466 269.092 436.236 269.672 435.776C270.251 435.315 270.68 434.71 270.959 433.96C271.237 433.21 271.376 432.398 271.376 431.523C271.376 430.648 271.237 429.832 270.959 429.077C270.68 428.321 270.251 427.71 269.672 427.244C269.092 426.778 268.354 426.545 267.456 426.545C266.558 426.545 265.82 426.778 265.24 427.244C264.661 427.71 264.232 428.321 263.953 429.077C263.675 429.832 263.536 430.648 263.536 431.523C263.536 432.398 263.675 433.21 263.953 433.96C264.232 434.71 264.661 435.315 265.24 435.776C265.82 436.236 266.558 436.466 267.456 436.466ZM278.469 430.125V438H276.458V424.909H278.401V426.955H278.572C278.879 426.29 279.344 425.756 279.969 425.352C280.594 424.943 281.401 424.739 282.39 424.739C283.276 424.739 284.052 424.92 284.717 425.284C285.381 425.642 285.898 426.188 286.268 426.92C286.637 427.648 286.822 428.568 286.822 429.682V438H284.81V429.818C284.81 428.79 284.543 427.989 284.009 427.415C283.475 426.835 282.742 426.545 281.81 426.545C281.168 426.545 280.594 426.685 280.089 426.963C279.589 427.241 279.194 427.648 278.904 428.182C278.614 428.716 278.469 429.364 278.469 430.125ZM295.44 438.273C294.349 438.273 293.386 437.997 292.551 437.446C291.716 436.889 291.063 436.105 290.591 435.094C290.119 434.077 289.884 432.875 289.884 431.489C289.884 430.114 290.119 428.92 290.591 427.909C291.063 426.898 291.719 426.116 292.56 425.565C293.401 425.014 294.372 424.739 295.474 424.739C296.327 424.739 297 424.881 297.494 425.165C297.994 425.443 298.375 425.761 298.636 426.119C298.903 426.472 299.111 426.761 299.259 426.989H299.429V420.545H301.44V438H299.497V435.989H299.259C299.111 436.227 298.901 436.528 298.628 436.892C298.355 437.25 297.966 437.571 297.46 437.855C296.955 438.134 296.281 438.273 295.44 438.273ZM295.713 436.466C296.52 436.466 297.202 436.256 297.759 435.835C298.315 435.409 298.739 434.821 299.028 434.071C299.318 433.315 299.463 432.443 299.463 431.455C299.463 430.477 299.321 429.622 299.037 428.889C298.753 428.151 298.332 427.577 297.776 427.168C297.219 426.753 296.531 426.545 295.713 426.545C294.861 426.545 294.151 426.764 293.582 427.202C293.02 427.634 292.597 428.222 292.312 428.966C292.034 429.705 291.895 430.534 291.895 431.455C291.895 432.386 292.037 433.233 292.321 433.994C292.611 434.75 293.037 435.352 293.599 435.801C294.168 436.244 294.872 436.466 295.713 436.466ZM314.676 427.841L312.869 428.352C312.756 428.051 312.588 427.759 312.366 427.474C312.151 427.185 311.855 426.946 311.48 426.759C311.105 426.571 310.625 426.477 310.04 426.477C309.239 426.477 308.571 426.662 308.037 427.031C307.509 427.395 307.244 427.858 307.244 428.42C307.244 428.92 307.426 429.315 307.79 429.605C308.153 429.895 308.722 430.136 309.494 430.33L311.438 430.807C312.608 431.091 313.48 431.526 314.054 432.111C314.628 432.69 314.915 433.437 314.915 434.352C314.915 435.102 314.699 435.773 314.267 436.364C313.841 436.955 313.244 437.42 312.477 437.761C311.71 438.102 310.818 438.273 309.801 438.273C308.466 438.273 307.361 437.983 306.486 437.403C305.611 436.824 305.057 435.977 304.824 434.864L306.733 434.386C306.915 435.091 307.259 435.619 307.764 435.972C308.276 436.324 308.943 436.5 309.767 436.5C310.705 436.5 311.449 436.301 312 435.903C312.557 435.5 312.835 435.017 312.835 434.455C312.835 434 312.676 433.619 312.358 433.312C312.04 433 311.551 432.767 310.892 432.614L308.71 432.102C307.511 431.818 306.631 431.378 306.068 430.781C305.511 430.179 305.233 429.426 305.233 428.523C305.233 427.784 305.44 427.131 305.855 426.562C306.276 425.994 306.847 425.548 307.568 425.224C308.295 424.901 309.119 424.739 310.04 424.739C311.335 424.739 312.352 425.023 313.091 425.591C313.835 426.159 314.364 426.909 314.676 427.841ZM44.1136 463.841L42.3068 464.352C42.1932 464.051 42.0256 463.759 41.804 463.474C41.5881 463.185 41.2926 462.946 40.9176 462.759C40.5426 462.571 40.0625 462.477 39.4773 462.477C38.6761 462.477 38.0085 462.662 37.4744 463.031C36.946 463.395 36.6818 463.858 36.6818 464.42C36.6818 464.92 36.8636 465.315 37.2273 465.605C37.5909 465.895 38.1591 466.136 38.9318 466.33L40.875 466.807C42.0455 467.091 42.9176 467.526 43.4915 468.111C44.0653 468.69 44.3523 469.437 44.3523 470.352C44.3523 471.102 44.1364 471.773 43.7045 472.364C43.2784 472.955 42.6818 473.42 41.9148 473.761C41.1477 474.102 40.2557 474.273 39.2386 474.273C37.9034 474.273 36.7983 473.983 35.9233 473.403C35.0483 472.824 34.4943 471.977 34.2614 470.864L36.1705 470.386C36.3523 471.091 36.696 471.619 37.2017 471.972C37.7131 472.324 38.3807 472.5 39.2045 472.5C40.142 472.5 40.8864 472.301 41.4375 471.903C41.9943 471.5 42.2727 471.017 42.2727 470.455C42.2727 470 42.1136 469.619 41.7955 469.312C41.4773 469 40.9886 468.767 40.3295 468.614L38.1477 468.102C36.9489 467.818 36.0682 467.378 35.5057 466.781C34.9489 466.179 34.6705 465.426 34.6705 464.523C34.6705 463.784 34.8778 463.131 35.2926 462.562C35.7131 461.994 36.2841 461.548 37.0057 461.224C37.733 460.901 38.5568 460.739 39.4773 460.739C40.7727 460.739 41.7898 461.023 42.5284 461.591C43.2727 462.159 43.8011 462.909 44.1136 463.841ZM52.8686 474.273C51.6072 474.273 50.5192 473.994 49.6044 473.438C48.6953 472.875 47.9936 472.091 47.4993 471.085C47.0107 470.074 46.7663 468.898 46.7663 467.557C46.7663 466.216 47.0107 465.034 47.4993 464.011C47.9936 462.983 48.6811 462.182 49.5618 461.608C50.4482 461.028 51.4822 460.739 52.6641 460.739C53.3459 460.739 54.0192 460.852 54.6839 461.08C55.3487 461.307 55.9538 461.676 56.4993 462.188C57.0447 462.693 57.4794 463.364 57.8033 464.199C58.1271 465.034 58.2891 466.062 58.2891 467.284V468.136H48.1982V466.398H56.2436C56.2436 465.659 56.0959 465 55.8004 464.42C55.5107 463.841 55.0959 463.384 54.5561 463.048C54.022 462.713 53.3913 462.545 52.6641 462.545C51.8629 462.545 51.1697 462.744 50.5845 463.142C50.005 463.534 49.5589 464.045 49.2464 464.676C48.9339 465.307 48.7777 465.983 48.7777 466.705V467.864C48.7777 468.852 48.9482 469.69 49.2891 470.378C49.6357 471.06 50.1158 471.58 50.7294 471.938C51.343 472.29 52.0561 472.466 52.8686 472.466C53.397 472.466 53.8743 472.392 54.3004 472.244C54.7322 472.091 55.1044 471.864 55.4169 471.562C55.7294 471.256 55.9709 470.875 56.1413 470.42L58.0845 470.966C57.88 471.625 57.5362 472.205 57.0533 472.705C56.5703 473.199 55.9737 473.585 55.2635 473.864C54.5533 474.136 53.755 474.273 52.8686 474.273ZM65.201 474.307C64.3714 474.307 63.6186 474.151 62.9425 473.838C62.2663 473.52 61.7294 473.062 61.3317 472.466C60.9339 471.864 60.7351 471.136 60.7351 470.284C60.7351 469.534 60.8828 468.926 61.1783 468.46C61.4737 467.989 61.8686 467.619 62.3629 467.352C62.8572 467.085 63.4027 466.886 63.9993 466.756C64.6016 466.619 65.2067 466.511 65.8146 466.432C66.6101 466.33 67.255 466.253 67.7493 466.202C68.2493 466.145 68.6129 466.051 68.8402 465.92C69.0732 465.79 69.1896 465.562 69.1896 465.239V465.17C69.1896 464.33 68.9595 463.676 68.4993 463.21C68.0447 462.744 67.3544 462.511 66.4283 462.511C65.468 462.511 64.7152 462.722 64.1697 463.142C63.6243 463.562 63.2408 464.011 63.0192 464.489L61.1101 463.807C61.451 463.011 61.9055 462.392 62.4737 461.949C63.0476 461.5 63.6726 461.187 64.3487 461.011C65.0305 460.83 65.701 460.739 66.3601 460.739C66.7805 460.739 67.2635 460.79 67.8089 460.892C68.3601 460.989 68.8913 461.19 69.4027 461.497C69.9197 461.804 70.3487 462.267 70.6896 462.886C71.0305 463.506 71.201 464.335 71.201 465.375V474H69.1896V472.227H69.0874C68.951 472.511 68.7237 472.815 68.4055 473.139C68.0874 473.463 67.6641 473.739 67.1357 473.966C66.6072 474.193 65.9624 474.307 65.201 474.307ZM65.5078 472.5C66.3033 472.5 66.9737 472.344 67.5192 472.031C68.0703 471.719 68.4851 471.315 68.7635 470.821C69.0476 470.327 69.1896 469.807 69.1896 469.261V467.42C69.1044 467.523 68.9169 467.616 68.6271 467.702C68.343 467.781 68.0135 467.852 67.6385 467.915C67.2692 467.972 66.9084 468.023 66.5561 468.068C66.2095 468.108 65.9283 468.142 65.7124 468.17C65.1896 468.239 64.701 468.349 64.2464 468.503C63.7976 468.651 63.4339 468.875 63.1555 469.176C62.8828 469.472 62.7464 469.875 62.7464 470.386C62.7464 471.085 63.005 471.614 63.522 471.972C64.0447 472.324 64.7067 472.5 65.5078 472.5ZM74.8722 474V460.909H76.8153V462.955H76.9858C77.2585 462.256 77.6989 461.713 78.3068 461.327C78.9148 460.935 79.6449 460.739 80.4972 460.739C81.3608 460.739 82.0795 460.935 82.6534 461.327C83.233 461.713 83.6847 462.256 84.0085 462.955H84.1449C84.4801 462.278 84.983 461.741 85.6534 461.344C86.3239 460.94 87.1278 460.739 88.0653 460.739C89.2358 460.739 90.1932 461.105 90.9375 461.838C91.6818 462.565 92.054 463.699 92.054 465.239V474H90.0426V465.239C90.0426 464.273 89.7784 463.582 89.25 463.168C88.7216 462.753 88.0994 462.545 87.3835 462.545C86.4631 462.545 85.75 462.824 85.2443 463.381C84.7386 463.932 84.4858 464.631 84.4858 465.477V474H82.4403V465.034C82.4403 464.29 82.1989 463.69 81.7159 463.236C81.233 462.776 80.6108 462.545 79.8494 462.545C79.3267 462.545 78.8381 462.685 78.3835 462.963C77.9347 463.241 77.571 463.628 77.2926 464.122C77.0199 464.611 76.8835 465.176 76.8835 465.818V474H74.8722ZM97.7429 456.545V474H95.7315V456.545H97.7429ZM106.915 474.273C105.654 474.273 104.566 473.994 103.651 473.438C102.742 472.875 102.04 472.091 101.546 471.085C101.058 470.074 100.813 468.898 100.813 467.557C100.813 466.216 101.058 465.034 101.546 464.011C102.04 462.983 102.728 462.182 103.609 461.608C104.495 461.028 105.529 460.739 106.711 460.739C107.393 460.739 108.066 460.852 108.731 461.08C109.396 461.307 110.001 461.676 110.546 462.188C111.092 462.693 111.526 463.364 111.85 464.199C112.174 465.034 112.336 466.062 112.336 467.284V468.136H102.245V466.398H110.29C110.29 465.659 110.143 465 109.847 464.42C109.558 463.841 109.143 463.384 108.603 463.048C108.069 462.713 107.438 462.545 106.711 462.545C105.91 462.545 105.217 462.744 104.631 463.142C104.052 463.534 103.606 464.045 103.293 464.676C102.981 465.307 102.825 465.983 102.825 466.705V467.864C102.825 468.852 102.995 469.69 103.336 470.378C103.683 471.06 104.163 471.58 104.776 471.938C105.39 472.29 106.103 472.466 106.915 472.466C107.444 472.466 107.921 472.392 108.347 472.244C108.779 472.091 109.151 471.864 109.464 471.562C109.776 471.256 110.018 470.875 110.188 470.42L112.131 470.966C111.927 471.625 111.583 472.205 111.1 472.705C110.617 473.199 110.021 473.585 109.31 473.864C108.6 474.136 107.802 474.273 106.915 474.273ZM124.668 463.841L122.862 464.352C122.748 464.051 122.58 463.759 122.359 463.474C122.143 463.185 121.847 462.946 121.472 462.759C121.097 462.571 120.617 462.477 120.032 462.477C119.231 462.477 118.563 462.662 118.029 463.031C117.501 463.395 117.237 463.858 117.237 464.42C117.237 464.92 117.418 465.315 117.782 465.605C118.146 465.895 118.714 466.136 119.487 466.33L121.43 466.807C122.6 467.091 123.472 467.526 124.046 468.111C124.62 468.69 124.907 469.437 124.907 470.352C124.907 471.102 124.691 471.773 124.259 472.364C123.833 472.955 123.237 473.42 122.469 473.761C121.702 474.102 120.81 474.273 119.793 474.273C118.458 474.273 117.353 473.983 116.478 473.403C115.603 472.824 115.049 471.977 114.816 470.864L116.725 470.386C116.907 471.091 117.251 471.619 117.756 471.972C118.268 472.324 118.935 472.5 119.759 472.5C120.697 472.5 121.441 472.301 121.992 471.903C122.549 471.5 122.827 471.017 122.827 470.455C122.827 470 122.668 469.619 122.35 469.312C122.032 469 121.543 468.767 120.884 468.614L118.702 468.102C117.504 467.818 116.623 467.378 116.06 466.781C115.504 466.179 115.225 465.426 115.225 464.523C115.225 463.784 115.433 463.131 115.847 462.562C116.268 461.994 116.839 461.548 117.56 461.224C118.288 460.901 119.112 460.739 120.032 460.739C121.327 460.739 122.344 461.023 123.083 461.591C123.827 462.159 124.356 462.909 124.668 463.841ZM137.207 463.841L135.401 464.352C135.287 464.051 135.119 463.759 134.898 463.474C134.682 463.185 134.386 462.946 134.011 462.759C133.636 462.571 133.156 462.477 132.571 462.477C131.77 462.477 131.102 462.662 130.568 463.031C130.04 463.395 129.776 463.858 129.776 464.42C129.776 464.92 129.957 465.315 130.321 465.605C130.685 465.895 131.253 466.136 132.026 466.33L133.969 466.807C135.139 467.091 136.011 467.526 136.585 468.111C137.159 468.69 137.446 469.437 137.446 470.352C137.446 471.102 137.23 471.773 136.798 472.364C136.372 472.955 135.776 473.42 135.009 473.761C134.241 474.102 133.349 474.273 132.332 474.273C130.997 474.273 129.892 473.983 129.017 473.403C128.142 472.824 127.588 471.977 127.355 470.864L129.264 470.386C129.446 471.091 129.79 471.619 130.295 471.972C130.807 472.324 131.474 472.5 132.298 472.5C133.236 472.5 133.98 472.301 134.531 471.903C135.088 471.5 135.366 471.017 135.366 470.455C135.366 470 135.207 469.619 134.889 469.312C134.571 469 134.082 468.767 133.423 468.614L131.241 468.102C130.043 467.818 129.162 467.378 128.599 466.781C128.043 466.179 127.764 465.426 127.764 464.523C127.764 463.784 127.972 463.131 128.386 462.562C128.807 461.994 129.378 461.548 130.099 461.224C130.827 460.901 131.651 460.739 132.571 460.739C133.866 460.739 134.884 461.023 135.622 461.591C136.366 462.159 136.895 462.909 137.207 463.841ZM142.485 456.545V474H140.474V456.545H142.485ZM147.464 478.909C147.124 478.909 146.82 478.881 146.553 478.824C146.286 478.773 146.101 478.722 145.999 478.67L146.51 476.898C146.999 477.023 147.43 477.068 147.805 477.034C148.18 477 148.513 476.832 148.803 476.531C149.098 476.236 149.368 475.756 149.612 475.091L149.987 474.068L145.146 460.909H147.328L150.942 471.341H151.078L154.692 460.909H156.874L151.317 475.909C151.067 476.585 150.757 477.145 150.388 477.588C150.018 478.037 149.589 478.369 149.101 478.585C148.618 478.801 148.072 478.909 147.464 478.909ZM170.131 474.307C169.301 474.307 168.548 474.151 167.872 473.838C167.196 473.52 166.659 473.062 166.261 472.466C165.864 471.864 165.665 471.136 165.665 470.284C165.665 469.534 165.813 468.926 166.108 468.46C166.403 467.989 166.798 467.619 167.293 467.352C167.787 467.085 168.332 466.886 168.929 466.756C169.531 466.619 170.136 466.511 170.744 466.432C171.54 466.33 172.185 466.253 172.679 466.202C173.179 466.145 173.543 466.051 173.77 465.92C174.003 465.79 174.119 465.562 174.119 465.239V465.17C174.119 464.33 173.889 463.676 173.429 463.21C172.974 462.744 172.284 462.511 171.358 462.511C170.398 462.511 169.645 462.722 169.099 463.142C168.554 463.562 168.17 464.011 167.949 464.489L166.04 463.807C166.381 463.011 166.835 462.392 167.403 461.949C167.977 461.5 168.602 461.187 169.278 461.011C169.96 460.83 170.631 460.739 171.29 460.739C171.71 460.739 172.193 460.79 172.739 460.892C173.29 460.989 173.821 461.19 174.332 461.497C174.849 461.804 175.278 462.267 175.619 462.886C175.96 463.506 176.131 464.335 176.131 465.375V474H174.119V472.227H174.017C173.881 472.511 173.653 472.815 173.335 473.139C173.017 473.463 172.594 473.739 172.065 473.966C171.537 474.193 170.892 474.307 170.131 474.307ZM170.438 472.5C171.233 472.5 171.903 472.344 172.449 472.031C173 471.719 173.415 471.315 173.693 470.821C173.977 470.327 174.119 469.807 174.119 469.261V467.42C174.034 467.523 173.847 467.616 173.557 467.702C173.273 467.781 172.943 467.852 172.568 467.915C172.199 467.972 171.838 468.023 171.486 468.068C171.139 468.108 170.858 468.142 170.642 468.17C170.119 468.239 169.631 468.349 169.176 468.503C168.727 468.651 168.364 468.875 168.085 469.176C167.813 469.472 167.676 469.875 167.676 470.386C167.676 471.085 167.935 471.614 168.452 471.972C168.974 472.324 169.636 472.5 170.438 472.5ZM181.813 466.125V474H179.802V460.909H181.745V462.955H181.915C182.222 462.29 182.688 461.756 183.313 461.352C183.938 460.943 184.745 460.739 185.734 460.739C186.62 460.739 187.396 460.92 188.06 461.284C188.725 461.642 189.242 462.188 189.612 462.92C189.981 463.648 190.165 464.568 190.165 465.682V474H188.154V465.818C188.154 464.79 187.887 463.989 187.353 463.415C186.819 462.835 186.086 462.545 185.154 462.545C184.512 462.545 183.938 462.685 183.433 462.963C182.933 463.241 182.538 463.648 182.248 464.182C181.958 464.716 181.813 465.364 181.813 466.125ZM198.784 474.273C197.693 474.273 196.73 473.997 195.895 473.446C195.06 472.889 194.406 472.105 193.935 471.094C193.463 470.077 193.227 468.875 193.227 467.489C193.227 466.114 193.463 464.92 193.935 463.909C194.406 462.898 195.063 462.116 195.903 461.565C196.744 461.014 197.716 460.739 198.818 460.739C199.67 460.739 200.344 460.881 200.838 461.165C201.338 461.443 201.719 461.761 201.98 462.119C202.247 462.472 202.455 462.761 202.602 462.989H202.773V456.545H204.784V474H202.841V471.989H202.602C202.455 472.227 202.244 472.528 201.972 472.892C201.699 473.25 201.31 473.571 200.804 473.855C200.298 474.134 199.625 474.273 198.784 474.273ZM199.057 472.466C199.864 472.466 200.545 472.256 201.102 471.835C201.659 471.409 202.082 470.821 202.372 470.071C202.662 469.315 202.807 468.443 202.807 467.455C202.807 466.477 202.665 465.622 202.381 464.889C202.097 464.151 201.676 463.577 201.119 463.168C200.563 462.753 199.875 462.545 199.057 462.545C198.205 462.545 197.494 462.764 196.926 463.202C196.364 463.634 195.94 464.222 195.656 464.966C195.378 465.705 195.239 466.534 195.239 467.455C195.239 468.386 195.381 469.233 195.665 469.994C195.955 470.75 196.381 471.352 196.943 471.801C197.511 472.244 198.216 472.466 199.057 472.466ZM220.986 474.273C219.724 474.273 218.636 473.994 217.722 473.438C216.812 472.875 216.111 472.091 215.616 471.085C215.128 470.074 214.884 468.898 214.884 467.557C214.884 466.216 215.128 465.034 215.616 464.011C216.111 462.983 216.798 462.182 217.679 461.608C218.565 461.028 219.599 460.739 220.781 460.739C221.463 460.739 222.136 460.852 222.801 461.08C223.466 461.307 224.071 461.676 224.616 462.188C225.162 462.693 225.597 463.364 225.92 464.199C226.244 465.034 226.406 466.062 226.406 467.284V468.136H216.315V466.398H224.361C224.361 465.659 224.213 465 223.918 464.42C223.628 463.841 223.213 463.384 222.673 463.048C222.139 462.713 221.509 462.545 220.781 462.545C219.98 462.545 219.287 462.744 218.702 463.142C218.122 463.534 217.676 464.045 217.364 464.676C217.051 465.307 216.895 465.983 216.895 466.705V467.864C216.895 468.852 217.065 469.69 217.406 470.378C217.753 471.06 218.233 471.58 218.847 471.938C219.46 472.29 220.173 472.466 220.986 472.466C221.514 472.466 221.991 472.392 222.418 472.244C222.849 472.091 223.222 471.864 223.534 471.562C223.847 471.256 224.088 470.875 224.259 470.42L226.202 470.966C225.997 471.625 225.653 472.205 225.17 472.705C224.688 473.199 224.091 473.585 223.381 473.864C222.67 474.136 221.872 474.273 220.986 474.273ZM233.318 474.307C232.489 474.307 231.736 474.151 231.06 473.838C230.384 473.52 229.847 473.062 229.449 472.466C229.051 471.864 228.852 471.136 228.852 470.284C228.852 469.534 229 468.926 229.295 468.46C229.591 467.989 229.986 467.619 230.48 467.352C230.974 467.085 231.52 466.886 232.116 466.756C232.719 466.619 233.324 466.511 233.932 466.432C234.727 466.33 235.372 466.253 235.866 466.202C236.366 466.145 236.73 466.051 236.957 465.92C237.19 465.79 237.307 465.562 237.307 465.239V465.17C237.307 464.33 237.077 463.676 236.616 463.21C236.162 462.744 235.472 462.511 234.545 462.511C233.585 462.511 232.832 462.722 232.287 463.142C231.741 463.562 231.358 464.011 231.136 464.489L229.227 463.807C229.568 463.011 230.023 462.392 230.591 461.949C231.165 461.5 231.79 461.187 232.466 461.011C233.148 460.83 233.818 460.739 234.477 460.739C234.898 460.739 235.381 460.79 235.926 460.892C236.477 460.989 237.009 461.19 237.52 461.497C238.037 461.804 238.466 462.267 238.807 462.886C239.148 463.506 239.318 464.335 239.318 465.375V474H237.307V472.227H237.205C237.068 472.511 236.841 472.815 236.523 473.139C236.205 473.463 235.781 473.739 235.253 473.966C234.724 474.193 234.08 474.307 233.318 474.307ZM233.625 472.5C234.42 472.5 235.091 472.344 235.636 472.031C236.188 471.719 236.602 471.315 236.881 470.821C237.165 470.327 237.307 469.807 237.307 469.261V467.42C237.222 467.523 237.034 467.616 236.744 467.702C236.46 467.781 236.131 467.852 235.756 467.915C235.386 467.972 235.026 468.023 234.673 468.068C234.327 468.108 234.045 468.142 233.83 468.17C233.307 468.239 232.818 468.349 232.364 468.503C231.915 468.651 231.551 468.875 231.273 469.176C231 469.472 230.864 469.875 230.864 470.386C230.864 471.085 231.122 471.614 231.639 471.972C232.162 472.324 232.824 472.5 233.625 472.5ZM252.262 463.841L250.455 464.352C250.342 464.051 250.174 463.759 249.952 463.474C249.737 463.185 249.441 462.946 249.066 462.759C248.691 462.571 248.211 462.477 247.626 462.477C246.825 462.477 246.157 462.662 245.623 463.031C245.094 463.395 244.83 463.858 244.83 464.42C244.83 464.92 245.012 465.315 245.376 465.605C245.739 465.895 246.308 466.136 247.08 466.33L249.023 466.807C250.194 467.091 251.066 467.526 251.64 468.111C252.214 468.69 252.501 469.437 252.501 470.352C252.501 471.102 252.285 471.773 251.853 472.364C251.427 472.955 250.83 473.42 250.063 473.761C249.296 474.102 248.404 474.273 247.387 474.273C246.052 474.273 244.947 473.983 244.072 473.403C243.197 472.824 242.643 471.977 242.41 470.864L244.319 470.386C244.501 471.091 244.844 471.619 245.35 471.972C245.862 472.324 246.529 472.5 247.353 472.5C248.29 472.5 249.035 472.301 249.586 471.903C250.143 471.5 250.421 471.017 250.421 470.455C250.421 470 250.262 469.619 249.944 469.312C249.626 469 249.137 468.767 248.478 468.614L246.296 468.102C245.097 467.818 244.217 467.378 243.654 466.781C243.097 466.179 242.819 465.426 242.819 464.523C242.819 463.784 243.026 463.131 243.441 462.562C243.862 461.994 244.433 461.548 245.154 461.224C245.881 460.901 246.705 460.739 247.626 460.739C248.921 460.739 249.938 461.023 250.677 461.591C251.421 462.159 251.95 462.909 252.262 463.841ZM255.528 474V460.909H257.54V474H255.528ZM256.551 458.727C256.159 458.727 255.821 458.594 255.537 458.327C255.259 458.06 255.119 457.739 255.119 457.364C255.119 456.989 255.259 456.668 255.537 456.401C255.821 456.134 256.159 456 256.551 456C256.943 456 257.278 456.134 257.557 456.401C257.841 456.668 257.983 456.989 257.983 457.364C257.983 457.739 257.841 458.06 257.557 458.327C257.278 458.594 256.943 458.727 256.551 458.727ZM263.235 456.545V474H261.224V456.545H263.235ZM268.214 478.909C267.874 478.909 267.57 478.881 267.303 478.824C267.036 478.773 266.851 478.722 266.749 478.67L267.26 476.898C267.749 477.023 268.18 477.068 268.555 477.034C268.93 477 269.263 476.832 269.553 476.531C269.848 476.236 270.118 475.756 270.362 475.091L270.737 474.068L265.896 460.909H268.078L271.692 471.341H271.828L275.442 460.909H277.624L272.067 475.909C271.817 476.585 271.507 477.145 271.138 477.588C270.768 478.037 270.339 478.369 269.851 478.585C269.368 478.801 268.822 478.909 268.214 478.909Z" fill="#49494B"/>
<path d="M38.6122 385H34.1122L42.3054 361.727H47.5099L55.7145 385H51.2145L44.9986 366.5H44.8168L38.6122 385ZM38.7599 375.875H51.0327V379.261H38.7599V375.875ZM64.544 385.307C63.1728 385.307 61.9455 384.955 60.8622 384.25C59.7789 383.545 58.9228 382.523 58.294 381.182C57.6652 379.841 57.3509 378.212 57.3509 376.295C57.3509 374.356 57.669 372.72 58.3054 371.386C58.9493 370.045 59.8168 369.034 60.9077 368.352C61.9986 367.663 63.2145 367.318 64.5554 367.318C65.5781 367.318 66.419 367.492 67.0781 367.841C67.7372 368.182 68.2599 368.595 68.6463 369.08C69.0327 369.557 69.3319 370.008 69.544 370.432H69.7145V361.727H73.8395V385H69.794V382.25H69.544C69.3319 382.674 69.0251 383.125 68.6236 383.602C68.2221 384.072 67.6918 384.473 67.0327 384.807C66.3736 385.14 65.544 385.307 64.544 385.307ZM65.6918 381.932C66.563 381.932 67.3054 381.697 67.919 381.227C68.5327 380.75 68.9986 380.087 69.3168 379.239C69.6349 378.39 69.794 377.402 69.794 376.273C69.794 375.144 69.6349 374.163 69.3168 373.33C69.0062 372.496 68.544 371.848 67.9304 371.386C67.3243 370.924 66.5781 370.693 65.6918 370.693C64.7751 370.693 64.0099 370.932 63.3963 371.409C62.7827 371.886 62.3205 372.545 62.0099 373.386C61.6993 374.227 61.544 375.189 61.544 376.273C61.544 377.364 61.6993 378.337 62.0099 379.193C62.3281 380.042 62.794 380.712 63.4077 381.205C64.0289 381.689 64.7902 381.932 65.6918 381.932ZM84.7003 385.307C83.3291 385.307 82.1018 384.955 81.0185 384.25C79.9351 383.545 79.0791 382.523 78.4503 381.182C77.8215 379.841 77.5071 378.212 77.5071 376.295C77.5071 374.356 77.8253 372.72 78.4616 371.386C79.1056 370.045 79.973 369.034 81.0639 368.352C82.1548 367.663 83.3707 367.318 84.7116 367.318C85.7344 367.318 86.5753 367.492 87.2344 367.841C87.8935 368.182 88.4162 368.595 88.8026 369.08C89.1889 369.557 89.4882 370.008 89.7003 370.432H89.8707V361.727H93.9957V385H89.9503V382.25H89.7003C89.4882 382.674 89.1813 383.125 88.7798 383.602C88.3783 384.072 87.848 384.473 87.1889 384.807C86.5298 385.14 85.7003 385.307 84.7003 385.307ZM85.848 381.932C86.7192 381.932 87.4616 381.697 88.0753 381.227C88.6889 380.75 89.1548 380.087 89.473 379.239C89.7912 378.39 89.9503 377.402 89.9503 376.273C89.9503 375.144 89.7912 374.163 89.473 373.33C89.1624 372.496 88.7003 371.848 88.0866 371.386C87.4806 370.924 86.7344 370.693 85.848 370.693C84.9313 370.693 84.1662 370.932 83.5526 371.409C82.9389 371.886 82.4768 372.545 82.1662 373.386C81.8556 374.227 81.7003 375.189 81.7003 376.273C81.7003 377.364 81.8556 378.337 82.1662 379.193C82.4844 380.042 82.9503 380.712 83.5639 381.205C84.1851 381.689 84.9465 381.932 85.848 381.932ZM98.3793 385V367.545H102.493V385H98.3793ZM100.447 365.068C99.7959 365.068 99.2353 364.852 98.7656 364.42C98.2959 363.981 98.0611 363.455 98.0611 362.841C98.0611 362.22 98.2959 361.693 98.7656 361.261C99.2353 360.822 99.7959 360.602 100.447 360.602C101.107 360.602 101.667 360.822 102.129 361.261C102.599 361.693 102.834 362.22 102.834 362.841C102.834 363.455 102.599 363.981 102.129 364.42C101.667 364.852 101.107 365.068 100.447 365.068ZM110.837 374.773V385H106.723V367.545H110.655V370.511H110.859C111.261 369.534 111.901 368.758 112.78 368.182C113.666 367.606 114.761 367.318 116.064 367.318C117.268 367.318 118.318 367.576 119.212 368.091C120.113 368.606 120.81 369.352 121.303 370.33C121.803 371.307 122.049 372.492 122.041 373.886V385H117.928V374.523C117.928 373.356 117.625 372.443 117.018 371.784C116.42 371.125 115.59 370.795 114.53 370.795C113.81 370.795 113.17 370.955 112.609 371.273C112.056 371.583 111.621 372.034 111.303 372.625C110.992 373.216 110.837 373.932 110.837 374.773ZM133.814 391.909C132.337 391.909 131.068 391.708 130.007 391.307C128.946 390.913 128.094 390.383 127.45 389.716C126.806 389.049 126.359 388.311 126.109 387.5L129.814 386.602C129.981 386.943 130.223 387.28 130.541 387.614C130.859 387.955 131.287 388.235 131.825 388.455C132.371 388.682 133.056 388.795 133.882 388.795C135.049 388.795 136.015 388.511 136.78 387.943C137.545 387.383 137.928 386.458 137.928 385.17V381.864H137.723C137.511 382.288 137.2 382.723 136.791 383.17C136.39 383.617 135.856 383.992 135.189 384.295C134.53 384.598 133.7 384.75 132.7 384.75C131.359 384.75 130.143 384.436 129.053 383.807C127.969 383.17 127.106 382.223 126.462 380.966C125.825 379.701 125.507 378.117 125.507 376.216C125.507 374.299 125.825 372.682 126.462 371.364C127.106 370.038 127.973 369.034 129.064 368.352C130.155 367.663 131.371 367.318 132.712 367.318C133.734 367.318 134.575 367.492 135.234 367.841C135.901 368.182 136.431 368.595 136.825 369.08C137.219 369.557 137.518 370.008 137.723 370.432H137.95V367.545H142.007V385.284C142.007 386.777 141.651 388.011 140.939 388.989C140.227 389.966 139.253 390.697 138.018 391.182C136.784 391.667 135.382 391.909 133.814 391.909ZM133.848 381.523C134.719 381.523 135.462 381.311 136.075 380.886C136.689 380.462 137.155 379.852 137.473 379.057C137.791 378.261 137.95 377.307 137.95 376.193C137.95 375.095 137.791 374.133 137.473 373.307C137.162 372.481 136.7 371.841 136.087 371.386C135.481 370.924 134.734 370.693 133.848 370.693C132.931 370.693 132.166 370.932 131.553 371.409C130.939 371.886 130.477 372.542 130.166 373.375C129.856 374.201 129.7 375.14 129.7 376.193C129.7 377.261 129.856 378.197 130.166 379C130.484 379.795 130.95 380.417 131.564 380.864C132.185 381.303 132.946 381.523 133.848 381.523ZM154.342 385V361.727H163.251C164.933 361.727 166.331 361.992 167.445 362.523C168.566 363.045 169.403 363.761 169.956 364.67C170.517 365.58 170.797 366.61 170.797 367.761C170.797 368.708 170.615 369.519 170.251 370.193C169.888 370.86 169.399 371.402 168.786 371.818C168.172 372.235 167.486 372.534 166.729 372.716V372.943C167.554 372.989 168.346 373.242 169.104 373.705C169.869 374.159 170.494 374.803 170.979 375.636C171.464 376.47 171.706 377.477 171.706 378.659C171.706 379.864 171.414 380.947 170.831 381.909C170.248 382.864 169.369 383.617 168.195 384.17C167.02 384.723 165.543 385 163.763 385H154.342ZM158.558 381.477H163.092C164.623 381.477 165.725 381.186 166.399 380.602C167.081 380.011 167.422 379.254 167.422 378.33C167.422 377.64 167.251 377.019 166.911 376.466C166.57 375.905 166.085 375.466 165.456 375.148C164.827 374.822 164.077 374.659 163.206 374.659H158.558V381.477ZM158.558 371.625H162.729C163.456 371.625 164.111 371.492 164.695 371.227C165.278 370.955 165.736 370.572 166.07 370.08C166.411 369.58 166.581 368.989 166.581 368.307C166.581 367.405 166.263 366.663 165.626 366.08C164.998 365.496 164.062 365.205 162.82 365.205H158.558V371.625ZM175.192 385V367.545H179.305V385H175.192ZM177.26 365.068C176.608 365.068 176.048 364.852 175.578 364.42C175.108 363.981 174.874 363.455 174.874 362.841C174.874 362.22 175.108 361.693 175.578 361.261C176.048 360.822 176.608 360.602 177.26 360.602C177.919 360.602 178.48 360.822 178.942 361.261C179.411 361.693 179.646 362.22 179.646 362.841C179.646 363.455 179.411 363.981 178.942 364.42C178.48 364.852 177.919 365.068 177.26 365.068ZM187.649 361.727V385H183.536V361.727H187.649ZM195.993 361.727V385H191.879V361.727H195.993ZM214.018 372.159L210.268 372.568C210.162 372.189 209.977 371.833 209.712 371.5C209.454 371.167 209.106 370.898 208.666 370.693C208.227 370.489 207.689 370.386 207.053 370.386C206.196 370.386 205.477 370.572 204.893 370.943C204.318 371.314 204.034 371.795 204.041 372.386C204.034 372.894 204.219 373.307 204.598 373.625C204.984 373.943 205.621 374.205 206.507 374.409L209.484 375.045C211.136 375.402 212.363 375.966 213.166 376.739C213.977 377.511 214.386 378.523 214.393 379.773C214.386 380.871 214.064 381.841 213.428 382.682C212.799 383.515 211.924 384.167 210.803 384.636C209.681 385.106 208.393 385.341 206.939 385.341C204.803 385.341 203.083 384.894 201.78 384C200.477 383.098 199.7 381.845 199.45 380.239L203.462 379.852C203.643 380.64 204.03 381.235 204.621 381.636C205.212 382.038 205.981 382.239 206.928 382.239C207.905 382.239 208.689 382.038 209.28 381.636C209.878 381.235 210.178 380.739 210.178 380.148C210.178 379.648 209.984 379.235 209.598 378.909C209.219 378.583 208.628 378.333 207.825 378.159L204.848 377.534C203.174 377.186 201.935 376.598 201.132 375.773C200.329 374.939 199.931 373.886 199.939 372.614C199.931 371.538 200.223 370.606 200.814 369.818C201.412 369.023 202.242 368.409 203.303 367.977C204.371 367.538 205.602 367.318 206.996 367.318C209.041 367.318 210.651 367.754 211.825 368.625C213.007 369.496 213.738 370.674 214.018 372.159Z" fill="black"/>
<g clip-path="url(#clip4_317_1991)">
<path d="M380 208.1C381.326 208.1 382.4 209.175 382.4 210.5V223.1H383.1V220.5C383.1 219.175 384.174 218.1 385.5 218.1C386.826 218.1 387.9 219.175 387.9 220.5V223.1H388.6V221.5C388.6 220.175 389.674 219.1 391 219.1C392.326 219.1 393.4 220.175 393.4 221.5V223.1H394.1V223C394.1 221.675 395.174 220.6 396.5 220.6C397.826 220.6 398.9 221.675 398.9 223V229C398.9 229.185 398.878 229.37 398.836 229.55L396.836 238.05C396.581 239.134 395.614 239.9 394.5 239.9H381.5L381.358 239.896C381.029 239.876 380.706 239.789 380.411 239.639C380.074 239.467 379.781 239.217 379.559 238.911H379.558L371.56 227.912C370.78 226.84 371.017 225.338 372.089 224.559C373.161 223.779 374.662 224.017 375.441 225.089L377.419 227.809L377.6 228.057V210.5C377.6 209.175 378.674 208.1 380 208.1ZM382.4 234.1H383.1V227.9H382.4V234.1ZM387.9 234.1H388.6V227.9H387.9V234.1ZM393.4 234.1H394.1V227.9H393.4V234.1Z" fill="white" stroke="black" stroke-width="0.2"/>
</g>
<g clip-path="url(#clip5_317_1991)">
<path d="M365.75 110C370.58 110 374.5 106.117 374.5 101.333V92.6667H365.75C360.92 92.6667 357 96.5494 357 101.333C357 106.117 360.92 110 365.75 110Z" fill="#0ACF83"/>
<path d="M357 83.9999C357 79.2159 360.92 75.3333 365.75 75.3333H374.5V92.6666H365.75C360.92 92.6666 357 88.7839 357 83.9999Z" fill="#A259FF"/>
<path d="M357 66.6667C357 61.8827 360.92 58 365.75 58H374.5V75.3333H365.75C360.92 75.3333 357 71.4507 357 66.6667Z" fill="#F24E1E"/>
<path d="M374.5 58H383.25C388.08 58 392 61.8827 392 66.6667C392 71.4507 388.08 75.3333 383.25 75.3333H374.5V58Z" fill="#FF7262"/>
<path d="M392 83.9999C392 88.7839 388.08 92.6666 383.25 92.6666C378.42 92.6666 374.5 88.7839 374.5 83.9999C374.5 79.2159 378.42 75.3333 383.25 75.3333C388.08 75.3333 392 79.2159 392 83.9999Z" fill="#1ABCFE"/>
</g>
<g clip-path="url(#clip6_317_1991)">
<path d="M61.4327 136.231L81.5252 157.763L74.4161 160.344L68.2263 153.411L60.2884 156.292L61.4327 136.231ZM79.0593 113L93.7017 153.338L62.0305 119.182L79.0593 113ZM50.0355 123.536L47.6424 170.057L33 129.719L50.0355 123.536Z" fill="#FA0F00"/>
</g>
</g>
<rect x="2.5" y="2.5" width="565" height="506" rx="22.5" stroke="#EFEFEF" stroke-width="5"/>
<defs>
<filter id="filter0_dii_317_1991" x="88.8" y="123.8" width="393.4" height="174.4" filterUnits="userSpaceOnUse" color-interpolation-filters="sRGB">
<feFlood flood-opacity="0" result="BackgroundImageFix"/>
<feColorMatrix in="SourceAlpha" type="matrix" values="0 0 0 0 0 0 0 0 0 0 0 0 0 0 0 0 0 0 127 0" result="hardAlpha"/>
<feOffset dy="17"/>
<feGaussianBlur stdDeviation="30.6"/>
<feComposite in2="hardAlpha" operator="out"/>
<feColorMatrix type="matrix" values="0 0 0 0 0.329412 0 0 0 0 0.301961 0 0 0 0 0.94902 0 0 0 0.54 0"/>
<feBlend mode="normal" in2="BackgroundImageFix" result="effect1_dropShadow_317_1991"/>
<feBlend mode="normal" in="SourceGraphic" in2="effect1_dropShadow_317_1991" result="shape"/>
<feColorMatrix in="SourceAlpha" type="matrix" values="0 0 0 0 0 0 0 0 0 0 0 0 0 0 0 0 0 0 127 0" result="hardAlpha"/>
<feOffset dy="4"/>
<feGaussianBlur stdDeviation="14.25"/>
<feComposite in2="hardAlpha" operator="arithmetic" k2="-1" k3="1"/>
<feColorMatrix type="matrix" values="0 0 0 0 0.596978 0 0 0 0 0.579974 0 0 0 0 0.980769 0 0 0 1 0"/>
<feBlend mode="normal" in2="shape" result="effect2_innerShadow_317_1991"/>
<feColorMatrix in="SourceAlpha" type="matrix" values="0 0 0 0 0 0 0 0 0 0 0 0 0 0 0 0 0 0 127 0" result="hardAlpha"/>
<feOffset dy="-5"/>
<feGaussianBlur stdDeviation="10.45"/>
<feComposite in2="hardAlpha" operator="arithmetic" k2="-1" k3="1"/>
<feColorMatrix type="matrix" values="0 0 0 0 0 0 0 0 0 0 0 0 0 0 0 0 0 0 0.02 0"/>
<feBlend mode="normal" in2="effect2_innerShadow_317_1991" result="effect3_innerShadow_317_1991"/>
</filter>
<filter id="filter1_d_317_1991" x="-36.7" y="228.3" width="643.4" height="279.4" filterUnits="userSpaceOnUse" color-interpolation-filters="sRGB">
<feFlood flood-opacity="0" result="BackgroundImageFix"/>
<feColorMatrix in="SourceAlpha" type="matrix" values="0 0 0 0 0 0 0 0 0 0 0 0 0 0 0 0 0 0 127 0" result="hardAlpha"/>
<feOffset dy="-40"/>
<feGaussianBlur stdDeviation="20.85"/>
<feComposite in2="hardAlpha" operator="out"/>
<feColorMatrix type="matrix" values="0 0 0 0 1 0 0 0 0 1 0 0 0 0 1 0 0 0 1 0"/>
<feBlend mode="normal" in2="BackgroundImageFix" result="effect1_dropShadow_317_1991"/>
<feBlend mode="normal" in="SourceGraphic" in2="effect1_dropShadow_317_1991" result="shape"/>
</filter>
<linearGradient id="paint0_linear_317_1991" x1="266.806" y1="-17" x2="-52.7238" y2="337.798" gradientUnits="userSpaceOnUse">
<stop stop-color="#544DF2" stop-opacity="0"/>
<stop offset="1" stop-color="#544DF2" stop-opacity="0.21"/>
</linearGradient>
<linearGradient id="paint1_linear_317_1991" x1="303.194" y1="-17" x2="622.724" y2="337.798" gradientUnits="userSpaceOnUse">
<stop stop-color="#544DF2" stop-opacity="0"/>
<stop offset="1" stop-color="#544DF2" stop-opacity="0.21"/>
</linearGradient>
<clipPath id="clip0_317_1991">
<rect x="5" y="5" width="560" height="501" rx="20" fill="white"/>
</clipPath>
<clipPath id="clip1_317_1991">
<rect width="57" height="40" fill="white" transform="translate(256 258)"/>
</clipPath>
<clipPath id="clip2_317_1991">
<rect width="55" height="56" fill="white" transform="translate(170 54)"/>
</clipPath>
<clipPath id="clip3_317_1991">
<rect width="53.4071" height="53.4071" fill="white" transform="translate(476.929 100.677) rotate(22.2488)"/>
</clipPath>
<clipPath id="clip4_317_1991">
<rect width="28" height="32" fill="white" transform="translate(371 208)"/>
</clipPath>
<clipPath id="clip5_317_1991">
<rect width="35" height="52" fill="white" transform="translate(357 58)"/>
</clipPath>
<clipPath id="clip6_317_1991">
<rect x="33" y="129.719" width="49" height="43" rx="9" transform="rotate(-19.9507 33 129.719)" fill="white"/>
</clipPath>
</defs>
</svg>
