<svg width="651" height="511" viewBox="0 0 651 511" fill="none" xmlns="http://www.w3.org/2000/svg">
<g clip-path="url(#clip0_256_494)">
<rect x="5" y="5" width="641" height="501" rx="20" fill="#FAFAFF"/>
<g clip-path="url(#clip1_256_494)">
<path d="M352.741 264.239C352.414 263.033 351.776 261.934 350.891 261.05C350.006 260.167 348.905 259.53 347.697 259.204C343.273 258 325.471 258 325.471 258C325.471 258 307.668 258.036 303.245 259.24C302.036 259.567 300.935 260.203 300.05 261.087C299.165 261.97 298.527 263.07 298.2 264.276C296.862 272.12 296.343 284.072 298.237 291.602C298.564 292.808 299.202 293.907 300.087 294.791C300.972 295.674 302.073 296.311 303.281 296.637C307.705 297.841 325.507 297.841 325.507 297.841C325.507 297.841 343.31 297.841 347.733 296.637C348.941 296.311 350.043 295.674 350.928 294.791C351.813 293.908 352.451 292.808 352.778 291.602C354.189 283.747 354.624 271.802 352.741 264.239Z" fill="#FF0000"/>
<path d="M319.805 286.458L334.573 277.92L319.805 269.383V286.458Z" fill="white"/>
</g>
<path d="M5 261H100.593C102.802 261 104.593 259.209 104.593 257V174C104.593 171.791 106.384 170 108.593 170H268.751C270.96 170 272.751 168.209 272.751 166V101C272.751 98.7909 274.542 97 276.751 97H400.874C403.084 97 404.874 95.2091 404.874 93V31C404.874 28.7909 406.665 27 408.874 27H535C537.209 27 539 25.2091 539 23V-17" stroke="url(#paint0_linear_256_494)" stroke-width="3"/>
<path d="M646 261H550.407C548.198 261 546.407 259.209 546.407 257V174C546.407 171.791 544.616 170 542.407 170H382.249C380.04 170 378.249 168.209 378.249 166V101C378.249 98.7909 376.458 97 374.249 97H250.126C247.916 97 246.126 95.2091 246.126 93V31C246.126 28.7909 244.335 27 242.126 27H116C113.791 27 112 25.2091 112 23V-17" stroke="url(#paint1_linear_256_494)" stroke-width="3"/>
<g filter="url(#filter0_dii_256_494)">
<rect x="191" y="168" width="271" height="52" rx="12" fill="white" shape-rendering="crispEdges"/>
<rect x="191" y="168" width="271" height="52" rx="12" fill="#544DF2" shape-rendering="crispEdges"/>
<path d="M269.892 203H267.097L273.378 185.545H276.42L282.702 203H279.906L274.972 188.716H274.835L269.892 203ZM270.361 196.165H279.429V198.381H270.361V196.165ZM289.707 203.256C288.651 203.256 287.707 202.986 286.878 202.446C286.054 201.901 285.406 201.125 284.935 200.119C284.469 199.108 284.236 197.895 284.236 196.48C284.236 195.065 284.472 193.855 284.943 192.849C285.42 191.844 286.074 191.074 286.903 190.54C287.733 190.006 288.673 189.739 289.724 189.739C290.537 189.739 291.19 189.875 291.685 190.148C292.185 190.415 292.571 190.727 292.844 191.085C293.122 191.443 293.338 191.759 293.491 192.031H293.645V185.545H296.193V203H293.705V200.963H293.491C293.338 201.241 293.116 201.56 292.827 201.918C292.543 202.276 292.151 202.588 291.651 202.855C291.151 203.122 290.503 203.256 289.707 203.256ZM290.27 201.082C291.003 201.082 291.622 200.889 292.128 200.503C292.639 200.111 293.026 199.568 293.287 198.875C293.554 198.182 293.688 197.375 293.688 196.455C293.688 195.545 293.557 194.75 293.295 194.068C293.034 193.386 292.651 192.855 292.145 192.474C291.639 192.094 291.014 191.903 290.27 191.903C289.503 191.903 288.864 192.102 288.352 192.5C287.841 192.898 287.455 193.44 287.193 194.128C286.938 194.815 286.81 195.591 286.81 196.455C286.81 197.33 286.94 198.116 287.202 198.815C287.463 199.514 287.849 200.068 288.361 200.477C288.878 200.881 289.514 201.082 290.27 201.082ZM304.731 203.256C303.674 203.256 302.731 202.986 301.901 202.446C301.077 201.901 300.43 201.125 299.958 200.119C299.492 199.108 299.259 197.895 299.259 196.48C299.259 195.065 299.495 193.855 299.967 192.849C300.444 191.844 301.097 191.074 301.927 190.54C302.756 190.006 303.697 189.739 304.748 189.739C305.56 189.739 306.214 189.875 306.708 190.148C307.208 190.415 307.594 190.727 307.867 191.085C308.146 191.443 308.362 191.759 308.515 192.031H308.668V185.545H311.217V203H308.728V200.963H308.515C308.362 201.241 308.14 201.56 307.85 201.918C307.566 202.276 307.174 202.588 306.674 202.855C306.174 203.122 305.526 203.256 304.731 203.256ZM305.293 201.082C306.026 201.082 306.646 200.889 307.151 200.503C307.663 200.111 308.049 199.568 308.31 198.875C308.577 198.182 308.711 197.375 308.711 196.455C308.711 195.545 308.58 194.75 308.319 194.068C308.058 193.386 307.674 192.855 307.168 192.474C306.663 192.094 306.038 191.903 305.293 191.903C304.526 191.903 303.887 192.102 303.376 192.5C302.864 192.898 302.478 193.44 302.217 194.128C301.961 194.815 301.833 195.591 301.833 196.455C301.833 197.33 301.964 198.116 302.225 198.815C302.487 199.514 302.873 200.068 303.384 200.477C303.901 200.881 304.538 201.082 305.293 201.082ZM321.41 203V185.545H323.958V192.031H324.112C324.259 191.759 324.472 191.443 324.751 191.085C325.029 190.727 325.415 190.415 325.91 190.148C326.404 189.875 327.058 189.739 327.87 189.739C328.927 189.739 329.87 190.006 330.7 190.54C331.529 191.074 332.18 191.844 332.651 192.849C333.129 193.855 333.367 195.065 333.367 196.48C333.367 197.895 333.131 199.108 332.66 200.119C332.188 201.125 331.54 201.901 330.717 202.446C329.893 202.986 328.952 203.256 327.896 203.256C327.1 203.256 326.45 203.122 325.944 202.855C325.444 202.588 325.052 202.276 324.768 201.918C324.484 201.56 324.265 201.241 324.112 200.963H323.898V203H321.41ZM323.907 196.455C323.907 197.375 324.04 198.182 324.308 198.875C324.575 199.568 324.961 200.111 325.467 200.503C325.972 200.889 326.592 201.082 327.325 201.082C328.086 201.082 328.722 200.881 329.234 200.477C329.745 200.068 330.131 199.514 330.393 198.815C330.66 198.116 330.793 197.33 330.793 196.455C330.793 195.591 330.663 194.815 330.401 194.128C330.146 193.44 329.759 192.898 329.242 192.5C328.731 192.102 328.092 191.903 327.325 191.903C326.586 191.903 325.961 192.094 325.45 192.474C324.944 192.855 324.56 193.386 324.299 194.068C324.038 194.75 323.907 195.545 323.907 196.455ZM336.229 203V189.909H338.777V203H336.229ZM337.516 187.889C337.072 187.889 336.692 187.741 336.374 187.446C336.061 187.145 335.905 186.787 335.905 186.372C335.905 185.952 336.061 185.594 336.374 185.298C336.692 184.997 337.072 184.847 337.516 184.847C337.959 184.847 338.337 184.997 338.649 185.298C338.967 185.594 339.126 185.952 339.126 186.372C339.126 186.787 338.967 187.145 338.649 187.446C338.337 187.741 337.959 187.889 337.516 187.889ZM344.754 185.545V203H342.205V185.545H344.754ZM350.73 185.545V203H348.182V185.545H350.73Z" fill="white"/>
<path fill-rule="evenodd" clip-rule="evenodd" d="M377.5 185C377.705 185 377.901 185.081 378.045 185.226C378.19 185.371 378.271 185.567 378.271 185.771V193.229H385.729C385.933 193.229 386.129 193.31 386.274 193.455C386.419 193.599 386.5 193.795 386.5 194C386.5 194.205 386.419 194.401 386.274 194.545C386.129 194.69 385.933 194.771 385.729 194.771H378.271V202.229C378.271 202.433 378.19 202.629 378.045 202.774C377.901 202.919 377.705 203 377.5 203C377.295 203 377.099 202.919 376.955 202.774C376.81 202.629 376.729 202.433 376.729 202.229V194.771H369.271C369.067 194.771 368.871 194.69 368.726 194.545C368.581 194.401 368.5 194.205 368.5 194C368.5 193.795 368.581 193.599 368.726 193.455C368.871 193.31 369.067 193.229 369.271 193.229H376.729V185.771C376.729 185.567 376.81 185.371 376.955 185.226C377.099 185.081 377.295 185 377.5 185Z" fill="white"/>
</g>
<g clip-path="url(#clip2_256_494)">
<path d="M238.5 54C223.312 54 211 66.5363 211 82C211 97.4647 223.312 110 238.5 110C253.689 110 266 97.4647 266 82C266 66.5374 253.689 54.0015 238.5 54.0015L238.5 54ZM251.111 94.3843C250.618 95.2068 249.561 95.4676 248.753 94.9627C242.297 90.9471 234.169 90.0375 224.596 92.2644C224.153 92.3672 223.688 92.2865 223.303 92.0401C222.918 91.7936 222.645 91.4017 222.544 90.9504C222.494 90.727 222.487 90.4957 222.525 90.2697C222.562 90.0437 222.643 89.8275 222.763 89.6334C222.883 89.4393 223.039 89.2711 223.222 89.1385C223.406 89.0059 223.614 88.9115 223.833 88.8607C234.309 86.4238 243.294 87.4729 250.543 91.9835C251.351 92.4884 251.607 93.5618 251.111 94.3843ZM254.477 86.7602C253.856 87.7873 252.536 88.1117 251.528 87.4797C244.136 82.8536 232.868 81.5137 224.125 84.2159C222.991 84.5646 221.794 83.9141 221.45 82.7615C221.108 81.6069 221.747 80.3898 222.879 80.0389C232.866 76.9532 245.282 78.4479 253.771 83.7592C254.779 84.3914 255.098 85.7352 254.477 86.7602ZM254.766 78.8211C245.903 73.4609 231.28 72.9678 222.818 75.5832C221.459 76.0028 220.022 75.2216 219.61 73.838C219.198 72.4538 219.965 70.9916 221.325 70.571C231.038 67.5684 247.187 68.1488 257.391 74.3166C258.616 75.0551 259.017 76.6625 258.291 77.9052C257.568 79.1499 255.985 79.5601 254.767 78.8211H254.766Z" fill="#1ED760"/>
</g>
<g clip-path="url(#clip3_256_494)">
<path fill-rule="evenodd" clip-rule="evenodd" d="M563.775 111.818C564.669 109.633 566.394 107.892 568.571 106.979C570.748 106.066 573.199 106.055 575.384 106.949L604.219 118.745C606.404 119.639 608.144 121.364 609.057 123.541C609.97 125.718 609.981 128.169 609.087 130.354L597.291 159.189C596.397 161.374 594.672 163.114 592.495 164.027C590.318 164.94 587.867 164.951 585.682 164.057L556.848 152.261C554.663 151.367 552.922 149.642 552.009 147.465C551.096 145.288 551.086 142.837 551.979 140.652L563.775 111.818ZM583.395 126.415C583.236 126.803 582.93 127.112 582.543 127.275C582.156 127.437 581.72 127.439 581.332 127.28C580.943 127.121 580.634 126.815 580.472 126.428C580.309 126.041 580.307 125.605 580.466 125.217C580.625 124.828 580.932 124.519 581.319 124.357C581.706 124.194 582.141 124.192 582.53 124.351C582.918 124.51 583.228 124.817 583.39 125.204C583.552 125.591 583.554 126.026 583.395 126.415ZM599.039 137.089C599.442 136.105 598.912 135.249 598.417 134.779C597.897 134.287 597.175 133.937 596.432 133.77C595.685 133.599 594.809 133.589 593.984 133.908C593.13 134.237 592.402 134.896 591.985 135.913C591.653 136.727 591.502 137.723 591.684 138.67C591.87 139.645 592.426 140.614 593.518 141.159C594.266 141.552 595.113 141.716 595.953 141.631C596.294 141.591 596.626 141.5 596.939 141.359L597.017 141.321L597.044 141.308L597.055 141.3L597.06 141.298L597.064 141.294L596.511 140.33C595.957 139.365 595.959 139.364 595.959 139.364L595.965 139.361L595.972 139.357L595.981 139.351L595.99 139.347L595.952 139.363C595.868 139.393 595.78 139.412 595.691 139.42C595.456 139.449 595.052 139.437 594.51 139.168C594.161 138.994 593.953 138.69 593.87 138.252L593.854 138.151C594.121 138.287 594.414 138.422 594.719 138.534C595.35 138.768 596.162 138.968 596.969 138.825C597.869 138.664 598.627 138.097 599.039 137.089ZM595.494 136.447C595.2 136.335 594.914 136.202 594.639 136.049L594.786 135.984C595.158 135.856 595.559 135.841 595.939 135.939C596.287 136.009 596.612 136.165 596.884 136.393L596.899 136.409C596.795 136.58 596.687 136.615 596.579 136.633C596.345 136.675 595.98 136.629 595.494 136.447ZM596.974 136.497L596.964 136.479L596.972 136.494L596.974 136.497ZM595.138 145.539C595.773 147.049 591.394 150.953 590.749 150.348C590.424 150.044 591.061 149.304 591.743 148.513C592.442 147.703 593.188 146.837 593.008 146.319C592.822 145.776 591.645 145.415 590.602 145.094C589.687 144.816 588.876 144.566 588.928 144.251C589.096 143.276 594.506 144.027 595.138 145.539ZM577.238 143.558C571.356 141.152 566.789 136.382 564.502 133.996C563.603 133.056 563.058 132.485 562.925 132.575C562.451 132.886 566.613 141.777 576.339 145.756C584.394 149.051 591.834 147.984 591.318 146.753C591.092 146.218 589.638 146.054 587.523 145.816C584.787 145.509 580.953 145.078 577.238 143.558ZM580.002 127.592L577.306 134.183L579.365 135.025L582.062 128.435L580.002 127.592ZM572.179 132.086L574.876 125.495L576.328 126.089L576.522 126.096C577.329 126.15 578.205 126.508 578.871 126.783L578.958 126.819L578.115 128.878C577.324 128.555 576.778 128.343 576.373 128.317C576.316 128.311 576.259 128.313 576.203 128.322C576.173 128.329 576.158 128.333 576.159 128.335C576.16 128.338 576.15 128.339 576.132 128.36C576.091 128.413 576.059 128.472 576.036 128.535L574.239 132.928L572.179 132.086ZM570.902 123.523C570.21 123.237 569.439 123.202 568.723 123.425L568.88 123.042L566.82 122.2L563.225 130.988L565.285 131.831L566.34 129.25C566.685 129.884 567.226 130.406 567.963 130.707C569.887 131.494 571.91 130.264 572.658 128.435C573.406 126.606 572.826 124.31 570.902 123.523ZM568.265 126.638C568.675 125.637 569.557 125.377 570.06 125.583C570.562 125.788 571.008 126.591 570.599 127.592C570.189 128.593 569.307 128.852 568.806 128.648C568.303 128.442 567.856 127.638 568.265 126.638ZM584.147 131.694L584.213 131.692C584.629 131.664 585.047 131.726 585.437 131.873C585.663 131.966 585.78 132.062 585.839 132.13L583.897 136.879L585.956 137.722L587.809 133.192L587.875 133.19C588.267 133.173 588.716 133.215 589.099 133.372C589.25 133.427 589.387 133.514 589.501 133.628L587.559 138.377L589.618 139.22L591.715 134.093C591.769 133.962 591.797 133.822 591.798 133.68L591.793 133.538C591.76 133.233 591.669 132.936 591.526 132.664C591.256 132.155 590.763 131.648 589.941 131.312C589.153 130.989 588.354 130.944 587.79 130.965L587.746 130.967C587.386 130.442 586.874 130.039 586.279 129.814C585.74 129.599 585.167 129.482 584.587 129.468L582.931 128.79L580.234 135.381L582.294 136.223L584.147 131.694Z" fill="black"/>
</g>
<g filter="url(#filter1_d_256_494)">
<path d="M5 310H565V493C565 500.18 559.18 506 552 506H18C10.8203 506 5 500.18 5 493V310Z" fill="white"/>
</g>
<path d="M35.8295 438H33.6136L40.0227 420.545H42.2045L48.6136 438H46.3977L41.1818 423.307H41.0455L35.8295 438ZM36.6477 431.182H45.5795V433.057H36.6477V431.182ZM56.0028 438.273C54.9119 438.273 53.9489 437.997 53.1136 437.446C52.2784 436.889 51.625 436.105 51.1534 435.094C50.6818 434.077 50.446 432.875 50.446 431.489C50.446 430.114 50.6818 428.92 51.1534 427.909C51.625 426.898 52.2813 426.116 53.1222 425.565C53.9631 425.014 54.9347 424.739 56.0369 424.739C56.8892 424.739 57.5625 424.881 58.0568 425.165C58.5568 425.443 58.9375 425.761 59.1989 426.119C59.4659 426.472 59.6733 426.761 59.821 426.989H59.9915V420.545H62.0028V438H60.0597V435.989H59.821C59.6733 436.227 59.4631 436.528 59.1903 436.892C58.9176 437.25 58.5284 437.571 58.0227 437.855C57.517 438.134 56.8438 438.273 56.0028 438.273ZM56.2756 436.466C57.0824 436.466 57.7642 436.256 58.321 435.835C58.8778 435.409 59.3011 434.821 59.5909 434.071C59.8807 433.315 60.0256 432.443 60.0256 431.455C60.0256 430.477 59.8835 429.622 59.5994 428.889C59.3153 428.151 58.8949 427.577 58.3381 427.168C57.7813 426.753 57.0938 426.545 56.2756 426.545C55.4233 426.545 54.7131 426.764 54.1449 427.202C53.5824 427.634 53.1591 428.222 52.875 428.966C52.5966 429.705 52.4574 430.534 52.4574 431.455C52.4574 432.386 52.5994 433.233 52.8835 433.994C53.1733 434.75 53.5994 435.352 54.1619 435.801C54.7301 436.244 55.4347 436.466 56.2756 436.466ZM70.9091 438.273C69.8182 438.273 68.8551 437.997 68.0199 437.446C67.1847 436.889 66.5313 436.105 66.0597 435.094C65.5881 434.077 65.3523 432.875 65.3523 431.489C65.3523 430.114 65.5881 428.92 66.0597 427.909C66.5313 426.898 67.1875 426.116 68.0284 425.565C68.8693 425.014 69.8409 424.739 70.9432 424.739C71.7955 424.739 72.4688 424.881 72.9631 425.165C73.4631 425.443 73.8438 425.761 74.1051 426.119C74.3722 426.472 74.5795 426.761 74.7273 426.989H74.8977V420.545H76.9091V438H74.9659V435.989H74.7273C74.5795 436.227 74.3693 436.528 74.0966 436.892C73.8239 437.25 73.4347 437.571 72.929 437.855C72.4233 438.134 71.75 438.273 70.9091 438.273ZM71.1818 436.466C71.9886 436.466 72.6705 436.256 73.2273 435.835C73.7841 435.409 74.2074 434.821 74.4972 434.071C74.7869 433.315 74.9318 432.443 74.9318 431.455C74.9318 430.477 74.7898 429.622 74.5057 428.889C74.2216 428.151 73.8011 427.577 73.2443 427.168C72.6875 426.753 72 426.545 71.1818 426.545C70.3295 426.545 69.6193 426.764 69.0511 427.202C68.4886 427.634 68.0653 428.222 67.7812 428.966C67.5028 429.705 67.3636 430.534 67.3636 431.455C67.3636 432.386 67.5057 433.233 67.7898 433.994C68.0795 434.75 68.5057 435.352 69.0682 435.801C69.6364 436.244 70.3409 436.466 71.1818 436.466ZM88.9176 442.909C88.5767 442.909 88.2727 442.881 88.0057 442.824C87.7386 442.773 87.554 442.722 87.4517 442.67L87.9631 440.898C88.4517 441.023 88.8835 441.068 89.2585 441.034C89.6335 441 89.9659 440.832 90.2557 440.531C90.5511 440.236 90.821 439.756 91.0653 439.091L91.4403 438.068L86.5994 424.909H88.7812L92.3949 435.341H92.5312L96.1449 424.909H98.3267L92.7699 439.909C92.5199 440.585 92.2102 441.145 91.8409 441.588C91.4716 442.037 91.0426 442.369 90.554 442.585C90.071 442.801 89.5256 442.909 88.9176 442.909ZM105.831 438.273C104.649 438.273 103.612 437.991 102.72 437.429C101.834 436.866 101.141 436.08 100.641 435.068C100.146 434.057 99.8991 432.875 99.8991 431.523C99.8991 430.159 100.146 428.969 100.641 427.952C101.141 426.935 101.834 426.145 102.72 425.582C103.612 425.02 104.649 424.739 105.831 424.739C107.013 424.739 108.047 425.02 108.933 425.582C109.825 426.145 110.518 426.935 111.013 427.952C111.513 428.969 111.763 430.159 111.763 431.523C111.763 432.875 111.513 434.057 111.013 435.068C110.518 436.08 109.825 436.866 108.933 437.429C108.047 437.991 107.013 438.273 105.831 438.273ZM105.831 436.466C106.729 436.466 107.467 436.236 108.047 435.776C108.626 435.315 109.055 434.71 109.334 433.96C109.612 433.21 109.751 432.398 109.751 431.523C109.751 430.648 109.612 429.832 109.334 429.077C109.055 428.321 108.626 427.71 108.047 427.244C107.467 426.778 106.729 426.545 105.831 426.545C104.933 426.545 104.195 426.778 103.615 427.244C103.036 427.71 102.607 428.321 102.328 429.077C102.05 429.832 101.911 430.648 101.911 431.523C101.911 432.398 102.05 433.21 102.328 433.96C102.607 434.71 103.036 435.315 103.615 435.776C104.195 436.236 104.933 436.466 105.831 436.466ZM123.083 432.648V424.909H125.094V438H123.083V435.784H122.947C122.64 436.449 122.163 437.014 121.515 437.48C120.867 437.94 120.049 438.17 119.06 438.17C118.242 438.17 117.515 437.991 116.879 437.634C116.242 437.27 115.742 436.724 115.379 435.997C115.015 435.264 114.833 434.341 114.833 433.227V424.909H116.844V433.091C116.844 434.045 117.112 434.807 117.646 435.375C118.185 435.943 118.873 436.227 119.708 436.227C120.208 436.227 120.717 436.099 121.234 435.844C121.756 435.588 122.194 435.196 122.546 434.668C122.904 434.139 123.083 433.466 123.083 432.648ZM128.778 438V424.909H130.722V426.886H130.858C131.097 426.239 131.528 425.713 132.153 425.31C132.778 424.906 133.483 424.705 134.267 424.705C134.415 424.705 134.599 424.707 134.821 424.713C135.043 424.719 135.21 424.727 135.324 424.739V426.784C135.256 426.767 135.099 426.741 134.855 426.707C134.616 426.668 134.364 426.648 134.097 426.648C133.46 426.648 132.892 426.781 132.392 427.048C131.898 427.31 131.506 427.673 131.216 428.139C130.932 428.599 130.79 429.125 130.79 429.716V438H128.778ZM144.731 438V420.545H146.742V426.989H146.913C147.06 426.761 147.265 426.472 147.526 426.119C147.793 425.761 148.174 425.443 148.668 425.165C149.168 424.881 149.844 424.739 150.697 424.739C151.799 424.739 152.771 425.014 153.612 425.565C154.452 426.116 155.109 426.898 155.58 427.909C156.052 428.92 156.288 430.114 156.288 431.489C156.288 432.875 156.052 434.077 155.58 435.094C155.109 436.105 154.455 436.889 153.62 437.446C152.785 437.997 151.822 438.273 150.731 438.273C149.89 438.273 149.217 438.134 148.711 437.855C148.205 437.571 147.816 437.25 147.543 436.892C147.271 436.528 147.06 436.227 146.913 435.989H146.674V438H144.731ZM146.708 431.455C146.708 432.443 146.853 433.315 147.143 434.071C147.433 434.821 147.856 435.409 148.413 435.835C148.969 436.256 149.651 436.466 150.458 436.466C151.299 436.466 152.001 436.244 152.563 435.801C153.131 435.352 153.558 434.75 153.842 433.994C154.131 433.233 154.276 432.386 154.276 431.455C154.276 430.534 154.134 429.705 153.85 428.966C153.572 428.222 153.148 427.634 152.58 427.202C152.018 426.764 151.31 426.545 150.458 426.545C149.64 426.545 148.952 426.753 148.396 427.168C147.839 427.577 147.418 428.151 147.134 428.889C146.85 429.622 146.708 430.477 146.708 431.455ZM159.364 438V424.909H161.376V438H159.364ZM160.387 422.727C159.995 422.727 159.657 422.594 159.373 422.327C159.094 422.06 158.955 421.739 158.955 421.364C158.955 420.989 159.094 420.668 159.373 420.401C159.657 420.134 159.995 420 160.387 420C160.779 420 161.114 420.134 161.393 420.401C161.677 420.668 161.819 420.989 161.819 421.364C161.819 421.739 161.677 422.06 161.393 422.327C161.114 422.594 160.779 422.727 160.387 422.727ZM167.071 420.545V438H165.06V420.545H167.071ZM172.766 420.545V438H170.755V420.545H172.766ZM185.723 427.841L183.916 428.352C183.803 428.051 183.635 427.759 183.413 427.474C183.197 427.185 182.902 426.946 182.527 426.759C182.152 426.571 181.672 426.477 181.087 426.477C180.286 426.477 179.618 426.662 179.084 427.031C178.555 427.395 178.291 427.858 178.291 428.42C178.291 428.92 178.473 429.315 178.837 429.605C179.2 429.895 179.768 430.136 180.541 430.33L182.484 430.807C183.655 431.091 184.527 431.526 185.101 432.111C185.675 432.69 185.962 433.437 185.962 434.352C185.962 435.102 185.746 435.773 185.314 436.364C184.888 436.955 184.291 437.42 183.524 437.761C182.757 438.102 181.865 438.273 180.848 438.273C179.513 438.273 178.408 437.983 177.533 437.403C176.658 436.824 176.104 435.977 175.871 434.864L177.78 434.386C177.962 435.091 178.305 435.619 178.811 435.972C179.322 436.324 179.99 436.5 180.814 436.5C181.751 436.5 182.496 436.301 183.047 435.903C183.604 435.5 183.882 435.017 183.882 434.455C183.882 434 183.723 433.619 183.405 433.312C183.087 433 182.598 432.767 181.939 432.614L179.757 432.102C178.558 431.818 177.678 431.378 177.115 430.781C176.558 430.179 176.28 429.426 176.28 428.523C176.28 427.784 176.487 427.131 176.902 426.562C177.322 425.994 177.893 425.548 178.615 425.224C179.342 424.901 180.166 424.739 181.087 424.739C182.382 424.739 183.399 425.023 184.138 425.591C184.882 426.159 185.411 426.909 185.723 427.841ZM195.739 438V424.909H197.751V438H195.739ZM196.762 422.727C196.37 422.727 196.032 422.594 195.748 422.327C195.469 422.06 195.33 421.739 195.33 421.364C195.33 420.989 195.469 420.668 195.748 420.401C196.032 420.134 196.37 420 196.762 420C197.154 420 197.489 420.134 197.768 420.401C198.052 420.668 198.194 420.989 198.194 421.364C198.194 421.739 198.052 422.06 197.768 422.327C197.489 422.594 197.154 422.727 196.762 422.727ZM203.446 430.125V438H201.435V424.909H203.378V426.955H203.548C203.855 426.29 204.321 425.756 204.946 425.352C205.571 424.943 206.378 424.739 207.366 424.739C208.253 424.739 209.028 424.92 209.693 425.284C210.358 425.642 210.875 426.188 211.244 426.92C211.614 427.648 211.798 428.568 211.798 429.682V438H209.787V429.818C209.787 428.79 209.52 427.989 208.986 427.415C208.452 426.835 207.719 426.545 206.787 426.545C206.145 426.545 205.571 426.685 205.065 426.963C204.565 427.241 204.17 427.648 203.881 428.182C203.591 428.716 203.446 429.364 203.446 430.125ZM231.496 427.841L229.69 428.352C229.576 428.051 229.408 427.759 229.187 427.474C228.971 427.185 228.675 426.946 228.3 426.759C227.925 426.571 227.445 426.477 226.86 426.477C226.059 426.477 225.391 426.662 224.857 427.031C224.329 427.395 224.065 427.858 224.065 428.42C224.065 428.92 224.246 429.315 224.61 429.605C224.974 429.895 225.542 430.136 226.315 430.33L228.258 430.807C229.428 431.091 230.3 431.526 230.874 432.111C231.448 432.69 231.735 433.437 231.735 434.352C231.735 435.102 231.519 435.773 231.087 436.364C230.661 436.955 230.065 437.42 229.298 437.761C228.531 438.102 227.638 438.273 226.621 438.273C225.286 438.273 224.181 437.983 223.306 437.403C222.431 436.824 221.877 435.977 221.644 434.864L223.553 434.386C223.735 435.091 224.079 435.619 224.585 435.972C225.096 436.324 225.763 436.5 226.587 436.5C227.525 436.5 228.269 436.301 228.82 435.903C229.377 435.5 229.656 435.017 229.656 434.455C229.656 434 229.496 433.619 229.178 433.312C228.86 433 228.371 432.767 227.712 432.614L225.531 432.102C224.332 431.818 223.451 431.378 222.888 430.781C222.332 430.179 222.053 429.426 222.053 428.523C222.053 427.784 222.261 427.131 222.675 426.562C223.096 425.994 223.667 425.548 224.388 425.224C225.116 424.901 225.94 424.739 226.86 424.739C228.156 424.739 229.173 425.023 229.911 425.591C230.656 426.159 231.184 426.909 231.496 427.841ZM240.251 438.273C238.99 438.273 237.902 437.994 236.987 437.438C236.078 436.875 235.376 436.091 234.882 435.085C234.393 434.074 234.149 432.898 234.149 431.557C234.149 430.216 234.393 429.034 234.882 428.011C235.376 426.983 236.064 426.182 236.945 425.608C237.831 425.028 238.865 424.739 240.047 424.739C240.729 424.739 241.402 424.852 242.067 425.08C242.732 425.307 243.337 425.676 243.882 426.188C244.428 426.693 244.862 427.364 245.186 428.199C245.51 429.034 245.672 430.062 245.672 431.284V432.136H235.581V430.398H243.626C243.626 429.659 243.479 429 243.183 428.42C242.893 427.841 242.479 427.384 241.939 427.048C241.405 426.713 240.774 426.545 240.047 426.545C239.246 426.545 238.553 426.744 237.967 427.142C237.388 427.534 236.942 428.045 236.629 428.676C236.317 429.307 236.161 429.983 236.161 430.705V431.864C236.161 432.852 236.331 433.69 236.672 434.378C237.018 435.06 237.499 435.58 238.112 435.938C238.726 436.29 239.439 436.466 240.251 436.466C240.78 436.466 241.257 436.392 241.683 436.244C242.115 436.091 242.487 435.864 242.8 435.562C243.112 435.256 243.354 434.875 243.524 434.42L245.467 434.966C245.263 435.625 244.919 436.205 244.436 436.705C243.953 437.199 243.357 437.585 242.646 437.864C241.936 438.136 241.138 438.273 240.251 438.273ZM254.05 438.273C252.822 438.273 251.766 437.983 250.879 437.403C249.993 436.824 249.311 436.026 248.834 435.009C248.357 433.991 248.118 432.83 248.118 431.523C248.118 430.193 248.362 429.02 248.851 428.003C249.345 426.98 250.033 426.182 250.913 425.608C251.8 425.028 252.834 424.739 254.016 424.739C254.936 424.739 255.766 424.909 256.504 425.25C257.243 425.591 257.848 426.068 258.32 426.682C258.791 427.295 259.084 428.011 259.197 428.83H257.186C257.033 428.233 256.692 427.705 256.163 427.244C255.641 426.778 254.936 426.545 254.05 426.545C253.266 426.545 252.578 426.75 251.987 427.159C251.402 427.562 250.945 428.134 250.615 428.872C250.291 429.605 250.129 430.466 250.129 431.455C250.129 432.466 250.288 433.347 250.607 434.097C250.93 434.847 251.385 435.429 251.97 435.844C252.561 436.259 253.254 436.466 254.05 436.466C254.572 436.466 255.047 436.375 255.473 436.193C255.899 436.011 256.26 435.75 256.555 435.409C256.851 435.068 257.061 434.659 257.186 434.182H259.197C259.084 434.955 258.803 435.651 258.354 436.27C257.911 436.884 257.322 437.372 256.589 437.736C255.862 438.094 255.016 438.273 254.05 438.273ZM267.456 438.273C266.274 438.273 265.237 437.991 264.345 437.429C263.459 436.866 262.766 436.08 262.266 435.068C261.771 434.057 261.524 432.875 261.524 431.523C261.524 430.159 261.771 428.969 262.266 427.952C262.766 426.935 263.459 426.145 264.345 425.582C265.237 425.02 266.274 424.739 267.456 424.739C268.638 424.739 269.672 425.02 270.558 425.582C271.45 426.145 272.143 426.935 272.638 427.952C273.138 428.969 273.388 430.159 273.388 431.523C273.388 432.875 273.138 434.057 272.638 435.068C272.143 436.08 271.45 436.866 270.558 437.429C269.672 437.991 268.638 438.273 267.456 438.273ZM267.456 436.466C268.354 436.466 269.092 436.236 269.672 435.776C270.251 435.315 270.68 434.71 270.959 433.96C271.237 433.21 271.376 432.398 271.376 431.523C271.376 430.648 271.237 429.832 270.959 429.077C270.68 428.321 270.251 427.71 269.672 427.244C269.092 426.778 268.354 426.545 267.456 426.545C266.558 426.545 265.82 426.778 265.24 427.244C264.661 427.71 264.232 428.321 263.953 429.077C263.675 429.832 263.536 430.648 263.536 431.523C263.536 432.398 263.675 433.21 263.953 433.96C264.232 434.71 264.661 435.315 265.24 435.776C265.82 436.236 266.558 436.466 267.456 436.466ZM278.469 430.125V438H276.458V424.909H278.401V426.955H278.572C278.879 426.29 279.344 425.756 279.969 425.352C280.594 424.943 281.401 424.739 282.39 424.739C283.276 424.739 284.052 424.92 284.717 425.284C285.381 425.642 285.898 426.188 286.268 426.92C286.637 427.648 286.822 428.568 286.822 429.682V438H284.81V429.818C284.81 428.79 284.543 427.989 284.009 427.415C283.475 426.835 282.742 426.545 281.81 426.545C281.168 426.545 280.594 426.685 280.089 426.963C279.589 427.241 279.194 427.648 278.904 428.182C278.614 428.716 278.469 429.364 278.469 430.125ZM295.44 438.273C294.349 438.273 293.386 437.997 292.551 437.446C291.716 436.889 291.063 436.105 290.591 435.094C290.119 434.077 289.884 432.875 289.884 431.489C289.884 430.114 290.119 428.92 290.591 427.909C291.063 426.898 291.719 426.116 292.56 425.565C293.401 425.014 294.372 424.739 295.474 424.739C296.327 424.739 297 424.881 297.494 425.165C297.994 425.443 298.375 425.761 298.636 426.119C298.903 426.472 299.111 426.761 299.259 426.989H299.429V420.545H301.44V438H299.497V435.989H299.259C299.111 436.227 298.901 436.528 298.628 436.892C298.355 437.25 297.966 437.571 297.46 437.855C296.955 438.134 296.281 438.273 295.44 438.273ZM295.713 436.466C296.52 436.466 297.202 436.256 297.759 435.835C298.315 435.409 298.739 434.821 299.028 434.071C299.318 433.315 299.463 432.443 299.463 431.455C299.463 430.477 299.321 429.622 299.037 428.889C298.753 428.151 298.332 427.577 297.776 427.168C297.219 426.753 296.531 426.545 295.713 426.545C294.861 426.545 294.151 426.764 293.582 427.202C293.02 427.634 292.597 428.222 292.312 428.966C292.034 429.705 291.895 430.534 291.895 431.455C291.895 432.386 292.037 433.233 292.321 433.994C292.611 434.75 293.037 435.352 293.599 435.801C294.168 436.244 294.872 436.466 295.713 436.466ZM314.676 427.841L312.869 428.352C312.756 428.051 312.588 427.759 312.366 427.474C312.151 427.185 311.855 426.946 311.48 426.759C311.105 426.571 310.625 426.477 310.04 426.477C309.239 426.477 308.571 426.662 308.037 427.031C307.509 427.395 307.244 427.858 307.244 428.42C307.244 428.92 307.426 429.315 307.79 429.605C308.153 429.895 308.722 430.136 309.494 430.33L311.438 430.807C312.608 431.091 313.48 431.526 314.054 432.111C314.628 432.69 314.915 433.437 314.915 434.352C314.915 435.102 314.699 435.773 314.267 436.364C313.841 436.955 313.244 437.42 312.477 437.761C311.71 438.102 310.818 438.273 309.801 438.273C308.466 438.273 307.361 437.983 306.486 437.403C305.611 436.824 305.057 435.977 304.824 434.864L306.733 434.386C306.915 435.091 307.259 435.619 307.764 435.972C308.276 436.324 308.943 436.5 309.767 436.5C310.705 436.5 311.449 436.301 312 435.903C312.557 435.5 312.835 435.017 312.835 434.455C312.835 434 312.676 433.619 312.358 433.312C312.04 433 311.551 432.767 310.892 432.614L308.71 432.102C307.511 431.818 306.631 431.378 306.068 430.781C305.511 430.179 305.233 429.426 305.233 428.523C305.233 427.784 305.44 427.131 305.855 426.562C306.276 425.994 306.847 425.548 307.568 425.224C308.295 424.901 309.119 424.739 310.04 424.739C311.335 424.739 312.352 425.023 313.091 425.591C313.835 426.159 314.364 426.909 314.676 427.841ZM333.965 427.841L332.158 428.352C332.045 428.051 331.877 427.759 331.656 427.474C331.44 427.185 331.144 426.946 330.769 426.759C330.394 426.571 329.914 426.477 329.329 426.477C328.528 426.477 327.86 426.662 327.326 427.031C326.798 427.395 326.533 427.858 326.533 428.42C326.533 428.92 326.715 429.315 327.079 429.605C327.442 429.895 328.011 430.136 328.783 430.33L330.727 430.807C331.897 431.091 332.769 431.526 333.343 432.111C333.917 432.69 334.204 433.437 334.204 434.352C334.204 435.102 333.988 435.773 333.556 436.364C333.13 436.955 332.533 437.42 331.766 437.761C330.999 438.102 330.107 438.273 329.09 438.273C327.755 438.273 326.65 437.983 325.775 437.403C324.9 436.824 324.346 435.977 324.113 434.864L326.022 434.386C326.204 435.091 326.548 435.619 327.053 435.972C327.565 436.324 328.232 436.5 329.056 436.5C329.994 436.5 330.738 436.301 331.289 435.903C331.846 435.5 332.124 435.017 332.124 434.455C332.124 434 331.965 433.619 331.647 433.312C331.329 433 330.84 432.767 330.181 432.614L327.999 432.102C326.8 431.818 325.92 431.378 325.357 430.781C324.8 430.179 324.522 429.426 324.522 428.523C324.522 427.784 324.729 427.131 325.144 426.562C325.565 425.994 326.136 425.548 326.857 425.224C327.585 424.901 328.408 424.739 329.329 424.739C330.624 424.739 331.641 425.023 332.38 425.591C333.124 426.159 333.653 426.909 333.965 427.841ZM342.72 438.273C341.459 438.273 340.371 437.994 339.456 437.438C338.547 436.875 337.845 436.091 337.351 435.085C336.862 434.074 336.618 432.898 336.618 431.557C336.618 430.216 336.862 429.034 337.351 428.011C337.845 426.983 338.533 426.182 339.413 425.608C340.3 425.028 341.334 424.739 342.516 424.739C343.197 424.739 343.871 424.852 344.536 425.08C345.2 425.307 345.805 425.676 346.351 426.188C346.896 426.693 347.331 427.364 347.655 428.199C347.979 429.034 348.141 430.062 348.141 431.284V432.136H338.05V430.398H346.095C346.095 429.659 345.947 429 345.652 428.42C345.362 427.841 344.947 427.384 344.408 427.048C343.874 426.713 343.243 426.545 342.516 426.545C341.714 426.545 341.021 426.744 340.436 427.142C339.857 427.534 339.411 428.045 339.098 428.676C338.786 429.307 338.629 429.983 338.629 430.705V431.864C338.629 432.852 338.8 433.69 339.141 434.378C339.487 435.06 339.967 435.58 340.581 435.938C341.195 436.29 341.908 436.466 342.72 436.466C343.249 436.466 343.726 436.392 344.152 436.244C344.584 436.091 344.956 435.864 345.268 435.562C345.581 435.256 345.822 434.875 345.993 434.42L347.936 434.966C347.732 435.625 347.388 436.205 346.905 436.705C346.422 437.199 345.825 437.585 345.115 437.864C344.405 438.136 343.607 438.273 342.72 438.273ZM355.053 438.307C354.223 438.307 353.47 438.151 352.794 437.838C352.118 437.52 351.581 437.062 351.183 436.466C350.786 435.864 350.587 435.136 350.587 434.284C350.587 433.534 350.734 432.926 351.03 432.46C351.325 431.989 351.72 431.619 352.214 431.352C352.709 431.085 353.254 430.886 353.851 430.756C354.453 430.619 355.058 430.511 355.666 430.432C356.462 430.33 357.107 430.253 357.601 430.202C358.101 430.145 358.464 430.051 358.692 429.92C358.925 429.79 359.041 429.562 359.041 429.239V429.17C359.041 428.33 358.811 427.676 358.351 427.21C357.896 426.744 357.206 426.511 356.28 426.511C355.32 426.511 354.567 426.722 354.021 427.142C353.476 427.562 353.092 428.011 352.871 428.489L350.962 427.807C351.303 427.011 351.757 426.392 352.325 425.949C352.899 425.5 353.524 425.187 354.2 425.011C354.882 424.83 355.553 424.739 356.212 424.739C356.632 424.739 357.115 424.79 357.661 424.892C358.212 424.989 358.743 425.19 359.254 425.497C359.771 425.804 360.2 426.267 360.541 426.886C360.882 427.506 361.053 428.335 361.053 429.375V438H359.041V436.227H358.939C358.803 436.511 358.575 436.815 358.257 437.139C357.939 437.463 357.516 437.739 356.987 437.966C356.459 438.193 355.814 438.307 355.053 438.307ZM355.359 436.5C356.155 436.5 356.825 436.344 357.371 436.031C357.922 435.719 358.337 435.315 358.615 434.821C358.899 434.327 359.041 433.807 359.041 433.261V431.42C358.956 431.523 358.768 431.616 358.479 431.702C358.195 431.781 357.865 431.852 357.49 431.915C357.121 431.972 356.76 432.023 356.408 432.068C356.061 432.108 355.78 432.142 355.564 432.17C355.041 432.239 354.553 432.349 354.098 432.503C353.649 432.651 353.286 432.875 353.007 433.176C352.734 433.472 352.598 433.875 352.598 434.386C352.598 435.085 352.857 435.614 353.374 435.972C353.896 436.324 354.558 436.5 355.359 436.5ZM364.724 438V424.909H366.667V426.955H366.837C367.11 426.256 367.55 425.713 368.158 425.327C368.766 424.935 369.496 424.739 370.349 424.739C371.212 424.739 371.931 424.935 372.505 425.327C373.085 425.713 373.536 426.256 373.86 426.955H373.996C374.332 426.278 374.835 425.741 375.505 425.344C376.175 424.94 376.979 424.739 377.917 424.739C379.087 424.739 380.045 425.105 380.789 425.838C381.533 426.565 381.906 427.699 381.906 429.239V438H379.894V429.239C379.894 428.273 379.63 427.582 379.102 427.168C378.573 426.753 377.951 426.545 377.235 426.545C376.315 426.545 375.602 426.824 375.096 427.381C374.59 427.932 374.337 428.631 374.337 429.477V438H372.292V429.034C372.292 428.29 372.05 427.69 371.567 427.236C371.085 426.776 370.462 426.545 369.701 426.545C369.178 426.545 368.69 426.685 368.235 426.963C367.786 427.241 367.423 427.628 367.144 428.122C366.871 428.611 366.735 429.176 366.735 429.818V438H364.724ZM387.594 420.545V438H385.583V420.545H387.594ZM396.767 438.273C395.506 438.273 394.418 437.994 393.503 437.438C392.594 436.875 391.892 436.091 391.398 435.085C390.909 434.074 390.665 432.898 390.665 431.557C390.665 430.216 390.909 429.034 391.398 428.011C391.892 426.983 392.58 426.182 393.46 425.608C394.347 425.028 395.381 424.739 396.562 424.739C397.244 424.739 397.918 424.852 398.582 425.08C399.247 425.307 399.852 425.676 400.398 426.188C400.943 426.693 401.378 427.364 401.702 428.199C402.026 429.034 402.188 430.062 402.188 431.284V432.136H392.097V430.398H400.142C400.142 429.659 399.994 429 399.699 428.42C399.409 427.841 398.994 427.384 398.455 427.048C397.92 426.713 397.29 426.545 396.562 426.545C395.761 426.545 395.068 426.744 394.483 427.142C393.903 427.534 393.457 428.045 393.145 428.676C392.832 429.307 392.676 429.983 392.676 430.705V431.864C392.676 432.852 392.847 433.69 393.188 434.378C393.534 435.06 394.014 435.58 394.628 435.938C395.241 436.29 395.955 436.466 396.767 436.466C397.295 436.466 397.773 436.392 398.199 436.244C398.631 436.091 399.003 435.864 399.315 435.562C399.628 435.256 399.869 434.875 400.04 434.42L401.983 434.966C401.778 435.625 401.435 436.205 400.952 436.705C400.469 437.199 399.872 437.585 399.162 437.864C398.452 438.136 397.653 438.273 396.767 438.273ZM414.52 427.841L412.713 428.352C412.599 428.051 412.432 427.759 412.21 427.474C411.994 427.185 411.699 426.946 411.324 426.759C410.949 426.571 410.469 426.477 409.884 426.477C409.082 426.477 408.415 426.662 407.881 427.031C407.352 427.395 407.088 427.858 407.088 428.42C407.088 428.92 407.27 429.315 407.634 429.605C407.997 429.895 408.565 430.136 409.338 430.33L411.281 430.807C412.452 431.091 413.324 431.526 413.898 432.111C414.472 432.69 414.759 433.437 414.759 434.352C414.759 435.102 414.543 435.773 414.111 436.364C413.685 436.955 413.088 437.42 412.321 437.761C411.554 438.102 410.662 438.273 409.645 438.273C408.31 438.273 407.205 437.983 406.33 437.403C405.455 436.824 404.901 435.977 404.668 434.864L406.577 434.386C406.759 435.091 407.102 435.619 407.608 435.972C408.119 436.324 408.787 436.5 409.611 436.5C410.548 436.5 411.293 436.301 411.844 435.903C412.401 435.5 412.679 435.017 412.679 434.455C412.679 434 412.52 433.619 412.202 433.312C411.884 433 411.395 432.767 410.736 432.614L408.554 432.102C407.355 431.818 406.474 431.378 405.912 430.781C405.355 430.179 405.077 429.426 405.077 428.523C405.077 427.784 405.284 427.131 405.699 426.562C406.119 425.994 406.69 425.548 407.412 425.224C408.139 424.901 408.963 424.739 409.884 424.739C411.179 424.739 412.196 425.023 412.935 425.591C413.679 426.159 414.207 426.909 414.52 427.841ZM427.059 427.841L425.252 428.352C425.138 428.051 424.971 427.759 424.749 427.474C424.533 427.185 424.238 426.946 423.863 426.759C423.488 426.571 423.008 426.477 422.423 426.477C421.621 426.477 420.954 426.662 420.42 427.031C419.891 427.395 419.627 427.858 419.627 428.42C419.627 428.92 419.809 429.315 420.173 429.605C420.536 429.895 421.104 430.136 421.877 430.33L423.82 430.807C424.991 431.091 425.863 431.526 426.437 432.111C427.011 432.69 427.298 433.437 427.298 434.352C427.298 435.102 427.082 435.773 426.65 436.364C426.224 436.955 425.627 437.42 424.86 437.761C424.093 438.102 423.201 438.273 422.184 438.273C420.849 438.273 419.744 437.983 418.869 437.403C417.994 436.824 417.44 435.977 417.207 434.864L419.116 434.386C419.298 435.091 419.641 435.619 420.147 435.972C420.658 436.324 421.326 436.5 422.15 436.5C423.087 436.5 423.832 436.301 424.383 435.903C424.94 435.5 425.218 435.017 425.218 434.455C425.218 434 425.059 433.619 424.741 433.312C424.423 433 423.934 432.767 423.275 432.614L421.093 432.102C419.894 431.818 419.013 431.378 418.451 430.781C417.894 430.179 417.616 429.426 417.616 428.523C417.616 427.784 417.823 427.131 418.238 426.562C418.658 425.994 419.229 425.548 419.951 425.224C420.678 424.901 421.502 424.739 422.423 424.739C423.718 424.739 424.735 425.023 425.474 425.591C426.218 426.159 426.746 426.909 427.059 427.841ZM432.337 420.545V438H430.325V420.545H432.337ZM437.316 442.909C436.975 442.909 436.671 442.881 436.404 442.824C436.137 442.773 435.952 442.722 435.85 442.67L436.362 440.898C436.85 441.023 437.282 441.068 437.657 441.034C438.032 441 438.364 440.832 438.654 440.531C438.95 440.236 439.219 439.756 439.464 439.091L439.839 438.068L434.998 424.909H437.18L440.793 435.341H440.93L444.543 424.909H446.725L441.168 439.909C440.918 440.585 440.609 441.145 440.239 441.588C439.87 442.037 439.441 442.369 438.952 442.585C438.469 442.801 437.924 442.909 437.316 442.909ZM38.6932 474.307C37.8636 474.307 37.1108 474.151 36.4347 473.838C35.7585 473.52 35.2216 473.062 34.8239 472.466C34.4261 471.864 34.2273 471.136 34.2273 470.284C34.2273 469.534 34.375 468.926 34.6705 468.46C34.9659 467.989 35.3608 467.619 35.8551 467.352C36.3494 467.085 36.8949 466.886 37.4915 466.756C38.0938 466.619 38.6989 466.511 39.3068 466.432C40.1023 466.33 40.7472 466.253 41.2415 466.202C41.7415 466.145 42.1051 466.051 42.3324 465.92C42.5653 465.79 42.6818 465.562 42.6818 465.239V465.17C42.6818 464.33 42.4517 463.676 41.9915 463.21C41.5369 462.744 40.8466 462.511 39.9205 462.511C38.9602 462.511 38.2074 462.722 37.6619 463.142C37.1165 463.562 36.733 464.011 36.5114 464.489L34.6023 463.807C34.9432 463.011 35.3977 462.392 35.9659 461.949C36.5398 461.5 37.1648 461.187 37.8409 461.011C38.5227 460.83 39.1932 460.739 39.8523 460.739C40.2727 460.739 40.7557 460.79 41.3011 460.892C41.8523 460.989 42.3835 461.19 42.8949 461.497C43.4119 461.804 43.8409 462.267 44.1818 462.886C44.5227 463.506 44.6932 464.335 44.6932 465.375V474H42.6818V472.227H42.5795C42.4432 472.511 42.2159 472.815 41.8977 473.139C41.5795 473.463 41.1563 473.739 40.6278 473.966C40.0994 474.193 39.4545 474.307 38.6932 474.307ZM39 472.5C39.7955 472.5 40.4659 472.344 41.0114 472.031C41.5625 471.719 41.9773 471.315 42.2557 470.821C42.5398 470.327 42.6818 469.807 42.6818 469.261V467.42C42.5966 467.523 42.4091 467.616 42.1193 467.702C41.8352 467.781 41.5057 467.852 41.1307 467.915C40.7614 467.972 40.4006 468.023 40.0483 468.068C39.7017 468.108 39.4205 468.142 39.2045 468.17C38.6818 468.239 38.1932 468.349 37.7386 468.503C37.2898 468.651 36.9261 468.875 36.6477 469.176C36.375 469.472 36.2386 469.875 36.2386 470.386C36.2386 471.085 36.4972 471.614 37.0142 471.972C37.5369 472.324 38.1989 472.5 39 472.5ZM50.3757 466.125V474H48.3643V460.909H50.3075V462.955H50.478C50.7848 462.29 51.2507 461.756 51.8757 461.352C52.5007 460.943 53.3075 460.739 54.2962 460.739C55.1825 460.739 55.9581 460.92 56.6229 461.284C57.2876 461.642 57.8047 462.188 58.174 462.92C58.5433 463.648 58.728 464.568 58.728 465.682V474H56.7166V465.818C56.7166 464.79 56.4496 463.989 55.9155 463.415C55.3814 462.835 54.6484 462.545 53.7166 462.545C53.0746 462.545 52.5007 462.685 51.995 462.963C51.495 463.241 51.1001 463.648 50.8104 464.182C50.5206 464.716 50.3757 465.364 50.3757 466.125ZM67.3466 474.273C66.2557 474.273 65.2926 473.997 64.4574 473.446C63.6222 472.889 62.9688 472.105 62.4972 471.094C62.0256 470.077 61.7898 468.875 61.7898 467.489C61.7898 466.114 62.0256 464.92 62.4972 463.909C62.9688 462.898 63.625 462.116 64.4659 461.565C65.3068 461.014 66.2784 460.739 67.3807 460.739C68.233 460.739 68.9063 460.881 69.4006 461.165C69.9006 461.443 70.2813 461.761 70.5426 462.119C70.8097 462.472 71.017 462.761 71.1648 462.989H71.3352V456.545H73.3466V474H71.4034V471.989H71.1648C71.017 472.227 70.8068 472.528 70.5341 472.892C70.2614 473.25 69.8722 473.571 69.3665 473.855C68.8608 474.134 68.1875 474.273 67.3466 474.273ZM67.6193 472.466C68.4261 472.466 69.108 472.256 69.6648 471.835C70.2216 471.409 70.6449 470.821 70.9347 470.071C71.2244 469.315 71.3693 468.443 71.3693 467.455C71.3693 466.477 71.2273 465.622 70.9432 464.889C70.6591 464.151 70.2386 463.577 69.6818 463.168C69.125 462.753 68.4375 462.545 67.6193 462.545C66.767 462.545 66.0568 462.764 65.4886 463.202C64.9261 463.634 64.5028 464.222 64.2188 464.966C63.9403 465.705 63.8011 466.534 63.8011 467.455C63.8011 468.386 63.9432 469.233 64.2273 469.994C64.517 470.75 64.9432 471.352 65.5057 471.801C66.0739 472.244 66.7784 472.466 67.6193 472.466ZM89.5483 474.273C88.2869 474.273 87.1989 473.994 86.2841 473.438C85.375 472.875 84.6733 472.091 84.179 471.085C83.6903 470.074 83.446 468.898 83.446 467.557C83.446 466.216 83.6903 465.034 84.179 464.011C84.6733 462.983 85.3608 462.182 86.2415 461.608C87.1278 461.028 88.1619 460.739 89.3438 460.739C90.0256 460.739 90.6989 460.852 91.3636 461.08C92.0284 461.307 92.6335 461.676 93.179 462.188C93.7244 462.693 94.1591 463.364 94.483 464.199C94.8068 465.034 94.9688 466.062 94.9688 467.284V468.136H84.8778V466.398H92.9233C92.9233 465.659 92.7756 465 92.4801 464.42C92.1903 463.841 91.7756 463.384 91.2358 463.048C90.7017 462.713 90.071 462.545 89.3438 462.545C88.5426 462.545 87.8494 462.744 87.2642 463.142C86.6847 463.534 86.2386 464.045 85.9261 464.676C85.6136 465.307 85.4574 465.983 85.4574 466.705V467.864C85.4574 468.852 85.6278 469.69 85.9688 470.378C86.3153 471.06 86.7955 471.58 87.4091 471.938C88.0227 472.29 88.7358 472.466 89.5483 472.466C90.0767 472.466 90.554 472.392 90.9801 472.244C91.4119 472.091 91.7841 471.864 92.0966 471.562C92.4091 471.256 92.6506 470.875 92.821 470.42L94.7642 470.966C94.5597 471.625 94.2159 472.205 93.733 472.705C93.25 473.199 92.6534 473.585 91.9432 473.864C91.233 474.136 90.4347 474.273 89.5483 474.273ZM101.881 474.307C101.051 474.307 100.298 474.151 99.6222 473.838C98.946 473.52 98.4091 473.062 98.0114 472.466C97.6136 471.864 97.4148 471.136 97.4148 470.284C97.4148 469.534 97.5625 468.926 97.858 468.46C98.1534 467.989 98.5483 467.619 99.0426 467.352C99.5369 467.085 100.082 466.886 100.679 466.756C101.281 466.619 101.886 466.511 102.494 466.432C103.29 466.33 103.935 466.253 104.429 466.202C104.929 466.145 105.293 466.051 105.52 465.92C105.753 465.79 105.869 465.562 105.869 465.239V465.17C105.869 464.33 105.639 463.676 105.179 463.21C104.724 462.744 104.034 462.511 103.108 462.511C102.148 462.511 101.395 462.722 100.849 463.142C100.304 463.562 99.9205 464.011 99.6989 464.489L97.7898 463.807C98.1307 463.011 98.5852 462.392 99.1534 461.949C99.7273 461.5 100.352 461.187 101.028 461.011C101.71 460.83 102.381 460.739 103.04 460.739C103.46 460.739 103.943 460.79 104.489 460.892C105.04 460.989 105.571 461.19 106.082 461.497C106.599 461.804 107.028 462.267 107.369 462.886C107.71 463.506 107.881 464.335 107.881 465.375V474H105.869V472.227H105.767C105.631 472.511 105.403 472.815 105.085 473.139C104.767 473.463 104.344 473.739 103.815 473.966C103.287 474.193 102.642 474.307 101.881 474.307ZM102.188 472.5C102.983 472.5 103.653 472.344 104.199 472.031C104.75 471.719 105.165 471.315 105.443 470.821C105.727 470.327 105.869 469.807 105.869 469.261V467.42C105.784 467.523 105.597 467.616 105.307 467.702C105.023 467.781 104.693 467.852 104.318 467.915C103.949 467.972 103.588 468.023 103.236 468.068C102.889 468.108 102.608 468.142 102.392 468.17C101.869 468.239 101.381 468.349 100.926 468.503C100.477 468.651 100.114 468.875 99.8352 469.176C99.5625 469.472 99.4261 469.875 99.4261 470.386C99.4261 471.085 99.6847 471.614 100.202 471.972C100.724 472.324 101.386 472.5 102.188 472.5ZM120.825 463.841L119.018 464.352C118.904 464.051 118.737 463.759 118.515 463.474C118.299 463.185 118.004 462.946 117.629 462.759C117.254 462.571 116.773 462.477 116.188 462.477C115.387 462.477 114.719 462.662 114.185 463.031C113.657 463.395 113.393 463.858 113.393 464.42C113.393 464.92 113.575 465.315 113.938 465.605C114.302 465.895 114.87 466.136 115.643 466.33L117.586 466.807C118.756 467.091 119.629 467.526 120.202 468.111C120.776 468.69 121.063 469.437 121.063 470.352C121.063 471.102 120.847 471.773 120.415 472.364C119.989 472.955 119.393 473.42 118.626 473.761C117.859 474.102 116.967 474.273 115.95 474.273C114.614 474.273 113.509 473.983 112.634 473.403C111.759 472.824 111.205 471.977 110.972 470.864L112.881 470.386C113.063 471.091 113.407 471.619 113.913 471.972C114.424 472.324 115.092 472.5 115.915 472.5C116.853 472.5 117.597 472.301 118.148 471.903C118.705 471.5 118.984 471.017 118.984 470.455C118.984 470 118.825 469.619 118.506 469.312C118.188 469 117.7 468.767 117.04 468.614L114.859 468.102C113.66 467.818 112.779 467.378 112.217 466.781C111.66 466.179 111.381 465.426 111.381 464.523C111.381 463.784 111.589 463.131 112.004 462.562C112.424 461.994 112.995 461.548 113.717 461.224C114.444 460.901 115.268 460.739 116.188 460.739C117.484 460.739 118.501 461.023 119.239 461.591C119.984 462.159 120.512 462.909 120.825 463.841ZM124.091 474V460.909H126.102V474H124.091ZM125.114 458.727C124.722 458.727 124.384 458.594 124.099 458.327C123.821 458.06 123.682 457.739 123.682 457.364C123.682 456.989 123.821 456.668 124.099 456.401C124.384 456.134 124.722 456 125.114 456C125.506 456 125.841 456.134 126.119 456.401C126.403 456.668 126.545 456.989 126.545 457.364C126.545 457.739 126.403 458.06 126.119 458.327C125.841 458.594 125.506 458.727 125.114 458.727ZM131.798 456.545V474H129.786V456.545H131.798ZM136.777 478.909C136.436 478.909 136.132 478.881 135.865 478.824C135.598 478.773 135.413 478.722 135.311 478.67L135.822 476.898C136.311 477.023 136.743 477.068 137.118 477.034C137.493 477 137.825 476.832 138.115 476.531C138.411 476.236 138.68 475.756 138.925 475.091L139.3 474.068L134.459 460.909H136.641L140.254 471.341H140.391L144.004 460.909H146.186L140.629 475.909C140.379 476.585 140.07 477.145 139.7 477.588C139.331 478.037 138.902 478.369 138.413 478.585C137.93 478.801 137.385 478.909 136.777 478.909Z" fill="#49494B"/>
<path d="M38.6122 385H34.1122L42.3054 361.727H47.5099L55.7145 385H51.2145L44.9986 366.5H44.8168L38.6122 385ZM38.7599 375.875H51.0327V379.261H38.7599V375.875ZM64.544 385.307C63.1728 385.307 61.9455 384.955 60.8622 384.25C59.7789 383.545 58.9228 382.523 58.294 381.182C57.6652 379.841 57.3509 378.212 57.3509 376.295C57.3509 374.356 57.669 372.72 58.3054 371.386C58.9493 370.045 59.8168 369.034 60.9077 368.352C61.9986 367.663 63.2145 367.318 64.5554 367.318C65.5781 367.318 66.419 367.492 67.0781 367.841C67.7372 368.182 68.2599 368.595 68.6463 369.08C69.0327 369.557 69.3319 370.008 69.544 370.432H69.7145V361.727H73.8395V385H69.794V382.25H69.544C69.3319 382.674 69.0251 383.125 68.6236 383.602C68.2221 384.072 67.6918 384.473 67.0327 384.807C66.3736 385.14 65.544 385.307 64.544 385.307ZM65.6918 381.932C66.563 381.932 67.3054 381.697 67.919 381.227C68.5327 380.75 68.9986 380.087 69.3168 379.239C69.6349 378.39 69.794 377.402 69.794 376.273C69.794 375.144 69.6349 374.163 69.3168 373.33C69.0062 372.496 68.544 371.848 67.9304 371.386C67.3243 370.924 66.5781 370.693 65.6918 370.693C64.7751 370.693 64.0099 370.932 63.3963 371.409C62.7827 371.886 62.3205 372.545 62.0099 373.386C61.6993 374.227 61.544 375.189 61.544 376.273C61.544 377.364 61.6993 378.337 62.0099 379.193C62.3281 380.042 62.794 380.712 63.4077 381.205C64.0289 381.689 64.7902 381.932 65.6918 381.932ZM84.7003 385.307C83.3291 385.307 82.1018 384.955 81.0185 384.25C79.9351 383.545 79.0791 382.523 78.4503 381.182C77.8215 379.841 77.5071 378.212 77.5071 376.295C77.5071 374.356 77.8253 372.72 78.4616 371.386C79.1056 370.045 79.973 369.034 81.0639 368.352C82.1548 367.663 83.3707 367.318 84.7116 367.318C85.7344 367.318 86.5753 367.492 87.2344 367.841C87.8935 368.182 88.4162 368.595 88.8026 369.08C89.1889 369.557 89.4882 370.008 89.7003 370.432H89.8707V361.727H93.9957V385H89.9503V382.25H89.7003C89.4882 382.674 89.1813 383.125 88.7798 383.602C88.3783 384.072 87.848 384.473 87.1889 384.807C86.5298 385.14 85.7003 385.307 84.7003 385.307ZM85.848 381.932C86.7192 381.932 87.4616 381.697 88.0753 381.227C88.6889 380.75 89.1548 380.087 89.473 379.239C89.7912 378.39 89.9503 377.402 89.9503 376.273C89.9503 375.144 89.7912 374.163 89.473 373.33C89.1624 372.496 88.7003 371.848 88.0866 371.386C87.4806 370.924 86.7344 370.693 85.848 370.693C84.9313 370.693 84.1662 370.932 83.5526 371.409C82.9389 371.886 82.4768 372.545 82.1662 373.386C81.8556 374.227 81.7003 375.189 81.7003 376.273C81.7003 377.364 81.8556 378.337 82.1662 379.193C82.4844 380.042 82.9503 380.712 83.5639 381.205C84.1851 381.689 84.9465 381.932 85.848 381.932ZM98.3793 385V367.545H102.493V385H98.3793ZM100.447 365.068C99.7959 365.068 99.2353 364.852 98.7656 364.42C98.2959 363.981 98.0611 363.455 98.0611 362.841C98.0611 362.22 98.2959 361.693 98.7656 361.261C99.2353 360.822 99.7959 360.602 100.447 360.602C101.107 360.602 101.667 360.822 102.129 361.261C102.599 361.693 102.834 362.22 102.834 362.841C102.834 363.455 102.599 363.981 102.129 364.42C101.667 364.852 101.107 365.068 100.447 365.068ZM110.837 374.773V385H106.723V367.545H110.655V370.511H110.859C111.261 369.534 111.901 368.758 112.78 368.182C113.666 367.606 114.761 367.318 116.064 367.318C117.268 367.318 118.318 367.576 119.212 368.091C120.113 368.606 120.81 369.352 121.303 370.33C121.803 371.307 122.049 372.492 122.041 373.886V385H117.928V374.523C117.928 373.356 117.625 372.443 117.018 371.784C116.42 371.125 115.59 370.795 114.53 370.795C113.81 370.795 113.17 370.955 112.609 371.273C112.056 371.583 111.621 372.034 111.303 372.625C110.992 373.216 110.837 373.932 110.837 374.773ZM133.814 391.909C132.337 391.909 131.068 391.708 130.007 391.307C128.946 390.913 128.094 390.383 127.45 389.716C126.806 389.049 126.359 388.311 126.109 387.5L129.814 386.602C129.981 386.943 130.223 387.28 130.541 387.614C130.859 387.955 131.287 388.235 131.825 388.455C132.371 388.682 133.056 388.795 133.882 388.795C135.049 388.795 136.015 388.511 136.78 387.943C137.545 387.383 137.928 386.458 137.928 385.17V381.864H137.723C137.511 382.288 137.2 382.723 136.791 383.17C136.39 383.617 135.856 383.992 135.189 384.295C134.53 384.598 133.7 384.75 132.7 384.75C131.359 384.75 130.143 384.436 129.053 383.807C127.969 383.17 127.106 382.223 126.462 380.966C125.825 379.701 125.507 378.117 125.507 376.216C125.507 374.299 125.825 372.682 126.462 371.364C127.106 370.038 127.973 369.034 129.064 368.352C130.155 367.663 131.371 367.318 132.712 367.318C133.734 367.318 134.575 367.492 135.234 367.841C135.901 368.182 136.431 368.595 136.825 369.08C137.219 369.557 137.518 370.008 137.723 370.432H137.95V367.545H142.007V385.284C142.007 386.777 141.651 388.011 140.939 388.989C140.227 389.966 139.253 390.697 138.018 391.182C136.784 391.667 135.382 391.909 133.814 391.909ZM133.848 381.523C134.719 381.523 135.462 381.311 136.075 380.886C136.689 380.462 137.155 379.852 137.473 379.057C137.791 378.261 137.95 377.307 137.95 376.193C137.95 375.095 137.791 374.133 137.473 373.307C137.162 372.481 136.7 371.841 136.087 371.386C135.481 370.924 134.734 370.693 133.848 370.693C132.931 370.693 132.166 370.932 131.553 371.409C130.939 371.886 130.477 372.542 130.166 373.375C129.856 374.201 129.7 375.14 129.7 376.193C129.7 377.261 129.856 378.197 130.166 379C130.484 379.795 130.95 380.417 131.564 380.864C132.185 381.303 132.946 381.523 133.848 381.523ZM154.342 385V361.727H163.251C164.933 361.727 166.331 361.992 167.445 362.523C168.566 363.045 169.403 363.761 169.956 364.67C170.517 365.58 170.797 366.61 170.797 367.761C170.797 368.708 170.615 369.519 170.251 370.193C169.888 370.86 169.399 371.402 168.786 371.818C168.172 372.235 167.486 372.534 166.729 372.716V372.943C167.554 372.989 168.346 373.242 169.104 373.705C169.869 374.159 170.494 374.803 170.979 375.636C171.464 376.47 171.706 377.477 171.706 378.659C171.706 379.864 171.414 380.947 170.831 381.909C170.248 382.864 169.369 383.617 168.195 384.17C167.02 384.723 165.543 385 163.763 385H154.342ZM158.558 381.477H163.092C164.623 381.477 165.725 381.186 166.399 380.602C167.081 380.011 167.422 379.254 167.422 378.33C167.422 377.64 167.251 377.019 166.911 376.466C166.57 375.905 166.085 375.466 165.456 375.148C164.827 374.822 164.077 374.659 163.206 374.659H158.558V381.477ZM158.558 371.625H162.729C163.456 371.625 164.111 371.492 164.695 371.227C165.278 370.955 165.736 370.572 166.07 370.08C166.411 369.58 166.581 368.989 166.581 368.307C166.581 367.405 166.263 366.663 165.626 366.08C164.998 365.496 164.062 365.205 162.82 365.205H158.558V371.625ZM175.192 385V367.545H179.305V385H175.192ZM177.26 365.068C176.608 365.068 176.048 364.852 175.578 364.42C175.108 363.981 174.874 363.455 174.874 362.841C174.874 362.22 175.108 361.693 175.578 361.261C176.048 360.822 176.608 360.602 177.26 360.602C177.919 360.602 178.48 360.822 178.942 361.261C179.411 361.693 179.646 362.22 179.646 362.841C179.646 363.455 179.411 363.981 178.942 364.42C178.48 364.852 177.919 365.068 177.26 365.068ZM187.649 361.727V385H183.536V361.727H187.649ZM195.993 361.727V385H191.879V361.727H195.993ZM214.018 372.159L210.268 372.568C210.162 372.189 209.977 371.833 209.712 371.5C209.454 371.167 209.106 370.898 208.666 370.693C208.227 370.489 207.689 370.386 207.053 370.386C206.196 370.386 205.477 370.572 204.893 370.943C204.318 371.314 204.034 371.795 204.041 372.386C204.034 372.894 204.219 373.307 204.598 373.625C204.984 373.943 205.621 374.205 206.507 374.409L209.484 375.045C211.136 375.402 212.363 375.966 213.166 376.739C213.977 377.511 214.386 378.523 214.393 379.773C214.386 380.871 214.064 381.841 213.428 382.682C212.799 383.515 211.924 384.167 210.803 384.636C209.681 385.106 208.393 385.341 206.939 385.341C204.803 385.341 203.083 384.894 201.78 384C200.477 383.098 199.7 381.845 199.45 380.239L203.462 379.852C203.643 380.64 204.03 381.235 204.621 381.636C205.212 382.038 205.981 382.239 206.928 382.239C207.905 382.239 208.689 382.038 209.28 381.636C209.878 381.235 210.178 380.739 210.178 380.148C210.178 379.648 209.984 379.235 209.598 378.909C209.219 378.583 208.628 378.333 207.825 378.159L204.848 377.534C203.174 377.186 201.935 376.598 201.132 375.773C200.329 374.939 199.931 373.886 199.939 372.614C199.931 371.538 200.223 370.606 200.814 369.818C201.412 369.023 202.242 368.409 203.303 367.977C204.371 367.538 205.602 367.318 206.996 367.318C209.041 367.318 210.651 367.754 211.825 368.625C213.007 369.496 213.738 370.674 214.018 372.159Z" fill="black"/>
<g clip-path="url(#clip4_256_494)">
<path d="M380 208.1C381.326 208.1 382.4 209.175 382.4 210.5V223.1H383.1V220.5C383.1 219.175 384.174 218.1 385.5 218.1C386.826 218.1 387.9 219.175 387.9 220.5V223.1H388.6V221.5C388.6 220.175 389.674 219.1 391 219.1C392.326 219.1 393.4 220.175 393.4 221.5V223.1H394.1V223C394.1 221.675 395.174 220.6 396.5 220.6C397.826 220.6 398.9 221.675 398.9 223V229C398.9 229.185 398.878 229.37 398.836 229.55L396.836 238.05C396.581 239.134 395.614 239.9 394.5 239.9H381.5L381.358 239.896C381.029 239.876 380.706 239.789 380.411 239.639C380.074 239.467 379.781 239.217 379.559 238.911H379.558L371.56 227.912C370.78 226.84 371.017 225.338 372.089 224.559C373.161 223.779 374.662 224.017 375.441 225.089L377.419 227.809L377.6 228.057V210.5C377.6 209.175 378.674 208.1 380 208.1ZM382.4 234.1H383.1V227.9H382.4V234.1ZM387.9 234.1H388.6V227.9H387.9V234.1ZM393.4 234.1H394.1V227.9H393.4V234.1Z" fill="white" stroke="black" stroke-width="0.2"/>
</g>
<g clip-path="url(#clip5_256_494)">
<path d="M406.75 110C411.58 110 415.5 106.117 415.5 101.333V92.6667H406.75C401.92 92.6667 398 96.5493 398 101.333C398 106.117 401.92 110 406.75 110Z" fill="#0ACF83"/>
<path d="M398 84C398 79.216 401.92 75.3333 406.75 75.3333H415.5V92.6667H406.75C401.92 92.6667 398 88.784 398 84Z" fill="#A259FF"/>
<path d="M398 66.6667C398 61.8827 401.92 58 406.75 58H415.5V75.3333H406.75C401.92 75.3333 398 71.4507 398 66.6667Z" fill="#F24E1E"/>
<path d="M415.5 58H424.25C429.08 58 433 61.8827 433 66.6667C433 71.4507 429.08 75.3333 424.25 75.3333H415.5V58Z" fill="#FF7262"/>
<path d="M433 84C433 88.784 429.08 92.6667 424.25 92.6667C419.42 92.6667 415.5 88.784 415.5 84C415.5 79.216 419.42 75.3333 424.25 75.3333C429.08 75.3333 433 79.216 433 84Z" fill="#1ABCFE"/>
</g>
<g clip-path="url(#clip6_256_494)">
<path d="M61.4327 136.231L81.5252 157.763L74.4161 160.344L68.2263 153.411L60.2884 156.292L61.4327 136.231ZM79.0593 113L93.7017 153.338L62.0305 119.181L79.0593 113ZM50.0355 123.536L47.6424 170.057L33 129.719L50.0355 123.536Z" fill="#FA0F00"/>
</g>
</g>
<rect x="2.5" y="2.5" width="646" height="506" rx="22.5" stroke="#EFEFEF" stroke-width="5"/>
<defs>
<filter id="filter0_dii_256_494" x="129.8" y="123.8" width="393.4" height="174.4" filterUnits="userSpaceOnUse" color-interpolation-filters="sRGB">
<feFlood flood-opacity="0" result="BackgroundImageFix"/>
<feColorMatrix in="SourceAlpha" type="matrix" values="0 0 0 0 0 0 0 0 0 0 0 0 0 0 0 0 0 0 127 0" result="hardAlpha"/>
<feOffset dy="17"/>
<feGaussianBlur stdDeviation="30.6"/>
<feComposite in2="hardAlpha" operator="out"/>
<feColorMatrix type="matrix" values="0 0 0 0 0.329412 0 0 0 0 0.301961 0 0 0 0 0.94902 0 0 0 0.54 0"/>
<feBlend mode="normal" in2="BackgroundImageFix" result="effect1_dropShadow_256_494"/>
<feBlend mode="normal" in="SourceGraphic" in2="effect1_dropShadow_256_494" result="shape"/>
<feColorMatrix in="SourceAlpha" type="matrix" values="0 0 0 0 0 0 0 0 0 0 0 0 0 0 0 0 0 0 127 0" result="hardAlpha"/>
<feOffset dy="4"/>
<feGaussianBlur stdDeviation="14.25"/>
<feComposite in2="hardAlpha" operator="arithmetic" k2="-1" k3="1"/>
<feColorMatrix type="matrix" values="0 0 0 0 0.596978 0 0 0 0 0.579974 0 0 0 0 0.980769 0 0 0 1 0"/>
<feBlend mode="normal" in2="shape" result="effect2_innerShadow_256_494"/>
<feColorMatrix in="SourceAlpha" type="matrix" values="0 0 0 0 0 0 0 0 0 0 0 0 0 0 0 0 0 0 127 0" result="hardAlpha"/>
<feOffset dy="-5"/>
<feGaussianBlur stdDeviation="10.45"/>
<feComposite in2="hardAlpha" operator="arithmetic" k2="-1" k3="1"/>
<feColorMatrix type="matrix" values="0 0 0 0 0 0 0 0 0 0 0 0 0 0 0 0 0 0 0.02 0"/>
<feBlend mode="normal" in2="effect2_innerShadow_256_494" result="effect3_innerShadow_256_494"/>
</filter>
<filter id="filter1_d_256_494" x="-36.7" y="228.3" width="643.4" height="279.4" filterUnits="userSpaceOnUse" color-interpolation-filters="sRGB">
<feFlood flood-opacity="0" result="BackgroundImageFix"/>
<feColorMatrix in="SourceAlpha" type="matrix" values="0 0 0 0 0 0 0 0 0 0 0 0 0 0 0 0 0 0 127 0" result="hardAlpha"/>
<feOffset dy="-40"/>
<feGaussianBlur stdDeviation="20.85"/>
<feComposite in2="hardAlpha" operator="out"/>
<feColorMatrix type="matrix" values="0 0 0 0 1 0 0 0 0 1 0 0 0 0 1 0 0 0 1 0"/>
<feBlend mode="normal" in2="BackgroundImageFix" result="effect1_dropShadow_256_494"/>
<feBlend mode="normal" in="SourceGraphic" in2="effect1_dropShadow_256_494" result="shape"/>
</filter>
<linearGradient id="paint0_linear_256_494" x1="266.806" y1="-17" x2="-52.7238" y2="337.798" gradientUnits="userSpaceOnUse">
<stop stop-color="#544DF2" stop-opacity="0"/>
<stop offset="1" stop-color="#544DF2" stop-opacity="0.21"/>
</linearGradient>
<linearGradient id="paint1_linear_256_494" x1="384.194" y1="-17" x2="703.724" y2="337.798" gradientUnits="userSpaceOnUse">
<stop stop-color="#544DF2" stop-opacity="0"/>
<stop offset="1" stop-color="#544DF2" stop-opacity="0.21"/>
</linearGradient>
<clipPath id="clip0_256_494">
<rect x="5" y="5" width="641" height="501" rx="20" fill="white"/>
</clipPath>
<clipPath id="clip1_256_494">
<rect width="57" height="40" fill="white" transform="translate(297 258)"/>
</clipPath>
<clipPath id="clip2_256_494">
<rect width="55" height="56" fill="white" transform="translate(211 54)"/>
</clipPath>
<clipPath id="clip3_256_494">
<rect width="53.4071" height="53.4071" fill="white" transform="translate(565.929 100.677) rotate(22.2488)"/>
</clipPath>
<clipPath id="clip4_256_494">
<rect width="28" height="32" fill="white" transform="translate(371 208)"/>
</clipPath>
<clipPath id="clip5_256_494">
<rect width="35" height="52" fill="white" transform="translate(398 58)"/>
</clipPath>
<clipPath id="clip6_256_494">
<rect x="33" y="129.719" width="49" height="43" rx="9" transform="rotate(-19.9507 33 129.719)" fill="white"/>
</clipPath>
</defs>
</svg>
