<svg width="706" height="511" viewBox="0 0 706 511" fill="none" xmlns="http://www.w3.org/2000/svg">
<g clip-path="url(#clip0_317_2019)">
<path d="M5 25C5 13.9543 13.9543 5 25 5H681C692.046 5 701 13.9543 701 25V486C701 497.046 692.046 506 681 506H25C13.9543 506 5 497.046 5 486V25Z" fill="#FAFAFF"/>
<path d="M866 283H770.407C768.198 283 766.407 281.209 766.407 279V196C766.407 193.791 764.616 192 762.407 192H602.249C600.04 192 598.249 190.209 598.249 188V123C598.249 120.791 596.458 119 594.249 119H470.126C467.916 119 466.126 117.209 466.126 115V53C466.126 50.7909 464.335 49 462.126 49H336C333.791 49 332 47.2091 332 45V5" stroke="url(#paint0_linear_317_2019)" stroke-width="3"/>
<path d="M435 511H530.593C532.802 511 534.593 509.209 534.593 507V424C534.593 421.791 536.384 420 538.593 420H698.751C700.96 420 702.751 418.209 702.751 416V351C702.751 348.791 704.542 347 706.751 347H830.874C833.084 347 834.874 345.209 834.874 343V281C834.874 278.791 836.665 277 838.874 277H965C967.209 277 969 275.209 969 273V233" stroke="url(#paint1_linear_317_2019)" stroke-width="3"/>
<g filter="url(#filter0_dii_317_2019)">
<rect x="537" y="38" width="124" height="113.952" rx="33.7143" fill="white" shape-rendering="crispEdges"/>
<rect x="537" y="38" width="124" height="113.952" rx="33.7143" fill="#544DF2" shape-rendering="crispEdges"/>
<path d="M609.208 112.226C609.208 113.548 608.944 114.856 608.431 116.077C607.918 117.298 607.166 118.407 606.218 119.341C605.27 120.276 604.145 121.017 602.907 121.523C601.668 122.028 600.341 122.289 599 122.289C597.659 122.289 596.332 122.028 595.093 121.523C593.855 121.017 592.73 120.276 591.782 119.341C590.834 118.407 590.082 117.298 589.569 116.077C589.056 114.856 588.792 113.548 588.792 112.226M620.09 112.226H577.912C576.892 112.226 575.895 111.927 575.047 111.368C574.198 110.809 573.538 110.015 573.147 109.085C572.757 108.156 572.655 107.133 572.854 106.147C573.054 105.161 573.545 104.255 574.267 103.544L576.022 101.81C577.662 100.192 578.584 97.999 578.583 95.7121V87.7886C578.583 82.4511 580.734 77.3322 584.563 73.5581C588.392 69.7839 593.585 67.6636 599 67.6636C604.415 67.6636 609.608 69.7839 613.437 73.5581C617.266 77.3322 619.417 82.4511 619.417 87.7886V95.7121C619.417 97.9994 620.339 100.193 621.98 101.81L623.739 103.544C624.459 104.255 624.949 105.161 625.148 106.147C625.346 107.133 625.244 108.155 624.854 109.083C624.464 110.012 623.804 110.806 622.957 111.366C622.109 111.925 621.11 112.224 620.09 112.226Z" stroke="white" stroke-width="3" stroke-linecap="round" stroke-linejoin="round"/>
</g>
<g filter="url(#filter1_d_317_2019)">
<rect x="202" y="102" width="275" height="374" rx="11" fill="white"/>
</g>
<g filter="url(#filter2_d_317_2019)">
<path d="M6 333H702V493C702 500.18 696.18 506 689 506H19C11.8203 506 6 500.18 6 493V333Z" fill="white"/>
</g>
<path d="M47.0455 420C46.858 419.426 46.6108 418.912 46.304 418.457C46.0028 417.997 45.642 417.605 45.2216 417.281C44.8068 416.957 44.3352 416.71 43.8068 416.54C43.2784 416.369 42.6989 416.284 42.0682 416.284C41.0341 416.284 40.0938 416.551 39.2472 417.085C38.4006 417.619 37.7273 418.406 37.2273 419.446C36.7273 420.486 36.4773 421.761 36.4773 423.273C36.4773 424.784 36.7301 426.06 37.2358 427.099C37.7415 428.139 38.4261 428.926 39.2898 429.46C40.1534 429.994 41.125 430.261 42.2045 430.261C43.2045 430.261 44.0852 430.048 44.8466 429.622C45.6136 429.19 46.2102 428.582 46.6364 427.798C47.0682 427.009 47.2841 426.08 47.2841 425.011L47.9318 425.148H42.6818V423.273H49.3295V425.148C49.3295 426.585 49.0227 427.835 48.4091 428.898C47.8011 429.96 46.9602 430.784 45.8864 431.369C44.8182 431.949 43.5909 432.239 42.2045 432.239C40.6591 432.239 39.3011 431.875 38.1307 431.148C36.9659 430.42 36.0568 429.386 35.4034 428.045C34.7557 426.705 34.4318 425.114 34.4318 423.273C34.4318 421.892 34.6165 420.651 34.9858 419.548C35.3608 418.44 35.8892 417.497 36.571 416.719C37.2528 415.94 38.0597 415.344 38.9915 414.929C39.9233 414.514 40.9489 414.307 42.0682 414.307C42.9886 414.307 43.8466 414.446 44.642 414.724C45.4432 414.997 46.1562 415.386 46.7812 415.892C47.4119 416.392 47.9375 416.991 48.358 417.69C48.7784 418.384 49.0682 419.153 49.2273 420H47.0455ZM58.1655 432.273C56.9041 432.273 55.8161 431.994 54.9013 431.438C53.9922 430.875 53.2905 430.091 52.7962 429.085C52.3075 428.074 52.0632 426.898 52.0632 425.557C52.0632 424.216 52.3075 423.034 52.7962 422.011C53.2905 420.983 53.978 420.182 54.8587 419.608C55.745 419.028 56.7791 418.739 57.9609 418.739C58.6428 418.739 59.3161 418.852 59.9808 419.08C60.6456 419.307 61.2507 419.676 61.7962 420.188C62.3416 420.693 62.7763 421.364 63.1001 422.199C63.424 423.034 63.5859 424.062 63.5859 425.284V426.136H53.495V424.398H61.5405C61.5405 423.659 61.3928 423 61.0973 422.42C60.8075 421.841 60.3928 421.384 59.853 421.048C59.3189 420.713 58.6882 420.545 57.9609 420.545C57.1598 420.545 56.4666 420.744 55.8814 421.142C55.3018 421.534 54.8558 422.045 54.5433 422.676C54.2308 423.307 54.0746 423.983 54.0746 424.705V425.864C54.0746 426.852 54.245 427.69 54.5859 428.378C54.9325 429.06 55.4126 429.58 56.0263 429.938C56.6399 430.29 57.353 430.466 58.1655 430.466C58.6939 430.466 59.1712 430.392 59.5973 430.244C60.0291 430.091 60.4013 429.864 60.7138 429.562C61.0263 429.256 61.2678 428.875 61.4382 428.42L63.3814 428.966C63.1768 429.625 62.8331 430.205 62.3501 430.705C61.8672 431.199 61.2706 431.585 60.5604 431.864C59.8501 432.136 59.0518 432.273 58.1655 432.273ZM72.3388 418.909V420.614H65.5547V418.909H72.3388ZM67.532 415.773H69.5433V428.25C69.5433 428.818 69.6257 429.244 69.7905 429.528C69.9609 429.807 70.1768 429.994 70.4382 430.091C70.7053 430.182 70.9865 430.227 71.282 430.227C71.5036 430.227 71.6854 430.216 71.8274 430.193C71.9695 430.165 72.0831 430.142 72.1683 430.125L72.5774 431.932C72.4411 431.983 72.2507 432.034 72.0064 432.085C71.7621 432.142 71.4524 432.17 71.0774 432.17C70.5092 432.17 69.9524 432.048 69.407 431.804C68.8672 431.56 68.4183 431.188 68.0604 430.688C67.7081 430.188 67.532 429.557 67.532 428.795V415.773ZM91.3871 421.841L89.5803 422.352C89.4666 422.051 89.299 421.759 89.0774 421.474C88.8615 421.185 88.5661 420.946 88.1911 420.759C87.8161 420.571 87.3359 420.477 86.7507 420.477C85.9496 420.477 85.282 420.662 84.7479 421.031C84.2195 421.395 83.9553 421.858 83.9553 422.42C83.9553 422.92 84.1371 423.315 84.5007 423.605C84.8643 423.895 85.4325 424.136 86.2053 424.33L88.1484 424.807C89.3189 425.091 90.1911 425.526 90.7649 426.111C91.3388 426.69 91.6257 427.437 91.6257 428.352C91.6257 429.102 91.4098 429.773 90.978 430.364C90.5518 430.955 89.9553 431.42 89.1882 431.761C88.4212 432.102 87.5291 432.273 86.5121 432.273C85.1768 432.273 84.0717 431.983 83.1967 431.403C82.3217 430.824 81.7678 429.977 81.5348 428.864L83.4439 428.386C83.6257 429.091 83.9695 429.619 84.4751 429.972C84.9865 430.324 85.6541 430.5 86.478 430.5C87.4155 430.5 88.1598 430.301 88.7109 429.903C89.2678 429.5 89.5462 429.017 89.5462 428.455C89.5462 428 89.3871 427.619 89.0689 427.312C88.7507 427 88.2621 426.767 87.603 426.614L85.4212 426.102C84.2223 425.818 83.3416 425.378 82.7791 424.781C82.2223 424.179 81.9439 423.426 81.9439 422.523C81.9439 421.784 82.1513 421.131 82.5661 420.562C82.9865 419.994 83.5575 419.548 84.2791 419.224C85.0064 418.901 85.8303 418.739 86.7507 418.739C88.0462 418.739 89.0632 419.023 89.8018 419.591C90.5462 420.159 91.0746 420.909 91.3871 421.841ZM94.6534 432V418.909H96.5966V420.955H96.767C97.0398 420.256 97.4801 419.713 98.0881 419.327C98.696 418.935 99.4261 418.739 100.278 418.739C101.142 418.739 101.861 418.935 102.435 419.327C103.014 419.713 103.466 420.256 103.79 420.955H103.926C104.261 420.278 104.764 419.741 105.435 419.344C106.105 418.94 106.909 418.739 107.847 418.739C109.017 418.739 109.974 419.105 110.719 419.838C111.463 420.565 111.835 421.699 111.835 423.239V432H109.824V423.239C109.824 422.273 109.56 421.582 109.031 421.168C108.503 420.753 107.881 420.545 107.165 420.545C106.244 420.545 105.531 420.824 105.026 421.381C104.52 421.932 104.267 422.631 104.267 423.477V432H102.222V423.034C102.222 422.29 101.98 421.69 101.497 421.236C101.014 420.776 100.392 420.545 99.6307 420.545C99.108 420.545 98.6193 420.685 98.1648 420.963C97.7159 421.241 97.3523 421.628 97.0739 422.122C96.8011 422.611 96.6648 423.176 96.6648 423.818V432H94.6534ZM119.365 432.307C118.536 432.307 117.783 432.151 117.107 431.838C116.43 431.52 115.893 431.062 115.496 430.466C115.098 429.864 114.899 429.136 114.899 428.284C114.899 427.534 115.047 426.926 115.342 426.46C115.638 425.989 116.033 425.619 116.527 425.352C117.021 425.085 117.567 424.886 118.163 424.756C118.766 424.619 119.371 424.511 119.979 424.432C120.774 424.33 121.419 424.253 121.913 424.202C122.413 424.145 122.777 424.051 123.004 423.92C123.237 423.79 123.354 423.562 123.354 423.239V423.17C123.354 422.33 123.124 421.676 122.663 421.21C122.209 420.744 121.518 420.511 120.592 420.511C119.632 420.511 118.879 420.722 118.334 421.142C117.788 421.562 117.405 422.011 117.183 422.489L115.274 421.807C115.615 421.011 116.07 420.392 116.638 419.949C117.212 419.5 117.837 419.187 118.513 419.011C119.195 418.83 119.865 418.739 120.524 418.739C120.945 418.739 121.428 418.79 121.973 418.892C122.524 418.989 123.055 419.19 123.567 419.497C124.084 419.804 124.513 420.267 124.854 420.886C125.195 421.506 125.365 422.335 125.365 423.375V432H123.354V430.227H123.251C123.115 430.511 122.888 430.815 122.57 431.139C122.251 431.463 121.828 431.739 121.3 431.966C120.771 432.193 120.126 432.307 119.365 432.307ZM119.672 430.5C120.467 430.5 121.138 430.344 121.683 430.031C122.234 429.719 122.649 429.315 122.928 428.821C123.212 428.327 123.354 427.807 123.354 427.261V425.42C123.268 425.523 123.081 425.616 122.791 425.702C122.507 425.781 122.178 425.852 121.803 425.915C121.433 425.972 121.072 426.023 120.72 426.068C120.374 426.108 120.092 426.142 119.876 426.17C119.354 426.239 118.865 426.349 118.411 426.503C117.962 426.651 117.598 426.875 117.32 427.176C117.047 427.472 116.911 427.875 116.911 428.386C116.911 429.085 117.169 429.614 117.686 429.972C118.209 430.324 118.871 430.5 119.672 430.5ZM129.036 432V418.909H130.979V420.886H131.116C131.354 420.239 131.786 419.713 132.411 419.31C133.036 418.906 133.741 418.705 134.525 418.705C134.673 418.705 134.857 418.707 135.079 418.713C135.3 418.719 135.468 418.727 135.582 418.739V420.784C135.513 420.767 135.357 420.741 135.113 420.707C134.874 420.668 134.621 420.648 134.354 420.648C133.718 420.648 133.15 420.781 132.65 421.048C132.156 421.31 131.763 421.673 131.474 422.139C131.19 422.599 131.048 423.125 131.048 423.716V432H129.036ZM144.479 418.909V420.614H137.695V418.909H144.479ZM139.673 415.773H141.684V428.25C141.684 428.818 141.766 429.244 141.931 429.528C142.102 429.807 142.317 429.994 142.579 430.091C142.846 430.182 143.127 430.227 143.423 430.227C143.644 430.227 143.826 430.216 143.968 430.193C144.11 430.165 144.224 430.142 144.309 430.125L144.718 431.932C144.582 431.983 144.391 432.034 144.147 432.085C143.903 432.142 143.593 432.17 143.218 432.17C142.65 432.17 142.093 432.048 141.548 431.804C141.008 431.56 140.559 431.188 140.201 430.688C139.849 430.188 139.673 429.557 139.673 428.795V415.773ZM154.255 432V418.909H156.198V420.886H156.335C156.573 420.239 157.005 419.713 157.63 419.31C158.255 418.906 158.96 418.705 159.744 418.705C159.891 418.705 160.076 418.707 160.298 418.713C160.519 418.719 160.687 418.727 160.8 418.739V420.784C160.732 420.767 160.576 420.741 160.332 420.707C160.093 420.668 159.84 420.648 159.573 420.648C158.937 420.648 158.369 420.781 157.869 421.048C157.374 421.31 156.982 421.673 156.692 422.139C156.408 422.599 156.266 423.125 156.266 423.716V432H154.255ZM168.275 432.273C167.013 432.273 165.925 431.994 165.011 431.438C164.102 430.875 163.4 430.091 162.906 429.085C162.417 428.074 162.173 426.898 162.173 425.557C162.173 424.216 162.417 423.034 162.906 422.011C163.4 420.983 164.087 420.182 164.968 419.608C165.854 419.028 166.888 418.739 168.07 418.739C168.752 418.739 169.425 418.852 170.09 419.08C170.755 419.307 171.36 419.676 171.906 420.188C172.451 420.693 172.886 421.364 173.21 422.199C173.533 423.034 173.695 424.062 173.695 425.284V426.136H163.604V424.398H171.65C171.65 423.659 171.502 423 171.207 422.42C170.917 421.841 170.502 421.384 169.962 421.048C169.428 420.713 168.798 420.545 168.07 420.545C167.269 420.545 166.576 420.744 165.991 421.142C165.411 421.534 164.965 422.045 164.653 422.676C164.34 423.307 164.184 423.983 164.184 424.705V425.864C164.184 426.852 164.354 427.69 164.695 428.378C165.042 429.06 165.522 429.58 166.136 429.938C166.749 430.29 167.462 430.466 168.275 430.466C168.803 430.466 169.281 430.392 169.707 430.244C170.138 430.091 170.511 429.864 170.823 429.562C171.136 429.256 171.377 428.875 171.548 428.42L173.491 428.966C173.286 429.625 172.942 430.205 172.46 430.705C171.977 431.199 171.38 431.585 170.67 431.864C169.96 432.136 169.161 432.273 168.275 432.273ZM176.755 432V418.909H178.698V420.955H178.869C179.141 420.256 179.582 419.713 180.19 419.327C180.798 418.935 181.528 418.739 182.38 418.739C183.244 418.739 183.962 418.935 184.536 419.327C185.116 419.713 185.567 420.256 185.891 420.955H186.028C186.363 420.278 186.866 419.741 187.536 419.344C188.207 418.94 189.011 418.739 189.948 418.739C191.119 418.739 192.076 419.105 192.82 419.838C193.565 420.565 193.937 421.699 193.937 423.239V432H191.925V423.239C191.925 422.273 191.661 421.582 191.133 421.168C190.604 420.753 189.982 420.545 189.266 420.545C188.346 420.545 187.633 420.824 187.127 421.381C186.621 421.932 186.369 422.631 186.369 423.477V432H184.323V423.034C184.323 422.29 184.082 421.69 183.599 421.236C183.116 420.776 182.494 420.545 181.732 420.545C181.21 420.545 180.721 420.685 180.266 420.963C179.817 421.241 179.454 421.628 179.175 422.122C178.903 422.611 178.766 423.176 178.766 423.818V432H176.755ZM197.614 432V418.909H199.626V432H197.614ZM198.637 416.727C198.245 416.727 197.907 416.594 197.623 416.327C197.344 416.06 197.205 415.739 197.205 415.364C197.205 414.989 197.344 414.668 197.623 414.401C197.907 414.134 198.245 414 198.637 414C199.029 414 199.364 414.134 199.643 414.401C199.927 414.668 200.069 414.989 200.069 415.364C200.069 415.739 199.927 416.06 199.643 416.327C199.364 416.594 199.029 416.727 198.637 416.727ZM205.321 424.125V432H203.31V418.909H205.253V420.955H205.423C205.73 420.29 206.196 419.756 206.821 419.352C207.446 418.943 208.253 418.739 209.241 418.739C210.128 418.739 210.903 418.92 211.568 419.284C212.233 419.642 212.75 420.188 213.119 420.92C213.489 421.648 213.673 422.568 213.673 423.682V432H211.662V423.818C211.662 422.79 211.395 421.989 210.861 421.415C210.327 420.835 209.594 420.545 208.662 420.545C208.02 420.545 207.446 420.685 206.94 420.963C206.44 421.241 206.045 421.648 205.756 422.182C205.466 422.716 205.321 423.364 205.321 424.125ZM222.292 432.273C221.201 432.273 220.238 431.997 219.403 431.446C218.567 430.889 217.914 430.105 217.442 429.094C216.971 428.077 216.735 426.875 216.735 425.489C216.735 424.114 216.971 422.92 217.442 421.909C217.914 420.898 218.57 420.116 219.411 419.565C220.252 419.014 221.224 418.739 222.326 418.739C223.178 418.739 223.852 418.881 224.346 419.165C224.846 419.443 225.227 419.761 225.488 420.119C225.755 420.472 225.962 420.761 226.11 420.989H226.281V414.545H228.292V432H226.349V429.989H226.11C225.962 430.227 225.752 430.528 225.479 430.892C225.207 431.25 224.817 431.571 224.312 431.855C223.806 432.134 223.133 432.273 222.292 432.273ZM222.565 430.466C223.371 430.466 224.053 430.256 224.61 429.835C225.167 429.409 225.59 428.821 225.88 428.071C226.17 427.315 226.315 426.443 226.315 425.455C226.315 424.477 226.173 423.622 225.888 422.889C225.604 422.151 225.184 421.577 224.627 421.168C224.07 420.753 223.383 420.545 222.565 420.545C221.712 420.545 221.002 420.764 220.434 421.202C219.871 421.634 219.448 422.222 219.164 422.966C218.886 423.705 218.746 424.534 218.746 425.455C218.746 426.386 218.888 427.233 219.173 427.994C219.462 428.75 219.888 429.352 220.451 429.801C221.019 430.244 221.724 430.466 222.565 430.466ZM237.744 432.273C236.482 432.273 235.394 431.994 234.479 431.438C233.57 430.875 232.869 430.091 232.374 429.085C231.886 428.074 231.641 426.898 231.641 425.557C231.641 424.216 231.886 423.034 232.374 422.011C232.869 420.983 233.556 420.182 234.437 419.608C235.323 419.028 236.357 418.739 237.539 418.739C238.221 418.739 238.894 418.852 239.559 419.08C240.224 419.307 240.829 419.676 241.374 420.188C241.92 420.693 242.354 421.364 242.678 422.199C243.002 423.034 243.164 424.062 243.164 425.284V426.136H233.073V424.398H241.119C241.119 423.659 240.971 423 240.675 422.42C240.386 421.841 239.971 421.384 239.431 421.048C238.897 420.713 238.266 420.545 237.539 420.545C236.738 420.545 236.045 420.744 235.46 421.142C234.88 421.534 234.434 422.045 234.121 422.676C233.809 423.307 233.653 423.983 233.653 424.705V425.864C233.653 426.852 233.823 427.69 234.164 428.378C234.511 429.06 234.991 429.58 235.604 429.938C236.218 430.29 236.931 430.466 237.744 430.466C238.272 430.466 238.749 430.392 239.175 430.244C239.607 430.091 239.979 429.864 240.292 429.562C240.604 429.256 240.846 428.875 241.016 428.42L242.96 428.966C242.755 429.625 242.411 430.205 241.928 430.705C241.445 431.199 240.849 431.585 240.138 431.864C239.428 432.136 238.63 432.273 237.744 432.273ZM246.224 432V418.909H248.167V420.886H248.303C248.542 420.239 248.974 419.713 249.599 419.31C250.224 418.906 250.928 418.705 251.712 418.705C251.86 418.705 252.045 418.707 252.266 418.713C252.488 418.719 252.656 418.727 252.769 418.739V420.784C252.701 420.767 252.545 420.741 252.3 420.707C252.062 420.668 251.809 420.648 251.542 420.648C250.906 420.648 250.337 420.781 249.837 421.048C249.343 421.31 248.951 421.673 248.661 422.139C248.377 422.599 248.235 423.125 248.235 423.716V432H246.224ZM264.426 421.841L262.619 422.352C262.506 422.051 262.338 421.759 262.116 421.474C261.901 421.185 261.605 420.946 261.23 420.759C260.855 420.571 260.375 420.477 259.79 420.477C258.989 420.477 258.321 420.662 257.787 421.031C257.259 421.395 256.994 421.858 256.994 422.42C256.994 422.92 257.176 423.315 257.54 423.605C257.903 423.895 258.472 424.136 259.244 424.33L261.188 424.807C262.358 425.091 263.23 425.526 263.804 426.111C264.378 426.69 264.665 427.437 264.665 428.352C264.665 429.102 264.449 429.773 264.017 430.364C263.591 430.955 262.994 431.42 262.227 431.761C261.46 432.102 260.568 432.273 259.551 432.273C258.216 432.273 257.111 431.983 256.236 431.403C255.361 430.824 254.807 429.977 254.574 428.864L256.483 428.386C256.665 429.091 257.009 429.619 257.514 429.972C258.026 430.324 258.693 430.5 259.517 430.5C260.455 430.5 261.199 430.301 261.75 429.903C262.307 429.5 262.585 429.017 262.585 428.455C262.585 428 262.426 427.619 262.108 427.312C261.79 427 261.301 426.767 260.642 426.614L258.46 426.102C257.261 425.818 256.381 425.378 255.818 424.781C255.261 424.179 254.983 423.426 254.983 422.523C254.983 421.784 255.19 421.131 255.605 420.562C256.026 419.994 256.597 419.548 257.318 419.224C258.045 418.901 258.869 418.739 259.79 418.739C261.085 418.739 262.102 419.023 262.841 419.591C263.585 420.159 264.114 420.909 264.426 421.841ZM38.6932 468.307C37.8636 468.307 37.1108 468.151 36.4347 467.838C35.7585 467.52 35.2216 467.062 34.8239 466.466C34.4261 465.864 34.2273 465.136 34.2273 464.284C34.2273 463.534 34.375 462.926 34.6705 462.46C34.9659 461.989 35.3608 461.619 35.8551 461.352C36.3494 461.085 36.8949 460.886 37.4915 460.756C38.0938 460.619 38.6989 460.511 39.3068 460.432C40.1023 460.33 40.7472 460.253 41.2415 460.202C41.7415 460.145 42.1051 460.051 42.3324 459.92C42.5653 459.79 42.6818 459.562 42.6818 459.239V459.17C42.6818 458.33 42.4517 457.676 41.9915 457.21C41.5369 456.744 40.8466 456.511 39.9205 456.511C38.9602 456.511 38.2074 456.722 37.6619 457.142C37.1165 457.562 36.733 458.011 36.5114 458.489L34.6023 457.807C34.9432 457.011 35.3977 456.392 35.9659 455.949C36.5398 455.5 37.1648 455.187 37.8409 455.011C38.5227 454.83 39.1932 454.739 39.8523 454.739C40.2727 454.739 40.7557 454.79 41.3011 454.892C41.8523 454.989 42.3835 455.19 42.8949 455.497C43.4119 455.804 43.8409 456.267 44.1818 456.886C44.5227 457.506 44.6932 458.335 44.6932 459.375V468H42.6818V466.227H42.5795C42.4432 466.511 42.2159 466.815 41.8977 467.139C41.5795 467.463 41.1563 467.739 40.6278 467.966C40.0994 468.193 39.4545 468.307 38.6932 468.307ZM39 466.5C39.7955 466.5 40.4659 466.344 41.0114 466.031C41.5625 465.719 41.9773 465.315 42.2557 464.821C42.5398 464.327 42.6818 463.807 42.6818 463.261V461.42C42.5966 461.523 42.4091 461.616 42.1193 461.702C41.8352 461.781 41.5057 461.852 41.1307 461.915C40.7614 461.972 40.4006 462.023 40.0483 462.068C39.7017 462.108 39.4205 462.142 39.2045 462.17C38.6818 462.239 38.1932 462.349 37.7386 462.503C37.2898 462.651 36.9261 462.875 36.6477 463.176C36.375 463.472 36.2386 463.875 36.2386 464.386C36.2386 465.085 36.4972 465.614 37.0142 465.972C37.5369 466.324 38.1989 466.5 39 466.5ZM50.3757 460.125V468H48.3643V454.909H50.3075V456.955H50.478C50.7848 456.29 51.2507 455.756 51.8757 455.352C52.5007 454.943 53.3075 454.739 54.2962 454.739C55.1825 454.739 55.9581 454.92 56.6229 455.284C57.2876 455.642 57.8047 456.188 58.174 456.92C58.5433 457.648 58.728 458.568 58.728 459.682V468H56.7166V459.818C56.7166 458.79 56.4496 457.989 55.9155 457.415C55.3814 456.835 54.6484 456.545 53.7166 456.545C53.0746 456.545 52.5007 456.685 51.995 456.963C51.495 457.241 51.1001 457.648 50.8104 458.182C50.5206 458.716 50.3757 459.364 50.3757 460.125ZM67.3466 468.273C66.2557 468.273 65.2926 467.997 64.4574 467.446C63.6222 466.889 62.9688 466.105 62.4972 465.094C62.0256 464.077 61.7898 462.875 61.7898 461.489C61.7898 460.114 62.0256 458.92 62.4972 457.909C62.9688 456.898 63.625 456.116 64.4659 455.565C65.3068 455.014 66.2784 454.739 67.3807 454.739C68.233 454.739 68.9063 454.881 69.4006 455.165C69.9006 455.443 70.2813 455.761 70.5426 456.119C70.8097 456.472 71.017 456.761 71.1648 456.989H71.3352V450.545H73.3466V468H71.4034V465.989H71.1648C71.017 466.227 70.8068 466.528 70.5341 466.892C70.2614 467.25 69.8722 467.571 69.3665 467.855C68.8608 468.134 68.1875 468.273 67.3466 468.273ZM67.6193 466.466C68.4261 466.466 69.108 466.256 69.6648 465.835C70.2216 465.409 70.6449 464.821 70.9347 464.071C71.2244 463.315 71.3693 462.443 71.3693 461.455C71.3693 460.477 71.2273 459.622 70.9432 458.889C70.6591 458.151 70.2386 457.577 69.6818 457.168C69.125 456.753 68.4375 456.545 67.6193 456.545C66.767 456.545 66.0568 456.764 65.4886 457.202C64.9261 457.634 64.5028 458.222 64.2188 458.966C63.9403 459.705 63.8011 460.534 63.8011 461.455C63.8011 462.386 63.9432 463.233 64.2273 463.994C64.517 464.75 64.9432 465.352 65.5057 465.801C66.0739 466.244 66.7784 466.466 67.6193 466.466ZM86.071 460.125V468H84.0597V454.909H86.0028V456.955H86.1733C86.4801 456.29 86.946 455.756 87.571 455.352C88.196 454.943 89.0028 454.739 89.9915 454.739C90.8778 454.739 91.6534 454.92 92.3182 455.284C92.983 455.642 93.5 456.188 93.8693 456.92C94.2386 457.648 94.4233 458.568 94.4233 459.682V468H92.4119V459.818C92.4119 458.79 92.1449 457.989 91.6108 457.415C91.0767 456.835 90.3438 456.545 89.4119 456.545C88.7699 456.545 88.196 456.685 87.6903 456.963C87.1903 457.241 86.7955 457.648 86.5057 458.182C86.2159 458.716 86.071 459.364 86.071 460.125ZM103.587 468.273C102.326 468.273 101.238 467.994 100.323 467.438C99.4141 466.875 98.7124 466.091 98.218 465.085C97.7294 464.074 97.4851 462.898 97.4851 461.557C97.4851 460.216 97.7294 459.034 98.218 458.011C98.7124 456.983 99.3999 456.182 100.281 455.608C101.167 455.028 102.201 454.739 103.383 454.739C104.065 454.739 104.738 454.852 105.403 455.08C106.067 455.307 106.673 455.676 107.218 456.188C107.763 456.693 108.198 457.364 108.522 458.199C108.846 459.034 109.008 460.062 109.008 461.284V462.136H98.9169V460.398H106.962C106.962 459.659 106.815 459 106.519 458.42C106.229 457.841 105.815 457.384 105.275 457.048C104.741 456.713 104.11 456.545 103.383 456.545C102.582 456.545 101.888 456.744 101.303 457.142C100.724 457.534 100.278 458.045 99.9652 458.676C99.6527 459.307 99.4964 459.983 99.4964 460.705V461.864C99.4964 462.852 99.6669 463.69 100.008 464.378C100.354 465.06 100.835 465.58 101.448 465.938C102.062 466.29 102.775 466.466 103.587 466.466C104.116 466.466 104.593 466.392 105.019 466.244C105.451 466.091 105.823 465.864 106.136 465.562C106.448 465.256 106.69 464.875 106.86 464.42L108.803 464.966C108.599 465.625 108.255 466.205 107.772 466.705C107.289 467.199 106.692 467.585 105.982 467.864C105.272 468.136 104.474 468.273 103.587 468.273ZM122.374 454.909L117.533 468H115.487L110.646 454.909H112.828L116.442 465.341H116.578L120.192 454.909H122.374ZM130.048 468.273C128.787 468.273 127.699 467.994 126.784 467.438C125.875 466.875 125.173 466.091 124.679 465.085C124.19 464.074 123.946 462.898 123.946 461.557C123.946 460.216 124.19 459.034 124.679 458.011C125.173 456.983 125.861 456.182 126.741 455.608C127.628 455.028 128.662 454.739 129.844 454.739C130.526 454.739 131.199 454.852 131.864 455.08C132.528 455.307 133.134 455.676 133.679 456.188C134.224 456.693 134.659 457.364 134.983 458.199C135.307 459.034 135.469 460.062 135.469 461.284V462.136H125.378V460.398H133.423C133.423 459.659 133.276 459 132.98 458.42C132.69 457.841 132.276 457.384 131.736 457.048C131.202 456.713 130.571 456.545 129.844 456.545C129.043 456.545 128.349 456.744 127.764 457.142C127.185 457.534 126.739 458.045 126.426 458.676C126.114 459.307 125.957 459.983 125.957 460.705V461.864C125.957 462.852 126.128 463.69 126.469 464.378C126.815 465.06 127.295 465.58 127.909 465.938C128.523 466.29 129.236 466.466 130.048 466.466C130.577 466.466 131.054 466.392 131.48 466.244C131.912 466.091 132.284 465.864 132.597 465.562C132.909 465.256 133.151 464.875 133.321 464.42L135.264 464.966C135.06 465.625 134.716 466.205 134.233 466.705C133.75 467.199 133.153 467.585 132.443 467.864C131.733 468.136 130.935 468.273 130.048 468.273ZM138.528 468V454.909H140.472V456.886H140.608C140.847 456.239 141.278 455.713 141.903 455.31C142.528 454.906 143.233 454.705 144.017 454.705C144.165 454.705 144.349 454.707 144.571 454.713C144.793 454.719 144.96 454.727 145.074 454.739V456.784C145.006 456.767 144.849 456.741 144.605 456.707C144.366 456.668 144.114 456.648 143.847 456.648C143.21 456.648 142.642 456.781 142.142 457.048C141.648 457.31 141.256 457.673 140.966 458.139C140.682 458.599 140.54 459.125 140.54 459.716V468H138.528ZM154.208 468V454.909H156.151V456.955H156.322C156.594 456.256 157.035 455.713 157.643 455.327C158.251 454.935 158.981 454.739 159.833 454.739C160.697 454.739 161.415 454.935 161.989 455.327C162.569 455.713 163.021 456.256 163.344 456.955H163.481C163.816 456.278 164.319 455.741 164.989 455.344C165.66 454.94 166.464 454.739 167.401 454.739C168.572 454.739 169.529 455.105 170.273 455.838C171.018 456.565 171.39 457.699 171.39 459.239V468H169.379V459.239C169.379 458.273 169.114 457.582 168.586 457.168C168.058 456.753 167.435 456.545 166.719 456.545C165.799 456.545 165.086 456.824 164.58 457.381C164.075 457.932 163.822 458.631 163.822 459.477V468H161.776V459.034C161.776 458.29 161.535 457.69 161.052 457.236C160.569 456.776 159.947 456.545 159.185 456.545C158.663 456.545 158.174 456.685 157.719 456.963C157.271 457.241 156.907 457.628 156.629 458.122C156.356 458.611 156.219 459.176 156.219 459.818V468H154.208ZM175.067 468V454.909H177.079V468H175.067ZM176.09 452.727C175.698 452.727 175.36 452.594 175.076 452.327C174.798 452.06 174.658 451.739 174.658 451.364C174.658 450.989 174.798 450.668 175.076 450.401C175.36 450.134 175.698 450 176.09 450C176.482 450 176.817 450.134 177.096 450.401C177.38 450.668 177.522 450.989 177.522 451.364C177.522 451.739 177.38 452.06 177.096 452.327C176.817 452.594 176.482 452.727 176.09 452.727ZM190.036 457.841L188.229 458.352C188.115 458.051 187.947 457.759 187.726 457.474C187.51 457.185 187.214 456.946 186.839 456.759C186.464 456.571 185.984 456.477 185.399 456.477C184.598 456.477 183.93 456.662 183.396 457.031C182.868 457.395 182.604 457.858 182.604 458.42C182.604 458.92 182.786 459.315 183.149 459.605C183.513 459.895 184.081 460.136 184.854 460.33L186.797 460.807C187.967 461.091 188.839 461.526 189.413 462.111C189.987 462.69 190.274 463.437 190.274 464.352C190.274 465.102 190.058 465.773 189.626 466.364C189.2 466.955 188.604 467.42 187.837 467.761C187.07 468.102 186.178 468.273 185.161 468.273C183.825 468.273 182.72 467.983 181.845 467.403C180.97 466.824 180.416 465.977 180.183 464.864L182.092 464.386C182.274 465.091 182.618 465.619 183.124 465.972C183.635 466.324 184.303 466.5 185.126 466.5C186.064 466.5 186.808 466.301 187.359 465.903C187.916 465.5 188.195 465.017 188.195 464.455C188.195 464 188.036 463.619 187.717 463.312C187.399 463 186.911 462.767 186.251 462.614L184.07 462.102C182.871 461.818 181.99 461.378 181.428 460.781C180.871 460.179 180.592 459.426 180.592 458.523C180.592 457.784 180.8 457.131 181.214 456.562C181.635 455.994 182.206 455.548 182.928 455.224C183.655 454.901 184.479 454.739 185.399 454.739C186.695 454.739 187.712 455.023 188.45 455.591C189.195 456.159 189.723 456.909 190.036 457.841ZM202.575 457.841L200.768 458.352C200.654 458.051 200.487 457.759 200.265 457.474C200.049 457.185 199.754 456.946 199.379 456.759C199.004 456.571 198.523 456.477 197.938 456.477C197.137 456.477 196.469 456.662 195.935 457.031C195.407 457.395 195.143 457.858 195.143 458.42C195.143 458.92 195.325 459.315 195.688 459.605C196.052 459.895 196.62 460.136 197.393 460.33L199.336 460.807C200.506 461.091 201.379 461.526 201.952 462.111C202.526 462.69 202.813 463.437 202.813 464.352C202.813 465.102 202.597 465.773 202.165 466.364C201.739 466.955 201.143 467.42 200.376 467.761C199.609 468.102 198.717 468.273 197.7 468.273C196.364 468.273 195.259 467.983 194.384 467.403C193.509 466.824 192.955 465.977 192.722 464.864L194.631 464.386C194.813 465.091 195.157 465.619 195.663 465.972C196.174 466.324 196.842 466.5 197.665 466.5C198.603 466.5 199.347 466.301 199.898 465.903C200.455 465.5 200.734 465.017 200.734 464.455C200.734 464 200.575 463.619 200.256 463.312C199.938 463 199.45 462.767 198.79 462.614L196.609 462.102C195.41 461.818 194.529 461.378 193.967 460.781C193.41 460.179 193.131 459.426 193.131 458.523C193.131 457.784 193.339 457.131 193.754 456.562C194.174 455.994 194.745 455.548 195.467 455.224C196.194 454.901 197.018 454.739 197.938 454.739C199.234 454.739 200.251 455.023 200.989 455.591C201.734 456.159 202.262 456.909 202.575 457.841ZM212.591 472.909V454.909H214.534V456.989H214.773C214.92 456.761 215.125 456.472 215.386 456.119C215.653 455.761 216.034 455.443 216.528 455.165C217.028 454.881 217.705 454.739 218.557 454.739C219.659 454.739 220.631 455.014 221.472 455.565C222.313 456.116 222.969 456.898 223.44 457.909C223.912 458.92 224.148 460.114 224.148 461.489C224.148 462.875 223.912 464.077 223.44 465.094C222.969 466.105 222.315 466.889 221.48 467.446C220.645 467.997 219.682 468.273 218.591 468.273C217.75 468.273 217.077 468.134 216.571 467.855C216.065 467.571 215.676 467.25 215.403 466.892C215.131 466.528 214.92 466.227 214.773 465.989H214.602V472.909H212.591ZM214.568 461.455C214.568 462.443 214.713 463.315 215.003 464.071C215.293 464.821 215.716 465.409 216.273 465.835C216.83 466.256 217.511 466.466 218.318 466.466C219.159 466.466 219.861 466.244 220.423 465.801C220.991 465.352 221.418 464.75 221.702 463.994C221.991 463.233 222.136 462.386 222.136 461.455C222.136 460.534 221.994 459.705 221.71 458.966C221.432 458.222 221.009 457.634 220.44 457.202C219.878 456.764 219.17 456.545 218.318 456.545C217.5 456.545 216.813 456.753 216.256 457.168C215.699 457.577 215.278 458.151 214.994 458.889C214.71 459.622 214.568 460.477 214.568 461.455ZM231.068 468.307C230.239 468.307 229.486 468.151 228.81 467.838C228.134 467.52 227.597 467.062 227.199 466.466C226.801 465.864 226.602 465.136 226.602 464.284C226.602 463.534 226.75 462.926 227.045 462.46C227.341 461.989 227.736 461.619 228.23 461.352C228.724 461.085 229.27 460.886 229.866 460.756C230.469 460.619 231.074 460.511 231.682 460.432C232.477 460.33 233.122 460.253 233.616 460.202C234.116 460.145 234.48 460.051 234.707 459.92C234.94 459.79 235.057 459.562 235.057 459.239V459.17C235.057 458.33 234.827 457.676 234.366 457.21C233.912 456.744 233.222 456.511 232.295 456.511C231.335 456.511 230.582 456.722 230.037 457.142C229.491 457.562 229.108 458.011 228.886 458.489L226.977 457.807C227.318 457.011 227.773 456.392 228.341 455.949C228.915 455.5 229.54 455.187 230.216 455.011C230.898 454.83 231.568 454.739 232.227 454.739C232.648 454.739 233.131 454.79 233.676 454.892C234.227 454.989 234.759 455.19 235.27 455.497C235.787 455.804 236.216 456.267 236.557 456.886C236.898 457.506 237.068 458.335 237.068 459.375V468H235.057V466.227H234.955C234.818 466.511 234.591 466.815 234.273 467.139C233.955 467.463 233.531 467.739 233.003 467.966C232.474 468.193 231.83 468.307 231.068 468.307ZM231.375 466.5C232.17 466.5 232.841 466.344 233.386 466.031C233.938 465.719 234.352 465.315 234.631 464.821C234.915 464.327 235.057 463.807 235.057 463.261V461.42C234.972 461.523 234.784 461.616 234.494 461.702C234.21 461.781 233.881 461.852 233.506 461.915C233.136 461.972 232.776 462.023 232.423 462.068C232.077 462.108 231.795 462.142 231.58 462.17C231.057 462.239 230.568 462.349 230.114 462.503C229.665 462.651 229.301 462.875 229.023 463.176C228.75 463.472 228.614 463.875 228.614 464.386C228.614 465.085 228.872 465.614 229.389 465.972C229.912 466.324 230.574 466.5 231.375 466.5ZM241.566 472.909C241.225 472.909 240.921 472.881 240.654 472.824C240.387 472.773 240.202 472.722 240.1 472.67L240.612 470.898C241.1 471.023 241.532 471.068 241.907 471.034C242.282 471 242.614 470.832 242.904 470.531C243.2 470.236 243.469 469.756 243.714 469.091L244.089 468.068L239.248 454.909H241.43L245.043 465.341H245.18L248.793 454.909H250.975L245.418 469.909C245.168 470.585 244.859 471.145 244.489 471.588C244.12 472.037 243.691 472.369 243.202 472.585C242.719 472.801 242.174 472.909 241.566 472.909ZM253.63 468V454.909H255.573V456.955H255.744C256.016 456.256 256.457 455.713 257.065 455.327C257.673 454.935 258.403 454.739 259.255 454.739C260.119 454.739 260.837 454.935 261.411 455.327C261.991 455.713 262.442 456.256 262.766 456.955H262.903C263.238 456.278 263.741 455.741 264.411 455.344C265.082 454.94 265.886 454.739 266.823 454.739C267.994 454.739 268.951 455.105 269.695 455.838C270.44 456.565 270.812 457.699 270.812 459.239V468H268.8V459.239C268.8 458.273 268.536 457.582 268.008 457.168C267.479 456.753 266.857 456.545 266.141 456.545C265.221 456.545 264.508 456.824 264.002 457.381C263.496 457.932 263.244 458.631 263.244 459.477V468H261.198V459.034C261.198 458.29 260.957 457.69 260.474 457.236C259.991 456.776 259.369 456.545 258.607 456.545C258.085 456.545 257.596 456.685 257.141 456.963C256.692 457.241 256.329 457.628 256.05 458.122C255.778 458.611 255.641 459.176 255.641 459.818V468H253.63ZM279.978 468.273C278.717 468.273 277.629 467.994 276.714 467.438C275.805 466.875 275.103 466.091 274.609 465.085C274.12 464.074 273.876 462.898 273.876 461.557C273.876 460.216 274.12 459.034 274.609 458.011C275.103 456.983 275.79 456.182 276.671 455.608C277.558 455.028 278.592 454.739 279.773 454.739C280.455 454.739 281.129 454.852 281.793 455.08C282.458 455.307 283.063 455.676 283.609 456.188C284.154 456.693 284.589 457.364 284.913 458.199C285.237 459.034 285.398 460.062 285.398 461.284V462.136H275.308V460.398H283.353C283.353 459.659 283.205 459 282.91 458.42C282.62 457.841 282.205 457.384 281.665 457.048C281.131 456.713 280.501 456.545 279.773 456.545C278.972 456.545 278.279 456.744 277.694 457.142C277.114 457.534 276.668 458.045 276.356 458.676C276.043 459.307 275.887 459.983 275.887 460.705V461.864C275.887 462.852 276.058 463.69 276.398 464.378C276.745 465.06 277.225 465.58 277.839 465.938C278.452 466.29 279.165 466.466 279.978 466.466C280.506 466.466 280.984 466.392 281.41 466.244C281.842 466.091 282.214 465.864 282.526 465.562C282.839 465.256 283.08 464.875 283.251 464.42L285.194 464.966C284.989 465.625 284.646 466.205 284.163 466.705C283.68 467.199 283.083 467.585 282.373 467.864C281.663 468.136 280.864 468.273 279.978 468.273ZM290.469 460.125V468H288.458V454.909H290.401V456.955H290.572C290.879 456.29 291.344 455.756 291.969 455.352C292.594 454.943 293.401 454.739 294.39 454.739C295.276 454.739 296.052 454.92 296.717 455.284C297.381 455.642 297.898 456.188 298.268 456.92C298.637 457.648 298.822 458.568 298.822 459.682V468H296.81V459.818C296.81 458.79 296.543 457.989 296.009 457.415C295.475 456.835 294.742 456.545 293.81 456.545C293.168 456.545 292.594 456.685 292.089 456.963C291.589 457.241 291.194 457.648 290.904 458.182C290.614 458.716 290.469 459.364 290.469 460.125ZM308.19 454.909V456.614H301.406V454.909H308.19ZM303.384 451.773H305.395V464.25C305.395 464.818 305.477 465.244 305.642 465.528C305.813 465.807 306.028 465.994 306.29 466.091C306.557 466.182 306.838 466.227 307.134 466.227C307.355 466.227 307.537 466.216 307.679 466.193C307.821 466.165 307.935 466.142 308.02 466.125L308.429 467.932C308.293 467.983 308.102 468.034 307.858 468.085C307.614 468.142 307.304 468.17 306.929 468.17C306.361 468.17 305.804 468.048 305.259 467.804C304.719 467.56 304.27 467.188 303.912 466.688C303.56 466.188 303.384 465.557 303.384 464.795V451.773ZM320.254 457.841L318.447 458.352C318.334 458.051 318.166 457.759 317.945 457.474C317.729 457.185 317.433 456.946 317.058 456.759C316.683 456.571 316.203 456.477 315.618 456.477C314.817 456.477 314.149 456.662 313.615 457.031C313.087 457.395 312.822 457.858 312.822 458.42C312.822 458.92 313.004 459.315 313.368 459.605C313.732 459.895 314.3 460.136 315.072 460.33L317.016 460.807C318.186 461.091 319.058 461.526 319.632 462.111C320.206 462.69 320.493 463.437 320.493 464.352C320.493 465.102 320.277 465.773 319.845 466.364C319.419 466.955 318.822 467.42 318.055 467.761C317.288 468.102 316.396 468.273 315.379 468.273C314.044 468.273 312.939 467.983 312.064 467.403C311.189 466.824 310.635 465.977 310.402 464.864L312.311 464.386C312.493 465.091 312.837 465.619 313.342 465.972C313.854 466.324 314.521 466.5 315.345 466.5C316.283 466.5 317.027 466.301 317.578 465.903C318.135 465.5 318.413 465.017 318.413 464.455C318.413 464 318.254 463.619 317.936 463.312C317.618 463 317.129 462.767 316.47 462.614L314.288 462.102C313.089 461.818 312.209 461.378 311.646 460.781C311.089 460.179 310.811 459.426 310.811 458.523C310.811 457.784 311.018 457.131 311.433 456.562C311.854 455.994 312.425 455.548 313.146 455.224C313.874 454.901 314.697 454.739 315.618 454.739C316.913 454.739 317.93 455.023 318.669 455.591C319.413 456.159 319.942 456.909 320.254 457.841Z" fill="#545457"/>
<path d="M35.3423 382V358.727H44.0696C45.8575 358.727 47.3575 359.038 48.5696 359.659C49.7893 360.28 50.7098 361.152 51.331 362.273C51.9598 363.386 52.2741 364.686 52.2741 366.17C52.2741 367.663 51.956 368.958 51.3196 370.057C50.6908 371.148 49.7628 371.992 48.5355 372.591C47.3082 373.182 45.8007 373.477 44.0128 373.477H37.7969V369.977H43.4446C44.4901 369.977 45.3461 369.833 46.0128 369.545C46.6795 369.25 47.1719 368.822 47.4901 368.261C47.8158 367.693 47.9787 366.996 47.9787 366.17C47.9787 365.345 47.8158 364.64 47.4901 364.057C47.1643 363.466 46.6681 363.019 46.0014 362.716C45.3348 362.405 44.4749 362.25 43.4219 362.25H39.5582V382H35.3423ZM47.3651 371.455L53.1264 382H48.4219L42.7628 371.455H47.3651ZM63.4503 382.341C61.7003 382.341 60.1889 381.977 58.9162 381.25C57.651 380.515 56.6776 379.477 55.9957 378.136C55.3139 376.788 54.973 375.201 54.973 373.375C54.973 371.58 55.3139 370.004 55.9957 368.648C56.6851 367.284 57.6473 366.223 58.8821 365.466C60.117 364.701 61.5677 364.318 63.2344 364.318C64.3101 364.318 65.3253 364.492 66.2798 364.841C67.242 365.182 68.0904 365.712 68.8253 366.432C69.5677 367.152 70.151 368.068 70.5753 369.182C70.9995 370.288 71.2116 371.606 71.2116 373.136V374.398H56.9048V371.625H67.2685C67.2609 370.837 67.0904 370.136 66.7571 369.523C66.4238 368.902 65.9579 368.413 65.3594 368.057C64.7685 367.701 64.0791 367.523 63.2912 367.523C62.4503 367.523 61.7116 367.727 61.0753 368.136C60.4389 368.538 59.9427 369.068 59.5866 369.727C59.2382 370.379 59.0601 371.095 59.0526 371.875V374.295C59.0526 375.311 59.2382 376.182 59.6094 376.909C59.9806 377.629 60.4995 378.182 61.1662 378.568C61.8329 378.947 62.6132 379.136 63.5071 379.136C64.1056 379.136 64.6473 379.053 65.1321 378.886C65.617 378.712 66.0374 378.458 66.3935 378.125C66.7495 377.792 67.0185 377.379 67.2003 376.886L71.0412 377.318C70.7988 378.333 70.3366 379.22 69.6548 379.977C68.9806 380.727 68.117 381.311 67.0639 381.727C66.0109 382.136 64.8063 382.341 63.4503 382.341ZM74.6918 382V364.545H78.6236V367.511H78.8281C79.1918 366.511 79.794 365.731 80.6349 365.17C81.4759 364.602 82.4796 364.318 83.6463 364.318C84.8281 364.318 85.8243 364.606 86.6349 365.182C87.4531 365.75 88.0289 366.527 88.3622 367.511H88.544C88.9304 366.542 89.5819 365.769 90.4986 365.193C91.4228 364.61 92.5175 364.318 93.7827 364.318C95.3887 364.318 96.6993 364.826 97.7145 365.841C98.7296 366.856 99.2372 368.337 99.2372 370.284V382H95.1122V370.92C95.1122 369.837 94.8243 369.045 94.2486 368.545C93.6728 368.038 92.9683 367.784 92.1349 367.784C91.1425 367.784 90.366 368.095 89.8054 368.716C89.2524 369.33 88.9759 370.129 88.9759 371.114V382H84.9418V370.75C84.9418 369.848 84.669 369.129 84.1236 368.591C83.5857 368.053 82.8812 367.784 82.0099 367.784C81.419 367.784 80.8812 367.936 80.3963 368.239C79.9115 368.534 79.5251 368.955 79.2372 369.5C78.9493 370.038 78.8054 370.667 78.8054 371.386V382H74.6918ZM103.411 382V364.545H107.524V382H103.411ZM105.479 362.068C104.827 362.068 104.267 361.852 103.797 361.42C103.327 360.981 103.092 360.455 103.092 359.841C103.092 359.22 103.327 358.693 103.797 358.261C104.267 357.822 104.827 357.602 105.479 357.602C106.138 357.602 106.698 357.822 107.161 358.261C107.63 358.693 107.865 359.22 107.865 359.841C107.865 360.455 107.63 360.981 107.161 361.42C106.698 361.852 106.138 362.068 105.479 362.068ZM115.868 371.773V382H111.754V364.545H115.686V367.511H115.891C116.292 366.534 116.932 365.758 117.811 365.182C118.697 364.606 119.792 364.318 121.095 364.318C122.3 364.318 123.349 364.576 124.243 365.091C125.144 365.606 125.841 366.352 126.334 367.33C126.834 368.307 127.08 369.492 127.072 370.886V382H122.959V371.523C122.959 370.356 122.656 369.443 122.05 368.784C121.451 368.125 120.622 367.795 119.561 367.795C118.841 367.795 118.201 367.955 117.641 368.273C117.088 368.583 116.652 369.034 116.334 369.625C116.023 370.216 115.868 370.932 115.868 371.773ZM137.732 382.307C136.36 382.307 135.133 381.955 134.05 381.25C132.966 380.545 132.11 379.523 131.482 378.182C130.853 376.841 130.538 375.212 130.538 373.295C130.538 371.356 130.857 369.72 131.493 368.386C132.137 367.045 133.004 366.034 134.095 365.352C135.186 364.663 136.402 364.318 137.743 364.318C138.766 364.318 139.607 364.492 140.266 364.841C140.925 365.182 141.447 365.595 141.834 366.08C142.22 366.557 142.519 367.008 142.732 367.432H142.902V358.727H147.027V382H142.982V379.25H142.732C142.519 379.674 142.213 380.125 141.811 380.602C141.41 381.072 140.879 381.473 140.22 381.807C139.561 382.14 138.732 382.307 137.732 382.307ZM138.879 378.932C139.75 378.932 140.493 378.697 141.107 378.227C141.72 377.75 142.186 377.087 142.504 376.239C142.822 375.39 142.982 374.402 142.982 373.273C142.982 372.144 142.822 371.163 142.504 370.33C142.194 369.496 141.732 368.848 141.118 368.386C140.512 367.924 139.766 367.693 138.879 367.693C137.963 367.693 137.197 367.932 136.584 368.409C135.97 368.886 135.508 369.545 135.197 370.386C134.887 371.227 134.732 372.189 134.732 373.273C134.732 374.364 134.887 375.337 135.197 376.193C135.516 377.042 135.982 377.712 136.595 378.205C137.216 378.689 137.978 378.932 138.879 378.932ZM159.138 382.341C157.388 382.341 155.876 381.977 154.604 381.25C153.339 380.515 152.365 379.477 151.683 378.136C151.001 376.788 150.661 375.201 150.661 373.375C150.661 371.58 151.001 370.004 151.683 368.648C152.373 367.284 153.335 366.223 154.57 365.466C155.804 364.701 157.255 364.318 158.922 364.318C159.998 364.318 161.013 364.492 161.967 364.841C162.929 365.182 163.778 365.712 164.513 366.432C165.255 367.152 165.839 368.068 166.263 369.182C166.687 370.288 166.899 371.606 166.899 373.136V374.398H152.592V371.625H162.956C162.948 370.837 162.778 370.136 162.445 369.523C162.111 368.902 161.645 368.413 161.047 368.057C160.456 367.701 159.767 367.523 158.979 367.523C158.138 367.523 157.399 367.727 156.763 368.136C156.126 368.538 155.63 369.068 155.274 369.727C154.926 370.379 154.748 371.095 154.74 371.875V374.295C154.74 375.311 154.926 376.182 155.297 376.909C155.668 377.629 156.187 378.182 156.854 378.568C157.52 378.947 158.301 379.136 159.195 379.136C159.793 379.136 160.335 379.053 160.82 378.886C161.304 378.712 161.725 378.458 162.081 378.125C162.437 377.792 162.706 377.379 162.888 376.886L166.729 377.318C166.486 378.333 166.024 379.22 165.342 379.977C164.668 380.727 163.804 381.311 162.751 381.727C161.698 382.136 160.494 382.341 159.138 382.341ZM170.379 382V364.545H174.368V367.455H174.55C174.868 366.447 175.413 365.67 176.186 365.125C176.966 364.572 177.857 364.295 178.857 364.295C179.084 364.295 179.338 364.307 179.618 364.33C179.906 364.345 180.144 364.371 180.334 364.409V368.193C180.16 368.133 179.883 368.08 179.504 368.034C179.133 367.981 178.773 367.955 178.425 367.955C177.675 367.955 177 368.117 176.402 368.443C175.811 368.761 175.345 369.205 175.004 369.773C174.663 370.341 174.493 370.996 174.493 371.739V382H170.379Z" fill="black"/>
<g filter="url(#filter3_dii_317_2019)">
<path d="M384.5 180C386.985 180 389 182.015 389 184.5C389 186.985 386.985 189 384.5 189H225.5C223.015 189 221 186.985 221 184.5C221 182.015 223.015 180 225.5 180H384.5Z" fill="#E4E4FF"/>
</g>
<g filter="url(#filter4_dii_317_2019)">
<path d="M384.5 208C386.985 208 389 210.015 389 212.5C389 214.985 386.985 217 384.5 217H225.5C223.015 217 221 214.985 221 212.5C221 210.015 223.015 208 225.5 208H384.5Z" fill="#E4E4FF"/>
</g>
<g filter="url(#filter5_dii_317_2019)">
<path d="M384.5 236C386.985 236 389 238.015 389 240.5C389 242.985 386.985 245 384.5 245H225.5C223.015 245 221 242.985 221 240.5C221 238.015 223.015 236 225.5 236H384.5Z" fill="#E4E4FF"/>
</g>
<g filter="url(#filter6_dii_317_2019)">
<path d="M262.5 264C267.747 264 272 268.253 272 273.5C272 278.747 267.747 283 262.5 283H230.5C225.253 283 221 278.747 221 273.5C221 268.253 225.253 264 230.5 264H262.5Z" fill="#E4E4FF"/>
</g>
<g filter="url(#filter7_ii_317_2019)">
<rect x="218" y="118" width="114" height="40" rx="9" fill="#F7F7FF"/>
<rect x="218.5" y="118.5" width="113" height="39" rx="8.5" stroke="#544DF2" stroke-opacity="0.11"/>
<path d="M239.727 144.5H235.291V131.409H239.817C241.116 131.409 242.233 131.671 243.166 132.195C244.104 132.715 244.824 133.463 245.327 134.439C245.83 135.415 246.081 136.582 246.081 137.942C246.081 139.305 245.827 140.477 245.32 141.457C244.817 142.437 244.091 143.19 243.141 143.714C242.195 144.238 241.057 144.5 239.727 144.5ZM237.663 142.448H239.612C240.524 142.448 241.285 142.282 241.894 141.95C242.504 141.613 242.962 141.112 243.268 140.447C243.575 139.778 243.729 138.943 243.729 137.942C243.729 136.94 243.575 136.109 243.268 135.449C242.962 134.784 242.508 134.288 241.907 133.96C241.31 133.627 240.569 133.461 239.683 133.461H237.663V142.448ZM254.49 140.371V134.682H256.804V144.5H254.56V142.755H254.458C254.236 143.305 253.872 143.754 253.365 144.104C252.862 144.453 252.242 144.628 251.505 144.628C250.861 144.628 250.292 144.485 249.798 144.2C249.308 143.91 248.924 143.49 248.647 142.94C248.37 142.386 248.232 141.717 248.232 140.933V134.682H250.546V140.575C250.546 141.197 250.716 141.692 251.057 142.058C251.398 142.425 251.846 142.608 252.4 142.608C252.74 142.608 253.071 142.525 253.39 142.359C253.71 142.192 253.972 141.945 254.176 141.617C254.385 141.285 254.49 140.869 254.49 140.371ZM263.53 144.692C262.545 144.692 261.695 144.487 260.979 144.078C260.268 143.665 259.72 143.081 259.336 142.327C258.953 141.568 258.761 140.675 258.761 139.648C258.761 138.638 258.953 137.752 259.336 136.989C259.724 136.222 260.265 135.626 260.96 135.2C261.655 134.769 262.471 134.554 263.408 134.554C264.013 134.554 264.584 134.652 265.121 134.848C265.662 135.04 266.14 135.338 266.553 135.743C266.971 136.148 267.299 136.663 267.537 137.29C267.776 137.912 267.895 138.653 267.895 139.514V140.224H259.848V138.664H265.677C265.673 138.221 265.577 137.827 265.39 137.482C265.202 137.132 264.94 136.857 264.604 136.657C264.271 136.457 263.883 136.357 263.44 136.357C262.967 136.357 262.552 136.472 262.194 136.702C261.836 136.928 261.557 137.226 261.356 137.597C261.16 137.963 261.06 138.366 261.056 138.805V140.166C261.056 140.737 261.16 141.227 261.369 141.636C261.578 142.041 261.87 142.352 262.245 142.57C262.62 142.783 263.059 142.889 263.562 142.889C263.898 142.889 264.203 142.842 264.476 142.749C264.748 142.651 264.985 142.508 265.185 142.32C265.385 142.133 265.537 141.901 265.639 141.624L267.8 141.866C267.663 142.437 267.403 142.936 267.02 143.362C266.64 143.784 266.155 144.112 265.562 144.347C264.97 144.577 264.292 144.692 263.53 144.692ZM282.078 137.277L279.968 137.507C279.909 137.294 279.804 137.094 279.655 136.906C279.51 136.719 279.314 136.567 279.067 136.452C278.82 136.337 278.517 136.28 278.159 136.28C277.678 136.28 277.273 136.384 276.945 136.593C276.621 136.802 276.461 137.072 276.466 137.405C276.461 137.69 276.566 137.923 276.779 138.102C276.996 138.281 277.354 138.428 277.853 138.543L279.527 138.901C280.456 139.101 281.147 139.418 281.598 139.853C282.054 140.288 282.284 140.857 282.289 141.56C282.284 142.178 282.103 142.723 281.745 143.196C281.392 143.665 280.9 144.031 280.269 144.295C279.638 144.56 278.914 144.692 278.096 144.692C276.894 144.692 275.926 144.44 275.194 143.938C274.461 143.43 274.024 142.725 273.883 141.822L276.14 141.604C276.242 142.048 276.459 142.382 276.792 142.608C277.124 142.834 277.556 142.947 278.089 142.947C278.639 142.947 279.08 142.834 279.412 142.608C279.749 142.382 279.917 142.103 279.917 141.771C279.917 141.489 279.809 141.257 279.591 141.074C279.378 140.891 279.046 140.75 278.594 140.652L276.919 140.3C275.978 140.104 275.281 139.774 274.829 139.31C274.377 138.841 274.154 138.249 274.158 137.533C274.154 136.928 274.318 136.403 274.65 135.96C274.987 135.513 275.453 135.168 276.05 134.925C276.651 134.678 277.343 134.554 278.127 134.554C279.278 134.554 280.184 134.799 280.844 135.289C281.509 135.779 281.92 136.442 282.078 137.277ZM288.479 144.692C287.521 144.692 286.69 144.481 285.987 144.059C285.283 143.637 284.738 143.047 284.35 142.288C283.967 141.53 283.775 140.643 283.775 139.629C283.775 138.615 283.967 137.727 284.35 136.964C284.738 136.201 285.283 135.609 285.987 135.187C286.69 134.765 287.521 134.554 288.479 134.554C289.438 134.554 290.269 134.765 290.972 135.187C291.675 135.609 292.219 136.201 292.602 136.964C292.99 137.727 293.184 138.615 293.184 139.629C293.184 140.643 292.99 141.53 292.602 142.288C292.219 143.047 291.675 143.637 290.972 144.059C290.269 144.481 289.438 144.692 288.479 144.692ZM288.492 142.838C289.012 142.838 289.447 142.695 289.796 142.41C290.146 142.12 290.406 141.732 290.576 141.246C290.751 140.761 290.838 140.219 290.838 139.623C290.838 139.022 290.751 138.479 290.576 137.993C290.406 137.503 290.146 137.113 289.796 136.823C289.447 136.533 289.012 136.388 288.492 136.388C287.96 136.388 287.516 136.533 287.163 136.823C286.813 137.113 286.551 137.503 286.376 137.993C286.206 138.479 286.121 139.022 286.121 139.623C286.121 140.219 286.206 140.761 286.376 141.246C286.551 141.732 286.813 142.12 287.163 142.41C287.516 142.695 287.96 142.838 288.492 142.838ZM299.431 144.692C298.472 144.692 297.641 144.481 296.938 144.059C296.235 143.637 295.689 143.047 295.301 142.288C294.918 141.53 294.726 140.643 294.726 139.629C294.726 138.615 294.918 137.727 295.301 136.964C295.689 136.201 296.235 135.609 296.938 135.187C297.641 134.765 298.472 134.554 299.431 134.554C300.389 134.554 301.22 134.765 301.923 135.187C302.627 135.609 303.17 136.201 303.553 136.964C303.941 137.727 304.135 138.615 304.135 139.629C304.135 140.643 303.941 141.53 303.553 142.288C303.17 143.047 302.627 143.637 301.923 144.059C301.22 144.481 300.389 144.692 299.431 144.692ZM299.443 142.838C299.963 142.838 300.398 142.695 300.747 142.41C301.097 142.12 301.357 141.732 301.527 141.246C301.702 140.761 301.789 140.219 301.789 139.623C301.789 139.022 301.702 138.479 301.527 137.993C301.357 137.503 301.097 137.113 300.747 136.823C300.398 136.533 299.963 136.388 299.443 136.388C298.911 136.388 298.468 136.533 298.114 136.823C297.764 137.113 297.502 137.503 297.328 137.993C297.157 138.479 297.072 139.022 297.072 139.623C297.072 140.219 297.157 140.761 297.328 141.246C297.502 141.732 297.764 142.12 298.114 142.41C298.468 142.695 298.911 142.838 299.443 142.838ZM308.413 138.747V144.5H306.099V134.682H308.311V136.35H308.426C308.652 135.8 309.012 135.364 309.506 135.04C310.005 134.716 310.62 134.554 311.353 134.554C312.031 134.554 312.621 134.699 313.124 134.989C313.631 135.278 314.023 135.698 314.3 136.248C314.581 136.798 314.72 137.464 314.716 138.249V144.5H312.402V138.607C312.402 137.95 312.231 137.437 311.89 137.066C311.554 136.695 311.087 136.51 310.49 136.51C310.086 136.51 309.725 136.599 309.41 136.778C309.099 136.953 308.854 137.207 308.675 137.539C308.5 137.871 308.413 138.274 308.413 138.747Z" fill="#5B55F3"/>
</g>
<path d="M414.833 186.167L413.042 184.375C412.889 184.222 412.694 184.146 412.458 184.146C412.222 184.146 412.028 184.222 411.875 184.375C411.722 184.528 411.646 184.722 411.646 184.958C411.646 185.194 411.722 185.389 411.875 185.542L414.25 187.917C414.417 188.083 414.611 188.167 414.833 188.167C415.056 188.167 415.25 188.083 415.417 187.917L420.125 183.208C420.278 183.056 420.354 182.861 420.354 182.625C420.354 182.389 420.278 182.194 420.125 182.042C419.972 181.889 419.778 181.813 419.542 181.813C419.306 181.813 419.111 181.889 418.958 182.042L414.833 186.167ZM410.167 192.5C409.708 192.5 409.316 192.337 408.99 192.011C408.664 191.685 408.501 191.292 408.5 190.833V179.167C408.5 178.708 408.663 178.316 408.99 177.99C409.317 177.664 409.709 177.501 410.167 177.5H421.833C422.292 177.5 422.684 177.663 423.011 177.99C423.338 178.317 423.501 178.709 423.5 179.167V190.833C423.5 191.292 423.337 191.684 423.011 192.011C422.685 192.338 422.292 192.501 421.833 192.5H410.167Z" fill="#544DF2"/>
<path d="M414.833 214.167L413.042 212.375C412.889 212.222 412.694 212.146 412.458 212.146C412.222 212.146 412.028 212.222 411.875 212.375C411.722 212.528 411.646 212.722 411.646 212.958C411.646 213.194 411.722 213.389 411.875 213.542L414.25 215.917C414.417 216.083 414.611 216.167 414.833 216.167C415.056 216.167 415.25 216.083 415.417 215.917L420.125 211.208C420.278 211.056 420.354 210.861 420.354 210.625C420.354 210.389 420.278 210.194 420.125 210.042C419.972 209.889 419.778 209.813 419.542 209.813C419.306 209.813 419.111 209.889 418.958 210.042L414.833 214.167ZM410.167 220.5C409.708 220.5 409.316 220.337 408.99 220.011C408.664 219.685 408.501 219.292 408.5 218.833V207.167C408.5 206.708 408.663 206.316 408.99 205.99C409.317 205.664 409.709 205.501 410.167 205.5H421.833C422.292 205.5 422.684 205.663 423.011 205.99C423.338 206.317 423.501 206.709 423.5 207.167V218.833C423.5 219.292 423.337 219.684 423.011 220.011C422.685 220.338 422.292 220.501 421.833 220.5H410.167Z" fill="#544DF2"/>
<path d="M410.167 234H421.833C422.158 234 422.423 234.11 422.657 234.344C422.891 234.577 423 234.842 423 235.166V246.833C423 247.158 422.89 247.424 422.657 247.657C422.424 247.89 422.159 248 421.834 248H410.167C409.842 248 409.577 247.89 409.344 247.657C409.111 247.424 409 247.159 409 246.833V235.167C409 234.843 409.109 234.577 409.343 234.344C409.548 234.139 409.777 234.029 410.049 234.005L410.167 234ZM419.542 237.312C419.187 237.312 418.86 237.433 418.604 237.688L414.833 241.459L413.396 240.021C413.14 239.766 412.813 239.646 412.458 239.646C412.103 239.646 411.777 239.766 411.521 240.021C411.266 240.277 411.146 240.603 411.146 240.958C411.146 241.313 411.266 241.64 411.521 241.896L413.896 244.271C414.151 244.524 414.47 244.667 414.833 244.667C415.197 244.667 415.516 244.525 415.771 244.271L420.479 239.562C420.734 239.306 420.854 238.98 420.854 238.625C420.854 238.27 420.734 237.944 420.479 237.688C420.223 237.433 419.897 237.313 419.542 237.312Z" fill="#DFDFDF" stroke="#EFEFEF"/>
<path d="M479.038 175.213L495.096 181.705L492.69 164.552L479.038 175.213ZM612.947 246.895C613.165 246.095 612.694 245.271 611.895 245.053C611.095 244.835 610.271 245.306 610.053 246.105L611.5 246.5L612.947 246.895ZM621.859 201.485L621.607 200.007C614.653 201.193 610.327 205.259 607.856 210.497C605.42 215.66 604.785 221.939 605.003 227.751C605.222 233.584 606.307 239.1 607.445 242.839C608.005 244.677 608.613 246.205 609.195 247.126C609.345 247.363 609.524 247.609 609.734 247.821C609.92 248.007 610.271 248.311 610.782 248.417C611.431 248.553 612.027 248.311 612.419 247.893C612.734 247.558 612.875 247.161 612.947 246.895L611.5 246.5L610.053 246.105C610.032 246.183 610.055 246.029 610.231 245.841C610.484 245.571 610.921 245.382 611.393 245.48C611.573 245.518 611.697 245.586 611.76 245.627C611.825 245.668 611.857 245.701 611.86 245.704C611.861 245.705 611.816 245.657 611.731 245.523C611.372 244.956 610.858 243.747 610.315 241.965C609.248 238.462 608.21 233.201 608.001 227.639C607.791 222.057 608.424 216.325 610.569 211.777C612.678 207.307 616.245 203.965 622.111 202.964L621.859 201.485ZM492.412 173.336L492.486 174.835C506.759 174.131 517.135 178.55 525.089 188.062C533.136 197.685 538.802 212.633 543.236 233.19L544.702 232.874L546.169 232.557C541.71 211.883 535.921 196.338 527.391 186.138C518.768 175.827 507.445 171.094 492.338 171.838L492.412 173.336ZM544.702 232.874L543.236 233.19C544.565 239.352 547.298 243.595 551.165 246.11C555.006 248.609 559.744 249.255 564.81 248.692C574.891 247.572 586.869 241.601 597.538 234.426C608.237 227.231 617.853 218.666 623.209 212.11C624.552 210.466 625.652 208.919 626.436 207.526C627.202 206.167 627.75 204.814 627.819 203.593C627.855 202.96 627.766 202.296 627.448 201.684C627.122 201.055 626.61 200.59 625.987 200.286C624.824 199.719 623.292 199.719 621.607 200.007L621.859 201.485L622.111 202.964C623.632 202.705 624.38 202.84 624.672 202.982C624.777 203.033 624.786 203.066 624.786 203.066C624.794 203.083 624.838 203.179 624.824 203.423C624.794 203.956 624.514 204.826 623.823 206.053C623.15 207.247 622.163 208.649 620.886 210.212C615.764 216.482 606.391 224.858 595.864 231.937C585.307 239.037 573.822 244.673 564.479 245.711C559.833 246.227 555.867 245.59 552.8 243.595C549.758 241.617 547.376 238.157 546.169 232.557L544.702 232.874Z" fill="url(#paint2_linear_317_2019)"/>
</g>
<path d="M681 2.5C693.426 2.5 703.5 12.5736 703.5 25V486C703.5 498.426 693.426 508.5 681 508.5H25C12.5736 508.5 2.5 498.426 2.5 486V25C2.5 12.5736 12.5736 2.5 25 2.5H681Z" stroke="#EFEFEF" stroke-width="5"/>
<defs>
<filter id="filter0_dii_317_2019" x="365.057" y="-86.181" width="467.886" height="457.838" filterUnits="userSpaceOnUse" color-interpolation-filters="sRGB">
<feFlood flood-opacity="0" result="BackgroundImageFix"/>
<feColorMatrix in="SourceAlpha" type="matrix" values="0 0 0 0 0 0 0 0 0 0 0 0 0 0 0 0 0 0 127 0" result="hardAlpha"/>
<feOffset dy="47.7619"/>
<feGaussianBlur stdDeviation="85.9714"/>
<feComposite in2="hardAlpha" operator="out"/>
<feColorMatrix type="matrix" values="0 0 0 0 0.329412 0 0 0 0 0.301961 0 0 0 0 0.94902 0 0 0 0.54 0"/>
<feBlend mode="normal" in2="BackgroundImageFix" result="effect1_dropShadow_317_2019"/>
<feBlend mode="normal" in="SourceGraphic" in2="effect1_dropShadow_317_2019" result="shape"/>
<feColorMatrix in="SourceAlpha" type="matrix" values="0 0 0 0 0 0 0 0 0 0 0 0 0 0 0 0 0 0 127 0" result="hardAlpha"/>
<feOffset dy="11.2381"/>
<feGaussianBlur stdDeviation="40.0357"/>
<feComposite in2="hardAlpha" operator="arithmetic" k2="-1" k3="1"/>
<feColorMatrix type="matrix" values="0 0 0 0 0.596978 0 0 0 0 0.579974 0 0 0 0 0.980769 0 0 0 1 0"/>
<feBlend mode="normal" in2="shape" result="effect2_innerShadow_317_2019"/>
<feColorMatrix in="SourceAlpha" type="matrix" values="0 0 0 0 0 0 0 0 0 0 0 0 0 0 0 0 0 0 127 0" result="hardAlpha"/>
<feOffset dy="-14.0476"/>
<feGaussianBlur stdDeviation="29.3595"/>
<feComposite in2="hardAlpha" operator="arithmetic" k2="-1" k3="1"/>
<feColorMatrix type="matrix" values="0 0 0 0 0 0 0 0 0 0 0 0 0 0 0 0 0 0 0.02 0"/>
<feBlend mode="normal" in2="effect2_innerShadow_317_2019" result="effect3_innerShadow_317_2019"/>
</filter>
<filter id="filter1_d_317_2019" x="111.3" y="28.3" width="432.4" height="531.4" filterUnits="userSpaceOnUse" color-interpolation-filters="sRGB">
<feFlood flood-opacity="0" result="BackgroundImageFix"/>
<feColorMatrix in="SourceAlpha" type="matrix" values="0 0 0 0 0 0 0 0 0 0 0 0 0 0 0 0 0 0 127 0" result="hardAlpha"/>
<feOffset dx="-12" dy="5"/>
<feGaussianBlur stdDeviation="39.35"/>
<feComposite in2="hardAlpha" operator="out"/>
<feColorMatrix type="matrix" values="0 0 0 0 0.329412 0 0 0 0 0.301961 0 0 0 0 0.94902 0 0 0 0.1 0"/>
<feBlend mode="normal" in2="BackgroundImageFix" result="effect1_dropShadow_317_2019"/>
<feBlend mode="normal" in="SourceGraphic" in2="effect1_dropShadow_317_2019" result="shape"/>
</filter>
<filter id="filter2_d_317_2019" x="-35.7" y="251.3" width="779.4" height="256.4" filterUnits="userSpaceOnUse" color-interpolation-filters="sRGB">
<feFlood flood-opacity="0" result="BackgroundImageFix"/>
<feColorMatrix in="SourceAlpha" type="matrix" values="0 0 0 0 0 0 0 0 0 0 0 0 0 0 0 0 0 0 127 0" result="hardAlpha"/>
<feOffset dy="-40"/>
<feGaussianBlur stdDeviation="20.85"/>
<feComposite in2="hardAlpha" operator="out"/>
<feColorMatrix type="matrix" values="0 0 0 0 1 0 0 0 0 1 0 0 0 0 1 0 0 0 1 0"/>
<feBlend mode="normal" in2="BackgroundImageFix" result="effect1_dropShadow_317_2019"/>
<feBlend mode="normal" in="SourceGraphic" in2="effect1_dropShadow_317_2019" result="shape"/>
</filter>
<filter id="filter3_dii_317_2019" x="159.8" y="135.8" width="290.4" height="131.4" filterUnits="userSpaceOnUse" color-interpolation-filters="sRGB">
<feFlood flood-opacity="0" result="BackgroundImageFix"/>
<feColorMatrix in="SourceAlpha" type="matrix" values="0 0 0 0 0 0 0 0 0 0 0 0 0 0 0 0 0 0 127 0" result="hardAlpha"/>
<feOffset dy="17"/>
<feGaussianBlur stdDeviation="30.6"/>
<feComposite in2="hardAlpha" operator="out"/>
<feColorMatrix type="matrix" values="0 0 0 0 0.329412 0 0 0 0 0.301961 0 0 0 0 0.94902 0 0 0 0.12 0"/>
<feBlend mode="normal" in2="BackgroundImageFix" result="effect1_dropShadow_317_2019"/>
<feBlend mode="normal" in="SourceGraphic" in2="effect1_dropShadow_317_2019" result="shape"/>
<feColorMatrix in="SourceAlpha" type="matrix" values="0 0 0 0 0 0 0 0 0 0 0 0 0 0 0 0 0 0 127 0" result="hardAlpha"/>
<feOffset dy="4"/>
<feGaussianBlur stdDeviation="9.7"/>
<feComposite in2="hardAlpha" operator="arithmetic" k2="-1" k3="1"/>
<feColorMatrix type="matrix" values="0 0 0 0 0.596978 0 0 0 0 0.579974 0 0 0 0 0.980769 0 0 0 0.1 0"/>
<feBlend mode="normal" in2="shape" result="effect2_innerShadow_317_2019"/>
<feColorMatrix in="SourceAlpha" type="matrix" values="0 0 0 0 0 0 0 0 0 0 0 0 0 0 0 0 0 0 127 0" result="hardAlpha"/>
<feOffset dy="-5"/>
<feGaussianBlur stdDeviation="5.55"/>
<feComposite in2="hardAlpha" operator="arithmetic" k2="-1" k3="1"/>
<feColorMatrix type="matrix" values="0 0 0 0 0 0 0 0 0 0 0 0 0 0 0 0 0 0 0.02 0"/>
<feBlend mode="normal" in2="effect2_innerShadow_317_2019" result="effect3_innerShadow_317_2019"/>
</filter>
<filter id="filter4_dii_317_2019" x="159.8" y="163.8" width="290.4" height="131.4" filterUnits="userSpaceOnUse" color-interpolation-filters="sRGB">
<feFlood flood-opacity="0" result="BackgroundImageFix"/>
<feColorMatrix in="SourceAlpha" type="matrix" values="0 0 0 0 0 0 0 0 0 0 0 0 0 0 0 0 0 0 127 0" result="hardAlpha"/>
<feOffset dy="17"/>
<feGaussianBlur stdDeviation="30.6"/>
<feComposite in2="hardAlpha" operator="out"/>
<feColorMatrix type="matrix" values="0 0 0 0 0.329412 0 0 0 0 0.301961 0 0 0 0 0.94902 0 0 0 0.12 0"/>
<feBlend mode="normal" in2="BackgroundImageFix" result="effect1_dropShadow_317_2019"/>
<feBlend mode="normal" in="SourceGraphic" in2="effect1_dropShadow_317_2019" result="shape"/>
<feColorMatrix in="SourceAlpha" type="matrix" values="0 0 0 0 0 0 0 0 0 0 0 0 0 0 0 0 0 0 127 0" result="hardAlpha"/>
<feOffset dy="4"/>
<feGaussianBlur stdDeviation="9.7"/>
<feComposite in2="hardAlpha" operator="arithmetic" k2="-1" k3="1"/>
<feColorMatrix type="matrix" values="0 0 0 0 0.596978 0 0 0 0 0.579974 0 0 0 0 0.980769 0 0 0 0.1 0"/>
<feBlend mode="normal" in2="shape" result="effect2_innerShadow_317_2019"/>
<feColorMatrix in="SourceAlpha" type="matrix" values="0 0 0 0 0 0 0 0 0 0 0 0 0 0 0 0 0 0 127 0" result="hardAlpha"/>
<feOffset dy="-5"/>
<feGaussianBlur stdDeviation="5.55"/>
<feComposite in2="hardAlpha" operator="arithmetic" k2="-1" k3="1"/>
<feColorMatrix type="matrix" values="0 0 0 0 0 0 0 0 0 0 0 0 0 0 0 0 0 0 0.02 0"/>
<feBlend mode="normal" in2="effect2_innerShadow_317_2019" result="effect3_innerShadow_317_2019"/>
</filter>
<filter id="filter5_dii_317_2019" x="159.8" y="191.8" width="290.4" height="131.4" filterUnits="userSpaceOnUse" color-interpolation-filters="sRGB">
<feFlood flood-opacity="0" result="BackgroundImageFix"/>
<feColorMatrix in="SourceAlpha" type="matrix" values="0 0 0 0 0 0 0 0 0 0 0 0 0 0 0 0 0 0 127 0" result="hardAlpha"/>
<feOffset dy="17"/>
<feGaussianBlur stdDeviation="30.6"/>
<feComposite in2="hardAlpha" operator="out"/>
<feColorMatrix type="matrix" values="0 0 0 0 0.329412 0 0 0 0 0.301961 0 0 0 0 0.94902 0 0 0 0.12 0"/>
<feBlend mode="normal" in2="BackgroundImageFix" result="effect1_dropShadow_317_2019"/>
<feBlend mode="normal" in="SourceGraphic" in2="effect1_dropShadow_317_2019" result="shape"/>
<feColorMatrix in="SourceAlpha" type="matrix" values="0 0 0 0 0 0 0 0 0 0 0 0 0 0 0 0 0 0 127 0" result="hardAlpha"/>
<feOffset dy="4"/>
<feGaussianBlur stdDeviation="9.7"/>
<feComposite in2="hardAlpha" operator="arithmetic" k2="-1" k3="1"/>
<feColorMatrix type="matrix" values="0 0 0 0 0.596978 0 0 0 0 0.579974 0 0 0 0 0.980769 0 0 0 0.1 0"/>
<feBlend mode="normal" in2="shape" result="effect2_innerShadow_317_2019"/>
<feColorMatrix in="SourceAlpha" type="matrix" values="0 0 0 0 0 0 0 0 0 0 0 0 0 0 0 0 0 0 127 0" result="hardAlpha"/>
<feOffset dy="-5"/>
<feGaussianBlur stdDeviation="5.55"/>
<feComposite in2="hardAlpha" operator="arithmetic" k2="-1" k3="1"/>
<feColorMatrix type="matrix" values="0 0 0 0 0 0 0 0 0 0 0 0 0 0 0 0 0 0 0.02 0"/>
<feBlend mode="normal" in2="effect2_innerShadow_317_2019" result="effect3_innerShadow_317_2019"/>
</filter>
<filter id="filter6_dii_317_2019" x="159.8" y="219.8" width="173.4" height="141.4" filterUnits="userSpaceOnUse" color-interpolation-filters="sRGB">
<feFlood flood-opacity="0" result="BackgroundImageFix"/>
<feColorMatrix in="SourceAlpha" type="matrix" values="0 0 0 0 0 0 0 0 0 0 0 0 0 0 0 0 0 0 127 0" result="hardAlpha"/>
<feOffset dy="17"/>
<feGaussianBlur stdDeviation="30.6"/>
<feComposite in2="hardAlpha" operator="out"/>
<feColorMatrix type="matrix" values="0 0 0 0 0.329412 0 0 0 0 0.301961 0 0 0 0 0.94902 0 0 0 0.12 0"/>
<feBlend mode="normal" in2="BackgroundImageFix" result="effect1_dropShadow_317_2019"/>
<feBlend mode="normal" in="SourceGraphic" in2="effect1_dropShadow_317_2019" result="shape"/>
<feColorMatrix in="SourceAlpha" type="matrix" values="0 0 0 0 0 0 0 0 0 0 0 0 0 0 0 0 0 0 127 0" result="hardAlpha"/>
<feOffset dy="4"/>
<feGaussianBlur stdDeviation="9.7"/>
<feComposite in2="hardAlpha" operator="arithmetic" k2="-1" k3="1"/>
<feColorMatrix type="matrix" values="0 0 0 0 0.596978 0 0 0 0 0.579974 0 0 0 0 0.980769 0 0 0 0.1 0"/>
<feBlend mode="normal" in2="shape" result="effect2_innerShadow_317_2019"/>
<feColorMatrix in="SourceAlpha" type="matrix" values="0 0 0 0 0 0 0 0 0 0 0 0 0 0 0 0 0 0 127 0" result="hardAlpha"/>
<feOffset dy="-5"/>
<feGaussianBlur stdDeviation="5.55"/>
<feComposite in2="hardAlpha" operator="arithmetic" k2="-1" k3="1"/>
<feColorMatrix type="matrix" values="0 0 0 0 0 0 0 0 0 0 0 0 0 0 0 0 0 0 0.02 0"/>
<feBlend mode="normal" in2="effect2_innerShadow_317_2019" result="effect3_innerShadow_317_2019"/>
</filter>
<filter id="filter7_ii_317_2019" x="218" y="115" width="114" height="47" filterUnits="userSpaceOnUse" color-interpolation-filters="sRGB">
<feFlood flood-opacity="0" result="BackgroundImageFix"/>
<feBlend mode="normal" in="SourceGraphic" in2="BackgroundImageFix" result="shape"/>
<feColorMatrix in="SourceAlpha" type="matrix" values="0 0 0 0 0 0 0 0 0 0 0 0 0 0 0 0 0 0 127 0" result="hardAlpha"/>
<feOffset dy="4"/>
<feGaussianBlur stdDeviation="2"/>
<feComposite in2="hardAlpha" operator="arithmetic" k2="-1" k3="1"/>
<feColorMatrix type="matrix" values="0 0 0 0 0.329412 0 0 0 0 0.301961 0 0 0 0 0.94902 0 0 0 0.12 0"/>
<feBlend mode="normal" in2="shape" result="effect1_innerShadow_317_2019"/>
<feColorMatrix in="SourceAlpha" type="matrix" values="0 0 0 0 0 0 0 0 0 0 0 0 0 0 0 0 0 0 127 0" result="hardAlpha"/>
<feOffset dy="-3"/>
<feGaussianBlur stdDeviation="8.3"/>
<feComposite in2="hardAlpha" operator="arithmetic" k2="-1" k3="1"/>
<feColorMatrix type="matrix" values="0 0 0 0 0.742191 0 0 0 0 0.730769 0 0 0 0 1 0 0 0 1 0"/>
<feBlend mode="normal" in2="effect1_innerShadow_317_2019" result="effect2_innerShadow_317_2019"/>
</filter>
<linearGradient id="paint0_linear_317_2019" x1="604.194" y1="5" x2="923.724" y2="359.798" gradientUnits="userSpaceOnUse">
<stop stop-color="#544DF2" stop-opacity="0"/>
<stop offset="1" stop-color="#544DF2" stop-opacity="0.21"/>
</linearGradient>
<linearGradient id="paint1_linear_317_2019" x1="696.806" y1="233" x2="377.276" y2="587.798" gradientUnits="userSpaceOnUse">
<stop stop-color="#544DF2" stop-opacity="0"/>
<stop offset="1" stop-color="#544DF2" stop-opacity="0.21"/>
</linearGradient>
<linearGradient id="paint2_linear_317_2019" x1="657.767" y1="211.056" x2="522.1" y2="230.123" gradientUnits="userSpaceOnUse">
<stop stop-color="#544DF2" stop-opacity="0"/>
<stop offset="1" stop-color="#544DF2"/>
</linearGradient>
<clipPath id="clip0_317_2019">
<path d="M5 25C5 13.9543 13.9543 5 25 5H681C692.046 5 701 13.9543 701 25V486C701 497.046 692.046 506 681 506H25C13.9543 506 5 497.046 5 486V25Z" fill="white"/>
</clipPath>
</defs>
</svg>
