<svg width="50" height="50" viewBox="0 0 50 50" fill="none" xmlns="http://www.w3.org/2000/svg">
<path d="M46.8262 17.7365C46.8262 17.758 46.8262 17.7775 46.8125 17.799L42.3828 38.0861C42.2465 38.8005 41.8652 39.4449 41.3048 39.9084C40.7443 40.3718 40.0398 40.6253 39.3125 40.6252H10.6856C9.95864 40.6249 9.25455 40.3712 8.69451 39.9077C8.13446 39.4443 7.7535 38.8001 7.6172 38.0861L3.18751 17.799C3.18751 17.7775 3.17775 17.758 3.17384 17.7365C3.05261 17.0648 3.15461 16.3719 3.46426 15.7637C3.77391 15.1554 4.27418 14.6653 4.88863 14.3681C5.50308 14.071 6.19792 13.9831 6.86698 14.1181C7.53604 14.253 8.14253 14.6033 8.59376 15.1154L15.1699 22.2033L22.1621 6.52164C22.1624 6.51514 22.1624 6.50862 22.1621 6.50211C22.4122 5.95982 22.8123 5.50052 23.3153 5.17858C23.8182 4.85664 24.4029 4.68555 25 4.68555C25.5972 4.68555 26.1818 4.85664 26.6848 5.17858C27.1877 5.50052 27.5879 5.95982 27.8379 6.50211C27.8376 6.50862 27.8376 6.51514 27.8379 6.52164L34.8301 22.2033L41.4063 15.1154C41.8584 14.6071 42.4641 14.2603 43.1314 14.1275C43.7986 13.9948 44.4909 14.0834 45.1032 14.3799C45.7155 14.6765 46.2143 15.1647 46.5238 15.7705C46.8334 16.3763 46.9368 17.0666 46.8184 17.7365H46.8262Z" fill="#544DF2"/>
</svg>
