<svg width="57" height="57" viewBox="0 0 57 57" fill="none" xmlns="http://www.w3.org/2000/svg">
<path d="M52.5248 20.0284C52.5248 20.0524 52.5248 20.0742 52.5096 20.0982L47.5612 42.7608C47.4088 43.5589 46.9829 44.2787 46.3569 44.7965C45.7308 45.3142 44.9438 45.5974 44.1313 45.5972H12.1523C11.3402 45.5969 10.5537 45.3135 9.92807 44.7958C9.30245 44.2781 8.87688 43.5585 8.72462 42.7608L3.77623 20.0982C3.77623 20.0742 3.76532 20.0524 3.76096 20.0284C3.62553 19.278 3.73947 18.504 4.08538 17.8245C4.43129 17.1451 4.99014 16.5975 5.67654 16.2656C6.36295 15.9336 7.13915 15.8355 7.88655 15.9863C8.63396 16.137 9.31146 16.5283 9.81554 17.1004L17.1618 25.0182L24.9727 7.50031C24.9731 7.49305 24.9731 7.48576 24.9727 7.4785C25.252 6.8727 25.699 6.35962 26.2609 5.99999C26.8227 5.64035 27.4758 5.44922 28.1429 5.44922C28.81 5.44922 29.4631 5.64035 30.0249 5.99999C30.5868 6.35962 31.0338 6.8727 31.3131 7.4785C31.3127 7.48576 31.3127 7.49305 31.3131 7.50031L39.124 25.0182L46.4703 17.1004C46.9754 16.5326 47.652 16.1451 48.3974 15.9968C49.1427 15.8485 49.9161 15.9475 50.6001 16.2788C51.2841 16.61 51.8413 17.1554 52.1871 17.8322C52.5329 18.5089 52.6484 19.28 52.5161 20.0284H52.5248Z" fill="white"/>
</svg>
