<svg width="24" height="24" viewBox="0 0 24 24" fill="none" xmlns="http://www.w3.org/2000/svg">
<path d="M14.5 6C14.453 4.907 14.315 4.21 13.902 3.674C13.7423 3.46591 13.5561 3.27966 13.348 3.12C12.538 2.5 11.363 2.5 9.013 2.5H8.512C5.678 2.5 4.261 2.5 3.38 3.379C2.5 4.257 2.5 5.672 2.5 8.5V15.5C2.5 18.328 2.5 19.743 3.38 20.621C4.26 21.499 5.678 21.5 8.512 21.5H9.012C11.363 21.5 12.538 21.5 13.348 20.88C13.5573 20.7193 13.742 20.5347 13.902 20.326C14.315 19.79 14.453 19.093 14.5 18M20.5 12H8.5M18 15.5C18 15.5 21.5 12.922 21.5 12C21.5 11.078 18 8.5 18 8.5" stroke="#667085" stroke-width="1.5" stroke-linecap="round" stroke-linejoin="round"/>
</svg>
