<svg width="35" height="33" viewBox="0 0 35 33" fill="none" xmlns="http://www.w3.org/2000/svg">
<path fill-rule="evenodd" clip-rule="evenodd" d="M14.5631 2.60277C16.2037 0.936517 18.4291 0.000278805 20.7495 0H25.2493C25.5809 0 25.8988 0.133722 26.1332 0.371749C26.3676 0.609776 26.4993 0.93261 26.4993 1.26923V7.36154C26.4993 7.69816 26.3676 8.02099 26.1332 8.25902C25.8988 8.49705 25.5809 8.63077 25.2493 8.63077H20.7495C20.7167 8.63077 20.6842 8.63734 20.6538 8.65009C20.6235 8.66285 20.596 8.68155 20.5727 8.70512C20.5495 8.72869 20.5311 8.75667 20.5186 8.78747C20.506 8.81827 20.4995 8.85128 20.4995 8.88462V12.1846H25.2493C25.4394 12.1845 25.6269 12.2284 25.7977 12.3129C25.9685 12.3975 26.1181 12.5205 26.2351 12.6725C26.3521 12.8246 26.4334 13.0017 26.4728 13.1905C26.5122 13.3793 26.5088 13.5747 26.4626 13.7618L24.9627 19.8542C24.895 20.1288 24.7388 20.3727 24.519 20.5468C24.2991 20.721 24.0283 20.8155 23.7494 20.8154H20.4995V31.7308C20.4995 32.0674 20.3678 32.3902 20.1334 32.6283C19.899 32.8663 19.5811 33 19.2496 33H13.2498C12.9183 33 12.6004 32.8663 12.3659 32.6283C12.1315 32.3902 11.9998 32.0674 11.9998 31.7308V20.8154H8.74995C8.41845 20.8154 8.10051 20.6817 7.8661 20.4436C7.63169 20.2056 7.5 19.8828 7.5 19.5462V13.4538C7.5 13.2872 7.53233 13.1221 7.59515 12.9681C7.65796 12.8141 7.75003 12.6742 7.8661 12.5564C7.98217 12.4385 8.11997 12.345 8.27162 12.2812C8.42327 12.2174 8.58581 12.1846 8.74995 12.1846H11.9998V8.88462C12.0001 6.52838 12.9221 4.26874 14.5631 2.60277ZM20.7495 2.53846C19.092 2.53846 17.5023 3.20707 16.3303 4.39721C15.1582 5.58734 14.4997 7.20151 14.4997 8.88462V13.4538C14.4997 13.7905 14.3681 14.1133 14.1336 14.3513C13.8992 14.5894 13.5813 14.7231 13.2498 14.7231H9.99991V18.2769H13.2498C13.5813 18.2769 13.8992 18.4106 14.1336 18.6487C14.3681 18.8867 14.4997 19.2095 14.4997 19.5462V30.4615H17.9996V19.5462C17.9996 19.2095 18.1313 18.8867 18.3657 18.6487C18.6001 18.4106 18.9181 18.2769 19.2496 18.2769H22.7728L23.6477 14.7231H19.2496C18.9181 14.7231 18.6001 14.5894 18.3657 14.3513C18.1313 14.1133 17.9996 13.7905 17.9996 13.4538V8.88462C17.9996 8.14405 18.2893 7.43382 18.805 6.91016C19.3207 6.3865 20.0202 6.09231 20.7495 6.09231H23.9994V2.53846H20.7495Z" fill="white"/>
</svg>
