<svg width="44" height="45" viewBox="0 0 44 45" fill="none" xmlns="http://www.w3.org/2000/svg">
<path fill-rule="evenodd" clip-rule="evenodd" d="M36.2087 22.6667C36.2087 22.302 36.0638 21.9523 35.8059 21.6944C35.5481 21.4365 35.1983 21.2917 34.8337 21.2917H9.16699C8.80232 21.2917 8.45258 21.4365 8.19472 21.6944C7.93686 21.9523 7.79199 22.302 7.79199 22.6667C7.79199 23.0313 7.93686 23.3811 8.19472 23.6389C8.45258 23.8968 8.80232 24.0417 9.16699 24.0417H34.8337C35.1983 24.0417 35.5481 23.8968 35.8059 23.6389C36.0638 23.3811 36.2087 23.0313 36.2087 22.6667ZM36.2087 13.5C36.2087 13.1353 36.0638 12.7856 35.8059 12.5277C35.5481 12.2699 35.1983 12.125 34.8337 12.125H9.16699C8.80232 12.125 8.45258 12.2699 8.19472 12.5277C7.93686 12.7856 7.79199 13.1353 7.79199 13.5C7.79199 13.8647 7.93686 14.2144 8.19472 14.4723C8.45258 14.7301 8.80232 14.875 9.16699 14.875H34.8337C35.1983 14.875 35.5481 14.7301 35.8059 14.4723C36.0638 14.2144 36.2087 13.8647 36.2087 13.5ZM36.2087 31.8333C36.2087 31.4687 36.0638 31.1189 35.8059 30.8611C35.5481 30.6032 35.1983 30.4583 34.8337 30.4583H9.16699C8.80232 30.4583 8.45258 30.6032 8.19472 30.8611C7.93686 31.1189 7.79199 31.4687 7.79199 31.8333C7.79199 32.198 7.93686 32.5477 8.19472 32.8056C8.45258 33.0635 8.80232 33.2083 9.16699 33.2083H34.8337C35.1983 33.2083 35.5481 33.0635 35.8059 32.8056C36.0638 32.5477 36.2087 32.198 36.2087 31.8333Z" fill="black"/>
</svg>
