<svg width="39" height="37" viewBox="0 0 39 37" fill="none" xmlns="http://www.w3.org/2000/svg">
<path d="M12.85 3.08301H26.15C31.2167 3.08301 35.3334 7.09134 35.3334 12.0247V24.9747C35.3334 27.3462 34.3658 29.6205 32.6436 31.2974C30.9214 32.9743 28.5856 33.9163 26.15 33.9163H12.85C7.78335 33.9163 3.66669 29.908 3.66669 24.9747V12.0247C3.66669 9.6532 4.63421 7.37885 6.35642 5.70196C8.07863 4.02507 10.4144 3.08301 12.85 3.08301ZM12.5334 6.16634C11.0216 6.16634 9.5718 6.75107 8.50285 7.7919C7.43389 8.83273 6.83335 10.2444 6.83335 11.7163V25.283C6.83335 28.3509 9.38252 30.833 12.5334 30.833H26.4667C27.9784 30.833 29.4282 30.2483 30.4972 29.2075C31.5662 28.1666 32.1667 26.755 32.1667 25.283V11.7163C32.1667 8.64842 29.6175 6.16634 26.4667 6.16634H12.5334ZM27.8125 8.47884C28.3374 8.47884 28.8408 8.68187 29.212 9.04327C29.5832 9.40467 29.7917 9.89483 29.7917 10.4059C29.7917 10.917 29.5832 11.4072 29.212 11.7686C28.8408 12.13 28.3374 12.333 27.8125 12.333C27.2876 12.333 26.7842 12.13 26.413 11.7686C26.0419 11.4072 25.8334 10.917 25.8334 10.4059C25.8334 9.89483 26.0419 9.40467 26.413 9.04327C26.7842 8.68187 27.2876 8.47884 27.8125 8.47884ZM19.5 10.7913C21.5997 10.7913 23.6133 11.6035 25.098 13.0491C26.5826 14.4947 27.4167 16.4553 27.4167 18.4997C27.4167 20.5441 26.5826 22.5047 25.098 23.9503C23.6133 25.3959 21.5997 26.208 19.5 26.208C17.4004 26.208 15.3868 25.3959 13.9021 23.9503C12.4174 22.5047 11.5834 20.5441 11.5834 18.4997C11.5834 16.4553 12.4174 14.4947 13.9021 13.0491C15.3868 11.6035 17.4004 10.7913 19.5 10.7913ZM19.5 13.8747C18.2402 13.8747 17.0321 14.3619 16.1413 15.2293C15.2505 16.0967 14.75 17.273 14.75 18.4997C14.75 19.7263 15.2505 20.9027 16.1413 21.77C17.0321 22.6374 18.2402 23.1247 19.5 23.1247C20.7598 23.1247 21.968 22.6374 22.8588 21.77C23.7496 20.9027 24.25 19.7263 24.25 18.4997C24.25 17.273 23.7496 16.0967 22.8588 15.2293C21.968 14.3619 20.7598 13.8747 19.5 13.8747Z" fill="white"/>
</svg>
