<svg width="106" height="106" viewBox="0 0 106 106" fill="none" xmlns="http://www.w3.org/2000/svg">
<g filter="url(#filter0_di_317_2098)">
<path d="M14 51.75C14 30.349 31.349 13 52.75 13C74.151 13 91.5 30.349 91.5 51.75C91.5 73.151 74.151 90.5 52.75 90.5C31.349 90.5 14 73.151 14 51.75Z" fill="#544DF2"/>
<path d="M46.5 33H36.0833C34.9327 33 34 33.9327 34 35.0833V49.6667C34 50.8173 34.9327 51.75 36.0833 51.75H46.5C47.6506 51.75 48.5833 50.8173 48.5833 49.6667V35.0833C48.5833 33.9327 47.6506 33 46.5 33Z" stroke="white" stroke-width="2" stroke-linecap="round" stroke-linejoin="round"/>
<path d="M69.4167 33H59C57.8494 33 56.9167 33.9327 56.9167 35.0833V41.3333C56.9167 42.4839 57.8494 43.4167 59 43.4167H69.4167C70.5673 43.4167 71.5 42.4839 71.5 41.3333V35.0833C71.5 33.9327 70.5673 33 69.4167 33Z" stroke="white" stroke-width="2" stroke-linecap="round" stroke-linejoin="round"/>
<path d="M69.4167 51.75H59C57.8494 51.75 56.9167 52.6827 56.9167 53.8333V68.4167C56.9167 69.5673 57.8494 70.5 59 70.5H69.4167C70.5673 70.5 71.5 69.5673 71.5 68.4167V53.8333C71.5 52.6827 70.5673 51.75 69.4167 51.75Z" stroke="white" stroke-width="2" stroke-linecap="round" stroke-linejoin="round"/>
<path d="M46.5 60.0833H36.0833C34.9327 60.0833 34 61.0161 34 62.1667V68.4167C34 69.5673 34.9327 70.5 36.0833 70.5H46.5C47.6506 70.5 48.5833 69.5673 48.5833 68.4167V62.1667C48.5833 61.0161 47.6506 60.0833 46.5 60.0833Z" stroke="white" stroke-width="2" stroke-linecap="round" stroke-linejoin="round"/>
</g>
<defs>
<filter id="filter0_di_317_2098" x="0.1" y="0.1" width="105.3" height="105.3" filterUnits="userSpaceOnUse" color-interpolation-filters="sRGB">
<feFlood flood-opacity="0" result="BackgroundImageFix"/>
<feColorMatrix in="SourceAlpha" type="matrix" values="0 0 0 0 0 0 0 0 0 0 0 0 0 0 0 0 0 0 127 0" result="hardAlpha"/>
<feOffset dy="1"/>
<feGaussianBlur stdDeviation="6.95"/>
<feComposite in2="hardAlpha" operator="out"/>
<feColorMatrix type="matrix" values="0 0 0 0 0.341176 0 0 0 0 0.313726 0 0 0 0 0.94902 0 0 0 1 0"/>
<feBlend mode="normal" in2="BackgroundImageFix" result="effect1_dropShadow_317_2098"/>
<feBlend mode="normal" in="SourceGraphic" in2="effect1_dropShadow_317_2098" result="shape"/>
<feColorMatrix in="SourceAlpha" type="matrix" values="0 0 0 0 0 0 0 0 0 0 0 0 0 0 0 0 0 0 127 0" result="hardAlpha"/>
<feOffset dy="4"/>
<feGaussianBlur stdDeviation="5.1"/>
<feComposite in2="hardAlpha" operator="arithmetic" k2="-1" k3="1"/>
<feColorMatrix type="matrix" values="0 0 0 0 0.622494 0 0 0 0 0.605769 0 0 0 0 1 0 0 0 0.22 0"/>
<feBlend mode="normal" in2="shape" result="effect2_innerShadow_317_2098"/>
</filter>
</defs>
</svg>
