<svg width="202" height="50" viewBox="0 0 202 50" fill="none" xmlns="http://www.w3.org/2000/svg">
<g filter="url(#filter0_i_317_2047)">
<rect width="48.6667" height="49.3333" rx="24.3333" fill="#544DF2"/>
<g filter="url(#filter1_i_317_2047)">
<path d="M19.3333 41.3333L17.3333 34.7083C16.9167 34.2639 16.5906 33.75 16.355 33.1667C16.1194 32.5833 16.0011 31.9722 16 31.3333V18C16 17.3333 16.1183 16.7083 16.355 16.125C16.5917 15.5417 16.9178 15.0278 17.3333 14.5833L19.3333 8H29.3333L31.25 14.5417C31.6944 15.0139 32.0417 15.5417 32.2917 16.125C32.5417 16.7083 32.6667 17.3333 32.6667 18V31.3333C32.6667 32 32.5483 32.625 32.3117 33.2083C32.075 33.7917 31.735 34.3194 31.2917 34.7917L29.3333 41.3333H19.3333ZM21 33H27.6667C28.1389 33 28.535 32.84 28.855 32.52C29.175 32.2 29.3344 31.8044 29.3333 31.3333V18C29.3333 17.5278 29.1733 17.1322 28.8533 16.8133C28.5333 16.4944 28.1378 16.3344 27.6667 16.3333H21C20.5278 16.3333 20.1322 16.4933 19.8133 16.8133C19.4944 17.1333 19.3344 17.5289 19.3333 18V31.3333C19.3333 31.8056 19.4933 32.2017 19.8133 32.5217C20.1333 32.8417 20.5289 33.0011 21 33Z" fill="white"/>
</g>
</g>
<path d="M64.0906 35.667V16.755H57.5306V13.267H74.9066V16.755H68.3786V35.667H64.0906ZM77.9684 35.667V13.267H86.3204C88.1337 13.267 89.627 13.5763 90.8004 14.195C91.9737 14.8137 92.8484 15.6457 93.4244 16.691C94.0004 17.715 94.2884 18.8563 94.2884 20.115C94.2884 21.3097 94.011 22.4297 93.4564 23.475C92.9017 24.499 92.027 25.331 90.8324 25.971C89.659 26.5897 88.1444 26.899 86.2884 26.899H82.2884V35.667H77.9684ZM89.5844 35.667L84.9764 25.811H89.6484L94.5124 35.667H89.5844ZM82.2884 23.763H86.0644C87.3657 23.763 88.3257 23.443 88.9444 22.803C89.563 22.163 89.8724 21.3203 89.8724 20.275C89.8724 19.2297 89.563 18.4083 88.9444 17.811C88.347 17.1923 87.387 16.883 86.0644 16.883H82.2884V23.763ZM96.6519 35.667L104.844 13.267H109.74L117.9 35.667H113.324L107.276 18.195L101.196 35.667H96.6519ZM100.268 30.579L101.42 27.219H112.812L113.932 30.579H100.268ZM129.61 36.051C127.37 36.051 125.439 35.571 123.818 34.611C122.218 33.6297 120.981 32.275 120.106 30.547C119.253 28.7977 118.826 26.7817 118.826 24.499C118.826 22.2163 119.253 20.2003 120.106 18.451C120.981 16.7017 122.218 15.3363 123.818 14.355C125.439 13.3737 127.37 12.883 129.61 12.883C132.319 12.883 134.538 13.555 136.266 14.899C137.994 16.243 139.071 18.1417 139.498 20.595H134.794C134.517 19.4003 133.93 18.4723 133.034 17.811C132.159 17.1283 131.007 16.787 129.578 16.787C128.255 16.787 127.114 17.107 126.154 17.747C125.215 18.3657 124.49 19.251 123.978 20.403C123.466 21.5337 123.21 22.899 123.21 24.499C123.21 26.0777 123.466 27.443 123.978 28.595C124.49 29.747 125.215 30.6323 126.154 31.251C127.114 31.8697 128.255 32.179 129.578 32.179C131.007 32.179 132.159 31.8697 133.034 31.251C133.909 30.611 134.485 29.7257 134.762 28.595H139.498C139.071 30.9203 137.994 32.7443 136.266 34.067C134.538 35.3897 132.319 36.051 129.61 36.051ZM143.187 35.667V13.267H147.507V22.131L155.603 13.267H160.915L152.691 22.131L161.171 35.667H155.891L149.587 25.491L147.507 27.731V35.667H143.187ZM170.86 36.051C169.41 36.051 168.076 35.7843 166.86 35.251C165.644 34.7177 164.674 33.907 163.948 32.819C163.223 31.731 162.839 30.355 162.796 28.691H167.02C167.042 29.395 167.202 30.035 167.5 30.611C167.799 31.1657 168.236 31.6137 168.812 31.955C169.388 32.275 170.071 32.435 170.86 32.435C171.607 32.435 172.247 32.2857 172.78 31.987C173.314 31.6883 173.719 31.2937 173.996 30.803C174.274 30.3123 174.412 29.747 174.412 29.107C174.412 28.3603 174.22 27.7417 173.836 27.251C173.474 26.739 172.962 26.355 172.3 26.099C171.66 25.843 170.924 25.715 170.092 25.715H168.428V22.163H170.092C171.138 22.163 172.012 21.9177 172.716 21.427C173.442 20.9363 173.804 20.2003 173.804 19.219C173.804 18.4083 173.538 17.7577 173.004 17.267C172.492 16.7763 171.767 16.531 170.828 16.531C169.804 16.531 169.004 16.8297 168.428 17.427C167.852 18.0243 167.532 18.7603 167.468 19.635H163.244C163.308 18.227 163.66 17.0217 164.3 16.019C164.962 14.995 165.847 14.2163 166.956 13.683C168.066 13.1497 169.356 12.883 170.828 12.883C172.386 12.883 173.698 13.1603 174.764 13.715C175.852 14.2483 176.674 14.9737 177.228 15.891C177.783 16.8083 178.06 17.8003 178.06 18.867C178.06 19.7417 177.89 20.5203 177.548 21.203C177.228 21.8857 176.791 22.451 176.236 22.899C175.682 23.347 175.074 23.667 174.412 23.859C175.244 24.0297 175.97 24.3603 176.588 24.851C177.228 25.3203 177.719 25.9283 178.06 26.675C178.423 27.4217 178.604 28.2857 178.604 29.267C178.604 30.483 178.306 31.6137 177.708 32.659C177.132 33.683 176.258 34.5043 175.084 35.123C173.932 35.7417 172.524 36.051 170.86 36.051ZM182.75 35.667V13.267H191.102C192.915 13.267 194.408 13.5763 195.582 14.195C196.755 14.8137 197.63 15.6457 198.206 16.691C198.782 17.715 199.07 18.8563 199.07 20.115C199.07 21.3097 198.792 22.4297 198.238 23.475C197.683 24.499 196.808 25.331 195.614 25.971C194.44 26.5897 192.926 26.899 191.07 26.899H187.07V35.667H182.75ZM194.366 35.667L189.758 25.811H194.43L199.294 35.667H194.366ZM187.07 23.763H190.846C192.147 23.763 193.107 23.443 193.726 22.803C194.344 22.163 194.654 21.3203 194.654 20.275C194.654 19.2297 194.344 18.4083 193.726 17.811C193.128 17.1923 192.168 16.883 190.846 16.883H187.07V23.763Z" fill="white"/>
<defs>
<filter id="filter0_i_317_2047" x="0" y="0" width="48.6666" height="53.333" filterUnits="userSpaceOnUse" color-interpolation-filters="sRGB">
<feFlood flood-opacity="0" result="BackgroundImageFix"/>
<feBlend mode="normal" in="SourceGraphic" in2="BackgroundImageFix" result="shape"/>
<feColorMatrix in="SourceAlpha" type="matrix" values="0 0 0 0 0 0 0 0 0 0 0 0 0 0 0 0 0 0 127 0" result="hardAlpha"/>
<feOffset dy="4"/>
<feGaussianBlur stdDeviation="8.05"/>
<feComposite in2="hardAlpha" operator="arithmetic" k2="-1" k3="1"/>
<feColorMatrix type="matrix" values="0 0 0 0 0.466346 0 0 0 0 0.45962 0 0 0 0 0.45962 0 0 0 0.05 0"/>
<feBlend mode="normal" in2="shape" result="effect1_innerShadow_317_2047"/>
</filter>
<filter id="filter1_i_317_2047" x="16" y="8" width="16.6666" height="37.333" filterUnits="userSpaceOnUse" color-interpolation-filters="sRGB">
<feFlood flood-opacity="0" result="BackgroundImageFix"/>
<feBlend mode="normal" in="SourceGraphic" in2="BackgroundImageFix" result="shape"/>
<feColorMatrix in="SourceAlpha" type="matrix" values="0 0 0 0 0 0 0 0 0 0 0 0 0 0 0 0 0 0 127 0" result="hardAlpha"/>
<feOffset dy="4"/>
<feGaussianBlur stdDeviation="8.05"/>
<feComposite in2="hardAlpha" operator="arithmetic" k2="-1" k3="1"/>
<feColorMatrix type="matrix" values="0 0 0 0 0.466346 0 0 0 0 0.45962 0 0 0 0 0.45962 0 0 0 0.05 0"/>
<feBlend mode="normal" in2="shape" result="effect1_innerShadow_317_2047"/>
</filter>
</defs>
</svg>
