<svg width="198" height="51" viewBox="0 0 198 51" fill="none" xmlns="http://www.w3.org/2000/svg">
<g filter="url(#filter0_i_239_2063)">
<rect x="0.5" y="0.833374" width="48.6667" height="49.3333" rx="24.3333" fill="#544DF3"/>
<g filter="url(#filter1_i_239_2063)">
<path d="M19.8333 42.1667L17.8333 35.5417C17.4167 35.0973 17.0906 34.5834 16.855 34C16.6194 33.4167 16.5011 32.8056 16.5 32.1667V18.8334C16.5 18.1667 16.6183 17.5417 16.855 16.9584C17.0917 16.375 17.4178 15.8612 17.8333 15.4167L19.8333 8.83337H29.8333L31.75 15.375C32.1944 15.8473 32.5417 16.375 32.7917 16.9584C33.0417 17.5417 33.1667 18.1667 33.1667 18.8334V32.1667C33.1667 32.8334 33.0483 33.4584 32.8117 34.0417C32.575 34.625 32.235 35.1528 31.7917 35.625L29.8333 42.1667H19.8333ZM21.5 33.8334H28.1667C28.6389 33.8334 29.035 33.6734 29.355 33.3534C29.675 33.0334 29.8344 32.6378 29.8333 32.1667V18.8334C29.8333 18.3612 29.6733 17.9656 29.3533 17.6467C29.0333 17.3278 28.6378 17.1678 28.1667 17.1667H21.5C21.0278 17.1667 20.6322 17.3267 20.3133 17.6467C19.9944 17.9667 19.8344 18.3623 19.8333 18.8334V32.1667C19.8333 32.6389 19.9933 33.035 20.3133 33.355C20.6333 33.675 21.0289 33.8345 21.5 33.8334Z" fill="white"/>
</g>
</g>
<path d="M64.2067 36.5V17.588H57.6787V14.1H75.0547V17.588H68.5267V36.5H64.2067ZM77.3649 36.5V14.1H85.7489C87.5409 14.1 89.0236 14.4094 90.1969 15.028C91.3916 15.6467 92.2769 16.4787 92.8529 17.524C93.4289 18.548 93.7169 19.6894 93.7169 20.948C93.7169 22.1427 93.4289 23.2627 92.8529 24.308C92.2983 25.332 91.4236 26.164 90.2289 26.804C89.0556 27.4227 87.5409 27.732 85.6849 27.732H81.6849V36.5H77.3649ZM88.9809 36.5L84.3729 26.644H89.0449L93.9089 36.5H88.9809ZM81.6849 24.596H85.4609C86.7836 24.596 87.7543 24.276 88.3729 23.636C88.9916 22.996 89.3009 22.1534 89.3009 21.108C89.3009 20.0627 88.9916 19.2414 88.3729 18.644C87.7543 18.0254 86.7836 17.716 85.4609 17.716H81.6849V24.596ZM95.2389 36.5L102.887 14.1H108.871L116.487 36.5H111.911L105.895 17.844H105.831L99.7829 36.5H95.2389ZM98.8549 30.74L100.007 27.38H111.399L112.519 30.74H98.8549ZM127.827 36.884C125.587 36.884 123.645 36.404 122.003 35.444C120.381 34.4627 119.133 33.108 118.259 31.38C117.384 29.6307 116.947 27.6147 116.947 25.332C116.947 23.0494 117.384 21.0334 118.259 19.284C119.133 17.5347 120.381 16.1694 122.003 15.188C123.624 14.2067 125.565 13.716 127.827 13.716C130.557 13.716 132.787 14.388 134.515 15.732C136.243 17.076 137.32 18.9747 137.747 21.428H133.011C132.733 20.2334 132.157 19.3054 131.283 18.644C130.408 17.9614 129.245 17.62 127.795 17.62C126.451 17.62 125.288 17.94 124.307 18.58C123.347 19.1987 122.611 20.084 122.099 21.236C121.587 22.388 121.331 23.7534 121.331 25.332C121.331 26.9107 121.587 28.276 122.099 29.428C122.611 30.5587 123.347 31.4334 124.307 32.052C125.288 32.6707 126.451 32.98 127.795 32.98C129.245 32.98 130.408 32.6707 131.283 32.052C132.157 31.4334 132.733 30.5587 133.011 29.428H137.747C137.341 31.7534 136.264 33.5774 134.515 34.9C132.787 36.2227 130.557 36.884 127.827 36.884ZM140.834 36.5V14.1H145.154V22.932L153.25 14.1H158.594L149.666 23.636L158.818 36.5H153.506L146.21 26.324L145.154 27.444V36.5H140.834ZM167.948 36.884C166.498 36.884 165.164 36.6174 163.948 36.084C162.732 35.5507 161.762 34.74 161.036 33.652C160.311 32.564 159.927 31.188 159.884 29.524H164.14C164.162 30.228 164.322 30.868 164.62 31.444C164.919 31.9987 165.346 32.4467 165.9 32.788C166.476 33.108 167.159 33.268 167.948 33.268C168.716 33.268 169.356 33.1187 169.868 32.82C170.402 32.5214 170.807 32.1267 171.084 31.636C171.362 31.1454 171.5 30.58 171.5 29.94C171.5 29.172 171.319 28.5427 170.956 28.052C170.594 27.54 170.082 27.156 169.42 26.9C168.78 26.6227 168.034 26.484 167.18 26.484H165.516V22.932H167.18C168.226 22.932 169.1 22.6974 169.804 22.228C170.508 21.7374 170.86 21.012 170.86 20.052C170.86 19.2414 170.594 18.5907 170.06 18.1C169.548 17.6094 168.844 17.364 167.948 17.364C166.924 17.364 166.124 17.6627 165.548 18.26C164.994 18.8574 164.684 19.5934 164.62 20.468H160.428C160.492 19.06 160.844 17.8547 161.484 16.852C162.124 15.828 162.999 15.0494 164.108 14.516C165.218 13.9827 166.498 13.716 167.948 13.716C169.484 13.716 170.786 13.9934 171.852 14.548C172.919 15.0814 173.73 15.8067 174.284 16.724C174.839 17.62 175.116 18.612 175.116 19.7C175.116 20.5534 174.946 21.3214 174.604 22.004C174.284 22.6654 173.847 23.22 173.292 23.668C172.759 24.116 172.162 24.4467 171.5 24.66C172.332 24.8094 173.068 25.1294 173.708 25.62C174.348 26.1107 174.839 26.74 175.18 27.508C175.543 28.2547 175.724 29.1187 175.724 30.1C175.724 31.316 175.426 32.4467 174.828 33.492C174.231 34.516 173.356 35.3374 172.204 35.956C171.052 36.5747 169.634 36.884 167.948 36.884ZM178.99 36.5V14.1H187.374C189.166 14.1 190.649 14.4094 191.822 15.028C193.017 15.6467 193.902 16.4787 194.478 17.524C195.054 18.548 195.342 19.6894 195.342 20.948C195.342 22.1427 195.054 23.2627 194.478 24.308C193.923 25.332 193.049 26.164 191.854 26.804C190.681 27.4227 189.166 27.732 187.31 27.732H183.31V36.5H178.99ZM190.606 36.5L185.998 26.644H190.67L195.534 36.5H190.606ZM183.31 24.596H187.086C188.409 24.596 189.379 24.276 189.998 23.636C190.617 22.996 190.926 22.1534 190.926 21.108C190.926 20.0627 190.617 19.2414 189.998 18.644C189.379 18.0254 188.409 17.716 187.086 17.716H183.31V24.596Z" fill="black"/>
<defs>
<filter id="filter0_i_239_2063" x="0.5" y="0.833374" width="48.6667" height="53.3333" filterUnits="userSpaceOnUse" color-interpolation-filters="sRGB">
<feFlood flood-opacity="0" result="BackgroundImageFix"/>
<feBlend mode="normal" in="SourceGraphic" in2="BackgroundImageFix" result="shape"/>
<feColorMatrix in="SourceAlpha" type="matrix" values="0 0 0 0 0 0 0 0 0 0 0 0 0 0 0 0 0 0 127 0" result="hardAlpha"/>
<feOffset dy="4"/>
<feGaussianBlur stdDeviation="8.05"/>
<feComposite in2="hardAlpha" operator="arithmetic" k2="-1" k3="1"/>
<feColorMatrix type="matrix" values="0 0 0 0 0.466346 0 0 0 0 0.45962 0 0 0 0 0.45962 0 0 0 0.05 0"/>
<feBlend mode="normal" in2="shape" result="effect1_innerShadow_239_2063"/>
</filter>
<filter id="filter1_i_239_2063" x="16.5" y="8.83337" width="16.6667" height="37.3333" filterUnits="userSpaceOnUse" color-interpolation-filters="sRGB">
<feFlood flood-opacity="0" result="BackgroundImageFix"/>
<feBlend mode="normal" in="SourceGraphic" in2="BackgroundImageFix" result="shape"/>
<feColorMatrix in="SourceAlpha" type="matrix" values="0 0 0 0 0 0 0 0 0 0 0 0 0 0 0 0 0 0 127 0" result="hardAlpha"/>
<feOffset dy="4"/>
<feGaussianBlur stdDeviation="8.05"/>
<feComposite in2="hardAlpha" operator="arithmetic" k2="-1" k3="1"/>
<feColorMatrix type="matrix" values="0 0 0 0 0.466346 0 0 0 0 0.45962 0 0 0 0 0.45962 0 0 0 0.05 0"/>
<feBlend mode="normal" in2="shape" result="effect1_innerShadow_239_2063"/>
</filter>
</defs>
</svg>
