<svg width="31" height="30" viewBox="0 0 31 30" fill="none" xmlns="http://www.w3.org/2000/svg">
<path d="M11.75 6.25C12.413 6.25 13.0489 6.51339 13.5178 6.98223C13.9866 7.45107 14.25 8.08696 14.25 8.75V16.25C14.25 20.1625 12.1875 22.7413 8.30375 23.7125C8.14408 23.7537 7.97783 23.7629 7.81459 23.7396C7.65134 23.7163 7.49432 23.6609 7.35257 23.5766C7.21083 23.4924 7.08716 23.3809 6.98868 23.2486C6.89021 23.1163 6.81888 22.9659 6.77881 22.8059C6.73874 22.646 6.73071 22.4797 6.75519 22.3166C6.77968 22.1535 6.83619 21.9969 6.92146 21.8557C7.00674 21.7146 7.1191 21.5917 7.25208 21.4942C7.38505 21.3967 7.53601 21.3264 7.69625 21.2875C10.48 20.5913 11.75 19.0038 11.75 16.25V15H8C7.36928 15.0002 6.76179 14.762 6.29931 14.3331C5.83684 13.9043 5.55355 13.3164 5.50625 12.6875L5.5 12.5V8.75C5.5 8.08696 5.76339 7.45107 6.23223 6.98223C6.70107 6.51339 7.33696 6.25 8 6.25H11.75ZM23 6.25C23.663 6.25 24.2989 6.51339 24.7678 6.98223C25.2366 7.45107 25.5 8.08696 25.5 8.75V16.25C25.5 20.1625 23.4375 22.7413 19.5538 23.7125C19.3941 23.7537 19.2278 23.7629 19.0646 23.7396C18.9013 23.7163 18.7443 23.6609 18.6026 23.5766C18.4608 23.4924 18.3372 23.3809 18.2387 23.2486C18.1402 23.1163 18.0689 22.9659 18.0288 22.8059C17.9887 22.646 17.9807 22.4797 18.0052 22.3166C18.0297 22.1535 18.0862 21.9969 18.1715 21.8557C18.2567 21.7146 18.3691 21.5917 18.5021 21.4942C18.6351 21.3967 18.786 21.3264 18.9462 21.2875C21.73 20.5913 23 19.0038 23 16.25V15H19.25C18.6193 15.0002 18.0118 14.762 17.5493 14.3331C17.0868 13.9043 16.8036 13.3164 16.7563 12.6875L16.75 12.5V8.75C16.75 8.08696 17.0134 7.45107 17.4822 6.98223C17.9511 6.51339 18.587 6.25 19.25 6.25H23Z" fill="#544DF2"/>
</svg>
