<svg width="121" height="24" viewBox="0 0 121 24" fill="none" xmlns="http://www.w3.org/2000/svg">
<path d="M11.4912 2.88C11.903 2.04 13.0992 2.04 13.511 2.88L15.9102 7.77L21.2877 8.5575C22.2087 8.69175 22.5777 9.822 21.9132 10.4738L18.017 14.2958L18.935 19.683C19.0925 20.6033 18.125 21.303 17.3 20.8665L12.5007 18.3278L7.70148 20.8665C6.87648 21.303 5.90973 20.6033 6.06648 19.683L6.98523 14.2958L3.08823 10.4738C2.42448 9.82125 2.79273 8.69175 3.71373 8.55675L9.09123 7.77075L11.4912 2.88Z" fill="url(#paint0_linear_317_2420)"/>
<path d="M35.4912 2.88C35.903 2.04 37.0992 2.04 37.511 2.88L39.9102 7.77L45.2877 8.5575C46.2087 8.69175 46.5777 9.822 45.9132 10.4738L42.017 14.2958L42.935 19.683C43.0925 20.6033 42.125 21.303 41.3 20.8665L36.5007 18.3278L31.7015 20.8665C30.8765 21.303 29.9097 20.6033 30.0665 19.683L30.9852 14.2958L27.0882 10.4738C26.4245 9.82125 26.7927 8.69175 27.7137 8.55675L33.0912 7.77075L35.4912 2.88Z" fill="url(#paint1_linear_317_2420)"/>
<path d="M59.4912 2.88C59.903 2.04 61.0992 2.04 61.511 2.88L63.9102 7.77L69.2877 8.5575C70.2087 8.69175 70.5777 9.822 69.9132 10.4738L66.017 14.2958L66.935 19.683C67.0925 20.6033 66.125 21.303 65.3 20.8665L60.5007 18.3278L55.7015 20.8665C54.8765 21.303 53.9097 20.6033 54.0665 19.683L54.9852 14.2958L51.0882 10.4738C50.4245 9.82125 50.7927 8.69175 51.7137 8.55675L57.0912 7.77075L59.4912 2.88Z" fill="url(#paint2_linear_317_2420)"/>
<path d="M83.4912 2.88C83.903 2.04 85.0992 2.04 85.511 2.88L87.9102 7.77L93.2877 8.5575C94.2087 8.69175 94.5777 9.822 93.9132 10.4738L90.017 14.2958L90.935 19.683C91.0925 20.6033 90.125 21.303 89.3 20.8665L84.5007 18.3278L79.7015 20.8665C78.8765 21.303 77.9097 20.6033 78.0665 19.683L78.9852 14.2958L75.0882 10.4738C74.4245 9.82125 74.7927 8.69175 75.7137 8.55675L81.0912 7.77075L83.4912 2.88Z" fill="url(#paint3_linear_317_2420)"/>
<path d="M107.491 2.88C107.903 2.04 109.099 2.04 109.511 2.88L111.91 7.77L117.288 8.5575C118.209 8.69175 118.578 9.822 117.913 10.4738L114.017 14.2958L114.935 19.683C115.092 20.6033 114.125 21.303 113.3 20.8665L108.501 18.3278L103.701 20.8665C102.876 21.303 101.91 20.6033 102.066 19.683L102.985 14.2958L99.0882 10.4738C98.4245 9.82125 98.7927 8.69175 99.7137 8.55675L105.091 7.77075L107.491 2.88Z" fill="url(#paint4_linear_317_2420)"/>
<defs>
<linearGradient id="paint0_linear_317_2420" x1="22.2492" y1="21.4178" x2="2.11772" y2="2.505" gradientUnits="userSpaceOnUse">
<stop stop-color="#FF6F47"/>
<stop offset="1" stop-color="#FFCD0F"/>
</linearGradient>
<linearGradient id="paint1_linear_317_2420" x1="46.2492" y1="21.4178" x2="26.1177" y2="2.505" gradientUnits="userSpaceOnUse">
<stop stop-color="#FF6F47"/>
<stop offset="1" stop-color="#FFCD0F"/>
</linearGradient>
<linearGradient id="paint2_linear_317_2420" x1="70.2492" y1="21.4178" x2="50.1177" y2="2.505" gradientUnits="userSpaceOnUse">
<stop stop-color="#FF6F47"/>
<stop offset="1" stop-color="#FFCD0F"/>
</linearGradient>
<linearGradient id="paint3_linear_317_2420" x1="94.2492" y1="21.4178" x2="74.1177" y2="2.505" gradientUnits="userSpaceOnUse">
<stop stop-color="#FF6F47"/>
<stop offset="1" stop-color="#FFCD0F"/>
</linearGradient>
<linearGradient id="paint4_linear_317_2420" x1="118.249" y1="21.4178" x2="98.1177" y2="2.505" gradientUnits="userSpaceOnUse">
<stop stop-color="#FF6F47"/>
<stop offset="1" stop-color="#FFCD0F"/>
</linearGradient>
</defs>
</svg>
