<svg width="44" height="44" viewBox="0 0 44 44" fill="none" xmlns="http://www.w3.org/2000/svg">
<rect x="1" y="1" width="42" height="42" rx="9" fill="#E9E8FF"/>
<rect x="1" y="1" width="42" height="42" rx="9" stroke="#D1CFFF" stroke-width="2"/>
<path d="M17.5 19.75H26.5V21.25H17.5V19.75ZM17.5 23.5H26.5V25H17.5V23.5Z" fill="#544DF2"/>
<path d="M32.5 14.8105L31.4395 13.75L28.927 16.2625C28.5685 15.8297 28.1703 15.4315 27.7375 15.073L30.25 12.5605L29.1895 11.5L26.482 14.2075C24.769 13.218 22.7773 12.8214 20.816 13.0794C18.8546 13.3374 17.0332 14.2355 15.6343 15.6343C14.2355 17.0332 13.3374 18.8546 13.0794 20.816C12.8214 22.7773 13.218 24.769 14.2075 26.482L11.5 29.1895L12.5605 30.25L15.073 27.7375C15.4315 28.1703 15.8297 28.5685 16.2625 28.927L13.75 31.4395L14.8105 32.5L17.518 29.7925C19.231 30.782 21.2227 31.1786 23.184 30.9206C25.1454 30.6626 26.9668 29.7645 28.3657 28.3657C29.7645 26.9668 30.6626 25.1454 30.9206 23.184C31.1786 21.2227 30.782 19.231 29.7925 17.518L32.5 14.8105ZM22 29.5C20.5166 29.5 19.0666 29.0601 17.8332 28.236C16.5999 27.4119 15.6386 26.2406 15.0709 24.8701C14.5032 23.4997 14.3547 21.9917 14.6441 20.5368C14.9335 19.082 15.6478 17.7456 16.6967 16.6967C17.7456 15.6478 19.082 14.9335 20.5368 14.6441C21.9917 14.3547 23.4997 14.5032 24.8701 15.0709C26.2406 15.6386 27.4119 16.5999 28.236 17.8332C29.0601 19.0666 29.5 20.5166 29.5 22C29.498 23.9885 28.7072 25.895 27.3011 27.3011C25.895 28.7072 23.9885 29.498 22 29.5Z" fill="#544DF2"/>
</svg>
