<svg width="33" height="33" viewBox="0 0 33 33" fill="none" xmlns="http://www.w3.org/2000/svg">
<path d="M24.0539 15.4688C24.1055 15.5461 24.2344 15.4945 24.2344 15.4172C24.3891 14.025 24.8016 10.1836 27.5344 9.35859C28.411 9.10078 29.2875 9.71953 29.3906 10.5187C29.5711 11.8078 28.1016 15.1336 28.2305 18.1758C28.2563 18.6656 29.0813 23.8477 26.8899 26.9156C24.6985 29.9836 19.4906 33.1031 14.3086 28.3594C11.6274 25.9102 11.6274 24.9305 8.30158 21.5016C7.63127 20.8312 4.95002 17.8922 4.22814 16.9898C3.27424 15.7781 4.79533 14.1797 5.95549 15.0047C6.49689 15.3914 11.2922 19.4133 11.4727 19.5938C11.8336 19.9031 12.2719 19.4648 12.0141 19.1555C9.07502 15.2883 6.23908 11.8078 5.46564 10.4672C4.6922 9.12656 6.54845 7.68281 7.63127 8.84297C8.37892 9.61641 13.9219 16.0875 14.1797 16.3711C14.4375 16.6547 14.8758 16.2937 14.7211 15.9328C14.5406 15.5977 10.0547 7.78594 9.25549 6.00703C8.55939 4.43438 10.8797 2.96484 11.9625 4.58906C12.8391 5.87812 17.7375 14.025 17.918 14.3086C18.15 14.7211 18.6656 14.4633 18.4594 13.9992C18.3047 13.6641 15.2883 5.41406 15.0563 4.56328C14.6438 3.06797 16.7836 1.83047 17.7891 3.53203C19.1555 5.87813 21.8625 13.0453 24.0539 15.4688Z" fill="#FFCA28"/>
<mask id="mask0_239_3041" style="mask-type:luminance" maskUnits="userSpaceOnUse" x="3" y="2" width="27" height="29">
<path d="M24.0539 15.4688C24.1055 15.5461 24.2344 15.4945 24.2344 15.4172C24.3891 14.025 24.8016 10.1836 27.5344 9.35859C28.411 9.10078 29.2875 9.71953 29.3906 10.5187C29.5711 11.8078 28.1016 15.1336 28.2305 18.1758C28.2563 18.6656 29.0813 23.8477 26.8899 26.9156C24.6985 29.9836 19.4906 33.1031 14.3086 28.3594C11.6274 25.9102 11.6274 24.9305 8.30158 21.5016C7.63127 20.8312 4.95002 17.8922 4.22814 16.9898C3.27424 15.7781 4.79533 14.1797 5.95549 15.0047C6.49689 15.3914 11.2922 19.4133 11.4727 19.5938C11.8336 19.9031 12.2719 19.4648 12.0141 19.1555C9.07502 15.2883 6.23908 11.8078 5.46564 10.4672C4.6922 9.12656 6.54845 7.68281 7.63127 8.84297C8.37892 9.61641 13.9219 16.0875 14.1797 16.3711C14.4375 16.6547 14.8758 16.2937 14.7211 15.9328C14.5406 15.5977 10.0547 7.78594 9.25549 6.00703C8.55939 4.43438 10.8797 2.96484 11.9625 4.58906C12.8391 5.87812 17.7375 14.025 17.918 14.3086C18.15 14.7211 18.6656 14.4633 18.4594 13.9992C18.3047 13.6641 15.2883 5.41406 15.0563 4.56328C14.6438 3.06797 16.7836 1.83047 17.7891 3.53203C19.1555 5.87813 21.8625 13.0453 24.0539 15.4688Z" fill="white"/>
</mask>
<g mask="url(#mask0_239_3041)">
<path d="M23.5126 15.5203C20.3157 18.1242 18.8978 21.8367 21.5274 25.7039C21.7595 26.0391 22.2493 25.7297 22.0431 25.343C20.9603 23.4094 20.161 19.9289 23.8993 16.2937C24.3376 16.5 24.8532 16.0617 24.879 15.675C25.1626 13.2516 25.4462 11.2406 27.2509 10.1062C27.947 9.66797 28.8493 9.97734 28.9009 11.0344C28.9009 11.0344 29.4681 11.0859 29.7001 11.1117C29.829 10.5703 30.0868 9.59062 30.0868 9.56484C30.0868 9.53906 27.0446 8.40469 27.0446 8.40469L24.3892 11.0344L23.5126 15.5203ZM18.3563 14.4633C18.7173 14.2828 19.0267 13.9992 18.872 13.6125C18.7173 13.2 15.8556 5.41406 15.6751 4.82109C15.3142 3.73828 16.2165 2.8875 17.0157 3.24844C17.454 3.45469 17.6603 2.75859 17.4282 2.65547C17.1962 2.55234 16.6548 2.0625 15.572 2.60391C13.6384 3.58359 14.7728 5.74922 15.2884 7.0125C15.804 8.27578 18.3563 14.4633 18.3563 14.4633ZM14.6181 16.3969C15.0563 16.0875 15.3915 15.8297 15.0048 15.2109C14.747 14.7984 10.3899 6.88359 9.95166 6.11016C9.30713 5.00156 10.6478 4.02187 11.3954 4.71797C11.7306 5.02734 12.2462 4.35703 11.9884 4.09922C11.7306 3.84141 10.8282 3.09375 9.69385 3.84141C8.55947 4.58906 8.53369 5.4914 8.68838 5.87812C8.81729 6.26484 14.6181 16.3969 14.6181 16.3969ZM12.0399 19.568C12.3493 19.1039 12.5556 18.8719 12.1173 18.2789C11.679 17.6859 6.47119 10.8797 6.1876 10.493C5.46572 9.53906 6.52275 8.71406 7.03838 8.99766C7.52822 9.28125 7.81182 8.48203 7.39932 8.27578C6.98682 8.06953 6.3165 7.8375 5.69775 8.27578C5.079 8.71406 4.71807 9.61641 4.82119 10.132C4.89854 10.6477 12.0399 19.568 12.0399 19.568Z" fill="#FAA700"/>
<path d="M23.925 29.2875C19.7484 31.2727 16.6289 29.7258 14.618 27.7664C12.3234 25.5234 11.2406 23.4609 9.71951 22.0688C9.20389 21.5789 5.13045 17.2477 4.64061 16.5C4.25389 15.8813 5.02732 14.8242 5.87811 15.4172C6.41951 15.7781 6.67732 15.0047 6.31639 14.7984C5.95545 14.5922 5.15623 14.1539 4.30545 14.7984C3.45467 15.4172 3.42889 16.5258 3.63514 16.8867C3.84139 17.2477 16.3711 31.6336 16.3711 31.6336L21.4758 31.5047L24.2086 29.8289L23.925 29.2875Z" fill="#FAA700"/>
</g>
<mask id="mask1_239_3041" style="mask-type:luminance" maskUnits="userSpaceOnUse" x="3" y="2" width="27" height="29">
<path d="M24.0539 15.4688C24.1055 15.5461 24.2344 15.4945 24.2344 15.4172C24.3891 14.025 24.8016 10.1836 27.5344 9.35859C28.411 9.10078 29.2875 9.71953 29.3906 10.5187C29.5711 11.8078 28.1016 15.1336 28.2305 18.1758C28.2563 18.6656 29.0813 23.8477 26.8899 26.9156C24.6985 29.9836 19.4906 33.1031 14.3086 28.3594C11.6274 25.9102 11.6274 24.9305 8.30158 21.5016C7.63127 20.8312 4.95002 17.8922 4.22814 16.9898C3.27424 15.7781 4.79533 14.1797 5.95549 15.0047C6.49689 15.3914 11.2922 19.4133 11.4727 19.5938C11.8336 19.9031 12.2719 19.4648 12.0141 19.1555C9.07502 15.2883 6.23908 11.8078 5.46564 10.4672C4.6922 9.12656 6.54845 7.68281 7.63127 8.84297C8.37892 9.61641 13.9219 16.0875 14.1797 16.3711C14.4375 16.6547 14.8758 16.2937 14.7211 15.9328C14.5406 15.5977 10.0547 7.78594 9.25549 6.00703C8.55939 4.43438 10.8797 2.96484 11.9625 4.58906C12.8391 5.87812 17.7375 14.025 17.918 14.3086C18.15 14.7211 18.6656 14.4633 18.4594 13.9992C18.3047 13.6641 15.2883 5.41406 15.0563 4.56328C14.6438 3.06797 16.7836 1.83047 17.7891 3.53203C19.1555 5.87813 21.8625 13.0453 24.0539 15.4688Z" fill="white"/>
</mask>
<g mask="url(#mask1_239_3041)">
<path d="M28.7461 9.28125C28.875 9.6164 29.0297 10.2094 28.875 11.0086C28.282 13.9992 27.3023 15.7523 27.6117 18.975C28.1789 25.1625 26.0133 29.8547 18.5625 30.7828C17.8148 30.8859 18.0211 31.4531 18.4078 31.4016C18.5883 31.3758 23.8992 30.4219 23.8992 30.4219C23.8992 30.4219 28.8234 26.2195 28.8234 26.168C28.8234 26.1164 30.0609 10.0805 30.0609 10.0805L28.7461 9.28125ZM15.8555 2.70703C16.1906 2.75859 16.9125 3.04218 17.4281 4.04765C17.9438 5.05312 20.4703 10.8539 20.8055 11.4727C21.1406 12.0914 22.507 15.1594 23.6156 16.0875C23.9766 16.3711 24.157 15.8812 24.157 15.8812L24.1828 15.082L18.2016 1.46953L16.2164 1.54687L15.8555 2.70703ZM18.3563 14.4633C17.8664 14.6953 17.5055 14.9016 17.1445 14.3344C16.9125 13.9219 14.4117 9.64218 11.2664 4.64062C11.0086 4.2539 10.4156 3.91875 9.95156 4.09922C9.4875 4.30547 9.38438 3.7125 9.61641 3.58359C9.84844 3.45468 11.2922 2.65547 12.2719 4.30547C13.2516 5.95547 18.3563 14.4633 18.3563 14.4633ZM14.618 16.3969C14.2313 16.6805 13.8445 17.0414 13.3547 16.4484C12.8906 15.8812 7.60547 9.59062 7.2961 9.2039C6.98672 8.81718 6.34219 8.48203 5.85235 8.7914C5.51719 8.99765 5.20781 8.3789 5.41406 8.22422C5.62031 8.06953 6.78047 7.03828 7.55391 7.91484C8.32735 8.7914 14.618 16.3969 14.618 16.3969ZM12.0398 19.568C11.7047 19.9289 11.3438 20.1352 10.8539 19.7742C10.3641 19.4133 5.98125 15.7266 5.69766 15.4687C5.41406 15.2109 4.58906 14.8242 3.97031 15.443C3.73828 15.675 3.32578 15.2883 3.55781 15.0562C3.78985 14.7984 5.05313 13.5094 6.0586 14.3602C7.06406 15.2109 12.0398 19.568 12.0398 19.568Z" fill="#B55E19"/>
</g>
<path d="M2.73289 20.9602C3.5321 23.332 4.74382 24.8016 6.72898 26.1422C7.08992 26.4 6.88367 26.9156 6.47117 26.7352C4.61492 25.9875 2.55242 24.3375 2.06257 21.0633C1.98523 20.625 2.60398 20.5477 2.73289 20.9602ZM4.27976 19.5422C5.07898 21.9141 6.2907 23.3836 8.27585 24.7242C8.63679 24.982 8.43054 25.4977 8.01804 25.3172C6.16179 24.5695 4.09929 22.9195 3.60945 19.6453C3.55789 19.207 4.15085 19.1297 4.27976 19.5422ZM24.1055 8.92031C23.4868 6.49688 22.3524 4.95 20.4704 3.50625C20.1094 3.24844 20.3673 2.73281 20.7798 2.91328C22.5844 3.76406 24.5438 5.56875 24.8016 8.86875C24.8274 9.30703 24.2087 9.3586 24.1055 8.92031ZM25.7813 7.68281C25.1626 5.25938 24.0282 3.7125 22.1462 2.26875C21.7852 2.01094 22.043 1.49531 22.4555 1.67578C24.2602 2.52656 26.2196 4.33125 26.4774 7.63125C26.5032 8.04375 25.9102 8.09531 25.7813 7.68281Z" fill="#B0BEC5"/>
</svg>
