<svg width="24" height="24" viewBox="0 0 24 24" fill="none" xmlns="http://www.w3.org/2000/svg">
<path d="M20.725 6.166C20.3916 6.16794 20.0622 6.23876 19.7574 6.37402C19.4526 6.50927 19.1791 6.70605 18.954 6.952C18.738 5.929 18.095 5.628 17.361 5.287C16.896 5.071 16.702 4.591 16.639 4.244C16.615 4.111 16.506 4.004 16.371 4.004C16.237 4.004 16.109 4.059 16.045 4.177C15.905 4.427 15.691 4.977 15.672 5.987C15.643 7.49 16.882 8.649 17.506 9.04C17.442 9.41 17.216 9.982 17.111 10.222C16.4007 9.9606 15.7607 9.53823 15.241 8.988C14.283 7.945 13.503 7.207 12.485 6.485C11.467 5.763 12.148 4.902 12.575 4.697C13.002 4.492 12.678 4.282 11.613 4.318C10.76 4.347 9.546 4.848 9.046 5.095C8.536 4.933 7.474 4.901 7.008 4.905C2.425 4.905 1 8.98 1 11C1 17.086 5.873 20 9.373 20C13.331 20 14.718 18.386 14.718 18.386C14.882 18.487 15.478 18.702 16.556 18.748C17.905 18.805 18.407 18.424 18.446 18.131C18.485 17.838 18.267 17.731 18.076 17.641C17.886 17.552 17.586 17.381 17.021 17.196C16.568 17.049 16.364 16.888 16.319 16.826C19.049 14.354 19.549 10.891 19.472 9.419C21.584 9.337 22.415 7.931 22.689 7.219C22.969 6.493 23.143 5.503 22.853 5.279C22.621 5.099 22.427 5.315 22.359 5.446C21.987 5.842 21.715 6.165 20.724 6.165" stroke="black" stroke-width="1.5" stroke-linecap="round" stroke-linejoin="round"/>
<path d="M12.0001 10.568C12.0001 10.568 12.8761 10.298 13.6451 10.823C14.6861 11.533 15.0001 12.499 15.0001 12.499M13.5001 16.499C13.5001 16.499 12.4591 15.992 10.8961 13.96C9.01806 11.52 7.24906 8.886 3.52906 9.747C3.52906 9.747 3.50006 14.997 8.50006 16.499" stroke="black" stroke-width="1.5" stroke-linecap="round" stroke-linejoin="round"/>
</svg>
