<svg width="25" height="25" viewBox="0 0 25 25" fill="none" xmlns="http://www.w3.org/2000/svg">
<path fill-rule="evenodd" clip-rule="evenodd" d="M18.7501 10H14.9314L17.3989 4.24253C17.4804 4.05241 17.5134 3.84504 17.495 3.63901C17.4767 3.43297 17.4075 3.23472 17.2936 3.06202C17.1797 2.88932 17.0248 2.74758 16.8427 2.64949C16.6606 2.55141 16.457 2.50005 16.2501 2.50003H10.0001C9.75531 2.49981 9.51584 2.57148 9.3114 2.70614C9.10696 2.8408 8.94657 3.03253 8.85012 3.25753L5.10012 12.0075C5.01858 12.1977 4.98554 12.4052 5.00397 12.6114C5.02241 12.8175 5.09173 13.0158 5.20573 13.1886C5.31973 13.3613 5.47483 13.503 5.65711 13.601C5.8394 13.699 6.04316 13.7502 6.25012 13.75H8.41762L5.09012 22.0338C4.59012 23.2775 6.13387 24.3288 7.10762 23.4088L13.3876 17.4813L19.5626 12.2C20.4451 11.445 19.9126 10 18.7501 10ZM11.8876 10.7575C11.8062 10.9476 11.7731 11.1548 11.7914 11.3607C11.8097 11.5667 11.8788 11.7649 11.9925 11.9375C12.1062 12.1102 12.261 12.252 12.443 12.3501C12.6249 12.4483 12.8284 12.4998 13.0351 12.5H15.3651L11.7151 15.6225L9.53012 17.685L11.4264 12.9663C11.5026 12.7767 11.5312 12.5712 11.5096 12.368C11.488 12.1648 11.4169 11.97 11.3026 11.8006C11.1882 11.6312 11.0341 11.4924 10.8536 11.3965C10.6732 11.3005 10.472 11.2502 10.2676 11.25H8.14637L10.8239 5.00003H14.3539L11.8876 10.7575Z" fill="black"/>
</svg>
