<svg width="27" height="28" viewBox="0 0 27 28" fill="none" xmlns="http://www.w3.org/2000/svg">
<g clip-path="url(#clip0_239_3475)">
<path d="M1.6972 1.20546L17.3064 0.0635155C19.2237 -0.0994695 19.7163 0.0104409 20.9218 0.878545L25.9045 4.35577C26.7264 4.95369 27 5.11678 27 5.76789V24.8379C27 26.033 26.5618 26.7399 25.0282 26.848L6.90188 27.935C5.75089 27.989 5.20277 27.826 4.60002 27.065L0.930867 22.3388C0.272742 21.4688 0 20.8176 0 20.0566V3.10569C0 2.12862 0.438223 1.31359 1.6972 1.20546Z" fill="white"/>
<path d="M17.3064 0.0635155L1.6972 1.20546C0.438223 1.31359 0 2.12862 0 3.10569V20.0567C0 20.8177 0.272637 21.4688 0.930867 22.3388L4.60002 27.065C5.20277 27.826 5.75089 27.989 6.90188 27.935L25.0282 26.848C26.5608 26.7399 27 26.033 27 24.8379V5.76789C27 5.15032 26.7536 4.9724 26.0286 4.4452L25.9037 4.35577L20.9218 0.878545C19.7163 0.0104409 19.2238 -0.0994695 17.3064 0.0635155ZM7.31183 5.45581C5.83179 5.55455 5.49608 5.5769 4.6555 4.89968L2.51817 3.21561C2.30091 2.99766 2.40996 2.72561 2.95724 2.67159L17.9627 1.58555C19.2227 1.47658 19.8791 1.91152 20.3718 2.2916L22.9454 4.13877C23.0554 4.19362 23.3291 4.51875 22.9999 4.51875L7.50368 5.44275L7.31183 5.45581ZM5.58636 24.6749V8.48587C5.58636 7.77887 5.80542 7.4529 6.46175 7.39795L24.2599 6.36581C24.8636 6.3118 25.1364 6.69178 25.1364 7.39795V23.4788C25.1364 24.1858 25.0263 24.7838 24.0409 24.8379L7.00903 25.8159C6.02364 25.8699 5.58636 25.5449 5.58636 24.6749ZM22.3991 9.35387C22.5082 9.84293 22.3991 10.332 21.9054 10.3879L21.0846 10.549V22.5016C20.3718 22.8816 19.7155 23.0987 19.1672 23.0987C18.2909 23.0987 18.0718 22.8267 17.4154 22.0126L12.0473 13.6461V21.7406L13.7453 22.1216C13.7453 22.1216 13.7453 23.0997 12.3754 23.0997L8.59813 23.3167C8.48812 23.0987 8.59813 22.5557 8.98098 22.4476L9.96722 22.1765V11.474L8.59823 11.3641C8.48812 10.8752 8.76171 10.169 9.5291 10.1141L13.5818 9.84398L19.1673 18.3185V10.8212L17.7436 10.659C17.6336 10.06 18.0718 9.6251 18.619 9.57202L22.3991 9.35387Z" fill="black"/>
</g>
<defs>
<clipPath id="clip0_239_3475">
<rect width="27" height="28" fill="white"/>
</clipPath>
</defs>
</svg>
